<svg width="65" height="65" viewBox="0 0 65 65" fill="none" xmlns="http://www.w3.org/2000/svg">
<circle cx="32.5" cy="32.5" r="32" stroke="#0A0A0A" stroke-opacity="0.15"/>
<g clip-path="url(#clip0_213_5113)">
<path d="M31.5326 21.8808C31.6978 22.0456 31.9215 22.1381 32.1549 22.1381C32.3882 22.1381 32.612 22.0456 32.7771 21.8808L35.4778 19.1801C35.5268 19.1311 35.5657 19.0729 35.5922 19.0089C35.6187 18.9449 35.6323 18.8763 35.6323 18.8071C35.6323 18.7378 35.6187 18.6692 35.5922 18.6052C35.5657 18.5412 35.5268 18.483 35.4778 18.4341C35.4288 18.3851 35.3707 18.3462 35.3067 18.3197C35.2427 18.2932 35.1741 18.2796 35.1048 18.2796C35.0355 18.2796 34.9669 18.2932 34.9029 18.3197C34.8389 18.3462 34.7808 18.3851 34.7318 18.4341L32.1563 21.011L31.2682 20.1244C31.1693 20.0254 31.0351 19.9699 30.8952 19.9699C30.7553 19.9699 30.6211 20.0254 30.5222 20.1244C30.4233 20.2233 30.3677 20.3575 30.3677 20.4974C30.3677 20.6373 30.4233 20.7715 30.5222 20.8704L31.5326 21.8808ZM33 25.5638C34.0447 25.5638 35.0659 25.254 35.9345 24.6736C36.8031 24.0932 37.4801 23.2683 37.8798 22.3032C38.2796 21.338 38.3842 20.276 38.1804 19.2514C37.9766 18.2269 37.4735 17.2857 36.7349 16.547C35.9962 15.8083 35.055 15.3053 34.0305 15.1015C33.0059 14.8977 31.9439 15.0023 30.9787 15.4021C30.0136 15.8018 29.1887 16.4788 28.6083 17.3474C28.0279 18.216 27.7181 19.2372 27.7181 20.2819C27.7198 21.6822 28.2768 23.0247 29.267 24.0149C30.2572 25.0051 31.5997 25.5621 33 25.5638ZM33 16.0547C33.8361 16.0547 34.6534 16.3026 35.3485 16.7671C36.0437 17.2316 36.5855 17.8918 36.9054 18.6642C37.2254 19.4366 37.3091 20.2866 37.146 21.1066C36.9829 21.9266 36.5803 22.6798 35.9891 23.271C35.3979 23.8621 34.6447 24.2647 33.8247 24.4278C33.0047 24.5909 32.1548 24.5072 31.3823 24.1873C30.6099 23.8673 29.9497 23.3255 29.4852 22.6304C29.0207 21.9352 28.7728 21.1179 28.7728 20.2819C28.7741 19.1612 29.2199 18.0867 30.0124 17.2942C30.8048 16.5018 31.8793 16.056 33 16.0547ZM50.1028 31.7084L44.6452 37.0845C44.5198 37.2109 44.3706 37.3111 44.2062 37.3794C44.0418 37.4478 43.8655 37.4828 43.6875 37.4824C43.5091 37.4829 43.3323 37.448 43.1674 37.3797C43.0025 37.3113 42.8529 37.211 42.727 37.0845L37.3495 31.707C37.2042 31.5622 37.0938 31.3862 37.0268 31.1923C37.0247 31.1845 37.0219 31.177 37.0184 31.1698C36.9392 30.9315 36.9281 30.6759 36.9864 30.4316C37.0447 30.1874 37.1699 29.9643 37.3481 29.7874L50.8481 16.428C50.948 16.329 51.0044 16.1944 51.005 16.0538C51.0056 15.9131 50.9503 15.778 50.8513 15.6782C50.7523 15.5783 50.6176 15.5219 50.477 15.5213C50.3364 15.5207 50.2013 15.576 50.1014 15.675L36.6014 29.0393C36.3676 29.2749 36.1846 29.5559 36.0636 29.865C35.9427 30.1741 35.8864 30.5048 35.8983 30.8365H35.3267C34.8488 30.8369 34.3765 30.938 33.9403 31.1331C33.5042 31.3283 33.1141 31.6132 32.7954 31.9692L32.7328 32.0395C31.8895 31.6243 30.9697 31.3871 30.0307 31.3427C30.1342 30.937 30.1303 30.5113 30.0193 30.1075C29.9084 29.7038 29.6942 29.3359 29.3979 29.04L15.8993 15.5948C15.7992 15.5019 15.6668 15.4514 15.5302 15.4541C15.3936 15.4567 15.2634 15.5123 15.1669 15.6091C15.0705 15.7059 15.0154 15.8364 15.0132 15.973C15.0111 16.1096 15.0621 16.2418 15.1554 16.3416L28.6554 29.7853C28.9096 30.0405 29.0524 30.386 29.0524 30.7461C29.0524 31.1063 28.9096 31.4518 28.6554 31.707L23.2779 37.0845C23.0228 37.3385 22.6774 37.4811 22.3174 37.4811C21.9574 37.4811 21.6121 37.3385 21.357 37.0845L15.9007 31.6099C15.8009 31.5166 15.6688 31.4656 15.5322 31.4678C15.3955 31.4699 15.2651 31.525 15.1683 31.6214C15.0715 31.7179 15.0159 31.8481 15.0132 31.9848C15.0106 32.1214 15.061 32.2537 15.154 32.3538L20.6081 37.8305C20.8324 38.0541 21.0985 38.2313 21.3913 38.352C21.6842 38.4727 21.9979 38.5344 22.3146 38.5336C22.5152 38.533 22.715 38.508 22.9095 38.4591C22.9233 38.7443 22.9548 39.0285 23.0037 39.3098C22.7935 39.412 22.6019 39.5486 22.437 39.7141L21.4027 40.7505C21.1081 41.0439 20.9073 41.4181 20.8257 41.8257C20.7441 42.2333 20.7854 42.6559 20.9443 43.04C21.1033 43.4241 21.3727 43.7524 21.7184 43.9832C22.0641 44.214 22.4706 44.337 22.8863 44.3365C22.9292 44.3365 22.9713 44.3365 23.0142 44.3323C23.0142 44.3745 23.01 44.4166 23.01 44.4595C23.0099 44.7351 23.0641 45.008 23.1695 45.2627C23.2749 45.5173 23.4295 45.7487 23.6243 45.9436C23.8191 46.1385 24.0505 46.2931 24.3051 46.3986C24.5597 46.5041 24.8325 46.5584 25.1081 46.5584C25.1517 46.5584 25.1946 46.5584 25.2375 46.5541C25.2197 46.8399 25.2607 47.1263 25.3579 47.3957C25.455 47.6651 25.6063 47.9117 25.8025 48.1203C25.9986 48.3289 26.2354 48.4952 26.4982 48.6088C26.761 48.7224 27.0444 48.781 27.3307 48.7809C27.3736 48.7809 27.4165 48.7809 27.4594 48.776C27.4333 49.2011 27.5372 49.6241 27.7573 49.9887C27.9774 50.3533 28.3032 50.6423 28.6915 50.8172C29.0798 50.9922 29.5121 51.0449 29.9311 50.9683C30.35 50.8917 30.7357 50.6894 31.0369 50.3883L31.6781 49.747L32.3194 50.3883C32.613 50.6816 32.9869 50.8814 33.394 50.9623C33.801 51.0432 34.2229 51.0015 34.6064 50.8427C34.9898 50.6838 35.3175 50.4148 35.5481 50.0698C35.7786 49.7247 35.9017 49.319 35.9018 48.904C35.9018 48.8611 35.9018 48.8182 35.8976 48.7753C35.9398 48.7753 35.9827 48.7795 36.0249 48.7795C36.3004 48.7798 36.5734 48.7258 36.828 48.6205C37.0827 48.5152 37.3141 48.3607 37.5091 48.1659C37.704 47.9711 37.8586 47.7398 37.9641 47.4852C38.0695 47.2306 38.1238 46.9577 38.1237 46.6821C38.1237 46.6385 38.1223 46.5956 38.1195 46.5534C38.1624 46.5534 38.2045 46.5577 38.2474 46.5577C38.5231 46.5579 38.7961 46.5039 39.0508 46.3985C39.3055 46.2932 39.537 46.1387 39.7319 45.9438C39.9268 45.7489 40.0814 45.5175 40.1869 45.2628C40.2923 45.0081 40.3464 44.7352 40.3463 44.4595C40.3463 44.4166 40.3463 44.3738 40.342 44.3309C40.3842 44.3309 40.4271 44.3351 40.4693 44.3351C40.8843 44.3352 41.2901 44.2123 41.6352 43.9818C41.9804 43.7513 42.2494 43.4236 42.4083 43.0402C42.5672 42.6568 42.6088 42.2349 42.5278 41.8278C42.4469 41.4207 42.2471 41.0468 41.9536 40.7534L41.427 40.2267C42.0639 39.7337 42.61 39.1334 43.0406 38.4527C43.2507 38.5105 43.4675 38.5398 43.6854 38.5399C44.0015 38.5411 44.3148 38.4796 44.607 38.3589C44.8992 38.2382 45.1645 38.0607 45.3877 37.8368L50.8418 32.4635C50.9358 32.3643 50.9877 32.2324 50.9863 32.0957C50.985 31.959 50.9306 31.8281 50.8347 31.7307C50.7388 31.6333 50.6088 31.577 50.4721 31.5736C50.3354 31.5702 50.2028 31.6201 50.1021 31.7126L50.1028 31.7084ZM22.8863 43.279C22.6798 43.279 22.4779 43.2177 22.3062 43.103C22.1345 42.9883 22.0007 42.8252 21.9217 42.6344C21.8427 42.4436 21.822 42.2337 21.8623 42.0312C21.9025 41.8286 22.002 41.6426 22.148 41.4966L23.183 40.4616C23.2796 40.363 23.3948 40.2846 23.5218 40.2308C23.6489 40.177 23.7854 40.149 23.9234 40.1483C24.0615 40.1476 24.1982 40.1742 24.3259 40.2267C24.4535 40.2792 24.5695 40.3565 24.667 40.4541C24.7646 40.5517 24.8419 40.6676 24.8944 40.7952C24.9469 40.9229 24.9735 41.0597 24.9728 41.1977C24.9721 41.3357 24.9441 41.4722 24.8903 41.5993C24.8365 41.7264 24.7581 41.8415 24.6595 41.9381L23.6245 42.9731C23.5278 43.0704 23.4127 43.1475 23.286 43.2C23.1593 43.2525 23.0234 43.2793 22.8863 43.279ZM25.8464 45.195C25.6499 45.3876 25.3854 45.4948 25.1103 45.4934C24.8352 45.492 24.5718 45.3821 24.3773 45.1876C24.1828 44.9931 24.0729 44.7296 24.0715 44.4545C24.0701 44.1794 24.1773 43.9149 24.3699 43.7184L25.4063 42.6841C25.5029 42.5856 25.618 42.5071 25.7451 42.4534C25.8722 42.3996 26.0087 42.3715 26.1467 42.3708C26.2847 42.3701 26.4215 42.3968 26.5491 42.4493C26.6768 42.5018 26.7927 42.5791 26.8903 42.6766C26.9879 42.7742 27.0652 42.8902 27.1177 43.0178C27.1702 43.1455 27.1968 43.2822 27.1961 43.4202C27.1954 43.5582 27.1674 43.6947 27.1136 43.8218C27.0598 43.9489 26.9814 44.0641 26.8828 44.1607L25.8464 45.195ZM28.069 47.4176C27.8732 47.6134 27.6076 47.7234 27.3307 47.7234C27.0538 47.7234 26.7882 47.6134 26.5924 47.4176L26.2198 47.7902L26.5924 47.4176C26.397 47.2216 26.2872 46.9561 26.2872 46.6793C26.2872 46.4025 26.397 46.137 26.5924 45.941L27.6274 44.906C27.8239 44.7135 28.0884 44.6062 28.3635 44.6076C28.6386 44.609 28.9021 44.7189 29.0966 44.9134C29.2911 45.108 29.401 45.3714 29.4024 45.6465C29.4038 45.9216 29.2965 46.1861 29.104 46.3826L28.069 47.4176ZM31.3259 48.6045L30.2909 49.6395C30.194 49.7365 30.0789 49.8135 29.9522 49.866C29.8255 49.9185 29.6897 49.9455 29.5526 49.9455C29.4155 49.9455 29.2797 49.9185 29.153 49.866C29.0263 49.8135 28.9112 49.7365 28.8143 49.6395L28.4409 50.0121L28.8136 49.6395C28.6183 49.4434 28.5087 49.1779 28.5087 48.9012C28.5087 48.6244 28.6183 48.359 28.8136 48.1629L29.8486 47.1286C29.9452 47.03 30.0604 46.9516 30.1875 46.8978C30.3146 46.844 30.4511 46.816 30.5891 46.8153C30.7271 46.8146 30.8638 46.8413 30.9915 46.8938C31.1191 46.9462 31.2351 47.0235 31.3327 47.1211C31.4302 47.2187 31.5075 47.3346 31.56 47.4623C31.6125 47.5899 31.6392 47.7267 31.6385 47.8647C31.6378 48.0027 31.6097 48.1392 31.556 48.2663C31.5022 48.3934 31.4237 48.5086 31.3252 48.6052L31.3259 48.6045ZM41.5134 42.2348C41.5133 42.4412 41.452 42.6429 41.3373 42.8144C41.2226 42.986 41.0596 43.1197 40.869 43.1987C40.6784 43.2777 40.4686 43.2984 40.2662 43.2583C40.0638 43.2181 39.8778 43.1189 39.7317 42.9731L36.3567 39.5981C36.2578 39.4992 36.1236 39.4436 35.9837 39.4436C35.8438 39.4436 35.7096 39.4992 35.6107 39.5981C35.5118 39.6971 35.4562 39.8312 35.4562 39.9711C35.4562 40.111 35.5118 40.2452 35.6107 40.3441L38.9857 43.7191C39.1783 43.9156 39.2855 44.1801 39.2841 44.4552C39.2827 44.7303 39.1728 44.9938 38.9783 45.1883C38.7838 45.3828 38.5203 45.4927 38.2453 45.4941C37.9702 45.4955 37.7056 45.3883 37.5092 45.1957L34.1342 41.8207C34.0861 41.7687 34.0281 41.7269 33.9635 41.6978C33.899 41.6687 33.8293 41.6529 33.7585 41.6513C33.6877 41.6497 33.6173 41.6624 33.5515 41.6886C33.4858 41.7148 33.4259 41.754 33.3756 41.8039C33.3253 41.8537 33.2856 41.9131 33.2588 41.9787C33.2319 42.0442 33.2186 42.1144 33.2195 42.1852C33.2204 42.256 33.2355 42.3259 33.264 42.3907C33.2925 42.4556 33.3338 42.514 33.3853 42.5625L36.7603 45.9375C36.9529 46.134 37.0601 46.3985 37.0587 46.6736C37.0573 46.9487 36.9474 47.2121 36.7529 47.4066C36.5584 47.6012 36.295 47.7111 36.0199 47.7125C35.7448 47.7138 35.4802 47.6066 35.2838 47.4141L31.9088 44.0391C31.8093 43.943 31.6762 43.8897 31.5379 43.8909C31.3996 43.892 31.2673 43.9474 31.1695 44.0451C31.0717 44.1429 31.0162 44.2751 31.0149 44.4134C31.0136 44.5516 31.0667 44.6849 31.1627 44.7844L34.5377 48.1594C34.7303 48.3559 34.8375 48.6204 34.8361 48.8955C34.8347 49.1706 34.7248 49.434 34.5303 49.6285C34.3358 49.823 34.0724 49.9329 33.7973 49.9343C33.5222 49.9357 33.2577 49.8285 33.0612 49.6359L32.3785 48.9532C32.5719 48.6349 32.6771 48.2708 32.6833 47.8984C32.6895 47.526 32.5965 47.1587 32.4139 46.8341C32.2312 46.5095 31.9655 46.2393 31.6439 46.0514C31.3223 45.8634 30.9565 45.7644 30.5841 45.7645C30.5412 45.7645 30.499 45.7645 30.4561 45.7688C30.4561 45.7259 30.4603 45.6837 30.4603 45.6408C30.4592 45.0857 30.2381 44.5536 29.8456 44.1612C29.453 43.7687 28.9208 43.5478 28.3657 43.5469C28.3228 43.5469 28.2799 43.5469 28.2377 43.5511C28.2377 43.5089 28.242 43.466 28.242 43.4238C28.2421 43.1482 28.1878 42.8752 28.0824 42.6205C27.9769 42.3659 27.8224 42.1344 27.6274 41.9395C27.4325 41.7446 27.2011 41.59 26.9464 41.4846C26.6917 41.3791 26.4188 41.3249 26.1431 41.325C26.1002 41.325 26.0581 41.325 26.0159 41.3292C26.0159 41.287 26.0201 41.2441 26.0201 41.2013C26.0197 40.665 25.8141 40.1491 25.4456 39.7595C25.077 39.37 24.5734 39.1361 24.038 39.1059C23.9697 38.7034 23.9445 38.2946 23.9627 37.8867L24.0204 37.8312L29.3986 32.4537C29.4176 32.4347 29.4352 32.415 29.4534 32.3953C30.3249 32.3557 31.194 32.5144 31.9952 32.8594L29.0625 36.1359C28.8034 36.4256 28.665 36.8034 28.6757 37.1919C28.6864 37.5804 28.8455 37.95 29.1202 38.2249C29.6327 38.7364 30.3272 39.0237 31.0513 39.0237C31.7754 39.0237 32.4699 38.7364 32.9824 38.2249L35.4609 35.7492L35.655 35.9433L41.2097 41.498C41.3065 41.5946 41.3832 41.7095 41.4353 41.836C41.4875 41.9625 41.514 42.098 41.5134 42.2348ZM41.6787 38.5294C41.3816 38.8812 41.0449 39.1976 40.6753 39.4723L38.5547 37.3523L35.9088 34.7065L35.8329 34.6313C35.784 34.5823 35.7259 34.5434 35.662 34.5169C35.598 34.4904 35.5295 34.4767 35.4602 34.4767C35.391 34.4767 35.3225 34.4904 35.2585 34.5169C35.1946 34.5434 35.1365 34.5823 35.0876 34.6313L32.2392 37.4789C31.9246 37.7926 31.4984 37.9688 31.0541 37.9688C30.6098 37.9688 30.1836 37.7926 29.869 37.4789C29.7846 37.3948 29.7358 37.2816 29.7325 37.1625C29.7292 37.0434 29.7718 36.9277 29.8514 36.8391L33.578 32.6723C33.798 32.4267 34.0673 32.2301 34.3683 32.0955C34.6694 31.9609 34.9955 31.8913 35.3252 31.8912H36.1824C36.2945 32.0984 36.4367 32.288 36.6042 32.4537L41.981 37.8312C42.0232 37.8727 42.0661 37.912 42.1104 37.9507C41.9781 38.152 41.8339 38.3452 41.6787 38.5294Z" fill="#0A0A0A" fill-opacity="0.5"/>
</g>
<defs>
<clipPath id="clip0_213_5113">
<rect width="36" height="36" fill="white" transform="translate(15 15)"/>
</clipPath>
</defs>
</svg>
