<svg width="65" height="65" viewBox="0 0 65 65" fill="none" xmlns="http://www.w3.org/2000/svg">
<circle cx="32.5" cy="32.5" r="32" stroke="#0A0A0A" stroke-opacity="0.15"/>
<g clip-path="url(#clip0_213_4973)">
<path fill-rule="evenodd" clip-rule="evenodd" d="M24.3805 24.7884C23.3455 25.7179 22.0027 26.2308 20.6116 26.228C19.8337 26.2269 19.0645 26.064 18.3529 25.7496C17.0801 25.1881 16.0606 24.1749 15.4913 22.9056C14.922 21.6363 14.8433 20.2011 15.2705 18.8772C15.6976 17.5532 16.6002 16.4346 17.804 15.7374C19.0078 15.0402 20.4272 14.8138 21.7882 15.1021C23.1491 15.3903 24.3549 16.1727 25.1726 17.2981C25.9903 18.4235 26.3619 19.8121 26.2156 21.1955C26.0693 22.5789 25.4155 23.859 24.3805 24.7884ZM16.2823 19.1953C15.9542 20.1973 15.9838 21.2821 16.3659 22.2647C16.5813 22.8233 16.9054 23.3336 17.3194 23.7661C17.7333 24.1986 18.229 24.5446 18.7776 24.7843C19.7426 25.209 20.825 25.2859 21.8404 25.002C22.8558 24.7181 23.7413 24.0909 24.3461 23.2273C24.9509 22.3637 25.2375 21.3171 25.1572 20.2658C25.0768 19.2145 24.6344 18.2237 23.9054 17.462C23.1763 16.7004 22.2057 16.2151 21.159 16.0888C20.1122 15.9626 19.0541 16.2031 18.1649 16.7696C17.2756 17.336 16.6103 18.1933 16.2823 19.1953ZM24.7388 26.2166C24.7979 26.0898 24.905 25.9917 25.0364 25.9439C25.1678 25.896 25.3129 25.9024 25.4396 25.9615C25.5664 26.0206 25.6645 26.1276 25.7123 26.259L26.2783 27.8142C26.3026 27.8794 26.3138 27.9488 26.3112 28.0183C26.3086 28.0879 26.2922 28.1562 26.263 28.2194C26.2339 28.2826 26.1925 28.3394 26.1413 28.3866C26.09 28.4337 26.03 28.4702 25.9646 28.494C25.8992 28.5178 25.8297 28.5284 25.7602 28.5253C25.6906 28.5221 25.6224 28.5052 25.5595 28.4755C25.4965 28.4458 25.44 28.404 25.3933 28.3524C25.3466 28.3008 25.3106 28.2405 25.2873 28.1749L24.7213 26.6198C24.6734 26.4884 24.6797 26.3433 24.7388 26.2166ZM40.2402 28.5215C40.171 28.5245 40.1019 28.5138 40.0369 28.4901C39.9718 28.4664 39.9119 28.4302 39.8609 28.3834C39.8098 28.3366 39.7685 28.2802 39.7392 28.2174C39.7099 28.1547 39.6933 28.0868 39.6903 28.0176C39.6873 27.9484 39.6979 27.8793 39.7216 27.8142L40.2876 26.2591C40.3354 26.1277 40.4335 26.0206 40.5603 25.9615C40.687 25.9024 40.8321 25.896 40.9635 25.9439C41.0949 25.9917 41.202 26.0898 41.2611 26.2166C41.3202 26.3433 41.3266 26.4884 41.2787 26.6198L40.7127 28.1749C40.6891 28.24 40.6528 28.2998 40.6061 28.3509C40.5593 28.402 40.5029 28.4433 40.4401 28.4726C40.3774 28.5019 40.3094 28.5185 40.2402 28.5215ZM22.8782 26.7721C22.9293 26.7253 22.9891 26.689 23.0541 26.6654C23.1856 26.6175 23.3306 26.6238 23.4574 26.6829C23.5841 26.742 23.6822 26.8491 23.7301 26.9805L24.6497 29.5072C24.6734 29.5723 24.6841 29.6414 24.681 29.7106C24.678 29.7798 24.6614 29.8477 24.6321 29.9105C24.6029 29.9733 24.5615 30.0296 24.5105 30.0764C24.4594 30.1232 24.3996 30.1595 24.3345 30.1832C24.2695 30.2068 24.2004 30.2175 24.1312 30.2145C24.062 30.2114 23.9941 30.1948 23.9313 30.1655C23.8045 30.1064 23.7065 29.9994 23.6586 29.868L22.7389 27.3413C22.7153 27.2762 22.7046 27.2071 22.7076 27.1379C22.7107 27.0687 22.7273 27.0008 22.7565 26.938C22.7858 26.8753 22.8272 26.8189 22.8782 26.7721ZM48.4008 15.8741C49.3379 16.4722 50.0765 17.3348 50.5231 18.3528C50.82 19.0273 50.9811 19.7537 50.9972 20.4905C51.0133 21.2273 50.8842 21.9601 50.6171 22.6469C50.35 23.3338 49.9502 23.9613 49.4406 24.4937C48.931 25.0261 48.3215 25.4529 47.647 25.7497C46.63 26.1986 45.5026 26.3357 44.4077 26.1436C43.3127 25.9515 42.2993 25.4389 41.4958 24.6706C40.6923 23.9023 40.1348 22.913 39.8938 21.8277C39.6529 20.7424 39.7393 19.6101 40.1422 18.574C40.5451 17.5379 41.2463 16.6445 42.1571 16.0071C43.0679 15.3697 44.1473 15.0168 45.2587 14.9931C46.3702 14.9695 47.4636 15.276 48.4008 15.8741ZM47.6222 24.5844C48.5409 24.0672 49.2519 23.2474 49.634 22.2647C49.8525 21.7073 49.9583 21.1121 49.9452 20.5135C49.9322 19.9149 49.8005 19.3249 49.5578 18.7776C49.1331 17.8125 48.387 17.0246 47.4465 16.548C46.506 16.0715 45.4294 15.9357 44.4001 16.164C43.3707 16.3922 42.4524 16.9703 41.8015 17.7997C41.1506 18.6292 40.8074 19.6586 40.8305 20.7127C40.8535 21.7668 41.2413 22.7803 41.9278 23.5805C42.6143 24.3807 43.5571 24.9181 44.5954 25.1012C45.6337 25.2842 46.7034 25.1016 47.6222 24.5844ZM20.8961 27.4935C20.9472 27.4467 21.007 27.4105 21.072 27.3868C21.1371 27.3631 21.2062 27.3524 21.2754 27.3554C21.3446 27.3584 21.4126 27.375 21.4753 27.4043C21.5381 27.4336 21.5945 27.4749 21.6413 27.526C21.6881 27.5771 21.7243 27.6369 21.748 27.702L22.2979 29.213C22.3216 29.2781 22.3323 29.3472 22.3292 29.4164C22.3262 29.4856 22.3096 29.5535 22.2803 29.6162C22.251 29.679 22.2097 29.7354 22.1586 29.7822C22.1076 29.829 22.0478 29.8652 21.9827 29.8889C21.9176 29.9126 21.8485 29.9232 21.7794 29.9202C21.7102 29.9172 21.6423 29.9006 21.5795 29.8713C21.5167 29.842 21.4603 29.8007 21.4136 29.7496C21.3668 29.6985 21.3305 29.6388 21.3068 29.5737L20.7569 28.0627C20.7332 27.9977 20.7226 27.9286 20.7256 27.8594C20.7286 27.7902 20.7452 27.7223 20.7745 27.6595C20.8037 27.5967 20.8451 27.5403 20.8961 27.4935ZM44.5001 29.8253C44.4114 29.8874 44.3058 29.9207 44.1975 29.9208C44.1128 29.9207 44.0293 29.9002 43.9541 29.861C43.879 29.8219 43.8143 29.7652 43.7657 29.6957C43.7171 29.6263 43.686 29.5462 43.6749 29.4621C43.6638 29.3781 43.6731 29.2927 43.702 29.213L44.252 27.702C44.2998 27.5705 44.3979 27.4635 44.5246 27.4044C44.5874 27.3751 44.6553 27.3585 44.7245 27.3555C44.7937 27.3524 44.8628 27.3631 44.9279 27.3868C45.0593 27.4346 45.1664 27.5327 45.2255 27.6594C45.2846 27.7862 45.2909 27.9312 45.2431 28.0627L44.6932 29.5737C44.6561 29.6754 44.5887 29.7633 44.5001 29.8253ZM42.1482 30.1196C42.0595 30.1817 41.9538 30.2151 41.8456 30.2151C41.7608 30.215 41.6774 30.1945 41.6022 30.1554C41.527 30.1162 41.4624 30.0595 41.4138 29.99C41.3652 29.9206 41.334 29.8405 41.323 29.7564C41.3119 29.6724 41.3212 29.5869 41.3502 29.5072L42.2699 26.9806C42.3177 26.8491 42.4158 26.7421 42.5425 26.683C42.6053 26.6537 42.6732 26.6371 42.7424 26.6341C42.8116 26.631 42.8807 26.6417 42.9458 26.6654C43.0772 26.7132 43.1842 26.8113 43.2434 26.938C43.3025 27.0648 43.3088 27.2098 43.261 27.3413L42.3413 29.868C42.3043 29.9697 42.2368 30.0576 42.1482 30.1196ZM47.8332 35.2362C47.8335 35.2394 47.8337 35.2426 47.834 35.2459C47.8348 35.2561 47.8353 35.2663 47.8355 35.2765C47.8356 35.2794 47.8359 35.2822 47.8359 35.285V48.3632C47.8351 49.0622 47.5571 49.7324 47.0628 50.2267C46.5685 50.7211 45.8983 50.9991 45.1992 50.9999H20.8008C20.1017 50.9991 19.4315 50.7211 18.9372 50.2267C18.4429 49.7324 18.1648 49.0622 18.1641 48.3632V35.285C18.1641 35.2822 18.1645 35.2793 18.1645 35.2765C18.1646 35.2662 18.1653 35.2561 18.166 35.2458C18.1662 35.2439 18.1663 35.2419 18.1665 35.24C18.1669 35.2342 18.1674 35.2284 18.1681 35.2226C18.1691 35.2142 18.1705 35.2057 18.1719 35.1973C18.1734 35.1882 18.175 35.1792 18.1769 35.1703C18.1778 35.1665 18.1788 35.1628 18.1797 35.159C18.1803 35.1569 18.1808 35.1548 18.1814 35.1527L18.1847 35.1402C18.1866 35.1336 18.1885 35.127 18.1906 35.1205C18.1927 35.114 18.1952 35.1079 18.1975 35.1015C18.1982 35.0998 18.1988 35.098 18.1995 35.0963C18.2024 35.0885 18.2053 35.0808 18.2086 35.0732C18.2117 35.0664 18.2151 35.0597 18.2184 35.053C18.2225 35.0447 18.2264 35.0364 18.2309 35.0285L18.2361 35.0192L18.2396 35.0137C18.2406 35.012 18.2417 35.0104 18.2427 35.0087C18.2434 35.0077 18.2441 35.0067 18.2447 35.0057C18.2457 35.0041 18.2467 35.0026 18.2476 35.001C18.2508 34.9959 18.2539 34.9909 18.2573 34.986C18.2615 34.9799 18.266 34.974 18.2705 34.968L18.2717 34.9664L18.2791 34.9567C18.282 34.9531 18.2849 34.9494 18.2879 34.9458C18.2944 34.9382 18.3011 34.9308 18.3081 34.9236C18.3123 34.9191 18.3164 34.9145 18.3207 34.9101L18.3242 34.9068C18.3294 34.9018 18.3349 34.897 18.3404 34.8921L18.3434 34.8895C18.3497 34.8839 18.3561 34.8784 18.3627 34.8731L18.3732 34.8647C18.3747 34.8636 18.3763 34.8626 18.3778 34.8616C18.3793 34.8606 18.3807 34.8596 18.3821 34.8586C18.3901 34.8527 18.3982 34.8471 18.4065 34.8417C18.4078 34.8409 18.4091 34.84 18.4104 34.839C18.4115 34.8382 18.4126 34.8374 18.4138 34.8367L31.612 26.6649C32.0283 26.405 32.5092 26.2673 33 26.2673C33.4908 26.2673 33.9717 26.405 34.388 26.6649L47.5862 34.8367C47.5887 34.8383 47.591 34.8401 47.5935 34.8417C47.6018 34.8471 47.6099 34.8527 47.6178 34.8586C47.6208 34.8607 47.6239 34.8626 47.6267 34.8647C47.6303 34.8675 47.6337 34.8703 47.6372 34.8731C47.6439 34.8783 47.6502 34.8839 47.6566 34.8895C47.6631 34.8952 47.6696 34.9009 47.6758 34.9068L47.6793 34.9102C47.6836 34.9145 47.6876 34.9191 47.6919 34.9236C47.6988 34.9308 47.7056 34.9382 47.7121 34.9458C47.7145 34.9487 47.7167 34.9515 47.719 34.9544L47.7208 34.9567L47.7283 34.9664C47.7332 34.973 47.7381 34.9793 47.7427 34.986C47.7461 34.9909 47.7492 34.996 47.7524 35.001C47.7533 35.0026 47.7543 35.0041 47.7553 35.0057L47.7604 35.0137L47.7639 35.0192L47.7691 35.0285C47.7736 35.0365 47.7776 35.0448 47.7816 35.0531C47.7833 35.0565 47.785 35.0599 47.7867 35.0633C47.7883 35.0666 47.7898 35.0698 47.7913 35.0732C47.7954 35.0825 47.7989 35.092 47.8025 35.1017L47.8041 35.1061C47.8059 35.1108 47.8077 35.1156 47.8094 35.1204C47.8115 35.127 47.8135 35.1336 47.8153 35.1402L47.8186 35.1527L47.8231 35.1703C47.825 35.1792 47.8265 35.1882 47.8281 35.1974C47.8295 35.2058 47.8308 35.2142 47.8319 35.2227C47.8324 35.2272 47.8329 35.2317 47.8332 35.2362ZM33 27.323C32.7055 27.323 32.417 27.4057 32.1671 27.5616L19.6932 35.285L27.4186 40.0684C27.5624 38.6883 28.2125 37.4104 29.2433 36.4815C30.274 35.5526 31.6124 35.0385 33 35.0385C34.3876 35.0385 35.726 35.5526 36.7567 36.4815C37.7875 37.4104 38.4376 38.6883 38.5814 40.0684L46.3068 35.285L33.8328 27.5616C33.583 27.4057 33.2945 27.323 33 27.323ZM46.3173 49.4813C46.6139 49.1847 46.7808 48.7826 46.7812 48.3632V36.2318L38.3542 41.4495L38.3524 41.4507L34.0373 44.1224C33.9932 44.1613 33.9428 44.1924 33.8884 44.2147L33.2776 44.5928C33.1942 44.6444 33.0981 44.6718 33 44.6718C32.9019 44.6718 32.8058 44.6444 32.7224 44.5928L19.2187 36.2318V48.3632C19.2192 48.7826 19.3861 49.1847 19.6826 49.4813C19.9792 49.7779 20.3813 49.9447 20.8008 49.9452H45.1992C45.6186 49.9447 46.0208 49.7779 46.3173 49.4813ZM32.4337 43.1736L33.7711 43.0468L37.556 40.7033C37.5562 40.6857 37.5569 40.6682 37.5569 40.6507C37.5569 40.0522 37.4391 39.4597 37.2101 38.9068C36.9811 38.3539 36.6454 37.8516 36.2222 37.4284C35.7991 37.0052 35.2967 36.6696 34.7439 36.4406C34.191 36.2116 33.5984 36.0937 33 36.0937C32.4016 36.0937 31.809 36.2116 31.2561 36.4406C30.7032 36.6696 30.2009 37.0052 29.7777 37.4284C29.3546 37.8516 29.0189 38.3539 28.7899 38.9068C28.5609 39.4597 28.443 40.0522 28.443 40.6507C28.443 40.6585 28.4432 40.6663 28.4434 40.6742C28.4436 40.6839 28.4439 40.6936 28.444 40.7033L32.4337 43.1736Z" fill="#0A0A0A" fill-opacity="0.5"/>
<path d="M21.3874 22.6759L21.8185 22.4471L22.4447 23.5818L22.0174 23.8176L21.3874 22.6759ZM21.3862 22.5577L19.1443 18.4952L19.4426 18.2576L21.7231 22.3901L21.3862 22.5577ZM18.4344 17.3246L18.8616 17.0888L19.4569 18.1675L19.0605 18.4593L18.4344 17.3246ZM21.0407 18.3717C20.9703 18.3435 20.8729 18.3272 20.7486 18.3227C20.6264 18.3109 20.4904 18.3129 20.3407 18.3285C20.1956 18.3415 20.044 18.3704 19.8859 18.415C19.7277 18.4596 19.574 18.5232 19.4245 18.6056C19.0977 18.786 18.8884 18.9807 18.7966 19.1897C18.7048 19.3987 18.7182 19.6106 18.8367 19.8254C18.9243 19.9842 19.0383 20.0858 19.1785 20.1302C19.3162 20.17 19.4929 20.17 19.7085 20.1302C19.9241 20.0904 20.189 20.0295 20.5031 19.9475C20.8831 19.8414 21.2278 19.776 21.5371 19.7515C21.8439 19.7224 22.1129 19.7628 22.3441 19.8727C22.5754 19.9827 22.7734 20.1871 22.9384 20.4859C23.0775 20.7381 23.1506 20.981 23.1577 21.2146C23.1648 21.4483 23.1166 21.6699 23.0129 21.8794C22.9066 22.0842 22.7592 22.2752 22.5707 22.4523C22.3795 22.6248 22.1579 22.7806 21.9057 22.9198C21.6536 23.0589 21.3919 23.1698 21.1208 23.2524C20.8496 23.3351 20.5749 23.3892 20.2967 23.4148C20.0205 23.4332 19.7468 23.4228 19.4754 23.3837L19.4686 22.5103C19.5628 22.5375 19.6865 22.5576 19.8398 22.5704C19.9906 22.5786 20.161 22.5729 20.3512 22.5532C20.5413 22.5336 20.738 22.4981 20.9412 22.4469C21.1465 22.3884 21.3426 22.3077 21.5294 22.2046C21.8376 22.0345 22.0461 21.8494 22.1549 21.6492C22.2612 21.4444 22.2576 21.2393 22.1442 21.0338C22.0515 20.8657 21.922 20.7635 21.7558 20.7273C21.5917 20.6839 21.3876 20.6838 21.1435 20.7271C20.9041 20.7679 20.6226 20.8318 20.2991 20.919C19.9233 21.0106 19.5973 21.0657 19.3211 21.084C19.0424 21.0978 18.8019 21.0538 18.5996 20.9522C18.3995 20.8434 18.2285 20.6606 18.0868 20.4037C17.9064 20.0769 17.8338 19.7576 17.8689 19.4458C17.9014 19.1294 18.0221 18.8404 18.2311 18.5789C18.4422 18.3101 18.7158 18.083 19.052 17.8974C19.2808 17.7712 19.5098 17.6783 19.7389 17.6189C19.9655 17.5548 20.1883 17.5171 20.4075 17.5058C20.6313 17.4919 20.8429 17.5 21.0423 17.5301L21.0407 18.3717Z" fill="#0A0A0A" fill-opacity="0.5"/>
<path d="M43.9958 22.9746L44.4489 23.1559L43.9872 24.3669L43.5312 24.193L43.9958 22.9746ZM44.0852 22.8974L45.7385 18.5619L46.1126 18.6361L44.4308 23.0463L44.0852 22.8974ZM46.1736 17.2637L46.6296 17.4376L46.1906 18.5888L45.7118 18.4747L46.1736 17.2637ZM47.0577 19.9297C47.0338 19.8578 46.9833 19.7729 46.9065 19.6751C46.8365 19.5742 46.7472 19.4717 46.6385 19.3675C46.5348 19.2651 46.4149 19.168 46.2787 19.0761C46.1425 18.9842 45.9947 18.9079 45.8352 18.8471C45.4864 18.7141 45.2026 18.68 44.9837 18.745C44.7649 18.8099 44.6117 18.957 44.5243 19.1863C44.4597 19.3557 44.4558 19.5083 44.5124 19.6441C44.571 19.7749 44.6851 19.9097 44.8548 20.0486C45.0244 20.1875 45.242 20.3504 45.5075 20.5372C45.834 20.7588 46.1065 20.9797 46.325 21.2C46.5454 21.4154 46.6883 21.6468 46.7537 21.8944C46.8191 22.1419 46.791 22.4252 46.6694 22.7441C46.5668 23.0132 46.4286 23.2259 46.2548 23.3823C46.0811 23.5386 45.8807 23.6449 45.6538 23.701C45.4288 23.7522 45.1878 23.763 44.9308 23.7335C44.6757 23.699 44.4135 23.6305 44.1444 23.5279C43.8753 23.4252 43.6217 23.2971 43.3835 23.1435C43.1452 22.9898 42.9265 22.8151 42.7272 22.6192C42.5348 22.4203 42.3659 22.2046 42.2205 21.9722L42.8828 21.4029C42.9229 21.4923 42.9875 21.5998 43.0767 21.7251C43.1678 21.8454 43.2823 21.9719 43.4201 22.1043C43.558 22.2368 43.7121 22.3641 43.8824 22.4861C44.0597 22.6051 44.248 22.7026 44.4473 22.7786C44.7762 22.904 45.0522 22.9436 45.2753 22.8974C45.5003 22.8462 45.6546 22.711 45.7382 22.4917C45.8066 22.3123 45.801 22.1475 45.7213 21.9973C45.6485 21.8439 45.5167 21.6881 45.326 21.5297C45.1402 21.3732 44.9096 21.1997 44.6341 21.009C44.3213 20.7813 44.0688 20.568 43.8764 20.369C43.6859 20.1651 43.5641 19.9531 43.511 19.7331C43.4648 19.51 43.4939 19.2614 43.5985 18.9873C43.7315 18.6385 43.9283 18.3768 44.189 18.2022C44.4515 18.0226 44.7501 17.9281 45.0847 17.9188C45.4263 17.9063 45.7764 17.9685 46.1352 18.1053C46.3794 18.1984 46.5982 18.3132 46.7916 18.4498C46.9868 18.5813 47.1596 18.7271 47.3097 18.8871C47.4649 19.049 47.5954 19.2158 47.7012 19.3874L47.0577 19.9297Z" fill="#0A0A0A" fill-opacity="0.5"/>
<path d="M32.6945 43.3654L33.1825 43.3734V44.6694H32.6945V43.3654ZM32.7505 43.2614V38.6214L33.1265 38.5574V43.2774L32.7505 43.2614ZM32.6945 37.2534H33.1825V38.4854L32.6945 38.5494V37.2534ZM34.4705 39.4294C34.4225 39.3708 34.3452 39.3094 34.2385 39.2454C34.1372 39.1761 34.0172 39.1121 33.8785 39.0534C33.7452 38.9948 33.5985 38.9468 33.4385 38.9094C33.2785 38.8721 33.1132 38.8534 32.9425 38.8534C32.5692 38.8534 32.2918 38.9228 32.1105 39.0614C31.9292 39.2001 31.8385 39.3921 31.8385 39.6374C31.8385 39.8188 31.8892 39.9628 31.9905 40.0694C32.0918 40.1708 32.2465 40.2561 32.4545 40.3254C32.6625 40.3948 32.9238 40.4694 33.2385 40.5494C33.6225 40.6401 33.9558 40.7494 34.2385 40.8774C34.5212 41.0001 34.7372 41.1654 34.8865 41.3734C35.0358 41.5814 35.1105 41.8561 35.1105 42.1974C35.1105 42.4854 35.0572 42.7334 34.9505 42.9414C34.8438 43.1494 34.6945 43.3201 34.5025 43.4534C34.3105 43.5814 34.0892 43.6774 33.8385 43.7414C33.5878 43.8001 33.3185 43.8294 33.0305 43.8294C32.7425 43.8294 32.4598 43.8001 32.1825 43.7414C31.9052 43.6828 31.6385 43.5974 31.3825 43.4854C31.1318 43.3681 30.8972 43.2268 30.6785 43.0614L31.0945 42.2934C31.1638 42.3628 31.2625 42.4401 31.3905 42.5254C31.5185 42.6054 31.6705 42.6828 31.8465 42.7574C32.0225 42.8321 32.2118 42.8961 32.4145 42.9494C32.6225 42.9974 32.8332 43.0214 33.0465 43.0214C33.3985 43.0214 33.6705 42.9601 33.8625 42.8374C34.0545 42.7094 34.1505 42.5281 34.1505 42.2934C34.1505 42.1014 34.0865 41.9494 33.9585 41.8374C33.8358 41.7201 33.6572 41.6214 33.4225 41.5414C33.1932 41.4614 32.9158 41.3814 32.5905 41.3014C32.2172 41.2001 31.9052 41.0908 31.6545 40.9734C31.4038 40.8508 31.2145 40.6961 31.0865 40.5094C30.9638 40.3174 30.9025 40.0748 30.9025 39.7814C30.9025 39.4081 30.9932 39.0934 31.1745 38.8374C31.3558 38.5761 31.6012 38.3814 31.9105 38.2534C32.2252 38.1201 32.5745 38.0534 32.9585 38.0534C33.2198 38.0534 33.4652 38.0828 33.6945 38.1414C33.9238 38.1948 34.1372 38.2694 34.3345 38.3654C34.5372 38.4614 34.7185 38.5708 34.8785 38.6934L34.4705 39.4294Z" fill="#0A0A0A" fill-opacity="0.5"/>
</g>
<defs>
<clipPath id="clip0_213_4973">
<rect width="36" height="36" fill="white" transform="translate(15 15)"/>
</clipPath>
</defs>
</svg>
