<svg width="24" height="24" viewBox="0 0 24 24" fill="none" xmlns="http://www.w3.org/2000/svg">
<g clip-path="url(#clip0_283_2629)">
<path d="M12.2146 22.7143C12.2146 22.5714 12.1431 22.5 12.0003 22.5C11.4735 22.5 11.0204 22.3103 10.6409 21.9308C10.2614 21.5513 10.0717 21.0982 10.0717 20.5714C10.0717 20.4286 10.0003 20.3571 9.85742 20.3571C9.71457 20.3571 9.64314 20.4286 9.64314 20.5714C9.64314 21.2232 9.87305 21.779 10.3329 22.2388C10.7927 22.6987 11.3485 22.9286 12.0003 22.9286C12.1431 22.9286 12.2146 22.8571 12.2146 22.7143ZM3.29492 18.8571H20.7056C18.3306 16.1786 17.1431 12.4643 17.1431 7.71429C17.1431 7.25893 17.036 6.79018 16.8217 6.30804C16.6074 5.82589 16.2994 5.36607 15.8976 4.92857C15.4958 4.49107 14.9534 4.1317 14.2704 3.85045C13.5873 3.5692 12.8306 3.42857 12.0003 3.42857C11.1699 3.42857 10.4132 3.5692 9.73019 3.85045C9.04715 4.1317 8.50474 4.49107 8.10296 4.92857C7.70117 5.36607 7.39314 5.82589 7.17885 6.30804C6.96456 6.79018 6.85742 7.25893 6.85742 7.71429C6.85742 12.4643 5.66992 16.1786 3.29492 18.8571ZM23.1431 18.8571C23.1431 19.3214 22.9735 19.7232 22.6342 20.0625C22.2949 20.4018 21.8931 20.5714 21.4289 20.5714H15.4289C15.4289 21.5179 15.094 22.3259 14.4244 22.9955C13.7547 23.6652 12.9467 24 12.0003 24C11.0539 24 10.2458 23.6652 9.57617 22.9955C8.90653 22.3259 8.57171 21.5179 8.57171 20.5714H2.57171C2.10742 20.5714 1.70564 20.4018 1.36635 20.0625C1.02706 19.7232 0.857422 19.3214 0.857422 18.8571C1.30385 18.4821 1.7101 18.0893 2.07617 17.6786C2.44224 17.2679 2.82171 16.7344 3.21456 16.0781C3.60742 15.4219 3.94001 14.7143 4.21233 13.9554C4.48465 13.1964 4.70787 12.2768 4.88198 11.1964C5.05608 10.1161 5.14314 8.95536 5.14314 7.71429C5.14314 6.35714 5.66546 5.09598 6.7101 3.9308C7.75474 2.76562 9.12528 2.05804 10.8217 1.80804C10.7503 1.63839 10.7146 1.46429 10.7146 1.28571C10.7146 0.928571 10.8396 0.625 11.0896 0.375C11.3396 0.125 11.6431 0 12.0003 0C12.3574 0 12.661 0.125 12.911 0.375C13.161 0.625 13.286 0.928571 13.286 1.28571C13.286 1.46429 13.2503 1.63839 13.1789 1.80804C14.8753 2.05804 16.2458 2.76562 17.2905 3.9308C18.3351 5.09598 18.8574 6.35714 18.8574 7.71429C18.8574 8.95536 18.9445 10.1161 19.1186 11.1964C19.2927 12.2768 19.5159 13.1964 19.7882 13.9554C20.0605 14.7143 20.3931 15.4219 20.786 16.0781C21.1789 16.7344 21.5583 17.2679 21.9244 17.6786C22.2905 18.0893 22.6967 18.4821 23.1431 18.8571Z" fill="#358EF8"/>
<path d="M2 19.5H2.31326C3.70421 19.0559 5.03484 12.9652 5.5 12.5C5.9 12.1 6 8.33333 6 6.5C6.5 5.16667 8.4 2.5 12 2.5C15.6 2.5 17.1667 4.83333 17.5 6C17.1 10.8 20 17 21.5 19.5H2.31326C2.20907 19.5333 2.10453 19.5348 2 19.5Z" fill="#358EF8"/>
</g>
<defs>
<clipPath id="clip0_283_2629">
<rect width="24" height="24" fill="white"/>
</clipPath>
</defs>
</svg>
