<svg width="48" height="48" viewBox="0 0 48 48" fill="none" xmlns="http://www.w3.org/2000/svg">
<path d="M15.4288 35.1429V36.8571C15.4288 37.0893 15.344 37.2902 15.1743 37.4598C15.0047 37.6295 14.8038 37.7143 14.5716 37.7143H12.8574C12.6252 37.7143 12.4243 37.6295 12.2547 37.4598C12.085 37.2902 12.0002 37.0893 12.0002 36.8571V35.1429C12.0002 34.9107 12.085 34.7098 12.2547 34.5402C12.4243 34.3705 12.6252 34.2857 12.8574 34.2857H14.5716C14.8038 34.2857 15.0047 34.3705 15.1743 34.5402C15.344 34.7098 15.4288 34.9107 15.4288 35.1429ZM15.4288 28.2857V30C15.4288 30.2321 15.344 30.433 15.1743 30.6027C15.0047 30.7723 14.8038 30.8571 14.5716 30.8571H12.8574C12.6252 30.8571 12.4243 30.7723 12.2547 30.6027C12.085 30.433 12.0002 30.2321 12.0002 30V28.2857C12.0002 28.0536 12.085 27.8527 12.2547 27.683C12.4243 27.5134 12.6252 27.4286 12.8574 27.4286H14.5716C14.8038 27.4286 15.0047 27.5134 15.1743 27.683C15.344 27.8527 15.4288 28.0536 15.4288 28.2857ZM22.2859 28.2857V30C22.2859 30.2321 22.2011 30.433 22.0315 30.6027C21.8618 30.7723 21.6609 30.8571 21.4288 30.8571H19.7145C19.4824 30.8571 19.2815 30.7723 19.1118 30.6027C18.9422 30.433 18.8574 30.2321 18.8574 30V28.2857C18.8574 28.0536 18.9422 27.8527 19.1118 27.683C19.2815 27.5134 19.4824 27.4286 19.7145 27.4286H21.4288C21.6609 27.4286 21.8618 27.5134 22.0315 27.683C22.2011 27.8527 22.2859 28.0536 22.2859 28.2857ZM15.4288 21.4286V23.1429C15.4288 23.375 15.344 23.5759 15.1743 23.7455C15.0047 23.9152 14.8038 24 14.5716 24H12.8574C12.6252 24 12.4243 23.9152 12.2547 23.7455C12.085 23.5759 12.0002 23.375 12.0002 23.1429V21.4286C12.0002 21.1964 12.085 20.9955 12.2547 20.8259C12.4243 20.6562 12.6252 20.5714 12.8574 20.5714H14.5716C14.8038 20.5714 15.0047 20.6562 15.1743 20.8259C15.344 20.9955 15.4288 21.1964 15.4288 21.4286ZM36.0002 35.1429V36.8571C36.0002 37.0893 35.9154 37.2902 35.7457 37.4598C35.5761 37.6295 35.3752 37.7143 35.1431 37.7143H33.4288C33.1966 37.7143 32.9957 37.6295 32.8261 37.4598C32.6565 37.2902 32.5716 37.0893 32.5716 36.8571V35.1429C32.5716 34.9107 32.6565 34.7098 32.8261 34.5402C32.9957 34.3705 33.1966 34.2857 33.4288 34.2857H35.1431C35.3752 34.2857 35.5761 34.3705 35.7457 34.5402C35.9154 34.7098 36.0002 34.9107 36.0002 35.1429ZM29.1431 28.2857V30C29.1431 30.2321 29.0582 30.433 28.8886 30.6027C28.719 30.7723 28.5181 30.8571 28.2859 30.8571H26.5716C26.3395 30.8571 26.1386 30.7723 25.969 30.6027C25.7993 30.433 25.7145 30.2321 25.7145 30V28.2857C25.7145 28.0536 25.7993 27.8527 25.969 27.683C26.1386 27.5134 26.3395 27.4286 26.5716 27.4286H28.2859C28.5181 27.4286 28.719 27.5134 28.8886 27.683C29.0582 27.8527 29.1431 28.0536 29.1431 28.2857ZM22.2859 21.4286V23.1429C22.2859 23.375 22.2011 23.5759 22.0315 23.7455C21.8618 23.9152 21.6609 24 21.4288 24H19.7145C19.4824 24 19.2815 23.9152 19.1118 23.7455C18.9422 23.5759 18.8574 23.375 18.8574 23.1429V21.4286C18.8574 21.1964 18.9422 20.9955 19.1118 20.8259C19.2815 20.6562 19.4824 20.5714 19.7145 20.5714H21.4288C21.6609 20.5714 21.8618 20.6562 22.0315 20.8259C22.2011 20.9955 22.2859 21.1964 22.2859 21.4286ZM15.4288 14.5714V16.2857C15.4288 16.5179 15.344 16.7188 15.1743 16.8884C15.0047 17.058 14.8038 17.1429 14.5716 17.1429H12.8574C12.6252 17.1429 12.4243 17.058 12.2547 16.8884C12.085 16.7188 12.0002 16.5179 12.0002 16.2857V14.5714C12.0002 14.3393 12.085 14.1384 12.2547 13.9688C12.4243 13.7991 12.6252 13.7143 12.8574 13.7143H14.5716C14.8038 13.7143 15.0047 13.7991 15.1743 13.9688C15.344 14.1384 15.4288 14.3393 15.4288 14.5714ZM36.0002 28.2857V30C36.0002 30.2321 35.9154 30.433 35.7457 30.6027C35.5761 30.7723 35.3752 30.8571 35.1431 30.8571H33.4288C33.1966 30.8571 32.9957 30.7723 32.8261 30.6027C32.6565 30.433 32.5716 30.2321 32.5716 30V28.2857C32.5716 28.0536 32.6565 27.8527 32.8261 27.683C32.9957 27.5134 33.1966 27.4286 33.4288 27.4286H35.1431C35.3752 27.4286 35.5761 27.5134 35.7457 27.683C35.9154 27.8527 36.0002 28.0536 36.0002 28.2857ZM29.1431 21.4286V23.1429C29.1431 23.375 29.0582 23.5759 28.8886 23.7455C28.719 23.9152 28.5181 24 28.2859 24H26.5716C26.3395 24 26.1386 23.9152 25.969 23.7455C25.7993 23.5759 25.7145 23.375 25.7145 23.1429V21.4286C25.7145 21.1964 25.7993 20.9955 25.969 20.8259C26.1386 20.6562 26.3395 20.5714 26.5716 20.5714H28.2859C28.5181 20.5714 28.719 20.6562 28.8886 20.8259C29.0582 20.9955 29.1431 21.1964 29.1431 21.4286ZM22.2859 14.5714V16.2857C22.2859 16.5179 22.2011 16.7188 22.0315 16.8884C21.8618 17.058 21.6609 17.1429 21.4288 17.1429H19.7145C19.4824 17.1429 19.2815 17.058 19.1118 16.8884C18.9422 16.7188 18.8574 16.5179 18.8574 16.2857V14.5714C18.8574 14.3393 18.9422 14.1384 19.1118 13.9688C19.2815 13.7991 19.4824 13.7143 19.7145 13.7143H21.4288C21.6609 13.7143 21.8618 13.7991 22.0315 13.9688C22.2011 14.1384 22.2859 14.3393 22.2859 14.5714ZM15.4288 7.71429V9.42857C15.4288 9.66071 15.344 9.86161 15.1743 10.0312C15.0047 10.2009 14.8038 10.2857 14.5716 10.2857H12.8574C12.6252 10.2857 12.4243 10.2009 12.2547 10.0312C12.085 9.86161 12.0002 9.66071 12.0002 9.42857V7.71429C12.0002 7.48214 12.085 7.28125 12.2547 7.11161C12.4243 6.94196 12.6252 6.85714 12.8574 6.85714H14.5716C14.8038 6.85714 15.0047 6.94196 15.1743 7.11161C15.344 7.28125 15.4288 7.48214 15.4288 7.71429ZM36.0002 21.4286V23.1429C36.0002 23.375 35.9154 23.5759 35.7457 23.7455C35.5761 23.9152 35.3752 24 35.1431 24H33.4288C33.1966 24 32.9957 23.9152 32.8261 23.7455C32.6565 23.5759 32.5716 23.375 32.5716 23.1429V21.4286C32.5716 21.1964 32.6565 20.9955 32.8261 20.8259C32.9957 20.6562 33.1966 20.5714 33.4288 20.5714H35.1431C35.3752 20.5714 35.5761 20.6562 35.7457 20.8259C35.9154 20.9955 36.0002 21.1964 36.0002 21.4286ZM29.1431 14.5714V16.2857C29.1431 16.5179 29.0582 16.7188 28.8886 16.8884C28.719 17.058 28.5181 17.1429 28.2859 17.1429H26.5716C26.3395 17.1429 26.1386 17.058 25.969 16.8884C25.7993 16.7188 25.7145 16.5179 25.7145 16.2857V14.5714C25.7145 14.3393 25.7993 14.1384 25.969 13.9688C26.1386 13.7991 26.3395 13.7143 26.5716 13.7143H28.2859C28.5181 13.7143 28.719 13.7991 28.8886 13.9688C29.0582 14.1384 29.1431 14.3393 29.1431 14.5714ZM22.2859 7.71429V9.42857C22.2859 9.66071 22.2011 9.86161 22.0315 10.0312C21.8618 10.2009 21.6609 10.2857 21.4288 10.2857H19.7145C19.4824 10.2857 19.2815 10.2009 19.1118 10.0312C18.9422 9.86161 18.8574 9.66071 18.8574 9.42857V7.71429C18.8574 7.48214 18.9422 7.28125 19.1118 7.11161C19.2815 6.94196 19.4824 6.85714 19.7145 6.85714H21.4288C21.6609 6.85714 21.8618 6.94196 22.0315 7.11161C22.2011 7.28125 22.2859 7.48214 22.2859 7.71429ZM36.0002 14.5714V16.2857C36.0002 16.5179 35.9154 16.7188 35.7457 16.8884C35.5761 17.058 35.3752 17.1429 35.1431 17.1429H33.4288C33.1966 17.1429 32.9957 17.058 32.8261 16.8884C32.6565 16.7188 32.5716 16.5179 32.5716 16.2857V14.5714C32.5716 14.3393 32.6565 14.1384 32.8261 13.9688C32.9957 13.7991 33.1966 13.7143 33.4288 13.7143H35.1431C35.3752 13.7143 35.5761 13.7991 35.7457 13.9688C35.9154 14.1384 36.0002 14.3393 36.0002 14.5714ZM29.1431 7.71429V9.42857C29.1431 9.66071 29.0582 9.86161 28.8886 10.0312C28.719 10.2009 28.5181 10.2857 28.2859 10.2857H26.5716C26.3395 10.2857 26.1386 10.2009 25.969 10.0312C25.7993 9.86161 25.7145 9.66071 25.7145 9.42857V7.71429C25.7145 7.48214 25.7993 7.28125 25.969 7.11161C26.1386 6.94196 26.3395 6.85714 26.5716 6.85714H28.2859C28.5181 6.85714 28.719 6.94196 28.8886 7.11161C29.0582 7.28125 29.1431 7.48214 29.1431 7.71429ZM36.0002 7.71429V9.42857C36.0002 9.66071 35.9154 9.86161 35.7457 10.0312C35.5761 10.2009 35.3752 10.2857 35.1431 10.2857H33.4288C33.1966 10.2857 32.9957 10.2009 32.8261 10.0312C32.6565 9.86161 32.5716 9.66071 32.5716 9.42857V7.71429C32.5716 7.48214 32.6565 7.28125 32.8261 7.11161C32.9957 6.94196 33.1966 6.85714 33.4288 6.85714H35.1431C35.3752 6.85714 35.5761 6.94196 35.7457 7.11161C35.9154 7.28125 36.0002 7.48214 36.0002 7.71429ZM29.1431 44.5714H39.4288V3.42857H8.57164V44.5714H18.8574V38.5714C18.8574 38.3393 18.9422 38.1384 19.1118 37.9688C19.2815 37.7991 19.4824 37.7143 19.7145 37.7143H28.2859C28.5181 37.7143 28.719 37.7991 28.8886 37.9688C29.0582 38.1384 29.1431 38.3393 29.1431 38.5714V44.5714ZM42.8574 1.71429V46.2857C42.8574 46.75 42.6877 47.1518 42.3484 47.4911C42.0091 47.8304 41.6074 48 41.1431 48H6.85735C6.39307 48 5.99128 47.8304 5.652 47.4911C5.31271 47.1518 5.14307 46.75 5.14307 46.2857V1.71429C5.14307 1.25 5.31271 0.848214 5.652 0.508929C5.99128 0.169643 6.39307 0 6.85735 0H41.1431C41.6074 0 42.0091 0.169643 42.3484 0.508929C42.6877 0.848214 42.8574 1.25 42.8574 1.71429Z" fill="#0A0A0A" fill-opacity="0.75"/>
</svg>
