<svg width="527" height="160" viewBox="0 0 527 160" fill="none" xmlns="http://www.w3.org/2000/svg">
<path d="M12.462 27.904V24.614H12.938C13.1993 24.614 13.4233 24.5113 13.61 24.306C13.806 24.1007 13.9693 23.774 14.1 23.326C14.24 22.878 14.3473 22.29 14.422 21.562C14.506 20.8247 14.5667 19.924 14.604 18.86L14.674 16.06H21.072V24.614H22.332V27.904H20.946V26H13.848V27.904H12.462ZM14.926 24.614H19.49V17.446H16.13L16.088 19.07C16.06 20.1433 16.004 21.0533 15.92 21.8C15.836 22.5373 15.7147 23.1347 15.556 23.592C15.3973 24.0493 15.1873 24.39 14.926 24.614ZM27.0285 26.14C26.4498 26.14 25.9318 26.042 25.4745 25.846C25.0171 25.6407 24.6205 25.3607 24.2845 25.006C23.9578 24.6513 23.7058 24.25 23.5285 23.802C23.3511 23.3447 23.2625 22.8593 23.2625 22.346C23.2625 21.8327 23.3511 21.3473 23.5285 20.89C23.7058 20.4327 23.9578 20.0313 24.2845 19.686C24.6205 19.3313 25.0171 19.056 25.4745 18.86C25.9411 18.6547 26.4591 18.552 27.0285 18.552C27.5978 18.552 28.1111 18.6547 28.5685 18.86C29.0351 19.056 29.4318 19.3313 29.7585 19.686C30.0945 20.0313 30.3511 20.4327 30.5285 20.89C30.7058 21.3473 30.7945 21.8327 30.7945 22.346C30.7945 22.8593 30.7058 23.3447 30.5285 23.802C30.3511 24.25 30.0945 24.6513 29.7585 25.006C29.4318 25.3607 29.0351 25.6407 28.5685 25.846C28.1111 26.042 27.5978 26.14 27.0285 26.14ZM24.8445 22.36C24.8445 22.8267 24.9425 23.2467 25.1385 23.62C25.3345 23.9933 25.5958 24.2873 25.9225 24.502C26.2491 24.7167 26.6178 24.824 27.0285 24.824C27.4298 24.824 27.7938 24.7167 28.1205 24.502C28.4565 24.278 28.7225 23.9793 28.9185 23.606C29.1145 23.2233 29.2125 22.8033 29.2125 22.346C29.2125 21.8793 29.1145 21.4593 28.9185 21.086C28.7225 20.7127 28.4565 20.4187 28.1205 20.204C27.7938 19.98 27.4298 19.868 27.0285 19.868C26.6178 19.868 26.2491 19.98 25.9225 20.204C25.5958 20.428 25.3345 20.7267 25.1385 21.1C24.9425 21.464 24.8445 21.884 24.8445 22.36ZM33.0283 18.678L34.7643 21.184L34.8903 21.422L35.0163 21.184L36.7383 18.678H38.4043L35.7723 22.346L38.4323 26H36.7663L35.0163 23.508L34.8903 23.284L34.7643 23.508L33.0143 26H31.3483L34.0083 22.36L31.3763 18.678H33.0283ZM42.7648 26.14C42.1861 26.14 41.6681 26.042 41.2108 25.846C40.7534 25.6407 40.3568 25.3607 40.0208 25.006C39.6941 24.6513 39.4421 24.25 39.2648 23.802C39.0874 23.3447 38.9988 22.8593 38.9988 22.346C38.9988 21.8327 39.0874 21.3473 39.2648 20.89C39.4421 20.4327 39.6941 20.0313 40.0208 19.686C40.3568 19.3313 40.7534 19.056 41.2108 18.86C41.6774 18.6547 42.1954 18.552 42.7648 18.552C43.3341 18.552 43.8474 18.6547 44.3048 18.86C44.7714 19.056 45.1681 19.3313 45.4948 19.686C45.8308 20.0313 46.0874 20.4327 46.2648 20.89C46.4421 21.3473 46.5308 21.8327 46.5308 22.346C46.5308 22.8593 46.4421 23.3447 46.2648 23.802C46.0874 24.25 45.8308 24.6513 45.4948 25.006C45.1681 25.3607 44.7714 25.6407 44.3048 25.846C43.8474 26.042 43.3341 26.14 42.7648 26.14ZM40.5808 22.36C40.5808 22.8267 40.6788 23.2467 40.8748 23.62C41.0708 23.9933 41.3321 24.2873 41.6588 24.502C41.9854 24.7167 42.3541 24.824 42.7648 24.824C43.1661 24.824 43.5301 24.7167 43.8568 24.502C44.1928 24.278 44.4588 23.9793 44.6548 23.606C44.8508 23.2233 44.9488 22.8033 44.9488 22.346C44.9488 21.8793 44.8508 21.4593 44.6548 21.086C44.4588 20.7127 44.1928 20.4187 43.8568 20.204C43.5301 19.98 43.1661 19.868 42.7648 19.868C42.3541 19.868 41.9854 19.98 41.6588 20.204C41.3321 20.428 41.0708 20.7267 40.8748 21.1C40.6788 21.464 40.5808 21.884 40.5808 22.36ZM47.1967 27.75V24.642H47.3647C47.5607 24.642 47.7427 24.586 47.9107 24.474C48.0787 24.362 48.228 24.1707 48.3587 23.9C48.4893 23.62 48.5967 23.2373 48.6807 22.752C48.7647 22.2573 48.816 21.6367 48.8347 20.89L48.9187 18.678H54.1407V24.642H55.1487V27.75H53.7907V26H48.5407V27.75H47.1967ZM49.3947 24.642H52.6007V20.008H50.2767L50.2347 21.03C50.2067 21.7393 50.1553 22.3367 50.0807 22.822C50.0153 23.3073 49.922 23.6947 49.8007 23.984C49.6887 24.2733 49.5533 24.4927 49.3947 24.642ZM56.4552 26V18.678H57.9953V21.59H61.3973V18.678H62.9373V26H61.3973V22.92H57.9953V26H56.4552ZM68.0851 26.14C67.5064 26.14 66.9884 26.042 66.5311 25.846C66.0738 25.6407 65.6771 25.3607 65.3411 25.006C65.0144 24.6513 64.7624 24.25 64.5851 23.802C64.4078 23.3447 64.3191 22.8593 64.3191 22.346C64.3191 21.8327 64.4078 21.3473 64.5851 20.89C64.7624 20.4327 65.0144 20.0313 65.3411 19.686C65.6771 19.3313 66.0738 19.056 66.5311 18.86C66.9978 18.6547 67.5158 18.552 68.0851 18.552C68.6544 18.552 69.1678 18.6547 69.6251 18.86C70.0918 19.056 70.4884 19.3313 70.8151 19.686C71.1511 20.0313 71.4078 20.4327 71.5851 20.89C71.7624 21.3473 71.8511 21.8327 71.8511 22.346C71.8511 22.8593 71.7624 23.3447 71.5851 23.802C71.4078 24.25 71.1511 24.6513 70.8151 25.006C70.4884 25.3607 70.0918 25.6407 69.6251 25.846C69.1678 26.042 68.6544 26.14 68.0851 26.14ZM65.9011 22.36C65.9011 22.8267 65.9991 23.2467 66.1951 23.62C66.3911 23.9933 66.6524 24.2873 66.9791 24.502C67.3058 24.7167 67.6744 24.824 68.0851 24.824C68.4864 24.824 68.8504 24.7167 69.1771 24.502C69.5131 24.278 69.7791 23.9793 69.9751 23.606C70.1711 23.2233 70.2691 22.8033 70.2691 22.346C70.2691 21.8793 70.1711 21.4593 69.9751 21.086C69.7791 20.7127 69.5131 20.4187 69.1771 20.204C68.8504 19.98 68.4864 19.868 68.0851 19.868C67.6744 19.868 67.3058 19.98 66.9791 20.204C66.6524 20.428 66.3911 20.7267 66.1951 21.1C65.9991 21.464 65.9011 21.884 65.9011 22.36ZM76.535 26.14C75.9656 26.14 75.4476 26.042 74.981 25.846C74.5236 25.6407 74.127 25.3607 73.791 25.006C73.455 24.6513 73.1936 24.2453 73.007 23.788C72.8296 23.3307 72.741 22.8453 72.741 22.332C72.741 21.6413 72.895 21.0113 73.203 20.442C73.5203 19.8727 73.959 19.4153 74.519 19.07C75.0883 18.7247 75.7603 18.552 76.535 18.552C77.2816 18.552 77.9303 18.72 78.481 19.056C79.041 19.3827 79.4516 19.8213 79.713 20.372L78.215 20.848C78.047 20.54 77.809 20.302 77.501 20.134C77.2023 19.9567 76.871 19.868 76.507 19.868C76.0963 19.868 75.723 19.9753 75.387 20.19C75.0603 20.3953 74.799 20.6847 74.603 21.058C74.4163 21.422 74.323 21.8467 74.323 22.332C74.323 22.7987 74.421 23.2233 74.617 23.606C74.813 23.9793 75.0743 24.278 75.401 24.502C75.737 24.7167 76.1103 24.824 76.521 24.824C76.773 24.824 77.0156 24.782 77.249 24.698C77.4916 24.6047 77.7016 24.4833 77.879 24.334C78.0563 24.1753 78.1823 24.0027 78.257 23.816L79.769 24.264C79.6103 24.628 79.3723 24.95 79.055 25.23C78.747 25.51 78.3783 25.734 77.949 25.902C77.529 26.0607 77.0576 26.14 76.535 26.14ZM82.7733 26V20.036H80.3513V18.678H86.7493V20.036H84.3133V26H82.7733ZM87.9006 26V18.678H89.4406V21.086H91.1906C92.0586 21.086 92.7166 21.3053 93.1646 21.744C93.6219 22.1827 93.8506 22.7613 93.8506 23.48C93.8506 23.9653 93.7526 24.3993 93.5566 24.782C93.3606 25.1647 93.0712 25.4633 92.6886 25.678C92.3152 25.8927 91.8486 26 91.2886 26H87.9006ZM89.4406 24.81H91.0506C91.3586 24.81 91.6059 24.754 91.7926 24.642C91.9792 24.5207 92.1192 24.362 92.2126 24.166C92.3059 23.9607 92.3526 23.7413 92.3526 23.508C92.3526 23.2747 92.3106 23.0647 92.2266 22.878C92.1426 22.682 92.0026 22.528 91.8066 22.416C91.6199 22.2947 91.3632 22.234 91.0366 22.234H89.4406V24.81Z" fill="black"/>
<path d="M485.995 145V135.06H490.167C490.615 135.06 491.026 135.153 491.399 135.34C491.772 135.527 492.099 135.774 492.379 136.082C492.659 136.39 492.874 136.735 493.023 137.118C493.172 137.501 493.247 137.893 493.247 138.294C493.247 138.845 493.121 139.372 492.869 139.876C492.626 140.371 492.276 140.772 491.819 141.08C491.371 141.388 490.848 141.542 490.251 141.542H487.563V145H485.995ZM487.563 140.156H490.153C490.452 140.156 490.713 140.077 490.937 139.918C491.161 139.75 491.334 139.526 491.455 139.246C491.586 138.966 491.651 138.649 491.651 138.294C491.651 137.93 491.576 137.608 491.427 137.328C491.278 137.048 491.082 136.833 490.839 136.684C490.606 136.525 490.349 136.446 490.069 136.446H487.563V140.156ZM494.522 145V137.692H496.062V142.942L499.772 137.678H501.172V145H499.632V139.862L495.964 145H494.522ZM506.33 145.14C505.761 145.14 505.243 145.042 504.776 144.846C504.319 144.641 503.922 144.361 503.586 144.006C503.25 143.651 502.989 143.245 502.802 142.788C502.625 142.331 502.536 141.845 502.536 141.332C502.536 140.641 502.69 140.011 502.998 139.442C503.315 138.873 503.754 138.415 504.314 138.07C504.883 137.725 505.555 137.552 506.33 137.552C507.077 137.552 507.725 137.72 508.276 138.056C508.836 138.383 509.247 138.821 509.508 139.372L508.01 139.848C507.842 139.54 507.604 139.302 507.296 139.134C506.997 138.957 506.666 138.868 506.302 138.868C505.891 138.868 505.518 138.975 505.182 139.19C504.855 139.395 504.594 139.685 504.398 140.058C504.211 140.422 504.118 140.847 504.118 141.332C504.118 141.799 504.216 142.223 504.412 142.606C504.608 142.979 504.869 143.278 505.196 143.502C505.532 143.717 505.905 143.824 506.316 143.824C506.568 143.824 506.811 143.782 507.044 143.698C507.287 143.605 507.497 143.483 507.674 143.334C507.851 143.175 507.977 143.003 508.052 142.816L509.564 143.264C509.405 143.628 509.167 143.95 508.85 144.23C508.542 144.51 508.173 144.734 507.744 144.902C507.324 145.061 506.853 145.14 506.33 145.14ZM510.832 145V137.678H512.358V140.576H513.086L515.242 137.678H516.95L514.276 141.22L517.258 145H515.48L513.072 141.962H512.358V145H510.832ZM518.434 145V137.692H519.974V142.942L523.684 137.678H525.084V145H523.544V139.862L519.876 145H518.434Z" fill="black"/>
<path d="M53.7846 98.804C53.7846 99.228 53.6766 99.608 53.4606 99.944C53.2446 100.272 52.9526 100.532 52.5846 100.724C52.2246 100.908 51.8286 101 51.3966 101H47.3766V92.48H51.4806C51.8806 92.48 52.2246 92.588 52.5126 92.804C52.8086 93.012 53.0326 93.284 53.1846 93.62C53.3446 93.948 53.4246 94.292 53.4246 94.652C53.4246 95.076 53.3166 95.468 53.1006 95.828C52.8846 96.188 52.5846 96.456 52.2006 96.632C52.6886 96.776 53.0726 97.044 53.3526 97.436C53.6406 97.828 53.7846 98.284 53.7846 98.804ZM52.9446 98.66C52.9446 98.372 52.8806 98.108 52.7526 97.868C52.6246 97.62 52.4486 97.42 52.2246 97.268C52.0086 97.116 51.7606 97.04 51.4806 97.04H48.2166V100.268H51.3966C51.6846 100.268 51.9446 100.192 52.1766 100.04C52.4086 99.888 52.5926 99.692 52.7286 99.452C52.8726 99.204 52.9446 98.94 52.9446 98.66ZM48.2166 93.212V96.356H51.1446C51.4246 96.356 51.6726 96.284 51.8886 96.14C52.1046 95.988 52.2766 95.792 52.4046 95.552C52.5326 95.312 52.5966 95.056 52.5966 94.784C52.5966 94.496 52.5366 94.236 52.4166 94.004C52.2966 93.764 52.1326 93.572 51.9246 93.428C51.7166 93.284 51.4806 93.212 51.2166 93.212H48.2166ZM55.1888 101V94.748H56.0048V97.424H56.9408L59.0408 94.748H59.9768L57.5888 97.784L60.2768 101H59.3168L56.9408 98.18H56.0048V101H55.1888ZM60.8352 101.036V100.292C61.0512 100.292 61.2432 100.236 61.4112 100.124C61.5792 100.004 61.7272 99.804 61.8552 99.524C61.9912 99.244 62.0992 98.86 62.1792 98.372C62.2592 97.876 62.3112 97.248 62.3352 96.488L62.4072 94.748H66.4632V101H65.6472V95.48H63.1272L63.1032 96.56C63.0712 97.424 63.0032 98.148 62.8992 98.732C62.7952 99.308 62.6472 99.764 62.4552 100.1C62.2712 100.436 62.0432 100.676 61.7712 100.82C61.4992 100.964 61.1872 101.036 60.8352 101.036ZM67.7632 99.2C67.7632 98.808 67.8752 98.472 68.0992 98.192C68.3232 97.904 68.6312 97.684 69.0232 97.532C69.4232 97.372 69.8832 97.292 70.4032 97.292C70.7072 97.292 71.0232 97.316 71.3512 97.364C71.6792 97.412 71.9712 97.484 72.2272 97.58V97.052C72.2272 96.524 72.0712 96.104 71.7592 95.792C71.4472 95.48 71.0152 95.324 70.4632 95.324C70.1272 95.324 69.7952 95.388 69.4672 95.516C69.1472 95.636 68.8112 95.816 68.4592 96.056L68.1472 95.48C68.5552 95.2 68.9552 94.992 69.3472 94.856C69.7392 94.712 70.1392 94.64 70.5472 94.64C71.3152 94.64 71.9232 94.86 72.3712 95.3C72.8192 95.74 73.0432 96.348 73.0432 97.124V100.016C73.0432 100.128 73.0672 100.212 73.1152 100.268C73.1632 100.316 73.2392 100.344 73.3432 100.352V101C73.2552 101.008 73.1792 101.016 73.1152 101.024C73.0512 101.032 73.0032 101.032 72.9712 101.024C72.7712 101.016 72.6192 100.952 72.5152 100.832C72.4112 100.712 72.3552 100.584 72.3472 100.448L72.3352 99.992C72.0552 100.352 71.6912 100.632 71.2432 100.832C70.7952 101.024 70.3392 101.12 69.8752 101.12C69.4752 101.12 69.1112 101.036 68.7832 100.868C68.4632 100.692 68.2112 100.46 68.0272 100.172C67.8512 99.876 67.7632 99.552 67.7632 99.2ZM71.9512 99.68C72.0392 99.568 72.1072 99.46 72.1552 99.356C72.2032 99.252 72.2272 99.16 72.2272 99.08V98.168C71.9552 98.064 71.6712 97.984 71.3752 97.928C71.0872 97.872 70.7952 97.844 70.4992 97.844C69.9152 97.844 69.4432 97.96 69.0832 98.192C68.7232 98.424 68.5432 98.74 68.5432 99.14C68.5432 99.372 68.6032 99.592 68.7232 99.8C68.8432 100 69.0192 100.168 69.2512 100.304C69.4832 100.432 69.7552 100.496 70.0672 100.496C70.4592 100.496 70.8232 100.42 71.1592 100.268C71.5032 100.116 71.7672 99.92 71.9512 99.68ZM74.1103 102.452V100.268H74.2183C74.4023 100.268 74.5703 100.212 74.7223 100.1C74.8743 99.988 75.0103 99.792 75.1303 99.512C75.2503 99.232 75.3463 98.848 75.4183 98.36C75.4903 97.864 75.5383 97.24 75.5623 96.488L75.6223 94.748H79.6903V100.268H80.5303V102.452H79.7983V101H74.8303V102.452H74.1103ZM75.4543 100.268H78.8743V95.48H76.3543L76.3183 96.56C76.2943 97.304 76.2423 97.928 76.1623 98.432C76.0903 98.928 75.9943 99.324 75.8743 99.62C75.7623 99.908 75.6223 100.124 75.4543 100.268ZM81.7552 101V94.748H82.5712V96.956H83.9872C84.6992 96.956 85.2352 97.14 85.5952 97.508C85.9632 97.868 86.1472 98.344 86.1472 98.936C86.1472 99.32 86.0672 99.668 85.9072 99.98C85.7472 100.292 85.5112 100.54 85.1992 100.724C84.8952 100.908 84.5112 101 84.0472 101H81.7552ZM82.5712 100.352H83.9392C84.2672 100.352 84.5312 100.288 84.7312 100.16C84.9312 100.024 85.0792 99.852 85.1752 99.644C85.2712 99.428 85.3192 99.196 85.3192 98.948C85.3192 98.708 85.2752 98.488 85.1872 98.288C85.1072 98.08 84.9632 97.916 84.7552 97.796C84.5552 97.668 84.2752 97.604 83.9152 97.604H82.5712V100.352ZM87.2872 101V94.76H88.1032V101H87.2872Z" fill="black"/>
<path d="M98.2203 71V62.48H103.056V63.224H99.0603V71H98.2203ZM106.904 71.12C106.456 71.12 106.04 71.036 105.656 70.868C105.28 70.692 104.952 70.456 104.672 70.16C104.4 69.856 104.188 69.512 104.036 69.128C103.884 68.736 103.808 68.324 103.808 67.892C103.808 67.444 103.884 67.028 104.036 66.644C104.188 66.252 104.404 65.908 104.684 65.612C104.964 65.308 105.292 65.072 105.668 64.904C106.052 64.728 106.468 64.64 106.916 64.64C107.364 64.64 107.776 64.728 108.152 64.904C108.528 65.072 108.856 65.308 109.136 65.612C109.416 65.908 109.632 66.252 109.784 66.644C109.936 67.028 110.012 67.444 110.012 67.892C110.012 68.324 109.936 68.736 109.784 69.128C109.632 69.512 109.416 69.856 109.136 70.16C108.864 70.456 108.536 70.692 108.152 70.868C107.776 71.036 107.36 71.12 106.904 71.12ZM104.636 67.904C104.636 68.368 104.736 68.792 104.936 69.176C105.144 69.552 105.42 69.852 105.764 70.076C106.108 70.292 106.488 70.4 106.904 70.4C107.32 70.4 107.7 70.288 108.044 70.064C108.388 69.84 108.664 69.536 108.872 69.152C109.08 68.76 109.184 68.336 109.184 67.88C109.184 67.416 109.08 66.992 108.872 66.608C108.664 66.224 108.388 65.92 108.044 65.696C107.7 65.472 107.32 65.36 106.904 65.36C106.488 65.36 106.108 65.476 105.764 65.708C105.428 65.94 105.156 66.248 104.948 66.632C104.74 67.008 104.636 67.432 104.636 67.904ZM114.089 71.12C113.633 71.12 113.213 71.036 112.829 70.868C112.453 70.692 112.121 70.452 111.833 70.148C111.553 69.844 111.333 69.496 111.173 69.104C111.021 68.712 110.945 68.296 110.945 67.856C110.945 67.264 111.077 66.724 111.341 66.236C111.605 65.748 111.973 65.36 112.445 65.072C112.917 64.784 113.461 64.64 114.077 64.64C114.661 64.64 115.177 64.776 115.625 65.048C116.073 65.312 116.405 65.672 116.621 66.128L115.829 66.38C115.653 66.06 115.405 65.812 115.085 65.636C114.773 65.452 114.425 65.36 114.041 65.36C113.625 65.36 113.245 65.468 112.901 65.684C112.557 65.9 112.281 66.196 112.073 66.572C111.873 66.948 111.773 67.376 111.773 67.856C111.773 68.328 111.877 68.756 112.085 69.14C112.293 69.524 112.569 69.832 112.913 70.064C113.257 70.288 113.637 70.4 114.053 70.4C114.325 70.4 114.585 70.352 114.833 70.256C115.089 70.16 115.309 70.032 115.493 69.872C115.685 69.704 115.813 69.524 115.877 69.332L116.681 69.572C116.569 69.868 116.381 70.136 116.117 70.376C115.861 70.608 115.557 70.792 115.205 70.928C114.861 71.056 114.489 71.12 114.089 71.12ZM120.568 71.12C120.12 71.12 119.704 71.036 119.32 70.868C118.944 70.692 118.616 70.456 118.336 70.16C118.064 69.856 117.852 69.512 117.7 69.128C117.548 68.736 117.472 68.324 117.472 67.892C117.472 67.444 117.548 67.028 117.7 66.644C117.852 66.252 118.068 65.908 118.348 65.612C118.628 65.308 118.956 65.072 119.332 64.904C119.716 64.728 120.132 64.64 120.58 64.64C121.028 64.64 121.44 64.728 121.816 64.904C122.192 65.072 122.52 65.308 122.8 65.612C123.08 65.908 123.296 66.252 123.448 66.644C123.6 67.028 123.676 67.444 123.676 67.892C123.676 68.324 123.6 68.736 123.448 69.128C123.296 69.512 123.08 69.856 122.8 70.16C122.528 70.456 122.2 70.692 121.816 70.868C121.44 71.036 121.024 71.12 120.568 71.12ZM118.3 67.904C118.3 68.368 118.4 68.792 118.6 69.176C118.808 69.552 119.084 69.852 119.428 70.076C119.772 70.292 120.152 70.4 120.568 70.4C120.984 70.4 121.364 70.288 121.708 70.064C122.052 69.84 122.328 69.536 122.536 69.152C122.744 68.76 122.848 68.336 122.848 67.88C122.848 67.416 122.744 66.992 122.536 66.608C122.328 66.224 122.052 65.92 121.708 65.696C121.364 65.472 120.984 65.36 120.568 65.36C120.152 65.36 119.772 65.476 119.428 65.708C119.092 65.94 118.82 66.248 118.612 66.632C118.404 67.008 118.3 67.432 118.3 67.904ZM127.909 71.12C126.901 71.12 126.137 70.812 125.617 70.196C125.105 69.572 124.849 68.712 124.849 67.616C124.849 66.84 124.913 66.184 125.041 65.648C125.169 65.112 125.357 64.672 125.605 64.328C125.853 63.976 126.157 63.688 126.517 63.464C126.885 63.24 127.305 63.056 127.777 62.912L130.405 62.048L130.477 62.756L127.945 63.584C127.465 63.744 127.065 63.948 126.745 64.196C126.425 64.444 126.173 64.76 125.989 65.144C125.813 65.52 125.697 66.012 125.641 66.62C125.849 66.156 126.169 65.8 126.601 65.552C127.033 65.296 127.533 65.168 128.101 65.168C128.709 65.168 129.225 65.292 129.649 65.54C130.081 65.788 130.409 66.132 130.633 66.572C130.857 67.012 130.969 67.52 130.969 68.096C130.969 68.704 130.849 69.236 130.609 69.692C130.377 70.14 130.033 70.492 129.577 70.748C129.129 70.996 128.573 71.12 127.909 71.12ZM127.909 70.4C128.621 70.4 129.169 70.196 129.553 69.788C129.945 69.372 130.141 68.82 130.141 68.132C130.141 67.46 129.949 66.912 129.565 66.488C129.189 66.064 128.637 65.852 127.909 65.852C127.493 65.852 127.117 65.94 126.781 66.116C126.445 66.292 126.177 66.548 125.977 66.884C125.785 67.22 125.689 67.636 125.689 68.132C125.689 68.564 125.773 68.952 125.941 69.296C126.117 69.64 126.369 69.912 126.697 70.112C127.025 70.304 127.429 70.4 127.909 70.4ZM131.741 71.036V70.292C131.957 70.292 132.149 70.236 132.317 70.124C132.485 70.004 132.633 69.804 132.761 69.524C132.897 69.244 133.005 68.86 133.085 68.372C133.165 67.876 133.217 67.248 133.241 66.488L133.313 64.748H137.369V71H136.553V65.48H134.033L134.009 66.56C133.977 67.424 133.909 68.148 133.805 68.732C133.701 69.308 133.553 69.764 133.361 70.1C133.177 70.436 132.949 70.676 132.677 70.82C132.405 70.964 132.093 71.036 131.741 71.036ZM139.161 71V64.76H139.977V69.896L143.781 64.748H144.513V71H143.697V65.948L139.953 71H139.161ZM146.286 71V64.748H150.018V65.48H147.102V71H146.286ZM150.658 69.2C150.658 68.808 150.77 68.472 150.994 68.192C151.218 67.904 151.526 67.684 151.918 67.532C152.318 67.372 152.778 67.292 153.298 67.292C153.602 67.292 153.918 67.316 154.246 67.364C154.574 67.412 154.866 67.484 155.122 67.58V67.052C155.122 66.524 154.966 66.104 154.654 65.792C154.342 65.48 153.91 65.324 153.358 65.324C153.022 65.324 152.69 65.388 152.362 65.516C152.042 65.636 151.706 65.816 151.354 66.056L151.042 65.48C151.45 65.2 151.85 64.992 152.242 64.856C152.634 64.712 153.034 64.64 153.442 64.64C154.21 64.64 154.818 64.86 155.266 65.3C155.714 65.74 155.938 66.348 155.938 67.124V70.016C155.938 70.128 155.962 70.212 156.01 70.268C156.058 70.316 156.134 70.344 156.238 70.352V71C156.15 71.008 156.074 71.016 156.01 71.024C155.946 71.032 155.898 71.032 155.866 71.024C155.666 71.016 155.514 70.952 155.41 70.832C155.306 70.712 155.25 70.584 155.242 70.448L155.23 69.992C154.95 70.352 154.586 70.632 154.138 70.832C153.69 71.024 153.234 71.12 152.77 71.12C152.37 71.12 152.006 71.036 151.678 70.868C151.358 70.692 151.106 70.46 150.922 70.172C150.746 69.876 150.658 69.552 150.658 69.2ZM154.846 69.68C154.934 69.568 155.002 69.46 155.05 69.356C155.098 69.252 155.122 69.16 155.122 69.08V68.168C154.85 68.064 154.566 67.984 154.27 67.928C153.982 67.872 153.69 67.844 153.394 67.844C152.81 67.844 152.338 67.96 151.978 68.192C151.618 68.424 151.438 68.74 151.438 69.14C151.438 69.372 151.498 69.592 151.618 69.8C151.738 70 151.914 70.168 152.146 70.304C152.378 70.432 152.65 70.496 152.962 70.496C153.354 70.496 153.718 70.42 154.054 70.268C154.398 70.116 154.662 69.92 154.846 69.68ZM162.681 72.452V71H157.689V64.748H158.505V70.28H161.745V64.748H162.561V70.28H163.413V72.452H162.681ZM164.638 71V64.76H165.454V69.896L169.258 64.748H169.99V71H169.174V65.948L165.43 71H164.638ZM171.763 71V64.76H172.579V69.896L176.383 64.748H177.115V71H176.299V65.948L172.555 71H171.763Z" fill="black"/>
<path d="M158.558 42V33.48H159.398V37.272H160.682L163.61 33.48H164.582L161.378 37.608L164.786 42H163.754L160.706 38.04H159.398V42H158.558ZM168.285 42.12C167.837 42.12 167.421 42.036 167.037 41.868C166.661 41.692 166.333 41.456 166.053 41.16C165.781 40.856 165.569 40.512 165.417 40.128C165.265 39.736 165.189 39.324 165.189 38.892C165.189 38.444 165.265 38.028 165.417 37.644C165.569 37.252 165.785 36.908 166.065 36.612C166.345 36.308 166.673 36.072 167.049 35.904C167.433 35.728 167.849 35.64 168.297 35.64C168.745 35.64 169.157 35.728 169.533 35.904C169.909 36.072 170.237 36.308 170.517 36.612C170.797 36.908 171.013 37.252 171.165 37.644C171.317 38.028 171.393 38.444 171.393 38.892C171.393 39.324 171.317 39.736 171.165 40.128C171.013 40.512 170.797 40.856 170.517 41.16C170.245 41.456 169.917 41.692 169.533 41.868C169.157 42.036 168.741 42.12 168.285 42.12ZM166.017 38.904C166.017 39.368 166.117 39.792 166.317 40.176C166.525 40.552 166.801 40.852 167.145 41.076C167.489 41.292 167.869 41.4 168.285 41.4C168.701 41.4 169.081 41.288 169.425 41.064C169.769 40.84 170.045 40.536 170.253 40.152C170.461 39.76 170.565 39.336 170.565 38.88C170.565 38.416 170.461 37.992 170.253 37.608C170.045 37.224 169.769 36.92 169.425 36.696C169.081 36.472 168.701 36.36 168.285 36.36C167.869 36.36 167.489 36.476 167.145 36.708C166.809 36.94 166.537 37.248 166.329 37.632C166.121 38.008 166.017 38.432 166.017 38.904ZM175.949 42.12C175.429 42.12 174.961 41.984 174.545 41.712C174.137 41.44 173.813 41.104 173.573 40.704V44.556H172.757V35.748H173.489V36.96C173.737 36.568 174.069 36.252 174.485 36.012C174.901 35.764 175.345 35.64 175.817 35.64C176.249 35.64 176.645 35.732 177.005 35.916C177.365 36.092 177.677 36.332 177.941 36.636C178.205 36.94 178.409 37.288 178.553 37.68C178.705 38.064 178.781 38.464 178.781 38.88C178.781 39.464 178.661 40.004 178.421 40.5C178.189 40.988 177.861 41.38 177.437 41.676C177.013 41.972 176.517 42.12 175.949 42.12ZM175.721 41.4C176.065 41.4 176.373 41.332 176.645 41.196C176.917 41.052 177.149 40.86 177.341 40.62C177.541 40.38 177.693 40.112 177.797 39.816C177.901 39.512 177.953 39.2 177.953 38.88C177.953 38.544 177.893 38.224 177.773 37.92C177.661 37.616 177.497 37.348 177.281 37.116C177.065 36.884 176.817 36.7 176.537 36.564C176.257 36.428 175.953 36.36 175.625 36.36C175.417 36.36 175.201 36.4 174.977 36.48C174.753 36.56 174.537 36.676 174.329 36.828C174.129 36.972 173.961 37.136 173.825 37.32C173.689 37.504 173.605 37.7 173.573 37.908V39.828C173.701 40.124 173.873 40.392 174.089 40.632C174.305 40.864 174.553 41.052 174.833 41.196C175.121 41.332 175.417 41.4 175.721 41.4ZM180.152 42V35.748H185.18V42H184.364V36.48H180.968V42H180.152ZM189.648 42.12C189.2 42.12 188.784 42.036 188.4 41.868C188.024 41.692 187.696 41.456 187.416 41.16C187.144 40.856 186.932 40.512 186.78 40.128C186.628 39.736 186.552 39.324 186.552 38.892C186.552 38.444 186.628 38.028 186.78 37.644C186.932 37.252 187.148 36.908 187.428 36.612C187.708 36.308 188.036 36.072 188.412 35.904C188.796 35.728 189.212 35.64 189.66 35.64C190.108 35.64 190.52 35.728 190.896 35.904C191.272 36.072 191.6 36.308 191.88 36.612C192.16 36.908 192.376 37.252 192.528 37.644C192.68 38.028 192.756 38.444 192.756 38.892C192.756 39.324 192.68 39.736 192.528 40.128C192.376 40.512 192.16 40.856 191.88 41.16C191.608 41.456 191.28 41.692 190.896 41.868C190.52 42.036 190.104 42.12 189.648 42.12ZM187.38 38.904C187.38 39.368 187.48 39.792 187.68 40.176C187.888 40.552 188.164 40.852 188.508 41.076C188.852 41.292 189.232 41.4 189.648 41.4C190.064 41.4 190.444 41.288 190.788 41.064C191.132 40.84 191.408 40.536 191.616 40.152C191.824 39.76 191.928 39.336 191.928 38.88C191.928 38.416 191.824 37.992 191.616 37.608C191.408 37.224 191.132 36.92 190.788 36.696C190.444 36.472 190.064 36.36 189.648 36.36C189.232 36.36 188.852 36.476 188.508 36.708C188.172 36.94 187.9 37.248 187.692 37.632C187.484 38.008 187.38 38.432 187.38 38.904ZM197.313 42.12C196.793 42.12 196.325 41.984 195.909 41.712C195.501 41.44 195.177 41.104 194.937 40.704V44.556H194.121V35.748H194.853V36.96C195.101 36.568 195.433 36.252 195.849 36.012C196.265 35.764 196.709 35.64 197.181 35.64C197.613 35.64 198.009 35.732 198.369 35.916C198.729 36.092 199.041 36.332 199.305 36.636C199.569 36.94 199.773 37.288 199.917 37.68C200.069 38.064 200.145 38.464 200.145 38.88C200.145 39.464 200.025 40.004 199.785 40.5C199.553 40.988 199.225 41.38 198.801 41.676C198.377 41.972 197.881 42.12 197.313 42.12ZM197.085 41.4C197.429 41.4 197.737 41.332 198.009 41.196C198.281 41.052 198.513 40.86 198.705 40.62C198.905 40.38 199.057 40.112 199.161 39.816C199.265 39.512 199.317 39.2 199.317 38.88C199.317 38.544 199.257 38.224 199.137 37.92C199.025 37.616 198.861 37.348 198.645 37.116C198.429 36.884 198.181 36.7 197.901 36.564C197.621 36.428 197.317 36.36 196.989 36.36C196.781 36.36 196.565 36.4 196.341 36.48C196.117 36.56 195.901 36.676 195.693 36.828C195.493 36.972 195.325 37.136 195.189 37.32C195.053 37.504 194.969 37.7 194.937 37.908V39.828C195.065 40.124 195.237 40.392 195.453 40.632C195.669 40.864 195.917 41.052 196.197 41.196C196.485 41.332 196.781 41.4 197.085 41.4ZM201.023 40.2C201.023 39.808 201.135 39.472 201.359 39.192C201.583 38.904 201.891 38.684 202.283 38.532C202.683 38.372 203.143 38.292 203.663 38.292C203.967 38.292 204.283 38.316 204.611 38.364C204.939 38.412 205.231 38.484 205.487 38.58V38.052C205.487 37.524 205.331 37.104 205.019 36.792C204.707 36.48 204.275 36.324 203.723 36.324C203.387 36.324 203.055 36.388 202.727 36.516C202.407 36.636 202.071 36.816 201.719 37.056L201.407 36.48C201.815 36.2 202.215 35.992 202.607 35.856C202.999 35.712 203.399 35.64 203.807 35.64C204.575 35.64 205.183 35.86 205.631 36.3C206.079 36.74 206.303 37.348 206.303 38.124V41.016C206.303 41.128 206.327 41.212 206.375 41.268C206.423 41.316 206.499 41.344 206.603 41.352V42C206.515 42.008 206.439 42.016 206.375 42.024C206.311 42.032 206.263 42.032 206.231 42.024C206.031 42.016 205.879 41.952 205.775 41.832C205.671 41.712 205.615 41.584 205.607 41.448L205.595 40.992C205.315 41.352 204.951 41.632 204.503 41.832C204.055 42.024 203.599 42.12 203.135 42.12C202.735 42.12 202.371 42.036 202.043 41.868C201.723 41.692 201.471 41.46 201.287 41.172C201.111 40.876 201.023 40.552 201.023 40.2ZM205.211 40.68C205.299 40.568 205.367 40.46 205.415 40.356C205.463 40.252 205.487 40.16 205.487 40.08V39.168C205.215 39.064 204.931 38.984 204.635 38.928C204.347 38.872 204.055 38.844 203.759 38.844C203.175 38.844 202.703 38.96 202.343 39.192C201.983 39.424 201.803 39.74 201.803 40.14C201.803 40.372 201.863 40.592 201.983 40.8C202.103 41 202.279 41.168 202.511 41.304C202.743 41.432 203.015 41.496 203.327 41.496C203.719 41.496 204.083 41.42 204.419 41.268C204.763 41.116 205.027 40.92 205.211 40.68ZM209.532 42V36.48H207.3V35.748H212.58V36.48H210.348V42H209.532ZM213.679 42V35.76H214.495V40.896L218.299 35.748H219.031V42H218.215V36.948L214.471 42H213.679ZM220.804 42V35.748H223.924C224.276 35.748 224.572 35.824 224.812 35.976C225.052 36.12 225.232 36.308 225.352 36.54C225.48 36.772 225.544 37.02 225.544 37.284C225.544 37.62 225.464 37.924 225.304 38.196C225.144 38.46 224.912 38.66 224.608 38.796C224.968 38.9 225.26 39.088 225.484 39.36C225.708 39.632 225.82 39.96 225.82 40.344C225.82 40.68 225.736 40.972 225.568 41.22C225.408 41.468 225.184 41.66 224.896 41.796C224.616 41.932 224.292 42 223.924 42H220.804ZM221.584 41.412H223.9C224.108 41.412 224.296 41.36 224.464 41.256C224.64 41.144 224.776 41 224.872 40.824C224.976 40.648 225.028 40.464 225.028 40.272C225.028 40.064 224.98 39.876 224.884 39.708C224.788 39.532 224.66 39.392 224.5 39.288C224.34 39.184 224.156 39.132 223.948 39.132H221.584V41.412ZM221.584 38.568H223.708C223.916 38.568 224.1 38.512 224.26 38.4C224.42 38.288 224.544 38.144 224.632 37.968C224.72 37.792 224.764 37.608 224.764 37.416C224.764 37.128 224.668 36.876 224.476 36.66C224.292 36.444 224.052 36.336 223.756 36.336H221.584V38.568ZM227.226 42V35.748H228.042V38.436H231.618V35.748H232.434V42H231.618V39.168H228.042V42H227.226ZM234.222 42V35.748H235.038V37.956H236.454C237.166 37.956 237.702 38.14 238.062 38.508C238.43 38.868 238.614 39.344 238.614 39.936C238.614 40.32 238.534 40.668 238.374 40.98C238.214 41.292 237.978 41.54 237.666 41.724C237.362 41.908 236.978 42 236.514 42H234.222ZM235.038 41.352H236.406C236.734 41.352 236.998 41.288 237.198 41.16C237.398 41.024 237.546 40.852 237.642 40.644C237.738 40.428 237.786 40.196 237.786 39.948C237.786 39.708 237.742 39.488 237.654 39.288C237.574 39.08 237.43 38.916 237.222 38.796C237.022 38.668 236.742 38.604 236.382 38.604H235.038V41.352ZM239.754 42V35.76H240.57V42H239.754ZM245.067 42.12C244.619 42.12 244.203 42.036 243.819 41.868C243.435 41.692 243.103 41.456 242.823 41.16C242.543 40.856 242.323 40.508 242.163 40.116C242.011 39.724 241.935 39.304 241.935 38.856C241.935 38.272 242.067 37.736 242.331 37.248C242.603 36.76 242.975 36.372 243.447 36.084C243.919 35.788 244.455 35.64 245.055 35.64C245.671 35.64 246.207 35.788 246.663 36.084C247.127 36.38 247.491 36.772 247.755 37.26C248.019 37.74 248.151 38.268 248.151 38.844C248.151 38.908 248.151 38.972 248.151 39.036C248.151 39.092 248.147 39.136 248.139 39.168H242.787C242.827 39.616 242.951 40.016 243.159 40.368C243.375 40.712 243.651 40.988 243.987 41.196C244.331 41.396 244.703 41.496 245.103 41.496C245.511 41.496 245.895 41.392 246.255 41.184C246.623 40.976 246.879 40.704 247.023 40.368L247.731 40.56C247.603 40.856 247.407 41.124 247.143 41.364C246.879 41.604 246.567 41.792 246.207 41.928C245.855 42.056 245.475 42.12 245.067 42.12ZM242.763 38.58H247.383C247.351 38.124 247.227 37.724 247.011 37.38C246.803 37.036 246.527 36.768 246.183 36.576C245.847 36.376 245.475 36.276 245.067 36.276C244.659 36.276 244.287 36.376 243.951 36.576C243.615 36.768 243.339 37.04 243.123 37.392C242.915 37.736 242.795 38.132 242.763 38.58ZM176.066 56.12C175.618 56.12 175.202 56.036 174.818 55.868C174.442 55.692 174.114 55.456 173.834 55.16C173.562 54.856 173.35 54.512 173.198 54.128C173.046 53.736 172.97 53.324 172.97 52.892C172.97 52.444 173.046 52.028 173.198 51.644C173.35 51.252 173.566 50.908 173.846 50.612C174.126 50.308 174.454 50.072 174.83 49.904C175.214 49.728 175.63 49.64 176.078 49.64C176.526 49.64 176.938 49.728 177.314 49.904C177.69 50.072 178.018 50.308 178.298 50.612C178.578 50.908 178.794 51.252 178.946 51.644C179.098 52.028 179.174 52.444 179.174 52.892C179.174 53.324 179.098 53.736 178.946 54.128C178.794 54.512 178.578 54.856 178.298 55.16C178.026 55.456 177.698 55.692 177.314 55.868C176.938 56.036 176.522 56.12 176.066 56.12ZM173.798 52.904C173.798 53.368 173.898 53.792 174.098 54.176C174.306 54.552 174.582 54.852 174.926 55.076C175.27 55.292 175.65 55.4 176.066 55.4C176.482 55.4 176.862 55.288 177.206 55.064C177.55 54.84 177.826 54.536 178.034 54.152C178.242 53.76 178.346 53.336 178.346 52.88C178.346 52.416 178.242 51.992 178.034 51.608C177.826 51.224 177.55 50.92 177.206 50.696C176.862 50.472 176.482 50.36 176.066 50.36C175.65 50.36 175.27 50.476 174.926 50.708C174.59 50.94 174.318 51.248 174.11 51.632C173.902 52.008 173.798 52.432 173.798 52.904ZM183.407 56.12C182.399 56.12 181.635 55.812 181.115 55.196C180.603 54.572 180.347 53.712 180.347 52.616C180.347 51.84 180.411 51.184 180.539 50.648C180.667 50.112 180.855 49.672 181.103 49.328C181.351 48.976 181.655 48.688 182.015 48.464C182.383 48.24 182.803 48.056 183.275 47.912L185.903 47.048L185.975 47.756L183.443 48.584C182.963 48.744 182.563 48.948 182.243 49.196C181.923 49.444 181.671 49.76 181.487 50.144C181.311 50.52 181.195 51.012 181.139 51.62C181.347 51.156 181.667 50.8 182.099 50.552C182.531 50.296 183.031 50.168 183.599 50.168C184.207 50.168 184.723 50.292 185.147 50.54C185.579 50.788 185.907 51.132 186.131 51.572C186.355 52.012 186.467 52.52 186.467 53.096C186.467 53.704 186.347 54.236 186.107 54.692C185.875 55.14 185.531 55.492 185.075 55.748C184.627 55.996 184.071 56.12 183.407 56.12ZM183.407 55.4C184.119 55.4 184.667 55.196 185.051 54.788C185.443 54.372 185.639 53.82 185.639 53.132C185.639 52.46 185.447 51.912 185.063 51.488C184.687 51.064 184.135 50.852 183.407 50.852C182.991 50.852 182.615 50.94 182.279 51.116C181.943 51.292 181.675 51.548 181.475 51.884C181.283 52.22 181.187 52.636 181.187 53.132C181.187 53.564 181.271 53.952 181.439 54.296C181.615 54.64 181.867 54.912 182.195 55.112C182.523 55.304 182.927 55.4 183.407 55.4ZM187.239 56.036V55.292C187.455 55.292 187.647 55.236 187.815 55.124C187.983 55.004 188.131 54.804 188.259 54.524C188.395 54.244 188.503 53.86 188.583 53.372C188.663 52.876 188.715 52.248 188.739 51.488L188.811 49.748H192.867V56H192.051V50.48H189.531L189.507 51.56C189.475 52.424 189.407 53.148 189.303 53.732C189.199 54.308 189.051 54.764 188.859 55.1C188.675 55.436 188.447 55.676 188.175 55.82C187.903 55.964 187.591 56.036 187.239 56.036ZM194.659 56V49.76H195.475V54.896L199.279 49.748H200.011V56H199.195V50.948L195.451 56H194.659ZM201.784 56V49.748H205.516V50.48H202.6V56H201.784ZM206.156 54.2C206.156 53.808 206.268 53.472 206.492 53.192C206.716 52.904 207.024 52.684 207.416 52.532C207.816 52.372 208.276 52.292 208.796 52.292C209.1 52.292 209.416 52.316 209.744 52.364C210.072 52.412 210.364 52.484 210.62 52.58V52.052C210.62 51.524 210.464 51.104 210.152 50.792C209.84 50.48 209.408 50.324 208.856 50.324C208.52 50.324 208.188 50.388 207.86 50.516C207.54 50.636 207.204 50.816 206.852 51.056L206.54 50.48C206.948 50.2 207.348 49.992 207.74 49.856C208.132 49.712 208.532 49.64 208.94 49.64C209.708 49.64 210.316 49.86 210.764 50.3C211.212 50.74 211.436 51.348 211.436 52.124V55.016C211.436 55.128 211.46 55.212 211.508 55.268C211.556 55.316 211.632 55.344 211.736 55.352V56C211.648 56.008 211.572 56.016 211.508 56.024C211.444 56.032 211.396 56.032 211.364 56.024C211.164 56.016 211.012 55.952 210.908 55.832C210.804 55.712 210.748 55.584 210.74 55.448L210.728 54.992C210.448 55.352 210.084 55.632 209.636 55.832C209.188 56.024 208.732 56.12 208.268 56.12C207.868 56.12 207.504 56.036 207.176 55.868C206.856 55.692 206.604 55.46 206.42 55.172C206.244 54.876 206.156 54.552 206.156 54.2ZM210.344 54.68C210.432 54.568 210.5 54.46 210.548 54.356C210.596 54.252 210.62 54.16 210.62 54.08V53.168C210.348 53.064 210.064 52.984 209.768 52.928C209.48 52.872 209.188 52.844 208.892 52.844C208.308 52.844 207.836 52.96 207.476 53.192C207.116 53.424 206.936 53.74 206.936 54.14C206.936 54.372 206.996 54.592 207.116 54.8C207.236 55 207.412 55.168 207.644 55.304C207.876 55.432 208.148 55.496 208.46 55.496C208.852 55.496 209.216 55.42 209.552 55.268C209.896 55.116 210.16 54.92 210.344 54.68ZM218.179 57.452V56H213.187V49.748H214.003V55.28H217.243V49.748H218.059V55.28H218.911V57.452H218.179ZM220.136 56V49.76H220.952V54.896L224.756 49.748H225.488V56H224.672V50.948L220.928 56H220.136ZM227.261 56V49.76H228.077V54.896L231.881 49.748H232.613V56H231.797V50.948L228.053 56H227.261Z" fill="black"/>
<path d="M242.976 17.48V26H242.148V22.016H237.096V26H236.256V17.48H237.096V21.272H242.148V17.48H242.976ZM247.553 26.12C247.105 26.12 246.689 26.036 246.305 25.868C245.921 25.692 245.589 25.456 245.309 25.16C245.029 24.856 244.809 24.508 244.649 24.116C244.497 23.724 244.421 23.304 244.421 22.856C244.421 22.272 244.553 21.736 244.817 21.248C245.089 20.76 245.461 20.372 245.933 20.084C246.405 19.788 246.941 19.64 247.541 19.64C248.157 19.64 248.693 19.788 249.149 20.084C249.613 20.38 249.977 20.772 250.241 21.26C250.505 21.74 250.637 22.268 250.637 22.844C250.637 22.908 250.637 22.972 250.637 23.036C250.637 23.092 250.633 23.136 250.625 23.168H245.273C245.313 23.616 245.437 24.016 245.645 24.368C245.861 24.712 246.137 24.988 246.473 25.196C246.817 25.396 247.189 25.496 247.589 25.496C247.997 25.496 248.381 25.392 248.741 25.184C249.109 24.976 249.365 24.704 249.509 24.368L250.217 24.56C250.089 24.856 249.893 25.124 249.629 25.364C249.365 25.604 249.053 25.792 248.693 25.928C248.341 26.056 247.961 26.12 247.553 26.12ZM245.249 22.58H249.869C249.837 22.124 249.713 21.724 249.497 21.38C249.289 21.036 249.013 20.768 248.669 20.576C248.333 20.376 247.961 20.276 247.553 20.276C247.145 20.276 246.773 20.376 246.437 20.576C246.101 20.768 245.825 21.04 245.609 21.392C245.401 21.736 245.281 22.132 245.249 22.58ZM251.2 27.452V25.268H251.308C251.492 25.268 251.66 25.212 251.812 25.1C251.964 24.988 252.1 24.792 252.22 24.512C252.34 24.232 252.436 23.848 252.508 23.36C252.58 22.864 252.628 22.24 252.652 21.488L252.712 19.748H256.78V25.268H257.62V27.452H256.888V26H251.92V27.452H251.2ZM252.544 25.268H255.964V20.48H253.444L253.408 21.56C253.384 22.304 253.332 22.928 253.252 23.432C253.18 23.928 253.084 24.324 252.964 24.62C252.852 24.908 252.712 25.124 252.544 25.268ZM258.845 26V19.748H261.965C262.317 19.748 262.613 19.824 262.853 19.976C263.093 20.12 263.273 20.308 263.393 20.54C263.521 20.772 263.585 21.02 263.585 21.284C263.585 21.62 263.505 21.924 263.345 22.196C263.185 22.46 262.953 22.66 262.649 22.796C263.009 22.9 263.301 23.088 263.525 23.36C263.749 23.632 263.861 23.96 263.861 24.344C263.861 24.68 263.777 24.972 263.609 25.22C263.449 25.468 263.225 25.66 262.937 25.796C262.657 25.932 262.333 26 261.965 26H258.845ZM259.625 25.412H261.941C262.149 25.412 262.337 25.36 262.505 25.256C262.681 25.144 262.817 25 262.913 24.824C263.017 24.648 263.069 24.464 263.069 24.272C263.069 24.064 263.021 23.876 262.925 23.708C262.829 23.532 262.701 23.392 262.541 23.288C262.381 23.184 262.197 23.132 261.989 23.132H259.625V25.412ZM259.625 22.568H261.749C261.957 22.568 262.141 22.512 262.301 22.4C262.461 22.288 262.585 22.144 262.673 21.968C262.761 21.792 262.805 21.608 262.805 21.416C262.805 21.128 262.709 20.876 262.517 20.66C262.333 20.444 262.093 20.336 261.797 20.336H259.625V22.568ZM265.267 26V19.76H266.083V24.896L269.887 19.748H270.619V26H269.803V20.948L266.059 26H265.267ZM271.96 26L274.3 22.784L272.188 19.748H273.112L274.996 22.448H275.812V19.748H276.652V22.448H277.492L279.34 19.748H280.276L278.152 22.784L280.516 26H279.568L277.492 23.168H276.652V26H275.812V23.168H274.996L272.908 26H271.96ZM281.861 26V19.76H282.677V24.896L286.481 19.748H287.213V26H286.397V20.948L282.653 26H281.861ZM288.986 26V19.748H289.826L292.31 24.056L294.806 19.748H295.61V26H294.83V20.972L292.574 24.884H292.046L289.766 20.972V26H288.986ZM300.076 26.12C299.628 26.12 299.212 26.036 298.828 25.868C298.452 25.692 298.124 25.456 297.844 25.16C297.572 24.856 297.36 24.512 297.208 24.128C297.056 23.736 296.98 23.324 296.98 22.892C296.98 22.444 297.056 22.028 297.208 21.644C297.36 21.252 297.576 20.908 297.856 20.612C298.136 20.308 298.464 20.072 298.84 19.904C299.224 19.728 299.64 19.64 300.088 19.64C300.536 19.64 300.948 19.728 301.324 19.904C301.7 20.072 302.028 20.308 302.308 20.612C302.588 20.908 302.804 21.252 302.956 21.644C303.108 22.028 303.184 22.444 303.184 22.892C303.184 23.324 303.108 23.736 302.956 24.128C302.804 24.512 302.588 24.856 302.308 25.16C302.036 25.456 301.708 25.692 301.324 25.868C300.948 26.036 300.532 26.12 300.076 26.12ZM297.808 22.904C297.808 23.368 297.908 23.792 298.108 24.176C298.316 24.552 298.592 24.852 298.936 25.076C299.28 25.292 299.66 25.4 300.076 25.4C300.492 25.4 300.872 25.288 301.216 25.064C301.56 24.84 301.836 24.536 302.044 24.152C302.252 23.76 302.356 23.336 302.356 22.88C302.356 22.416 302.252 21.992 302.044 21.608C301.836 21.224 301.56 20.92 301.216 20.696C300.872 20.472 300.492 20.36 300.076 20.36C299.66 20.36 299.28 20.476 298.936 20.708C298.6 20.94 298.328 21.248 298.12 21.632C297.912 22.008 297.808 22.432 297.808 22.904ZM307.26 26.12C306.804 26.12 306.384 26.036 306 25.868C305.624 25.692 305.292 25.452 305.004 25.148C304.724 24.844 304.504 24.496 304.344 24.104C304.192 23.712 304.116 23.296 304.116 22.856C304.116 22.264 304.248 21.724 304.512 21.236C304.776 20.748 305.144 20.36 305.616 20.072C306.088 19.784 306.632 19.64 307.248 19.64C307.832 19.64 308.348 19.776 308.796 20.048C309.244 20.312 309.576 20.672 309.792 21.128L309 21.38C308.824 21.06 308.576 20.812 308.256 20.636C307.944 20.452 307.596 20.36 307.212 20.36C306.796 20.36 306.416 20.468 306.072 20.684C305.728 20.9 305.452 21.196 305.244 21.572C305.044 21.948 304.944 22.376 304.944 22.856C304.944 23.328 305.048 23.756 305.256 24.14C305.464 24.524 305.74 24.832 306.084 25.064C306.428 25.288 306.808 25.4 307.224 25.4C307.496 25.4 307.756 25.352 308.004 25.256C308.26 25.16 308.48 25.032 308.664 24.872C308.856 24.704 308.984 24.524 309.048 24.332L309.852 24.572C309.74 24.868 309.552 25.136 309.288 25.376C309.032 25.608 308.728 25.792 308.376 25.928C308.032 26.056 307.66 26.12 307.26 26.12ZM312.694 26V20.48H310.462V19.748H315.742V20.48H313.51V26H312.694ZM316.841 26V19.748H317.657V21.956H319.277C319.989 21.956 320.525 22.14 320.885 22.508C321.253 22.868 321.437 23.344 321.437 23.936C321.437 24.32 321.357 24.668 321.197 24.98C321.037 25.292 320.801 25.54 320.489 25.724C320.185 25.908 319.801 26 319.337 26H316.841ZM317.657 25.352H319.229C319.557 25.352 319.821 25.288 320.021 25.16C320.221 25.024 320.369 24.852 320.465 24.644C320.561 24.428 320.609 24.196 320.609 23.948C320.609 23.708 320.565 23.488 320.477 23.288C320.397 23.08 320.253 22.916 320.045 22.796C319.845 22.668 319.565 22.604 319.205 22.604H317.657V25.352Z" fill="black"/>
<path d="M332.937 2.48H333.645L337.185 11H336.297L335.193 8.336H331.365L330.273 11H329.373L332.937 2.48ZM335.001 7.676L333.285 3.464L331.545 7.676H335.001ZM338.226 11V4.748H339.042V7.424H339.978L342.078 4.748H343.014L340.626 7.784L343.314 11H342.354L339.978 8.18H339.042V11H338.226ZM349.452 12.452V11H344.46V4.748H345.276V10.28H348.516V4.748H349.332V10.28H350.184V12.452H349.452ZM351.409 11V4.76H352.225V9.896L356.029 4.748H356.761V11H355.945V5.948L352.201 11H351.409ZM358.534 11V4.76H359.35V9.896L363.154 4.748H363.886V11H363.07V5.948L359.326 11H358.534Z" fill="black"/>
<rect x="1" y="158" width="525" height="1" fill="#D9D9D9"/>
<rect x="1" y="13" width="1" height="145" fill="#D9D9D9"/>
<path d="M1.5 11L0 14H3L1.5 11Z" fill="#D9D9D9"/>
<path d="M527 158.5L524 157V160L527 158.5Z" fill="#D9D9D9"/>
<rect x="42" y="109" width="50" height="50" fill="#358EF8"/>
<rect x="112" y="79" width="50" height="80" fill="#358EF8"/>
<rect x="182" y="64" width="50" height="95" fill="#358EF8"/>
<rect x="252" y="34" width="50" height="125" fill="#FF5F5F"/>
<rect x="322" y="19" width="50" height="140" fill="#358EF8"/>
</svg>
