<svg width="1205" height="325" viewBox="0 0 1205 325" fill="none" xmlns="http://www.w3.org/2000/svg">
<path d="M755.238 13.36C755.238 12.32 755.422 11.304 755.79 10.312C756.158 9.304 756.694 8.392 757.398 7.576C758.118 6.744 758.99 6.088 760.014 5.608C761.038 5.112 762.198 4.864 763.494 4.864C765.03 4.864 766.358 5.216 767.478 5.92C768.598 6.608 769.43 7.496 769.974 8.584L767.862 10C767.542 9.312 767.134 8.768 766.638 8.368C766.158 7.968 765.63 7.688 765.054 7.528C764.494 7.368 763.942 7.288 763.398 7.288C762.502 7.288 761.718 7.472 761.046 7.84C760.374 8.192 759.806 8.664 759.342 9.256C758.894 9.848 758.55 10.512 758.31 11.248C758.086 11.984 757.974 12.72 757.974 13.456C757.974 14.272 758.11 15.064 758.382 15.832C758.654 16.584 759.03 17.256 759.51 17.848C760.006 18.424 760.59 18.88 761.262 19.216C761.934 19.552 762.67 19.72 763.47 19.72C764.014 19.72 764.582 19.624 765.174 19.432C765.766 19.24 766.31 18.944 766.806 18.544C767.318 18.128 767.718 17.584 768.006 16.912L770.238 18.184C769.886 19.032 769.334 19.752 768.582 20.344C767.846 20.936 767.014 21.384 766.086 21.688C765.174 21.992 764.27 22.144 763.374 22.144C762.174 22.144 761.078 21.896 760.086 21.4C759.094 20.888 758.238 20.216 757.518 19.384C756.798 18.536 756.238 17.592 755.838 16.552C755.438 15.496 755.238 14.432 755.238 13.36ZM772.725 22V4.96H775.413V19.624H781.245V4.96H783.957V19.624H789.789V4.96H792.501V22H772.725ZM801.246 4.96H803.79L810.414 22H807.582L805.782 17.368H799.206L797.43 22H794.574L801.246 4.96ZM805.254 15.376L802.518 7.912L799.686 15.376H805.254Z" fill="black"/>
<path d="M635.27 130.12C634.038 130.12 632.926 129.88 631.934 129.4C630.942 128.92 630.086 128.272 629.366 127.456C628.646 126.624 628.086 125.696 627.686 124.672C627.302 123.632 627.11 122.568 627.11 121.48C627.11 120.344 627.318 119.264 627.734 118.24C628.15 117.2 628.726 116.28 629.462 115.48C630.198 114.664 631.062 114.024 632.054 113.56C633.062 113.08 634.15 112.84 635.318 112.84C636.534 112.84 637.638 113.088 638.63 113.584C639.638 114.08 640.494 114.744 641.198 115.576C641.918 116.408 642.47 117.336 642.854 118.36C643.254 119.384 643.454 120.432 643.454 121.504C643.454 122.64 643.246 123.728 642.83 124.768C642.43 125.792 641.862 126.712 641.126 127.528C640.39 128.328 639.518 128.96 638.51 129.424C637.518 129.888 636.438 130.12 635.27 130.12ZM629.846 121.48C629.846 122.28 629.974 123.056 630.23 123.808C630.486 124.56 630.846 125.232 631.31 125.824C631.79 126.4 632.366 126.856 633.038 127.192C633.71 127.528 634.462 127.696 635.294 127.696C636.158 127.696 636.926 127.52 637.598 127.168C638.27 126.816 638.83 126.344 639.278 125.752C639.742 125.144 640.094 124.472 640.334 123.736C640.574 122.984 640.694 122.232 640.694 121.48C640.694 120.68 640.566 119.912 640.31 119.176C640.07 118.424 639.71 117.76 639.23 117.184C638.75 116.592 638.174 116.128 637.502 115.792C636.846 115.456 636.11 115.288 635.294 115.288C634.43 115.288 633.662 115.464 632.99 115.816C632.318 116.168 631.75 116.64 631.286 117.232C630.822 117.824 630.462 118.488 630.206 119.224C629.966 119.96 629.846 120.712 629.846 121.48ZM650.5 112.96H653.044L659.668 130H656.836L655.036 125.368H648.46L646.684 130H643.828L650.5 112.96ZM654.508 123.376L651.772 115.912L648.94 123.376H654.508ZM667.542 130.144C666.486 130.144 665.51 129.984 664.614 129.664C663.734 129.344 662.95 128.888 662.262 128.296C661.59 127.688 661.03 126.984 660.582 126.184L662.838 124.912C663.158 125.52 663.558 126.032 664.038 126.448C664.518 126.864 665.054 127.184 665.646 127.408C666.254 127.616 666.886 127.72 667.542 127.72C668.374 127.72 669.134 127.56 669.822 127.24C670.51 126.904 671.102 126.448 671.598 125.872C672.094 125.296 672.462 124.64 672.702 123.904C672.958 123.152 673.078 122.368 673.062 121.552L674.214 122.344H666.03V120.256H674.142L673.062 120.976C673.046 120.256 672.91 119.56 672.654 118.888C672.398 118.2 672.038 117.592 671.574 117.064C671.11 116.52 670.542 116.088 669.87 115.768C669.198 115.448 668.422 115.288 667.542 115.288C666.918 115.288 666.31 115.392 665.718 115.6C665.142 115.792 664.622 116.096 664.158 116.512C663.694 116.912 663.31 117.416 663.006 118.024L660.822 116.584C661.478 115.496 662.35 114.608 663.438 113.92C664.526 113.216 665.894 112.864 667.542 112.864C668.87 112.864 670.046 113.112 671.07 113.608C672.11 114.088 672.982 114.736 673.686 115.552C674.406 116.352 674.95 117.264 675.318 118.288C675.686 119.312 675.87 120.368 675.87 121.456C675.87 122.592 675.67 123.68 675.27 124.72C674.886 125.76 674.326 126.688 673.59 127.504C672.854 128.32 671.974 128.968 670.95 129.448C669.942 129.912 668.806 130.144 667.542 130.144Z" fill="black"/>
<path d="M431.229 152.336H425.565V167H422.853V152.336H417.165V149.96H431.229V152.336ZM429.992 163.328C429.992 162.528 430.216 161.832 430.664 161.24C431.128 160.632 431.76 160.168 432.56 159.848C433.36 159.512 434.288 159.344 435.344 159.344C435.904 159.344 436.472 159.384 437.048 159.464C437.64 159.544 438.16 159.672 438.608 159.848V159.056C438.608 158.176 438.344 157.488 437.816 156.992C437.288 156.496 436.528 156.248 435.536 156.248C434.832 156.248 434.168 156.376 433.544 156.632C432.92 156.872 432.256 157.216 431.552 157.664L430.664 155.888C431.496 155.328 432.328 154.912 433.16 154.64C434.008 154.368 434.896 154.232 435.824 154.232C437.504 154.232 438.824 154.68 439.784 155.576C440.76 156.456 441.248 157.712 441.248 159.344V164.024C441.248 164.328 441.296 164.544 441.392 164.672C441.504 164.8 441.688 164.872 441.944 164.888V167C441.704 167.048 441.488 167.08 441.296 167.096C441.104 167.112 440.944 167.12 440.816 167.12C440.256 167.12 439.832 166.984 439.544 166.712C439.256 166.44 439.088 166.12 439.04 165.752L438.968 165.032C438.424 165.736 437.728 166.28 436.88 166.664C436.032 167.048 435.176 167.24 434.312 167.24C433.48 167.24 432.736 167.072 432.08 166.736C431.424 166.384 430.912 165.912 430.544 165.32C430.176 164.728 429.992 164.064 429.992 163.328ZM437.984 164.096C438.176 163.888 438.328 163.68 438.44 163.472C438.552 163.264 438.608 163.08 438.608 162.92V161.48C438.16 161.304 437.688 161.176 437.192 161.096C436.696 161 436.208 160.952 435.728 160.952C434.768 160.952 433.984 161.144 433.376 161.528C432.784 161.912 432.488 162.44 432.488 163.112C432.488 163.48 432.584 163.832 432.776 164.168C432.984 164.504 433.272 164.776 433.64 164.984C434.024 165.192 434.496 165.296 435.056 165.296C435.632 165.296 436.184 165.184 436.712 164.96C437.24 164.736 437.664 164.448 437.984 164.096ZM444.451 167V154.472H447.091V163.472L453.451 154.448H455.851V167H453.211V158.192L446.923 167H444.451ZM457.998 167.12V164.768C458.398 164.768 458.758 164.672 459.078 164.48C459.398 164.272 459.678 163.936 459.918 163.472C460.158 162.992 460.35 162.328 460.494 161.48C460.638 160.632 460.734 159.552 460.782 158.24L460.95 154.448H469.902V167H467.262V156.776H463.278L463.23 158.48C463.166 160.16 463.014 161.56 462.774 162.68C462.534 163.784 462.198 164.664 461.766 165.32C461.35 165.96 460.822 166.424 460.182 166.712C459.558 166.984 458.83 167.12 457.998 167.12ZM472.156 163.328C472.156 162.528 472.38 161.832 472.828 161.24C473.292 160.632 473.924 160.168 474.724 159.848C475.524 159.512 476.452 159.344 477.508 159.344C478.068 159.344 478.636 159.384 479.212 159.464C479.804 159.544 480.324 159.672 480.772 159.848V159.056C480.772 158.176 480.508 157.488 479.98 156.992C479.452 156.496 478.692 156.248 477.7 156.248C476.996 156.248 476.332 156.376 475.708 156.632C475.084 156.872 474.42 157.216 473.716 157.664L472.828 155.888C473.66 155.328 474.492 154.912 475.324 154.64C476.172 154.368 477.06 154.232 477.988 154.232C479.668 154.232 480.988 154.68 481.948 155.576C482.924 156.456 483.412 157.712 483.412 159.344V164.024C483.412 164.328 483.46 164.544 483.556 164.672C483.668 164.8 483.852 164.872 484.108 164.888V167C483.868 167.048 483.652 167.08 483.46 167.096C483.268 167.112 483.108 167.12 482.98 167.12C482.42 167.12 481.996 166.984 481.708 166.712C481.42 166.44 481.252 166.12 481.204 165.752L481.132 165.032C480.588 165.736 479.892 166.28 479.044 166.664C478.196 167.048 477.34 167.24 476.476 167.24C475.644 167.24 474.9 167.072 474.244 166.736C473.588 166.384 473.076 165.912 472.708 165.32C472.34 164.728 472.156 164.064 472.156 163.328ZM480.148 164.096C480.34 163.888 480.492 163.68 480.604 163.472C480.716 163.264 480.772 163.08 480.772 162.92V161.48C480.324 161.304 479.852 161.176 479.356 161.096C478.86 161 478.372 160.952 477.892 160.952C476.932 160.952 476.148 161.144 475.54 161.528C474.948 161.912 474.652 162.44 474.652 163.112C474.652 163.48 474.748 163.832 474.94 164.168C475.148 164.504 475.436 164.776 475.804 164.984C476.188 165.192 476.66 165.296 477.22 165.296C477.796 165.296 478.348 165.184 478.876 164.96C479.404 164.736 479.828 164.448 480.148 164.096ZM486.615 167V154.448H489.255V159.44H495.087V154.448H497.727V167H495.087V161.72H489.255V167H486.615ZM499.712 170V164.672H500C500.336 164.672 500.648 164.576 500.936 164.384C501.224 164.192 501.48 163.864 501.704 163.4C501.928 162.92 502.112 162.264 502.256 161.432C502.4 160.584 502.488 159.52 502.52 158.24L502.664 154.448H511.616V164.672H513.344V170H511.016V167H502.016V170H499.712ZM503.48 164.672H508.976V156.728H504.992L504.92 158.48C504.872 159.696 504.784 160.72 504.656 161.552C504.544 162.384 504.384 163.048 504.176 163.544C503.984 164.04 503.752 164.416 503.48 164.672Z" fill="black"/>
<path d="M367.057 201.336H361.393V216H358.681V201.336H352.993V198.96H367.057V201.336ZM369.093 221.328C368.805 221.328 368.501 221.288 368.181 221.208C367.861 221.128 367.525 221.008 367.173 220.848L367.845 218.88C368.037 218.976 368.221 219.048 368.397 219.096C368.573 219.144 368.733 219.168 368.877 219.168C369.277 219.168 369.637 219 369.957 218.664C370.293 218.344 370.589 217.856 370.845 217.2L371.325 215.904L366.021 203.448H368.781L372.621 213.312L376.029 203.448H378.573L373.053 217.92C372.781 218.672 372.437 219.296 372.021 219.792C371.621 220.288 371.173 220.664 370.677 220.92C370.181 221.192 369.653 221.328 369.093 221.328ZM387.642 216.24C386.634 216.24 385.746 216 384.978 215.52C384.21 215.04 383.602 214.416 383.154 213.648V221.112H380.514V203.448H382.842V205.704C383.322 204.952 383.946 204.352 384.714 203.904C385.482 203.456 386.338 203.232 387.282 203.232C388.146 203.232 388.938 203.408 389.658 203.76C390.378 204.096 391.002 204.568 391.53 205.176C392.058 205.784 392.466 206.48 392.754 207.264C393.058 208.032 393.21 208.848 393.21 209.712C393.21 210.912 392.97 212.008 392.49 213C392.026 213.992 391.37 214.784 390.522 215.376C389.69 215.952 388.73 216.24 387.642 216.24ZM386.778 213.984C387.338 213.984 387.842 213.864 388.29 213.624C388.754 213.384 389.146 213.064 389.466 212.664C389.802 212.264 390.058 211.808 390.234 211.296C390.41 210.784 390.498 210.256 390.498 209.712C390.498 209.136 390.402 208.592 390.21 208.08C390.018 207.568 389.738 207.12 389.37 206.736C389.018 206.352 388.602 206.048 388.122 205.824C387.658 205.6 387.146 205.488 386.586 205.488C386.25 205.488 385.898 205.552 385.53 205.68C385.162 205.808 384.818 205.984 384.498 206.208C384.178 206.432 383.898 206.696 383.658 207C383.418 207.304 383.25 207.624 383.154 207.96V211.248C383.378 211.76 383.674 212.224 384.042 212.64C384.41 213.04 384.834 213.368 385.314 213.624C385.794 213.864 386.282 213.984 386.778 213.984ZM405.424 219V216H395.584V203.448H398.224V213.696H403.36V203.448H406V213.696H407.752V219H405.424ZM409.975 216V203.472H412.615V212.472L418.975 203.448H421.375V216H418.735V207.192L412.447 216H409.975ZM423.737 216L427.097 211.032C426.313 210.84 425.689 210.44 425.225 209.832C424.761 209.224 424.529 208.408 424.529 207.384C424.529 206.6 424.705 205.912 425.057 205.32C425.425 204.728 425.937 204.264 426.593 203.928C427.249 203.592 428.009 203.424 428.873 203.424H434.393V216H431.753V211.464H429.689L426.617 216H423.737ZM429.137 209.544H431.753V205.464H429.305C428.633 205.464 428.097 205.648 427.697 206.016C427.313 206.384 427.121 206.864 427.121 207.456C427.121 208.048 427.289 208.544 427.625 208.944C427.977 209.344 428.481 209.544 429.137 209.544Z" fill="black"/>
<path d="M823 30.5556L817 25V35L823 30.5556Z" fill="#FF5F5F"/>
<path d="M816.5 50V25" stroke="#D1D1D1" stroke-linecap="round"/>
<path d="M688.5 138.556L682.5 133V143L688.5 138.556Z" fill="#FF5F5F"/>
<path d="M682 158V133" stroke="#D1D1D1" stroke-linecap="round"/>
<path d="M525.5 175.556L519.5 170V180L525.5 175.556Z" fill="#FF5F5F"/>
<path d="M519 195V170" stroke="#D1D1D1" stroke-linecap="round"/>
<path d="M447.5 224.556L441.5 219V229L447.5 224.556Z" fill="#FF5F5F"/>
<path d="M441 244V219" stroke="#D1D1D1" stroke-linecap="round"/>
<path d="M25.7939 323.809C16.145 324.074 7.68456 324.052 1 323.809H25.7939C65.3789 322.721 124.965 316.799 163.977 301.477C172.783 297.754 194.935 292.543 213.093 301.477C231.251 310.41 249.186 305.199 255.884 301.477C262.829 299.367 279.623 295.223 291.233 295.521C305.744 295.893 314.674 292.543 320.628 289.938C326.581 287.333 333.651 281.749 346.302 280.633C358.953 279.516 389.093 274.677 396.535 263.511C403.977 252.345 425.93 242.295 454.581 240.806C477.502 239.615 487.946 220.458 490.302 211.029C494.519 204.95 508.014 193.163 528.256 194.652C548.498 196.141 555.791 193.039 556.907 191.302C559.573 191.635 564.164 192.663 568.905 194.652C572.988 196.364 577.181 198.789 580.349 202.096C587.195 209.242 597.341 202.592 601.558 198.374C606.395 189.689 619.791 172.319 634.674 172.319C649.558 172.319 657.248 166.115 659.233 163.014C664.713 161.478 674.947 159.401 686.023 158.805C693.746 158.39 701.878 158.695 709.093 160.408C726.656 164.577 787.853 87.2064 816.256 48L867.233 80.0103L922.302 155.197L978.488 184.23C989.403 185.346 1018.23 193.312 1046.21 216.24C1074.19 239.168 1161.06 297.506 1201 323.809H816.256H766.023H25.7939Z" fill="#00397C"/>
<path d="M816.256 48C787.853 87.2064 726.656 164.577 709.093 160.408C701.878 158.695 693.746 158.39 686.023 158.805M816.256 48L867.233 80.0103L922.302 155.197L978.488 184.23M816.256 48L811.791 133.981C801.496 150.731 776.963 184.23 761.186 184.23C745.409 184.23 704.504 167.28 686.023 158.805M978.488 184.23C989.403 185.346 1018.23 193.312 1046.21 216.24C1074.19 239.168 1161.06 297.506 1201 323.809H816.256M978.488 184.23C972.237 201.203 934.705 222.816 916.721 231.501L895.884 224.056C880.38 228.275 848.702 243.114 846.023 268.722C843.344 294.33 825.062 316.117 816.256 323.809M568.905 194.652C564.164 192.663 559.573 191.635 556.907 191.302C555.791 193.039 548.498 196.141 528.256 194.652C508.014 193.163 494.519 204.95 490.302 211.029C487.946 220.458 477.502 239.615 454.581 240.806C425.93 242.295 403.977 252.345 396.535 263.511C389.093 274.677 358.953 279.516 346.302 280.633C333.651 281.749 326.581 287.333 320.628 289.938C314.674 292.543 305.744 295.893 291.233 295.521C279.623 295.223 262.829 299.367 255.884 301.477C249.186 305.199 231.251 310.41 213.093 301.477C194.935 292.543 172.783 297.754 163.977 301.477C115.456 320.534 35.1085 325.05 1 323.809H766.023M568.905 194.652C572.988 196.364 577.181 198.789 580.349 202.096C587.195 209.242 597.341 202.592 601.558 198.374C606.395 189.689 619.791 172.319 634.674 172.319C649.558 172.319 657.248 166.115 659.233 163.014C664.713 161.478 674.947 159.401 686.023 158.805M568.905 194.652C571.603 207.927 581.316 235.744 598.581 240.806C620.163 247.134 676.721 243.784 766.023 323.809M766.023 323.809H816.256" stroke="white" stroke-width="2"/>
</svg>
