<svg width="528" height="282" viewBox="0 0 528 282" fill="none" xmlns="http://www.w3.org/2000/svg">
<path d="M368.919 176.536C365.509 171.029 361.741 165.89 357.973 160.995C355.82 158.303 353.487 155.611 351.154 153.164C339.132 140.071 326.392 130.159 315.985 123.062C315.267 122.573 314.729 121.838 314.729 121.104V115.598C314.729 114.129 312.935 112.783 310.782 112.783C308.628 112.783 306.834 114.007 306.834 115.598V300.003C306.834 301.594 308.628 302.817 310.782 302.817C312.038 302.817 313.294 302.817 314.55 302.695C335.185 302.328 355.82 301.961 376.455 301.594C378.249 301.594 379.685 300.737 380.223 299.513C386.862 282.26 402.293 230.377 368.919 176.536ZM325.136 139.459C328.905 142.518 332.314 145.577 335.723 148.759C337.697 150.594 335.723 153.164 332.493 153.164H322.086C319.933 153.164 318.138 151.94 318.138 150.35L318.318 141.172C318.318 138.725 322.804 137.501 325.136 139.459ZM321.907 161.73H345.771C347.207 161.73 348.463 162.219 349.181 163.076C350.257 164.422 351.334 165.768 352.41 167.114C353.846 168.949 351.872 171.152 349.001 171.152H321.907C319.753 171.152 317.959 169.928 317.959 168.337V164.422C317.959 162.953 319.753 161.73 321.907 161.73ZM321.548 179.962H358.332C359.947 179.962 361.382 180.574 361.921 181.675C362.638 183.021 363.535 184.367 364.253 185.713C365.33 187.549 363.356 189.507 360.664 189.507H321.548C319.394 189.507 317.6 188.283 317.6 186.692V182.776C317.6 181.186 319.394 179.962 321.548 179.962ZM321.368 198.072H367.483C369.277 198.072 370.713 198.929 371.251 200.03C371.969 201.866 372.687 203.579 373.225 205.414C373.763 207.127 371.969 208.84 369.457 208.84H321.189C319.036 208.84 317.241 207.617 317.241 206.026V200.764C317.421 199.296 319.215 198.072 321.368 198.072ZM321.009 217.528H373.584C375.558 217.528 377.173 218.507 377.531 219.853C377.89 221.077 378.07 222.423 378.249 223.647C378.608 225.36 376.814 226.828 374.302 226.828H321.009C318.856 226.828 317.062 225.604 317.062 224.014V220.22C317.062 218.752 318.856 217.528 321.009 217.528ZM320.83 235.516H376.275C378.429 235.516 380.043 236.617 380.223 238.086C380.402 239.799 380.402 241.634 380.582 243.347C380.582 244.938 378.787 246.162 376.634 246.162H320.83C318.677 246.162 316.882 244.938 316.882 243.347V238.086C316.882 236.74 318.677 235.516 320.83 235.516ZM320.471 254.85H376.275C378.429 254.85 380.223 256.196 380.223 257.664C380.043 259.377 379.864 261.213 379.685 262.926C379.505 264.394 377.89 265.496 375.737 265.496H320.292C318.138 265.496 316.344 264.272 316.344 262.681V257.42C316.523 256.074 318.318 254.85 320.471 254.85ZM320.112 274.306H373.584C375.916 274.306 377.89 275.774 377.531 277.488C377.352 278.589 376.993 279.69 376.814 280.791C376.455 282.137 374.84 283.116 372.866 283.116H320.112C317.959 283.116 316.165 281.893 316.165 280.302V276.998C316.344 275.407 318.138 274.306 320.112 274.306Z" fill="#004CA5"/>
<path d="M298.579 223.402V300.737C298.579 301.838 297.144 302.695 295.349 302.695H190.201C188.406 302.695 186.971 301.838 186.971 300.737V250.078C186.971 248.976 188.406 248.12 190.201 248.12H197.198C198.993 248.12 200.428 247.263 200.428 246.162V205.292C200.428 204.19 201.864 203.334 203.658 203.334H212.63C214.424 203.334 215.86 202.477 215.86 201.376V62.7358C215.86 61.6345 217.295 60.7779 219.09 60.7779H228.061C229.856 60.7779 231.291 59.9214 231.291 58.8201V30.9207H232.906V2.40953C232.906 1.30824 234.342 0.451675 236.136 0.451675C237.93 0.451675 239.366 1.30824 239.366 2.40953V30.9207H241.16V47.4401C241.16 48.5414 242.596 49.3979 244.39 49.3979H245.646C247.44 49.3979 248.876 50.2545 248.876 51.3558V58.9425C248.876 60.0438 250.311 60.9003 252.106 60.9003H253.362C255.156 60.9003 256.591 61.7569 256.591 62.8582V110.091C256.591 111.193 258.027 112.049 259.821 112.049H268.793C270.587 112.049 272.023 112.906 272.023 114.007V168.46C272.023 169.561 273.458 170.418 275.253 170.418H280.995C282.789 170.418 284.224 171.274 284.224 172.375V219.976C284.224 221.077 285.66 221.934 287.454 221.934H294.452C296.964 221.444 298.579 222.301 298.579 223.402Z" fill="#004CA5"/>
<path d="M142.471 234.904H47.1914V302.695H142.471V234.904Z" fill="#004CA5"/>
<path d="M128.119 237.596H68.7257V217.528C66.2136 203.212 81.1067 191.464 96.897 190.975C113.405 190.486 130.451 202.355 128.119 217.528V237.596Z" fill="#004CA5"/>
<path d="M97.4358 182.165H93.4883V197.216H97.4358V182.165Z" fill="#004CA5"/>
<path d="M97.7937 183.144C95.461 184.979 91.334 185.346 88.4631 183.878C87.9248 183.633 87.5659 183.388 87.207 183.144C89.8986 183.388 92.5901 182.532 94.0255 180.941C95.8199 178.983 95.461 176.413 93.3078 174.7C94.3844 174.823 95.461 175.067 96.3582 175.435C99.9469 177.148 100.844 180.696 97.7937 183.144Z" fill="#004CA5"/>
<path d="M62.8036 302.695H17.5859V245.183C17.5859 242.246 20.9952 239.921 25.3016 239.921H62.8036V302.695Z" fill="#004CA5"/>
<path d="M59.9322 239.921H29.7871V225.482C29.7871 214.836 40.1943 208.229 47.1923 208.718C53.652 209.208 61.0088 216.182 59.9322 225.482V239.921Z" fill="#004CA5"/>
<path d="M47.1909 239.921H29.7857V148.147C28.8885 142.763 34.451 138.847 38.7574 138.847C43.0639 138.97 48.088 142.885 47.1909 148.147C47.1909 178.738 47.1909 209.33 47.1909 239.921Z" fill="#004CA5"/>
<path d="M32.4777 302.695H0V251.424C0 248.364 3.5887 245.917 8.07458 245.917H32.4777V302.695Z" fill="#004CA5"/>
<path d="M39.8351 133.463H37.8613V141.05H39.8351V133.463Z" fill="#004CA5"/>
<path d="M40.012 133.953C38.9353 134.809 36.9616 135.054 35.5261 134.442C35.1672 134.32 34.9878 134.197 34.6289 133.953C35.885 134.075 37.3204 133.708 38.0382 132.851C38.9353 131.872 38.7559 130.526 37.6793 129.792C38.2176 129.792 38.7559 129.915 39.1148 130.159C41.0886 131.016 41.4474 132.729 40.012 133.953Z" fill="#004CA5"/>
<path d="M131.707 302.695H176.925V244.449C176.925 241.879 173.874 239.921 170.286 239.921H131.886V302.695H131.707Z" fill="#004CA5"/>
<path d="M134.401 239.921H164.546V225.482C164.546 214.836 154.138 208.229 147.14 208.718C140.681 209.207 133.324 216.182 134.401 225.482V239.921Z" fill="#004CA5"/>
<path d="M147.138 239.921H164.543V148.147C165.441 142.763 159.878 138.847 155.572 138.847C151.265 138.97 146.241 142.885 147.138 148.147C147.138 178.738 147.138 209.33 147.138 239.921Z" fill="#004CA5"/>
<path d="M162.033 302.695H194.511V251.179C194.511 248.364 191.102 246.04 186.975 246.04H162.033V302.695Z" fill="#004CA5"/>
<path d="M157.011 133.463H155.037V141.05H157.011V133.463Z" fill="#004CA5"/>
<path d="M157.188 133.953C156.111 134.809 154.137 135.054 152.702 134.442C152.343 134.32 152.164 134.197 151.805 133.953C153.061 134.075 154.496 133.708 155.214 132.851C156.111 131.872 155.932 130.526 154.855 129.792C155.393 129.792 155.932 129.915 156.291 130.159C158.264 131.016 158.623 132.729 157.188 133.953Z" fill="#004CA5"/>
<path d="M458.096 122.083C459.532 122.083 460.608 121.349 460.608 120.492C460.967 114.496 461.146 108.378 461.505 102.382C461.685 98.3442 461.864 94.1838 462.044 90.1457C462.044 88.0655 462.223 85.8629 462.223 83.7827V57.3517C462.223 56.4952 461.146 55.761 459.711 55.761C458.276 55.761 457.199 56.4952 457.199 57.3517V68.6094C457.199 69.4659 456.122 70.2001 454.687 70.2001C453.251 70.2001 452.175 70.9343 452.175 71.7909V88.7997C452.175 89.2891 451.816 89.6562 451.278 90.0233L398.165 121.104C397.626 121.471 397.268 121.838 397.268 122.328V300.982C397.268 301.838 398.344 302.572 399.78 302.572H459.532C460.967 302.572 462.044 301.838 462.044 300.982V140.071C462.044 139.214 460.967 138.48 459.532 138.48H455.763C454.328 138.48 453.251 137.746 453.251 136.889V123.796C453.251 122.94 454.328 122.206 455.763 122.206C456.661 122.083 457.378 122.083 458.096 122.083ZM436.026 120.003H438.538C439.973 120.003 441.05 120.737 441.05 121.594V138.847C441.05 139.704 439.973 140.438 438.538 140.438H436.026C434.59 140.438 433.513 139.704 433.513 138.847V121.594C433.513 120.737 434.59 120.003 436.026 120.003ZM419.159 120.003H421.671C423.106 120.003 424.183 120.737 424.183 121.594V138.847C424.183 139.704 423.106 140.438 421.671 140.438H419.159C417.723 140.438 416.647 139.704 416.647 138.847V121.594C416.647 120.737 417.723 120.003 419.159 120.003ZM441.409 285.197H414.314C412.878 285.197 411.802 284.462 411.802 283.606V280.914C411.802 280.057 412.878 279.323 414.314 279.323H441.409C442.844 279.323 443.921 280.057 443.921 280.914V283.606C443.921 284.462 442.844 285.197 441.409 285.197ZM441.409 272.471H414.314C412.878 272.471 411.802 271.736 411.802 270.88V268.188C411.802 267.331 412.878 266.597 414.314 266.597H441.409C442.844 266.597 443.921 267.331 443.921 268.188V270.88C443.921 271.736 442.844 272.471 441.409 272.471ZM441.409 260.601H414.314C412.878 260.601 411.802 259.867 411.802 259.01V256.318C411.802 255.462 412.878 254.728 414.314 254.728H441.409C442.844 254.728 443.921 255.462 443.921 256.318V259.01C443.921 259.867 442.844 260.601 441.409 260.601ZM453.072 235.639H429.207C427.772 235.639 426.695 234.904 426.695 234.048V233.191C426.695 232.335 427.772 231.6 429.207 231.6H453.072C454.507 231.6 455.584 232.335 455.584 233.191V234.048C455.584 234.904 454.507 235.639 453.072 235.639ZM453.072 225.482H429.207C427.772 225.482 426.695 224.748 426.695 223.891V221.689C426.695 220.832 427.772 220.098 429.207 220.098H453.072C454.507 220.098 455.584 220.832 455.584 221.689V223.891C455.584 224.748 454.507 225.482 453.072 225.482ZM453.072 213.98H429.207C427.772 213.98 426.695 213.246 426.695 212.389V210.186C426.695 209.33 427.772 208.596 429.207 208.596H453.072C454.507 208.596 455.584 209.33 455.584 210.186V212.389C455.584 213.246 454.507 213.98 453.072 213.98ZM453.072 202.477H429.207C427.772 202.477 426.695 201.743 426.695 200.887V198.684C426.695 197.827 427.772 197.093 429.207 197.093H453.072C454.507 197.093 455.584 197.827 455.584 198.684V200.887C455.584 201.743 454.507 202.477 453.072 202.477ZM453.072 190.975H429.207C427.772 190.975 426.695 190.241 426.695 189.384V186.08C426.695 185.224 427.772 184.49 429.207 184.49H453.072C454.507 184.49 455.584 185.224 455.584 186.08V189.384C455.584 190.241 454.507 190.975 453.072 190.975ZM453.072 178.371H429.207C427.772 178.371 426.695 177.637 426.695 176.781V174.211C426.695 173.354 427.772 172.62 429.207 172.62H453.072C454.507 172.62 455.584 173.354 455.584 174.211V176.781C455.584 177.637 454.507 178.371 453.072 178.371ZM453.072 166.502H429.207C427.772 166.502 426.695 165.768 426.695 164.911V162.219C426.695 161.363 427.772 160.628 429.207 160.628H453.072C454.507 160.628 455.584 161.363 455.584 162.219V164.911C455.584 165.768 454.507 166.502 453.072 166.502ZM455.584 150.839V152.797C455.584 153.653 454.507 154.388 453.072 154.388H429.207C427.772 154.388 426.695 153.653 426.695 152.797V150.839C426.695 149.983 427.772 149.248 429.207 149.248H453.072C454.507 149.248 455.584 149.983 455.584 150.839Z" fill="#004CA5"/>
<path d="M483.936 163.32V173.477C483.936 174.211 483.039 174.7 481.962 174.7H479.091C478.014 174.7 477.117 175.312 477.117 175.924V301.349C477.117 302.083 478.014 302.572 479.091 302.572H525.744C526.821 302.572 527.718 301.961 527.718 301.349V162.219C527.718 161.852 527.538 161.485 527 161.24L485.73 137.134C485.371 136.889 485.012 136.522 485.012 136.155V122.94C485.012 122.206 484.115 121.716 483.039 121.716C481.962 121.716 481.065 121.104 481.065 120.492V111.682C481.065 110.948 480.168 110.458 479.091 110.458C478.014 110.458 477.117 111.07 477.117 111.682V132.239C477.117 133.953 477.297 135.543 477.297 137.256C477.476 140.438 477.476 143.619 477.656 146.801C477.835 151.573 478.014 156.223 478.373 160.995C478.373 161.73 479.27 162.219 480.347 162.219C480.885 162.219 481.424 162.219 481.962 162.219C483.039 162.097 483.936 162.586 483.936 163.32ZM497.573 176.413H495.599C494.522 176.413 493.625 175.802 493.625 175.19V161.73C493.625 160.995 494.522 160.506 495.599 160.506H497.573C498.649 160.506 499.547 161.118 499.547 161.73V175.19C499.547 175.802 498.649 176.413 497.573 176.413ZM510.672 176.413H508.698C507.621 176.413 506.724 175.802 506.724 175.19V161.73C506.724 160.995 507.621 160.506 508.698 160.506H510.672C511.748 160.506 512.645 161.118 512.645 161.73V175.19C512.645 175.802 511.748 176.413 510.672 176.413ZM493.446 284.34H514.619C515.696 284.34 516.593 284.952 516.593 285.564V287.644C516.593 288.378 515.696 288.868 514.619 288.868H493.446C492.369 288.868 491.472 288.256 491.472 287.644V285.564C491.472 284.952 492.369 284.34 493.446 284.34ZM493.446 274.428H514.619C515.696 274.428 516.593 275.04 516.593 275.652V277.732C516.593 278.466 515.696 278.956 514.619 278.956H493.446C492.369 278.956 491.472 278.344 491.472 277.732V275.652C491.472 275.04 492.369 274.428 493.446 274.428ZM493.446 265.251H514.619C515.696 265.251 516.593 265.863 516.593 266.475V268.555C516.593 269.289 515.696 269.778 514.619 269.778H493.446C492.369 269.778 491.472 269.167 491.472 268.555V266.475C491.472 265.74 492.369 265.251 493.446 265.251ZM484.295 247.263H502.956C504.032 247.263 504.93 247.875 504.93 248.487V249.099C504.93 249.833 504.032 250.322 502.956 250.322H484.295C483.218 250.322 482.321 249.711 482.321 249.099V248.487C482.321 247.875 483.218 247.263 484.295 247.263ZM484.295 238.33H502.956C504.032 238.33 504.93 238.942 504.93 239.554V241.267C504.93 242.001 504.032 242.491 502.956 242.491H484.295C483.218 242.491 482.321 241.879 482.321 241.267V239.554C482.321 238.942 483.218 238.33 484.295 238.33ZM484.295 229.398H502.956C504.032 229.398 504.93 230.01 504.93 230.621V232.335C504.93 233.069 504.032 233.558 502.956 233.558H484.295C483.218 233.558 482.321 232.946 482.321 232.335V230.621C482.321 229.887 483.218 229.398 484.295 229.398ZM484.295 220.343H502.956C504.032 220.343 504.93 220.955 504.93 221.566V223.28C504.93 224.014 504.032 224.503 502.956 224.503H484.295C483.218 224.503 482.321 223.891 482.321 223.28V221.566C482.321 220.955 483.218 220.343 484.295 220.343ZM484.295 210.554H502.956C504.032 210.554 504.93 211.165 504.93 211.777V214.347C504.93 215.081 504.032 215.57 502.956 215.57H484.295C483.218 215.57 482.321 214.959 482.321 214.347V211.777C482.321 211.165 483.218 210.554 484.295 210.554ZM484.295 201.376H502.956C504.032 201.376 504.93 201.988 504.93 202.6V204.558C504.93 205.292 504.032 205.781 502.956 205.781H484.295C483.218 205.781 482.321 205.169 482.321 204.558V202.6C482.321 201.988 483.218 201.376 484.295 201.376ZM484.295 191.954H502.956C504.032 191.954 504.93 192.566 504.93 193.178V195.258C504.93 195.992 504.032 196.481 502.956 196.481H484.295C483.218 196.481 482.321 195.87 482.321 195.258V193.178C482.321 192.566 483.218 191.954 484.295 191.954ZM504.93 184.49V186.08C504.93 186.815 504.032 187.304 502.956 187.304H484.295C483.218 187.304 482.321 186.692 482.321 186.08V184.49C482.321 183.755 483.218 183.266 484.295 183.266H502.956C504.032 183.266 504.93 183.755 504.93 184.49Z" fill="#004CA5"/>
</svg>
