<svg width="50" height="50" viewBox="0 0 50 50" fill="none" xmlns="http://www.w3.org/2000/svg">
<circle cx="25" cy="25" r="24.5" stroke="#0A0A0A" stroke-opacity="0.75"/>
<g clip-path="url(#clip0_21_2553)">
<path d="M23.6957 16.1163C23.8425 16.2627 24.0414 16.345 24.2488 16.345C24.4562 16.345 24.6551 16.2627 24.8019 16.1163L27.2026 13.7156C27.2461 13.6721 27.2806 13.6204 27.3042 13.5635C27.3278 13.5066 27.3399 13.4456 27.3399 13.3841C27.3399 13.3225 27.3278 13.2615 27.3042 13.2046C27.2806 13.1477 27.2461 13.096 27.2026 13.0525C27.159 13.009 27.1073 12.9744 27.0504 12.9509C26.9936 12.9273 26.9326 12.9152 26.871 12.9152C26.8094 12.9152 26.7485 12.9273 26.6916 12.9509C26.6347 12.9744 26.583 13.009 26.5394 13.0525L24.2501 15.3431L23.4607 14.555C23.3728 14.4671 23.2535 14.4177 23.1291 14.4177C23.0048 14.4177 22.8855 14.4671 22.7976 14.555C22.7096 14.6429 22.6602 14.7622 22.6602 14.8866C22.6602 15.0109 22.7096 15.1302 22.7976 15.2181L23.6957 16.1163ZM25.0001 19.39C25.9286 19.39 26.8364 19.1146 27.6085 18.5988C28.3806 18.0829 28.9823 17.3496 29.3377 16.4917C29.693 15.6338 29.786 14.6898 29.6049 13.7791C29.4237 12.8683 28.9765 12.0317 28.3199 11.3751C27.6633 10.7185 26.8268 10.2714 25.916 10.0902C25.0053 9.90906 24.0613 10.002 23.2034 10.3574C22.3455 10.7127 21.6122 11.3145 21.0963 12.0866C20.5804 12.8587 20.3051 13.7664 20.3051 14.695C20.3066 15.9397 20.8017 17.1331 21.6818 18.0132C22.562 18.8934 23.7553 19.3885 25.0001 19.39ZM25.0001 10.9375C25.7432 10.9375 26.4697 11.1579 27.0876 11.5708C27.7055 11.9836 28.1871 12.5705 28.4715 13.2571C28.7559 13.9437 28.8303 14.6992 28.6854 15.4281C28.5404 16.1569 28.1825 16.8265 27.657 17.352C27.1315 17.8775 26.462 18.2353 25.7331 18.3803C25.0042 18.5253 24.2487 18.4509 23.5621 18.1665C22.8755 17.8821 22.2887 17.4005 21.8758 16.7826C21.4629 16.1646 21.2426 15.4382 21.2426 14.695C21.2437 13.6988 21.64 12.7437 22.3444 12.0393C23.0488 11.3349 24.0039 10.9387 25.0001 10.9375ZM40.2026 24.8519L35.3513 29.6306C35.2399 29.743 35.1073 29.8321 34.9612 29.8928C34.815 29.9536 34.6583 29.9847 34.5001 29.9844C34.3414 29.9848 34.1843 29.9538 34.0378 29.893C33.8912 29.8323 33.7582 29.7431 33.6463 29.6306L28.8663 24.8506C28.7371 24.722 28.639 24.5655 28.5794 24.3931C28.5776 24.3862 28.5751 24.3795 28.5719 24.3731C28.5016 24.1613 28.4917 23.9341 28.5435 23.717C28.5953 23.4999 28.7067 23.3016 28.8651 23.1444L40.8651 11.2694C40.9538 11.1814 41.004 11.0617 41.0045 10.9367C41.005 10.8117 40.9559 10.6916 40.8679 10.6028C40.7799 10.5141 40.6602 10.4639 40.5352 10.4634C40.4102 10.4628 40.2901 10.512 40.2013 10.6L28.2013 22.4794C27.9935 22.6888 27.8308 22.9386 27.7233 23.2134C27.6158 23.4881 27.5658 23.782 27.5763 24.0769H27.0682C26.6435 24.0772 26.2236 24.1671 25.8359 24.3406C25.4482 24.5141 25.1015 24.7673 24.8182 25.0838L24.7626 25.1463C24.0129 24.7771 23.1953 24.5663 22.3607 24.5269C22.4527 24.1662 22.4492 23.7878 22.3506 23.4289C22.2519 23.07 22.0616 22.743 21.7982 22.48L9.79944 10.5288C9.71043 10.4461 9.59281 10.4013 9.47137 10.4036C9.34993 10.406 9.23416 10.4554 9.14843 10.5415C9.06271 10.6275 9.01373 10.7435 9.01182 10.8649C9.00991 10.9864 9.05522 11.1038 9.13819 11.1925L21.1382 23.1425C21.3642 23.3693 21.4911 23.6764 21.4911 23.9966C21.4911 24.3167 21.3642 24.6238 21.1382 24.8506L16.3582 29.6306C16.1314 29.8564 15.8244 29.9832 15.5044 29.9832C15.1844 29.9832 14.8775 29.8564 14.6507 29.6306L9.80069 24.7644C9.71199 24.6814 9.59454 24.6361 9.4731 24.638C9.35165 24.6399 9.23569 24.6889 9.14964 24.7746C9.06359 24.8603 9.01418 24.9761 9.01181 25.0976C9.00944 25.219 9.0543 25.3366 9.13694 25.4256L13.9851 30.2938C14.1844 30.4926 14.421 30.6501 14.6813 30.7573C14.9415 30.8646 15.2204 30.9194 15.5019 30.9188C15.6802 30.9182 15.8578 30.896 16.0307 30.8525C16.043 31.1061 16.071 31.3586 16.1144 31.6088C15.9276 31.6995 15.7573 31.821 15.6107 31.9681L14.6913 32.8894C14.4295 33.1501 14.251 33.4827 14.1785 33.845C14.106 34.2074 14.1427 34.583 14.2839 34.9245C14.4252 35.2659 14.6646 35.5577 14.9719 35.7629C15.2793 35.968 15.6406 36.0773 16.0101 36.0769C16.0482 36.0769 16.0857 36.0769 16.1238 36.0731C16.1238 36.1106 16.1201 36.1481 16.1201 36.1863C16.12 36.4312 16.1682 36.6738 16.2618 36.9001C16.3555 37.1265 16.4929 37.3322 16.6661 37.5054C16.8393 37.6787 17.0449 37.8161 17.2712 37.9099C17.4975 38.0036 17.7401 38.0519 17.9851 38.0519C18.0238 38.0519 18.0619 38.0519 18.1001 38.0481C18.0843 38.3022 18.1207 38.5567 18.2071 38.7962C18.2934 39.0356 18.4279 39.2548 18.6022 39.4403C18.7766 39.6257 18.987 39.7735 19.2207 39.8745C19.4543 39.9755 19.7062 40.0276 19.9607 40.0275C19.9988 40.0275 20.0369 40.0275 20.0751 40.0231C20.0519 40.401 20.1443 40.7769 20.3399 41.101C20.5355 41.4251 20.8252 41.682 21.1703 41.8375C21.5154 41.9931 21.8997 42.0399 22.2721 41.9718C22.6445 41.9037 22.9873 41.7239 23.2551 41.4563L23.8251 40.8863L24.3951 41.4563C24.656 41.717 24.9884 41.8946 25.3502 41.9665C25.7121 42.0384 26.0871 42.0014 26.4279 41.8602C26.7687 41.7189 27.06 41.4799 27.265 41.1731C27.47 40.8664 27.5794 40.5058 27.5794 40.1369C27.5794 40.0988 27.5794 40.0606 27.5757 40.0225C27.6132 40.0225 27.6513 40.0263 27.6888 40.0263C27.9338 40.0265 28.1764 39.9785 28.4028 39.8849C28.6291 39.7913 28.8348 39.654 29.0081 39.4808C29.1814 39.3077 29.3188 39.102 29.4126 38.8757C29.5063 38.6494 29.5545 38.4068 29.5544 38.1619C29.5544 38.1231 29.5532 38.085 29.5507 38.0475C29.5888 38.0475 29.6263 38.0513 29.6644 38.0513C29.9095 38.0515 30.1521 38.0034 30.3785 37.9098C30.6049 37.8162 30.8107 37.6788 30.984 37.5056C31.1572 37.3324 31.2947 37.1267 31.3884 36.9003C31.4821 36.6739 31.5302 36.4313 31.5301 36.1863C31.5301 36.1481 31.5301 36.11 31.5263 36.0719C31.5638 36.0719 31.6019 36.0756 31.6394 36.0756C32.0084 36.0757 32.369 35.9665 32.6758 35.7616C32.9826 35.5567 33.2217 35.2654 33.363 34.9246C33.5042 34.5838 33.5412 34.2088 33.4693 33.8469C33.3973 33.4851 33.2197 33.1527 32.9588 32.8919L32.4907 32.4238C33.0568 31.9855 33.5422 31.4519 33.9251 30.8469C34.1118 30.8982 34.3045 30.9243 34.4982 30.9244C34.7792 30.9254 35.0576 30.8707 35.3174 30.7634C35.5771 30.6562 35.813 30.4984 36.0113 30.2994L40.8594 25.5231C40.943 25.4349 40.9891 25.3177 40.9879 25.1962C40.9867 25.0747 40.9384 24.9583 40.8531 24.8718C40.7679 24.7852 40.6523 24.7351 40.5308 24.7321C40.4093 24.7291 40.2914 24.7734 40.2019 24.8556L40.2026 24.8519ZM16.0101 35.1369C15.8265 35.1369 15.6471 35.0824 15.4945 34.9804C15.3418 34.8785 15.2229 34.7335 15.1527 34.5639C15.0824 34.3943 15.064 34.2077 15.0998 34.0277C15.1356 33.8477 15.224 33.6823 15.3538 33.5525L16.2738 32.6325C16.3597 32.5449 16.4621 32.4752 16.575 32.4274C16.688 32.3796 16.8093 32.3546 16.932 32.354C17.0547 32.3534 17.1763 32.3771 17.2897 32.4238C17.4032 32.4704 17.5062 32.5391 17.593 32.6258C17.6797 32.7126 17.7484 32.8157 17.7951 32.9291C17.8417 33.0426 17.8654 33.1641 17.8648 33.2868C17.8642 33.4095 17.8393 33.5308 17.7915 33.6438C17.7437 33.7568 17.6739 33.8591 17.5863 33.945L16.6663 34.865C16.5803 34.9514 16.478 35.02 16.3654 35.0666C16.2528 35.1133 16.132 35.1372 16.0101 35.1369ZM18.6413 36.84C18.4667 37.0112 18.2315 37.1065 17.987 37.1052C17.7425 37.104 17.5083 37.0063 17.3354 36.8334C17.1625 36.6605 17.0648 36.4263 17.0636 36.1818C17.0623 35.9373 17.1577 35.7021 17.3288 35.5275L18.2501 34.6081C18.3359 34.5205 18.4383 34.4508 18.5513 34.403C18.6643 34.3552 18.7856 34.3303 18.9083 34.3296C19.0309 34.329 19.1525 34.3527 19.266 34.3994C19.3794 34.446 19.4825 34.5147 19.5692 34.6015C19.656 34.6882 19.7247 34.7913 19.7713 34.9047C19.818 35.0182 19.8417 35.1398 19.8411 35.2624C19.8404 35.3851 19.8155 35.5064 19.7677 35.6194C19.7199 35.7324 19.6502 35.8348 19.5626 35.9206L18.6413 36.84ZM20.6169 38.8156C20.4429 38.9897 20.2068 39.0874 19.9607 39.0874C19.7146 39.0874 19.4785 38.9897 19.3044 38.8156L18.9732 39.1469L19.3044 38.8156C19.1307 38.6414 19.0331 38.4054 19.0331 38.1594C19.0331 37.9133 19.1307 37.6773 19.3044 37.5031L20.2244 36.5831C20.3991 36.412 20.6342 36.3167 20.8787 36.3179C21.1233 36.3191 21.3574 36.4168 21.5303 36.5897C21.7033 36.7626 21.8009 36.9968 21.8022 37.2413C21.8034 37.4858 21.7081 37.721 21.5369 37.8956L20.6169 38.8156ZM23.5119 39.8706L22.5919 40.7906C22.5058 40.8769 22.4035 40.9453 22.2909 40.992C22.1783 41.0387 22.0576 41.0627 21.9357 41.0627C21.8138 41.0627 21.6931 41.0387 21.5805 40.992C21.4679 40.9453 21.3656 40.8769 21.2794 40.7906L20.9476 41.1219L21.2788 40.7906C21.1052 40.6163 21.0078 40.3804 21.0078 40.1344C21.0078 39.8884 21.1052 39.6524 21.2788 39.4781L22.1988 38.5588C22.2847 38.4711 22.3871 38.4014 22.5 38.3536C22.613 38.3058 22.7343 38.2809 22.857 38.2803C22.9797 38.2796 23.1013 38.3033 23.2147 38.35C23.3282 38.3967 23.4312 38.4653 23.518 38.5521C23.6047 38.6388 23.6734 38.7419 23.7201 38.8554C23.7667 38.9688 23.7904 39.0904 23.7898 39.2131C23.7892 39.3357 23.7643 39.4571 23.7165 39.57C23.6687 39.683 23.5989 39.7854 23.5113 39.8713L23.5119 39.8706ZM32.5676 34.2088C32.5674 34.3922 32.5129 34.5715 32.411 34.7239C32.309 34.8764 32.1642 34.9953 31.9947 35.0655C31.8253 35.1357 31.6388 35.1541 31.4589 35.1185C31.279 35.0828 31.1136 34.9946 30.9838 34.865L27.9838 31.865C27.8959 31.7771 27.7766 31.7277 27.6523 31.7277C27.5279 31.7277 27.4086 31.7771 27.3207 31.865C27.2328 31.9529 27.1834 32.0722 27.1834 32.1966C27.1834 32.3209 27.2328 32.4402 27.3207 32.5281L30.3207 35.5281C30.4918 35.7028 30.5872 35.9379 30.5859 36.1824C30.5847 36.427 30.487 36.6611 30.3141 36.834C30.1412 37.0069 29.907 37.1046 29.6625 37.1059C29.418 37.1071 29.1828 37.0118 29.0082 36.8406L26.0082 33.8406C25.9655 33.7944 25.9139 33.7572 25.8565 33.7314C25.7992 33.7055 25.7372 33.6914 25.6742 33.69C25.6113 33.6886 25.5488 33.6999 25.4903 33.7232C25.4318 33.7465 25.3787 33.7814 25.334 33.8257C25.2892 33.8699 25.2539 33.9228 25.2301 33.981C25.2062 34.0393 25.1943 34.1017 25.1951 34.1647C25.1959 34.2276 25.2094 34.2897 25.2347 34.3473C25.2601 34.4049 25.2967 34.4569 25.3426 34.5L28.3426 37.5C28.5137 37.6746 28.609 37.9098 28.6078 38.1543C28.6066 38.3988 28.5089 38.633 28.336 38.8059C28.1631 38.9788 27.9289 39.0765 27.6844 39.0777C27.4398 39.079 27.2047 38.9837 27.0301 38.8125L24.0301 35.8125C23.9417 35.7271 23.8233 35.6798 23.7004 35.6808C23.5775 35.6818 23.4599 35.731 23.373 35.8179C23.286 35.9048 23.2367 36.0223 23.2355 36.1452C23.2344 36.2681 23.2816 36.3866 23.3669 36.475L26.3669 39.475C26.5381 39.6496 26.6334 39.8848 26.6322 40.1293C26.6309 40.3738 26.5333 40.608 26.3603 40.7809C26.1874 40.9538 25.9533 41.0515 25.7087 41.0527C25.4642 41.054 25.2291 40.9587 25.0544 40.7875L24.4476 40.1806C24.6195 39.8977 24.713 39.5741 24.7185 39.2431C24.7241 38.912 24.6414 38.5855 24.479 38.2969C24.3167 38.0084 24.0805 37.7683 23.7946 37.6012C23.5088 37.4341 23.1836 37.3461 22.8526 37.3463C22.8144 37.3463 22.7769 37.3463 22.7388 37.35C22.7388 37.3119 22.7426 37.2744 22.7426 37.2363C22.7416 36.7428 22.5451 36.2699 22.1961 35.921C21.8471 35.5722 21.3741 35.3758 20.8807 35.375C20.8426 35.375 20.8044 35.375 20.7669 35.3788C20.7669 35.3413 20.7707 35.3031 20.7707 35.2656C20.7708 35.0206 20.7226 34.778 20.6288 34.5516C20.5351 34.3252 20.3977 34.1195 20.2244 33.9462C20.0512 33.773 19.8455 33.6356 19.6191 33.5418C19.3927 33.4481 19.1501 33.3999 18.9051 33.4C18.8669 33.4 18.8294 33.4 18.7919 33.4038C18.7919 33.3663 18.7957 33.3281 18.7957 33.29C18.7953 32.8133 18.6126 32.3548 18.285 32.0085C17.9574 31.6622 17.5098 31.4543 17.0338 31.4275C16.9732 31.0696 16.9507 30.7064 16.9669 30.3438L17.0182 30.2944L21.7988 25.5144C21.8157 25.4975 21.8313 25.48 21.8476 25.4625C22.6222 25.4273 23.3947 25.5683 24.1069 25.875L21.5001 28.7875C21.2697 29.045 21.1467 29.3808 21.1563 29.7261C21.1658 30.0714 21.3071 30.4 21.5513 30.6444C22.0069 31.099 22.6242 31.3544 23.2679 31.3544C23.9115 31.3544 24.5289 31.099 24.9844 30.6444L27.1876 28.4438L27.3601 28.6163L32.2976 33.5538C32.3836 33.6397 32.4518 33.7418 32.4981 33.8542C32.5445 33.9666 32.5681 34.0871 32.5676 34.2088ZM32.7144 30.915C32.4504 31.2278 32.1511 31.509 31.8226 31.7531L29.9376 29.8688L27.5857 27.5169L27.5182 27.45C27.4747 27.4065 27.4231 27.3719 27.3662 27.3484C27.3094 27.3248 27.2485 27.3127 27.1869 27.3127C27.1254 27.3127 27.0645 27.3248 27.0076 27.3484C26.9508 27.3719 26.8992 27.4065 26.8557 27.45L24.3238 29.9813C24.0442 30.2601 23.6653 30.4167 23.2704 30.4167C22.8754 30.4167 22.4966 30.2601 22.2169 29.9813C22.142 29.9065 22.0985 29.8058 22.0956 29.7C22.0927 29.5942 22.1305 29.4912 22.2013 29.4125L25.5138 25.7088C25.7094 25.4904 25.9487 25.3156 26.2164 25.196C26.484 25.0764 26.7738 25.0145 27.0669 25.0144H27.8288C27.9285 25.1986 28.0549 25.3671 28.2038 25.5144L32.9832 30.2944C33.0207 30.3313 33.0588 30.3663 33.0982 30.4006C32.9806 30.5795 32.8524 30.7513 32.7144 30.915Z" fill="#0A0A0A" fill-opacity="0.75"/>
</g>
<defs>
<clipPath id="clip0_21_2553">
<rect width="32" height="32" fill="white" transform="translate(9 10)"/>
</clipPath>
</defs>
</svg>
