<svg width="80" height="80" viewBox="0 0 80 80" fill="none" xmlns="http://www.w3.org/2000/svg">
<g clip-path="url(#clip0_226_5948)">
<path d="M10 70H15V75C15 76.3261 15.5268 77.5979 16.4645 78.5355C17.4021 79.4732 18.6739 80 20 80H70C71.3261 80 72.5979 79.4732 73.5355 78.5355C74.4732 77.5979 75 76.3261 75 75V15C75 13.6739 74.4732 12.4021 73.5355 11.4645C72.5979 10.5268 71.3261 10 70 10H65V5C65 3.67392 64.4732 2.40215 63.5355 1.46447C62.5979 0.526784 61.3261 0 60 0L10 0C8.67392 0 7.40215 0.526784 6.46447 1.46447C5.52678 2.40215 5 3.67392 5 5V65C5 66.3261 5.52678 67.5979 6.46447 68.5355C7.40215 69.4732 8.67392 70 10 70ZM70 15V75H20V70H60C61.3261 70 62.5979 69.4732 63.5355 68.5355C64.4732 67.5979 65 66.3261 65 65V15H70ZM52.5 10C53.163 10 53.7989 10.2634 54.2678 10.7322C54.7366 11.2011 55 11.837 55 12.5C55 13.163 54.7366 13.7989 54.2678 14.2678C53.7989 14.7366 53.163 15 52.5 15H32.29C31.627 15 30.9911 14.7366 30.5222 14.2678C30.0534 13.7989 29.79 13.163 29.79 12.5C29.79 11.837 30.0534 11.2011 30.5222 10.7322C30.9911 10.2634 31.627 10 32.29 10H52.5ZM17.29 25H52.5C53.163 25 53.7989 25.2634 54.2678 25.7322C54.7366 26.2011 55 26.837 55 27.5C55 28.163 54.7366 28.7989 54.2678 29.2678C53.7989 29.7366 53.163 30 52.5 30H17.29C16.627 30 15.9911 29.7366 15.5222 29.2678C15.0534 28.7989 14.79 28.163 14.79 27.5C14.79 26.837 15.0534 26.2011 15.5222 25.7322C15.9911 25.2634 16.627 25 17.29 25ZM17.29 40H52.5C53.163 40 53.7989 40.2634 54.2678 40.7322C54.7366 41.2011 55 41.837 55 42.5C55 43.163 54.7366 43.7989 54.2678 44.2678C53.7989 44.7366 53.163 45 52.5 45H17.29C16.627 45 15.9911 44.7366 15.5222 44.2678C15.0534 43.7989 14.79 43.163 14.79 42.5C14.79 41.837 15.0534 41.2011 15.5222 40.7322C15.9911 40.2634 16.627 40 17.29 40ZM17.29 55H52.5C53.163 55 53.7989 55.2634 54.2678 55.7322C54.7366 56.2011 55 56.837 55 57.5C55 58.163 54.7366 58.7989 54.2678 59.2678C53.7989 59.7366 53.163 60 52.5 60H17.29C16.627 60 15.9911 59.7366 15.5222 59.2678C15.0534 58.7989 14.79 58.163 14.79 57.5C14.79 56.837 15.0534 56.2011 15.5222 55.7322C15.9911 55.2634 16.627 55 17.29 55Z" fill="white"/>
</g>
<defs>
<clipPath id="clip0_226_5948">
<rect width="80" height="80" fill="white"/>
</clipPath>
</defs>
</svg>
