<svg width="48" height="48" viewBox="0 0 48 48" fill="none" xmlns="http://www.w3.org/2000/svg">
<path d="M28 19C28.55 19 29 18.55 29 18C29 17.45 28.55 17 28 17H25V16C25 15.45 24.55 15 24 15C23.45 15 23 15.45 23 16V17C20.79 17 19 18.79 19 21C19 23.21 20.79 25 23 25V29H20C19.45 29 19 29.45 19 30C19 30.55 19.45 31 20 31H23V32C23 32.55 23.45 33 24 33C24.55 33 25 32.55 25 32V31C27.21 31 29 29.21 29 27C29 24.79 27.21 23 25 23V19H28ZM23 23C21.9 23 21 22.1 21 21C21 19.9 21.9 19 23 19V23ZM27 27C27 28.1 26.1 29 25 29V25C26.1 25 27 25.9 27 27Z" fill="#0A0A0A" fill-opacity="0.5"/>
<path d="M24 3C12.42 3 3 12.42 3 24C3 35.58 12.42 45 24 45C35.58 45 45 35.58 45 24C45 12.42 35.58 3 24 3ZM24 43C13.52 43 5 34.48 5 24C5 13.52 13.52 5 24 5C34.48 5 43 13.52 43 24C43 34.48 34.48 43 24 43Z" fill="#0A0A0A" fill-opacity="0.5"/>
<path d="M24 7C14.63 7 7 14.63 7 24C7 33.37 14.63 41 24 41C33.37 41 41 33.37 41 24C41 14.63 33.37 7 24 7ZM24 39C15.73 39 9 32.27 9 24C9 15.73 15.73 9 24 9C32.27 9 39 15.73 39 24C39 32.27 32.27 39 24 39Z" fill="#0A0A0A" fill-opacity="0.5"/>
</svg>
