<svg width="48" height="48" viewBox="0 0 48 48" fill="none" xmlns="http://www.w3.org/2000/svg">
<g clip-path="url(#clip0_16_10275)">
<path d="M44.1553 18.2368V17.1043C44.1539 16.1281 43.8323 15.1792 43.2397 14.4034C42.6472 13.6275 41.8165 13.0675 40.875 12.8092V10.5737C41.3116 10.2466 41.6659 9.82229 41.91 9.33443C42.1541 8.84658 42.2812 8.30857 42.2812 7.76306V3.63806C42.2802 2.70598 41.9095 1.81237 41.2504 1.15329C40.5913 0.49421 39.6977 0.12348 38.7656 0.122437H33.7969C33.6104 0.122437 33.4315 0.196517 33.2997 0.328378C33.1678 0.46024 33.0938 0.639082 33.0938 0.825562V7.76306C33.0938 8.30857 33.2209 8.84658 33.465 9.33443C33.7091 9.82229 34.0634 10.2466 34.5 10.5737V13.1889C34.2762 13.3298 34.0688 13.4952 33.8818 13.6822L29.3856 18.1825H24.6255C24.3198 18.1825 24.0152 18.2202 23.7188 18.2948V18.0425C23.7207 17.2955 23.4839 16.5674 23.0428 15.9646C22.6017 15.3618 21.9795 14.9157 21.2669 14.6916L17.8809 13.6167C17.7384 13.5719 17.614 13.4827 17.5258 13.3621C17.4376 13.2416 17.3902 13.096 17.3906 12.9466V11.4899C17.8348 11.0588 18.1878 10.5429 18.4288 9.97277C18.6698 9.40265 18.7939 8.78994 18.7937 8.17097V1.17412C18.7933 0.862826 18.6695 0.564384 18.4493 0.344271C18.2292 0.124158 17.9308 0.000347349 17.6195 0H12.5772C11.7664 0.000918089 10.989 0.323437 10.4156 0.8968C9.84225 1.47016 9.51973 2.24755 9.51881 3.05841V8.17087C9.51858 8.78984 9.64265 9.40256 9.88367 9.97267C10.1247 10.5428 10.4777 11.0587 10.9219 11.4898V12.9465C10.9223 13.0959 10.8749 13.2415 10.7867 13.3621C10.6984 13.4826 10.574 13.5718 10.4315 13.6166L7.04569 14.6916C6.33313 14.9157 5.71087 15.3617 5.26975 15.9645C4.82864 16.5674 4.59178 17.2954 4.59375 18.0424V21.1956H0.703125C0.516645 21.1956 0.337802 21.2696 0.205941 21.4015C0.074079 21.5334 0 21.7122 0 21.8987L0 23.4763C0.000540703 23.9124 0.13599 24.3375 0.387765 24.6936C0.63954 25.0496 0.995305 25.319 1.40625 25.4647V46.5469C1.40667 46.9321 1.5599 47.3015 1.83233 47.5739C2.10475 47.8463 2.47411 47.9996 2.85938 48H4.92188C5.06944 48 5.21327 47.9536 5.33299 47.8673C5.4527 47.781 5.54224 47.6592 5.58891 47.5192L6.67462 44.262C6.72118 44.1219 6.81069 44.0001 6.93046 43.9138C7.05022 43.8275 7.19413 43.7811 7.34175 43.7812H25.0021C25.1497 43.7811 25.2936 43.8275 25.4133 43.9138C25.5331 44.0001 25.6226 44.1219 25.6691 44.262L26.7547 47.5192C26.8014 47.6593 26.891 47.781 27.0107 47.8673C27.1304 47.9536 27.2743 48 27.4219 48H29.4844C29.8696 47.9996 30.239 47.8463 30.5114 47.5739C30.7838 47.3015 30.9371 46.9321 30.9375 46.5469V33.6512H36.0087L37.7869 47.5088C37.8086 47.6784 37.8914 47.8342 38.0198 47.9472C38.1482 48.0601 38.3133 48.1224 38.4843 48.1224H41.6718C41.7715 48.1224 41.8701 48.1012 41.961 48.0602C42.0519 48.0191 42.133 47.9592 42.199 47.8845C42.265 47.8097 42.3143 47.7217 42.3437 47.6264C42.3731 47.5311 42.3818 47.4306 42.3694 47.3317L40.6501 33.6512H41.6719C43.3496 33.6493 44.9581 32.982 46.1445 31.7956C47.3308 30.6093 47.9981 29.0008 48 27.3231V22.7293C47.9986 21.6455 47.6107 20.5977 46.906 19.7742C46.2013 18.9507 45.2259 18.4056 44.1553 18.2368ZM34.5 1.52869H38.7656C39.3249 1.52931 39.861 1.75174 40.2565 2.14719C40.6519 2.54264 40.8744 3.07881 40.875 3.63806V4.26713L40.8711 4.26956C40.3621 4.59731 39.7642 4.75928 39.1594 4.73321C38.5546 4.70714 37.9728 4.4943 37.494 4.12397L34.5254 1.82306C34.5172 1.81669 34.5084 1.81134 34.5 1.80534V1.52869ZM34.5 3.58256L36.6325 5.23538C37.2267 5.69506 37.9301 5.99247 38.6739 6.09846C39.4176 6.20445 40.1761 6.11537 40.875 5.83997V7.76306C40.8744 8.32231 40.6519 8.85848 40.2565 9.25393C39.861 9.64938 39.3249 9.87182 38.7656 9.87244H36.6094C36.0501 9.87182 35.514 9.64938 35.1185 9.25393C34.7231 8.85848 34.5006 8.32231 34.5 7.76306V3.58256ZM39.4688 11.2079V12.6513H36.3689C36.2142 12.6516 36.0596 12.6619 35.9062 12.6822V11.2078C36.1377 11.2549 36.3732 11.2787 36.6094 11.2786H38.7656C39.0018 11.2787 39.2373 11.2549 39.4688 11.2078V11.2079ZM34.8766 14.676C35.072 14.4793 35.3046 14.3233 35.5608 14.2172C35.8169 14.111 36.0916 14.0568 36.3689 14.0575H39.7021C40.5099 14.0584 41.2843 14.3798 41.8555 14.951C42.4267 15.5222 42.7481 16.2966 42.749 17.1044V26.2919C42.7483 26.8512 42.5259 27.3873 42.1305 27.7828C41.735 28.1782 41.1988 28.4007 40.6396 28.4013H30.9375V25.4647C31.3484 25.319 31.7042 25.0496 31.956 24.6936C32.2078 24.3375 32.3432 23.9124 32.3438 23.4763V22.2297C32.4611 22.1504 32.5705 22.0601 32.6707 21.96L36.0788 18.5538C36.2097 18.4218 36.283 18.2433 36.2827 18.0573C36.2823 17.8714 36.2084 17.6931 36.0769 17.5616C35.9455 17.4301 35.7673 17.356 35.5813 17.3555C35.3954 17.355 35.2168 17.4282 35.0847 17.5591L33.9751 18.6682L32.4923 17.0625L34.8766 14.676ZM24.6255 19.5887H29.677C29.7694 19.5887 29.8609 19.5705 29.9463 19.5351C30.0316 19.4997 30.1092 19.4479 30.1745 19.3825L31.4975 18.0582L32.9797 19.663L31.6765 20.9654C31.543 21.0994 31.3658 21.1811 31.1772 21.1956H22.4228C22.573 20.7293 22.8671 20.3226 23.2628 20.0339C23.6586 19.7452 24.1356 19.5893 24.6255 19.5887ZM10.9251 3.05841C10.9256 2.62038 11.0998 2.20044 11.4095 1.8907C11.7192 1.58097 12.1392 1.40675 12.5772 1.40625H17.3875V4.92919C16.8002 5.13585 16.1691 5.18562 15.5567 5.07356C15.2112 4.99758 14.8789 4.87057 14.5708 4.69669C14.1613 4.47029 13.7204 4.30599 13.2626 4.20919C12.4818 4.06746 11.678 4.1246 10.9251 4.37531V3.05841ZM10.9251 5.86772C11.6769 5.5605 12.3703 5.46656 12.9907 5.58891C13.3217 5.66193 13.6399 5.78399 13.9349 5.95106C14.3562 6.18337 14.8095 6.35228 15.2801 6.45234C15.9784 6.58794 16.6981 6.56716 17.3874 6.3915V8.17087C17.3874 9.02784 17.047 9.8497 16.441 10.4557C15.8351 11.0616 15.0132 11.4021 14.1562 11.4021C13.2993 11.4021 12.4774 11.0616 11.8715 10.4557C11.2655 9.8497 10.9251 9.02784 10.9251 8.17087V5.86772ZM16.3645 14.1555C14.9471 14.7215 13.3663 14.7207 11.9494 14.1533C12.1964 13.7994 12.3286 13.3781 12.3281 12.9465V12.4322C12.9056 12.6804 13.5277 12.8084 14.1562 12.8084C14.7848 12.8084 15.4069 12.6804 15.9844 12.4322V12.9465C15.9839 13.379 16.1166 13.8011 16.3645 14.1555ZM6 18.0424C5.9988 17.5942 6.1409 17.1573 6.40557 16.7956C6.67023 16.4339 7.04358 16.1663 7.47113 16.0318L10.5602 15.0512C11.6592 15.6635 12.8962 15.9852 14.1543 15.9858C14.2068 15.9858 14.2598 15.9852 14.3131 15.9841C15.5184 15.9576 16.699 15.6374 17.7525 15.0513L20.8414 16.0319C21.2689 16.1664 21.6422 16.434 21.9069 16.7957C22.1715 17.1573 22.3136 17.5941 22.3125 18.0423V18.9923C21.6183 19.5439 21.1437 20.3251 20.9743 21.1955H19.5V19.623C19.5 19.4365 19.4259 19.2577 19.2941 19.1258C19.1622 18.994 18.9834 18.9199 18.7969 18.9199C18.6104 18.9199 18.4316 18.994 18.2997 19.1258C18.1678 19.2577 18.0938 19.4365 18.0938 19.623V21.1955H10.2188V19.623C10.2188 19.4365 10.1447 19.2577 10.0128 19.1258C9.88095 18.994 9.70211 18.9199 9.51562 18.9199C9.32914 18.9199 9.1503 18.994 9.01844 19.1258C8.88658 19.2577 8.8125 19.4365 8.8125 19.623V21.1955H6V18.0424ZM29.5312 46.5469C29.5312 46.5593 29.5263 46.5712 29.5175 46.58C29.5087 46.5888 29.4968 46.5938 29.4844 46.5938H27.9287L27.0032 43.8172C26.8635 43.397 26.595 43.0315 26.2357 42.7726C25.8765 42.5137 25.4448 42.3746 25.002 42.375H7.34175C6.89892 42.3746 6.46722 42.5137 6.10798 42.7727C5.74874 43.0316 5.48022 43.3971 5.34056 43.8173L4.41506 46.5938H2.85938C2.84694 46.5938 2.83502 46.5888 2.82623 46.58C2.81744 46.5712 2.8125 46.5593 2.8125 46.5469V25.5857H29.5312V46.5469ZM30.2344 24.1794H2.10938C1.92296 24.1792 1.74423 24.1051 1.61241 23.9733C1.48059 23.8415 1.40645 23.6627 1.40625 23.4763V22.6018H21.5477C21.568 22.6036 21.5886 22.6049 21.6094 22.6049H30.9375V23.4763C30.9373 23.6627 30.8632 23.8415 30.7313 23.9733C30.5995 24.1051 30.4208 24.1792 30.2344 24.1794ZM40.8749 46.7162H39.103L37.4265 33.6512H39.2329L40.8749 46.7162ZM46.5938 27.3231C46.5923 28.628 46.0732 29.879 45.1505 30.8017C44.2278 31.7244 42.9768 32.2435 41.6719 32.2449H30.9375V29.8074H40.6397C41.5718 29.8064 42.4654 29.4357 43.1245 28.7766C43.7835 28.1175 44.1543 27.2239 44.1553 26.2918V19.6688C44.8477 19.8286 45.4656 20.218 45.9084 20.7737C46.3512 21.3295 46.5927 22.0187 46.5938 22.7293V27.3231Z" fill="#0A0A0A" fill-opacity="0.5"/>
</g>
<defs>
<clipPath id="clip0_16_10275">
<rect width="48" height="48" fill="white"/>
</clipPath>
</defs>
</svg>
