<svg width="45" height="46" viewBox="0 0 45 46" fill="none" xmlns="http://www.w3.org/2000/svg">
<path d="M22 2.75C21.555 2.75 21.12 2.88196 20.75 3.12919C20.38 3.37643 20.0916 3.72783 19.9213 4.13896C19.751 4.5501 19.7064 5.0025 19.7932 5.43895C19.8801 5.87541 20.0943 6.27632 20.409 6.59099C20.7237 6.90566 21.1246 7.11995 21.561 7.20677C21.9975 7.29358 22.4499 7.24903 22.861 7.07873C23.2722 6.90843 23.6236 6.62004 23.8708 6.25003C24.118 5.88002 24.25 5.44501 24.25 5C24.25 4.40326 24.0129 3.83097 23.591 3.40901C23.169 2.98705 22.5967 2.75 22 2.75ZM22 5.75C21.8517 5.75 21.7067 5.70601 21.5833 5.6236C21.46 5.54119 21.3639 5.42406 21.3071 5.28701C21.2503 5.14997 21.2355 4.99917 21.2644 4.85368C21.2934 4.7082 21.3648 4.57456 21.4697 4.46967C21.5746 4.36478 21.7082 4.29335 21.8537 4.26441C21.9992 4.23547 22.15 4.25032 22.287 4.30709C22.4241 4.36386 22.5412 4.45999 22.6236 4.58332C22.706 4.70666 22.75 4.85166 22.75 5C22.75 5.19891 22.671 5.38968 22.5303 5.53033C22.3897 5.67098 22.1989 5.75 22 5.75Z" fill="#0A0A0A" fill-opacity="0.75"/>
<path d="M23.5 8.75H20.5V10.25H23.5V8.75Z" fill="#0A0A0A" fill-opacity="0.75"/>
<path d="M43.75 31.1225V11C43.7482 10.4038 43.5106 9.83255 43.089 9.41098C42.6675 8.98941 42.0962 8.75178 41.5 8.75H26.5V1.25C26.5 1.05109 26.421 0.860322 26.2803 0.71967C26.1397 0.579018 25.9489 0.5 25.75 0.5H18.25C18.0511 0.5 17.8603 0.579018 17.7197 0.71967C17.579 0.860322 17.5 1.05109 17.5 1.25V8.75H2.5C1.90381 8.75178 1.33255 8.98941 0.910977 9.41098C0.489405 9.83255 0.251781 10.4038 0.25 11V35C0.251781 35.5962 0.489405 36.1675 0.910977 36.589C1.33255 37.0106 1.90381 37.2482 2.5 37.25H23.7475C24.3057 39.7751 25.776 42.0053 27.8767 43.5134C29.9775 45.0215 32.5609 45.7013 35.1318 45.4226C37.7027 45.1438 40.0804 43.9261 41.8091 42.0029C43.5378 40.0796 44.496 37.586 44.5 35C44.4998 33.6715 44.2452 32.3553 43.75 31.1225ZM19 2H25V11.75H19V2ZM23.5375 35.75H2.5C2.30109 35.75 2.11032 35.671 1.96967 35.5303C1.82902 35.3897 1.75 35.1989 1.75 35V11C1.75 10.8011 1.82902 10.6103 1.96967 10.4697C2.11032 10.329 2.30109 10.25 2.5 10.25H17.5V12.5C17.5 12.6989 17.579 12.8897 17.7197 13.0303C17.8603 13.171 18.0511 13.25 18.25 13.25H25.75C25.9489 13.25 26.1397 13.171 26.2803 13.0303C26.421 12.8897 26.5 12.6989 26.5 12.5V10.25H41.5C41.6989 10.25 41.8897 10.329 42.0303 10.4697C42.171 10.6103 42.25 10.8011 42.25 11V28.5275C40.9045 26.8068 39.0554 25.5492 36.9608 24.9301C34.8661 24.311 32.6304 24.3613 30.5657 25.074C28.501 25.7867 26.7104 27.1263 25.4437 28.9058C24.177 30.6852 23.4975 32.8158 23.5 35C23.5 35.255 23.5225 35.5025 23.5375 35.75ZM34 44C32.22 44 30.4799 43.4722 28.9999 42.4832C27.5198 41.4943 26.3663 40.0887 25.6851 38.4442C25.0039 36.7996 24.8257 34.99 25.1729 33.2442C25.5202 31.4984 26.3774 29.8947 27.636 28.636C28.8947 27.3774 30.4984 26.5202 32.2442 26.1729C33.99 25.8257 35.7996 26.0039 37.4442 26.6851C39.0887 27.3663 40.4943 28.5198 41.4832 29.9999C42.4722 31.4799 43 33.22 43 35C42.998 37.3863 42.0492 39.6744 40.3618 41.3618C38.6744 43.0492 36.3863 43.998 34 44Z" fill="#0A0A0A" fill-opacity="0.75"/>
<path d="M31.75 38.4395L28.5303 35.2197L27.4697 36.2803L31.2197 40.0303C31.3604 40.1709 31.5511 40.2498 31.75 40.2498C31.9489 40.2498 32.1396 40.1709 32.2803 40.0303L40.5303 31.7803L39.4697 30.7197L31.75 38.4395ZM16 14.75H4C3.80109 14.75 3.61032 14.829 3.46967 14.9697C3.32902 15.1103 3.25 15.3011 3.25 15.5V27.5C3.25 27.6989 3.32902 27.8897 3.46967 28.0303C3.61032 28.171 3.80109 28.25 4 28.25H16C16.1989 28.25 16.3897 28.171 16.5303 28.0303C16.671 27.8897 16.75 27.6989 16.75 27.5V15.5C16.75 15.3011 16.671 15.1103 16.5303 14.9697C16.3897 14.829 16.1989 14.75 16 14.75ZM5.5675 26.75C5.74377 25.7019 6.28576 24.7501 7.09723 24.0637C7.90871 23.3773 8.93716 23.0007 10 23.0007C11.0628 23.0007 12.0913 23.3773 12.9028 24.0637C13.7142 24.7501 14.2562 25.7019 14.4325 26.75H5.5675ZM8.5 20C8.5 19.7033 8.58797 19.4133 8.7528 19.1666C8.91762 18.92 9.15189 18.7277 9.42597 18.6142C9.70006 18.5006 10.0017 18.4709 10.2926 18.5288C10.5836 18.5867 10.8509 18.7296 11.0607 18.9393C11.2704 19.1491 11.4133 19.4164 11.4712 19.7074C11.5291 19.9983 11.4994 20.2999 11.3858 20.574C11.2723 20.8481 11.08 21.0824 10.8334 21.2472C10.5867 21.412 10.2967 21.5 10 21.5C9.60254 21.4988 9.2217 21.3404 8.94065 21.0593C8.6596 20.7783 8.50119 20.3975 8.5 20ZM15.25 24.605C14.5857 23.4065 13.5328 22.47 12.265 21.95C12.6423 21.5156 12.8867 20.9818 12.9691 20.4123C13.0515 19.8428 12.9683 19.2617 12.7296 18.7381C12.4909 18.2146 12.1066 17.7708 11.6226 17.4595C11.1387 17.1483 10.5754 16.9828 10 16.9828C9.42459 16.9828 8.86133 17.1483 8.37736 17.4595C7.89338 17.7708 7.50912 18.2146 7.27039 18.7381C7.03166 19.2617 6.94853 19.8428 7.0309 20.4123C7.11328 20.9818 7.35769 21.5156 7.735 21.95C6.46716 22.47 5.41433 23.4065 4.75 24.605V16.25H15.25V24.605Z" fill="#0A0A0A" fill-opacity="0.75"/>
<path d="M40.75 15.5H18.25V17H40.75V15.5Z" fill="#0A0A0A" fill-opacity="0.75"/>
<path d="M40.75 19.25H18.25V20.75H40.75V19.25Z" fill="#0A0A0A" fill-opacity="0.75"/>
<path d="M25.75 23H18.25V24.5H25.75V23Z" fill="#0A0A0A" fill-opacity="0.75"/>
</svg>
