<svg width="32" height="31" viewBox="0 0 32 31" fill="none" xmlns="http://www.w3.org/2000/svg">
<g clip-path="url(#clip0_237_6631)">
<path d="M15 -1.00391V0.996094H17V-1.00391H15ZM6.808 2.38609L5.394 3.80009L6.808 5.21409L8.222 3.80009L6.808 2.38609ZM25.192 2.38609L23.778 3.80009L25.192 5.21409L26.606 3.80009L25.192 2.38609ZM16.054 2.99609C10.59 2.99609 6.07 7.15809 6.07 12.3561C6.07 15.9281 7.758 18.3681 9.3 20.1961C10.072 21.1081 10.81 21.8961 11.312 22.5941C11.814 23.2941 12.058 23.8581 12.058 24.4261V31.0081H20.05V24.4261C20.05 23.8581 20.298 23.2861 20.8 22.5821C21.304 21.8781 22.038 21.0881 22.808 20.1721C24.352 18.3381 26.04 15.9021 26.04 12.3561C26.04 7.15809 21.52 2.99609 16.054 2.99609ZM16.054 4.99609C20.514 4.99609 24.04 8.32009 24.04 12.3561C24.04 15.2841 22.73 17.1601 21.278 18.8861C20.552 19.7501 19.792 20.5521 19.172 21.4221C18.552 22.2921 18.052 23.2761 18.052 24.4261V25.3361C17.9913 25.3251 17.9297 25.3197 17.868 25.3201H17V16.9961H18V14.9961H14V16.9961H15V25.3201H14.132C14.1073 25.3192 14.0827 25.3192 14.058 25.3201V24.4261C14.058 23.2761 13.558 22.2921 12.938 21.4261C12.318 20.5601 11.554 19.7661 10.828 18.9061C9.378 17.1881 8.07 15.3161 8.07 12.3561C8.07 8.32009 11.596 4.99609 16.054 4.99609ZM2 10.9961V12.9961H4V10.9961H2ZM28 10.9961V12.9961H30V10.9961H28ZM18.05 27.3041V29.0081H14.06V27.3161C14.0613 27.3161 14.0627 27.3161 14.064 27.3161C14.0873 27.3182 14.1106 27.3196 14.134 27.3201H17.87C17.931 27.3203 17.9919 27.315 18.052 27.3041H18.05Z" fill="black"/>
</g>
<defs>
<clipPath id="clip0_237_6631">
<rect width="32" height="32" fill="white" transform="translate(0 -1)"/>
</clipPath>
</defs>
</svg>
