<svg width="48" height="48" viewBox="0 0 48 48" fill="none" xmlns="http://www.w3.org/2000/svg">
<path d="M24.2355 9.75297C22.6152 9.70963 21.0132 10.1049 19.599 10.897C18.1848 11.6891 17.011 12.8487 16.2015 14.253C15.2705 15.8643 14.8621 17.7248 15.0327 19.5779C15.2033 21.4311 15.9444 23.1857 17.154 24.6L15.771 26.994L16.3215 29.0445L14.271 29.592L14.8215 31.6395L12.771 32.1915L13.3215 34.239L11.295 34.749L11.8215 36.837L9.771 37.386L9.021 38.6865L10.4955 42.135L14.2185 41.685L22.35 27.6C23.4231 27.7913 24.5221 27.7852 25.593 27.582C24.4161 26.7553 23.4554 25.6575 22.792 24.3814C22.1286 23.1052 21.782 21.6882 21.7815 20.25C21.7821 18.1415 22.5234 16.1003 23.8759 14.4827C25.2283 12.8652 27.106 11.7741 29.181 11.4C28.9593 11.2412 28.7306 11.0926 28.4955 10.9545C27.1984 10.2037 25.7337 9.79004 24.2355 9.75147V9.75297ZM30.783 15.75C30.3579 15.7494 29.9413 15.8692 29.5815 16.0955C29.2217 16.3219 28.9334 16.6456 28.75 17.029C28.5665 17.4125 28.4955 17.8401 28.5451 18.2623C28.5946 18.6845 28.7628 19.084 29.03 19.4146C29.2973 19.7451 29.6527 19.9932 30.0552 20.1301C30.4576 20.267 30.8906 20.2871 31.304 20.188C31.7174 20.089 32.0943 19.8748 32.391 19.5704C32.6877 19.266 32.8921 18.8838 32.9805 18.468C32.9666 18.0018 32.9164 17.5374 32.8305 17.079C32.6537 16.6836 32.3664 16.3478 32.0031 16.112C31.6398 15.8762 31.2161 15.7504 30.783 15.75Z" fill="white" stroke="#0A0A0A" stroke-opacity="0.5" stroke-linecap="round" stroke-linejoin="round"/>
<path d="M30.7829 11.25C28.6597 11.2499 26.6048 12.0003 24.9815 13.3688C23.3582 14.7372 22.2709 16.6355 21.9119 18.7281C21.5528 20.8207 21.9452 22.9728 23.0195 24.8041C24.0939 26.6354 25.7811 28.0279 27.7829 28.7355V31.5L29.2829 33L27.7829 34.5L29.2829 36L27.7829 37.5L29.2829 39L27.7829 40.455L29.2829 42L27.7829 43.5V45L30.7829 47.25L33.7829 45V28.7355C35.7836 28.0272 37.4696 26.6346 38.5431 24.8036C39.6166 22.9727 40.0085 20.8213 39.6496 18.7295C39.2907 16.6376 38.204 14.7399 36.5816 13.3716C34.9591 12.0033 32.9053 11.2524 30.7829 11.2515V11.25ZM30.7829 15.75C31.3796 15.75 31.9519 15.9871 32.3739 16.409C32.7958 16.831 33.0329 17.4033 33.0329 18C33.0329 18.5967 32.7958 19.169 32.3739 19.591C31.9519 20.0129 31.3796 20.25 30.7829 20.25C30.1861 20.25 29.6138 20.0129 29.1919 19.591C28.7699 19.169 28.5329 18.5967 28.5329 18C28.5329 17.4033 28.7699 16.831 29.1919 16.409C29.6138 15.9871 30.1861 15.75 30.7829 15.75Z" stroke="#0A0A0A" stroke-opacity="0.5" stroke-linecap="round" stroke-linejoin="round"/>
<path d="M18.2582 11.6131C17.8845 9.86582 18.0404 8.04683 18.706 6.38861C19.3716 4.7304 20.5166 3.3083 21.9947 2.30408C23.4732 1.29933 25.2177 0.758351 27.0054 0.750335C28.793 0.742318 30.5423 1.26763 32.0297 2.25908C33.5165 3.25007 34.674 4.6618 35.3543 6.31384C36.0345 7.96589 36.2067 9.78322 35.8487 11.5336C35.4904 13.2842 34.6181 14.8882 33.3433 16.1406C32.0685 17.3929 30.4492 18.2367 28.6922 18.5641" stroke="#0A0A0A" stroke-opacity="0.5" stroke-linecap="round" stroke-linejoin="round"/>
</svg>
