<svg width="48" height="48" viewBox="0 0 48 48" fill="none" xmlns="http://www.w3.org/2000/svg">
<path d="M17.4824 9.93823H30.1379C30.3368 9.93823 30.5276 9.85921 30.6683 9.71856C30.8089 9.57791 30.8879 9.38714 30.8879 9.18823C30.8879 8.98932 30.8089 8.79855 30.6683 8.6579C30.5276 8.51725 30.3368 8.43823 30.1379 8.43823H17.4824C17.2835 8.43823 17.0927 8.51725 16.9521 8.6579C16.8114 8.79855 16.7324 8.98932 16.7324 9.18823C16.7324 9.38714 16.8114 9.57791 16.9521 9.71856C17.0927 9.85921 17.2835 9.93823 17.4824 9.93823ZM8.66992 15.9322H30.5602C30.7591 15.9322 30.9498 15.8532 31.0905 15.7126C31.2312 15.5719 31.3102 15.3811 31.3102 15.1822C31.3102 14.9833 31.2312 14.7926 31.0905 14.6519C30.9498 14.5112 30.7591 14.4322 30.5602 14.4322H8.66992C8.47101 14.4322 8.28024 14.5112 8.13959 14.6519C7.99894 14.7926 7.91992 14.9833 7.91992 15.1822C7.91992 15.3811 7.99894 15.5719 8.13959 15.7126C8.28024 15.8532 8.47101 15.9322 8.66992 15.9322ZM8.66992 21.9262H30.5602C30.7591 21.9262 30.9498 21.8472 31.0905 21.7066C31.2312 21.5659 31.3102 21.3751 31.3102 21.1762C31.3102 20.9773 31.2312 20.7866 31.0905 20.6459C30.9498 20.5053 30.7591 20.4262 30.5602 20.4262H8.66992C8.47101 20.4262 8.28024 20.5053 8.13959 20.6459C7.99894 20.7866 7.91992 20.9773 7.91992 21.1762C7.91992 21.3751 7.99894 21.5659 8.13959 21.7066C8.28024 21.8472 8.47101 21.9262 8.66992 21.9262ZM8.66992 27.9202H25.9424C26.1413 27.9202 26.3321 27.8412 26.4728 27.7006C26.6134 27.5599 26.6924 27.3691 26.6924 27.1702C26.6924 26.9713 26.6134 26.7806 26.4728 26.6399C26.3321 26.4993 26.1413 26.4202 25.9424 26.4202H8.66992C8.47101 26.4202 8.28024 26.4993 8.13959 26.6399C7.99894 26.7806 7.91992 26.9713 7.91992 27.1702C7.91992 27.3691 7.99894 27.5599 8.13959 27.7006C8.28024 27.8412 8.47101 27.9202 8.66992 27.9202Z" fill="#0A0A0A" fill-opacity="0.75"/>
<path d="M43.2954 37.701H40.1657L39.3407 32.0347C39.8664 31.4022 40.2155 30.6418 40.3525 29.8307C40.4895 29.0197 40.4095 28.1868 40.1207 27.4167C39.832 26.6465 39.3446 25.9664 38.7081 25.4454C38.0717 24.9244 37.3087 24.581 36.4967 24.45V3.282C36.4967 3.08309 36.4177 2.89232 36.277 2.75167C36.1363 2.61102 35.9456 2.532 35.7467 2.532H10.3029C10.104 2.53204 9.91329 2.61109 9.77267 2.75175L2.95217 9.573C2.81151 9.71362 2.73246 9.90435 2.73242 10.1032V43.2435C2.73242 43.4424 2.81144 43.6332 2.95209 43.7738C3.09274 43.9145 3.28351 43.9935 3.48242 43.9935H25.5617V45.7777C25.5617 45.9767 25.6407 46.1674 25.7813 46.3081C25.922 46.4487 26.1128 46.5277 26.3117 46.5277H45.1817C45.3806 46.5277 45.5714 46.4487 45.712 46.3081C45.8527 46.1674 45.9317 45.9767 45.9317 45.7777V40.338C45.9311 39.6389 45.6532 38.9687 45.1589 38.4743C44.6647 37.9799 43.9945 37.7018 43.2954 37.701ZM38.9192 29.0527C38.9195 29.8828 38.5929 30.6795 38.0102 31.2705C37.9294 31.353 37.8687 31.4531 37.833 31.5629C37.7972 31.6727 37.7872 31.7892 37.8039 31.9035L38.6499 37.701H32.8434L33.6894 31.9035C33.7062 31.7893 33.6964 31.6727 33.6607 31.563C33.6251 31.4532 33.5646 31.3531 33.4839 31.2705C33.1197 30.899 32.8525 30.4436 32.7058 29.9445C32.5591 29.4453 32.5375 28.9178 32.6429 28.4083C32.7482 27.8988 32.9773 27.4231 33.3099 27.0231C33.6426 26.6231 34.0685 26.311 34.5502 26.1145C35.0319 25.918 35.5545 25.8429 36.0721 25.8961C36.5896 25.9492 37.0861 26.1289 37.5178 26.4192C37.9495 26.7095 38.3031 27.1016 38.5475 27.5609C38.7919 28.0202 38.9195 28.5325 38.9192 29.0527ZM9.55292 5.0925V9.35325H5.29217L9.55292 5.0925ZM4.23242 42.4935V10.8532H10.3029C10.5018 10.8532 10.6926 10.7742 10.8333 10.6336C10.9739 10.4929 11.0529 10.3022 11.0529 10.1032V4.032H34.9967V24.45C34.1842 24.581 33.4209 24.9247 32.7842 25.446C32.1474 25.9674 31.66 26.648 31.3713 27.4186C31.0827 28.1893 31.003 29.0226 31.1405 29.834C31.278 30.6454 31.6277 31.406 32.1542 32.0385L31.3292 37.7047H28.2002C27.501 37.7055 26.8308 37.9836 26.3364 38.478C25.842 38.9723 25.564 39.6426 25.5632 40.3418V42.4972L4.23242 42.4935ZM44.4324 45.0277H27.0617V40.338C27.0621 40.0363 27.1822 39.7471 27.3957 39.5339C27.6091 39.3207 27.8985 39.201 28.2002 39.201H43.2954C43.5968 39.2014 43.8857 39.3213 44.0987 39.5345C44.3117 39.7477 44.4315 40.0366 44.4317 40.338L44.4324 45.0277Z" fill="#0A0A0A" fill-opacity="0.75"/>
<path d="M21.9595 30.9C20.8 30.9 20.5052 32.3655 20.164 34.062C20.1047 34.353 20.0275 34.737 19.9442 35.0843C19.8587 34.7843 19.7777 34.4573 19.7117 34.1903C19.3592 32.7735 19.0562 31.5503 18.2545 31.1513C18.0974 31.0742 17.9255 31.0324 17.7506 31.0287C17.5757 31.0251 17.4021 31.0598 17.242 31.1303C16.2062 31.5728 16.198 33.1425 16.1875 35.13C16.1822 36.105 16.171 38.13 15.7937 38.394C15.2312 38.325 14.9837 37.0748 14.7437 35.8673C14.3327 33.7988 13.7312 30.666 10.366 30.9923C9.87047 31.0078 9.38647 31.1455 8.95703 31.3932C8.52759 31.6409 8.16602 31.9909 7.90448 32.412C6.76673 34.3358 8.02073 37.3703 8.16773 37.71C8.24764 37.891 8.39585 38.0332 8.58007 38.1054C8.76429 38.1776 8.96959 38.1741 9.15124 38.0957C9.3329 38.0172 9.47619 37.8701 9.54989 37.6865C9.62359 37.5029 9.62174 37.2975 9.54473 37.1153C9.25148 36.4365 8.55773 34.254 9.19598 33.1755C9.34135 32.9612 9.5373 32.7861 9.7665 32.6656C9.99569 32.5451 10.2511 32.483 10.51 32.4848C12.3722 32.3108 12.796 33.7538 13.2722 36.1598C13.6165 37.8915 13.972 39.6848 15.6122 39.8828C15.6814 39.8917 15.751 39.8962 15.8207 39.8963C16.1799 39.8987 16.5272 39.768 16.7957 39.5295C17.6657 38.7638 17.6747 37.0035 17.6852 35.139C17.6736 34.395 17.7064 33.6509 17.7835 32.9108C17.9685 33.4493 18.1255 33.997 18.2537 34.5518C18.6287 36.069 18.9287 37.2675 19.915 37.3133C21.0325 37.3448 21.3077 35.9715 21.6317 34.359C21.7367 33.6796 21.9148 33.0135 22.1627 32.3723C22.3374 32.3234 22.4884 32.2129 22.5878 32.0613C22.6872 31.9096 22.7284 31.7271 22.7036 31.5475C22.6788 31.3678 22.5897 31.2033 22.4529 31.0842C22.3161 30.9652 22.1408 30.8998 21.9595 30.9ZM39.6685 42.1883H31.8242C31.6253 42.1883 31.4346 42.2673 31.2939 42.4079C31.1533 42.5486 31.0742 42.7394 31.0742 42.9383C31.0742 43.1372 31.1533 43.328 31.2939 43.4686C31.4346 43.6093 31.6253 43.6883 31.8242 43.6883H39.6685C39.8674 43.6883 40.0582 43.6093 40.1988 43.4686C40.3395 43.328 40.4185 43.1372 40.4185 42.9383C40.4185 42.7394 40.3395 42.5486 40.1988 42.4079C40.0582 42.2673 39.8674 42.1883 39.6685 42.1883Z" fill="#0A0A0A" fill-opacity="0.75"/>
</svg>
