<svg width="50" height="50" viewBox="0 0 50 50" fill="none" xmlns="http://www.w3.org/2000/svg">
<path d="M34.3333 22.6667H15.6667C14.1939 22.6667 13 23.8607 13 25.3334V34.6667C13 36.1395 14.1939 37.3334 15.6667 37.3334H34.3333C35.8061 37.3334 37 36.1395 37 34.6667V25.3334C37 23.8607 35.8061 22.6667 34.3333 22.6667Z" stroke="#0A0A0A" stroke-opacity="0.75" stroke-width="2" stroke-linecap="round" stroke-linejoin="round"/>
<path d="M18.3335 22.6667V17.3334C18.3335 15.5653 19.0359 13.8696 20.2861 12.6194C21.5364 11.3691 23.2321 10.6667 25.0002 10.6667C26.7683 10.6667 28.464 11.3691 29.7142 12.6194C30.9644 13.8696 31.6668 15.5653 31.6668 17.3334V22.6667" stroke="#0A0A0A" stroke-opacity="0.75" stroke-width="2" stroke-linecap="round" stroke-linejoin="round"/>
<circle cx="25" cy="25" r="24.5" stroke="#0A0A0A" stroke-opacity="0.75"/>
</svg>
