<svg width="244" height="50" viewBox="0 0 244 50" fill="none" xmlns="http://www.w3.org/2000/svg">
<path d="M72.664 38V12.44H77.632V33.644H90.664V38H72.664ZM93.2194 38V19.136H98.0434V38H93.2194ZM93.2194 16.508V11.72H98.0434V16.508H93.2194ZM103.547 38V23.816H101.063V20.144H103.547V18.992C103.547 17.432 103.799 16.088 104.303 14.96C104.831 13.808 105.563 12.92 106.499 12.296C107.459 11.672 108.575 11.36 109.847 11.36C110.615 11.36 111.383 11.456 112.151 11.648C112.943 11.84 113.723 12.116 114.491 12.476L113.519 16.112C113.159 15.92 112.739 15.764 112.259 15.644C111.779 15.5 111.323 15.428 110.891 15.428C110.075 15.428 109.451 15.716 109.019 16.292C108.587 16.868 108.371 17.708 108.371 18.812V20.144H112.979V23.816H108.371V38H103.547ZM124.221 38.36C122.709 38.36 121.341 38.108 120.117 37.604C118.893 37.076 117.849 36.368 116.985 35.48C116.121 34.568 115.449 33.536 114.969 32.384C114.513 31.208 114.285 29.972 114.285 28.676C114.285 26.876 114.681 25.232 115.473 23.744C116.289 22.256 117.441 21.068 118.929 20.18C120.441 19.268 122.217 18.812 124.257 18.812C126.321 18.812 128.085 19.268 129.549 20.18C131.013 21.068 132.129 22.256 132.897 23.744C133.689 25.208 134.085 26.792 134.085 28.496C134.085 28.784 134.073 29.084 134.049 29.396C134.025 29.684 134.001 29.924 133.977 30.116H119.397C119.493 31.076 119.769 31.916 120.225 32.636C120.705 33.356 121.305 33.908 122.025 34.292C122.769 34.652 123.561 34.832 124.401 34.832C125.361 34.832 126.261 34.604 127.101 34.148C127.965 33.668 128.553 33.044 128.865 32.276L133.005 33.428C132.549 34.388 131.889 35.24 131.025 35.984C130.185 36.728 129.189 37.316 128.037 37.748C126.885 38.156 125.613 38.36 124.221 38.36ZM119.289 27.056H129.153C129.057 26.096 128.781 25.268 128.325 24.572C127.893 23.852 127.317 23.3 126.597 22.916C125.877 22.508 125.073 22.304 124.185 22.304C123.321 22.304 122.529 22.508 121.809 22.916C121.113 23.3 120.537 23.852 120.081 24.572C119.649 25.268 119.385 26.096 119.289 27.056ZM155.029 33.644V38H137.281V12.44H154.705V16.796H142.249V22.952H153.013V26.984H142.249V33.644H155.029ZM165.312 38.36C163.704 38.36 162.168 38.096 160.704 37.568C159.24 37.04 157.98 36.26 156.924 35.228L158.652 32.096C159.78 33.008 160.884 33.68 161.964 34.112C163.068 34.544 164.124 34.76 165.132 34.76C166.068 34.76 166.812 34.592 167.364 34.256C167.94 33.92 168.228 33.416 168.228 32.744C168.228 32.288 168.072 31.94 167.76 31.7C167.448 31.436 166.992 31.208 166.392 31.016C165.816 30.824 165.108 30.608 164.268 30.368C162.876 29.912 161.712 29.468 160.776 29.036C159.84 28.604 159.132 28.064 158.652 27.416C158.196 26.744 157.968 25.892 157.968 24.86C157.968 23.612 158.28 22.544 158.904 21.656C159.552 20.744 160.44 20.036 161.568 19.532C162.72 19.028 164.064 18.776 165.6 18.776C166.944 18.776 168.216 18.992 169.416 19.424C170.616 19.832 171.708 20.504 172.692 21.44L170.748 24.5C169.788 23.756 168.876 23.216 168.012 22.88C167.148 22.52 166.272 22.34 165.384 22.34C164.88 22.34 164.4 22.4 163.944 22.52C163.512 22.64 163.152 22.844 162.864 23.132C162.6 23.396 162.468 23.78 162.468 24.284C162.468 24.74 162.588 25.1 162.828 25.364C163.092 25.604 163.476 25.82 163.98 26.012C164.508 26.204 165.144 26.42 165.888 26.66C167.4 27.092 168.672 27.536 169.704 27.992C170.76 28.448 171.552 29.012 172.08 29.684C172.608 30.332 172.872 31.232 172.872 32.384C172.872 34.256 172.188 35.72 170.82 36.776C169.452 37.832 167.616 38.36 165.312 38.36ZM187.352 37.028C186.944 37.196 186.452 37.388 185.876 37.604C185.3 37.82 184.676 37.988 184.004 38.108C183.356 38.252 182.696 38.324 182.024 38.324C181.136 38.324 180.32 38.168 179.576 37.856C178.832 37.544 178.232 37.052 177.776 36.38C177.344 35.684 177.128 34.784 177.128 33.68V22.844H174.644V19.136H177.128V13.016H181.952V19.136H185.912V22.844H181.952V32.06C181.976 32.708 182.156 33.176 182.492 33.464C182.828 33.752 183.248 33.896 183.752 33.896C184.256 33.896 184.748 33.812 185.228 33.644C185.708 33.476 186.092 33.332 186.38 33.212L187.352 37.028ZM188.568 32.42C188.568 31.196 188.904 30.128 189.576 29.216C190.272 28.28 191.232 27.56 192.456 27.056C193.68 26.552 195.084 26.3 196.668 26.3C197.46 26.3 198.264 26.36 199.08 26.48C199.896 26.6 200.604 26.792 201.204 27.056V26.048C201.204 24.848 200.844 23.924 200.124 23.276C199.428 22.628 198.384 22.304 196.992 22.304C195.96 22.304 194.976 22.484 194.04 22.844C193.104 23.204 192.12 23.732 191.088 24.428L189.54 21.26C190.788 20.444 192.06 19.832 193.356 19.424C194.676 19.016 196.056 18.812 197.496 18.812C200.184 18.812 202.272 19.484 203.76 20.828C205.272 22.172 206.028 24.092 206.028 26.588V32.6C206.028 33.104 206.112 33.464 206.28 33.68C206.472 33.896 206.772 34.028 207.18 34.076V38C206.748 38.072 206.352 38.132 205.992 38.18C205.656 38.228 205.368 38.252 205.128 38.252C204.168 38.252 203.436 38.036 202.932 37.604C202.452 37.172 202.152 36.644 202.032 36.02L201.924 35.048C201.108 36.104 200.088 36.92 198.864 37.496C197.64 38.072 196.392 38.36 195.12 38.36C193.872 38.36 192.744 38.108 191.736 37.604C190.752 37.076 189.972 36.368 189.396 35.48C188.844 34.568 188.568 33.548 188.568 32.42ZM200.304 33.392C200.568 33.104 200.784 32.816 200.952 32.528C201.12 32.24 201.204 31.976 201.204 31.736V29.828C200.628 29.588 200.004 29.408 199.332 29.288C198.66 29.144 198.024 29.072 197.424 29.072C196.176 29.072 195.144 29.348 194.328 29.9C193.536 30.428 193.14 31.136 193.14 32.024C193.14 32.504 193.272 32.96 193.536 33.392C193.8 33.824 194.184 34.172 194.688 34.436C195.192 34.7 195.792 34.832 196.488 34.832C197.208 34.832 197.916 34.7 198.612 34.436C199.308 34.148 199.872 33.8 200.304 33.392ZM221.664 37.028C221.256 37.196 220.764 37.388 220.188 37.604C219.612 37.82 218.988 37.988 218.316 38.108C217.668 38.252 217.008 38.324 216.336 38.324C215.448 38.324 214.632 38.168 213.888 37.856C213.144 37.544 212.544 37.052 212.088 36.38C211.656 35.684 211.44 34.784 211.44 33.68V22.844H208.956V19.136H211.44V13.016H216.264V19.136H220.224V22.844H216.264V32.06C216.288 32.708 216.468 33.176 216.804 33.464C217.14 33.752 217.56 33.896 218.064 33.896C218.568 33.896 219.06 33.812 219.54 33.644C220.02 33.476 220.404 33.332 220.692 33.212L221.664 37.028ZM232.714 38.36C231.202 38.36 229.834 38.108 228.61 37.604C227.386 37.076 226.342 36.368 225.478 35.48C224.614 34.568 223.942 33.536 223.462 32.384C223.006 31.208 222.778 29.972 222.778 28.676C222.778 26.876 223.174 25.232 223.966 23.744C224.782 22.256 225.934 21.068 227.422 20.18C228.934 19.268 230.71 18.812 232.75 18.812C234.814 18.812 236.578 19.268 238.042 20.18C239.506 21.068 240.622 22.256 241.39 23.744C242.182 25.208 242.578 26.792 242.578 28.496C242.578 28.784 242.566 29.084 242.542 29.396C242.518 29.684 242.494 29.924 242.47 30.116H227.89C227.986 31.076 228.262 31.916 228.718 32.636C229.198 33.356 229.798 33.908 230.518 34.292C231.262 34.652 232.054 34.832 232.894 34.832C233.854 34.832 234.754 34.604 235.594 34.148C236.458 33.668 237.046 33.044 237.358 32.276L241.498 33.428C241.042 34.388 240.382 35.24 239.518 35.984C238.678 36.728 237.682 37.316 236.53 37.748C235.378 38.156 234.106 38.36 232.714 38.36ZM227.782 27.056H237.646C237.55 26.096 237.274 25.268 236.818 24.572C236.386 23.852 235.81 23.3 235.09 22.916C234.37 22.508 233.566 22.304 232.678 22.304C231.814 22.304 231.022 22.508 230.302 22.916C229.606 23.3 229.03 23.852 228.574 24.572C228.142 25.268 227.878 26.096 227.782 27.056Z" fill="black"/>
<circle cx="25" cy="25" r="25" fill="#358EF8"/>
</svg>
