<svg width="25" height="24" viewBox="0 0 25 24" fill="none" xmlns="http://www.w3.org/2000/svg">
<path d="M21.0826 10C21.0826 17 12.0472 23 12.0472 23C12.0472 23 3.01172 17 3.01172 10C3.01172 7.61305 3.96366 5.32387 5.65814 3.63604C7.35261 1.94821 9.65081 1 12.0472 1C14.4435 1 16.7417 1.94821 18.4362 3.63604C20.1306 5.32387 21.0826 7.61305 21.0826 10Z" fill="#358EF8"/>
<path d="M12 13C14.2091 13 16 11.2091 16 9C16 6.79086 14.2091 5 12 5C9.79086 5 8 6.79086 8 9C8 11.2091 9.79086 13 12 13Z" fill="white"/>
</svg>
