<svg width="48" height="48" viewBox="0 0 48 48" fill="none" xmlns="http://www.w3.org/2000/svg">
<path d="M24 34.5C25.4834 34.5 26.9334 34.0601 28.1668 33.236C29.4001 32.4119 30.3614 31.2406 30.9291 29.8701C31.4968 28.4997 31.6453 26.9917 31.3559 25.5368C31.0665 24.082 30.3522 22.7456 29.3033 21.6967C28.2544 20.6478 26.918 19.9335 25.4632 19.6441C24.0083 19.3547 22.5003 19.5032 21.1299 20.0709C19.7594 20.6386 18.5881 21.5999 17.764 22.8332C16.9399 24.0666 16.5 25.5166 16.5 27C16.5022 28.9885 17.2931 30.8948 18.6991 32.3009C20.1052 33.7069 22.0115 34.4978 24 34.5ZM24 21C25.1867 21 26.3467 21.3519 27.3334 22.0112C28.3201 22.6705 29.0892 23.6075 29.5433 24.7039C29.9974 25.8003 30.1162 27.0067 29.8847 28.1705C29.6532 29.3344 29.0818 30.4035 28.2426 31.2426C27.4035 32.0818 26.3344 32.6532 25.1705 32.8847C24.0067 33.1162 22.8003 32.9974 21.7039 32.5433C20.6075 32.0892 19.6705 31.3201 19.0112 30.3334C18.3519 29.3467 18 28.1867 18 27C18.0018 25.4092 18.6345 23.8842 19.7593 22.7593C20.8842 21.6345 22.4092 21.0018 24 21Z" fill="#0A0A0A" fill-opacity="0.75"/>
<path d="M24 29.25C23.8011 29.25 23.6103 29.171 23.4697 29.0303C23.329 28.8897 23.25 28.6989 23.25 28.5C23.25 28.3011 23.171 28.1103 23.0303 27.9697C22.8897 27.829 22.6989 27.75 22.5 27.75C22.3011 27.75 22.1103 27.829 21.9697 27.9697C21.829 28.1103 21.75 28.3011 21.75 28.5C21.7519 28.9637 21.8971 29.4155 22.1656 29.7935C22.4341 30.1716 22.8128 30.4574 23.25 30.612V31.5C23.25 31.6989 23.329 31.8897 23.4697 32.0303C23.6103 32.171 23.8011 32.25 24 32.25C24.1989 32.25 24.3897 32.171 24.5303 32.0303C24.671 31.8897 24.75 31.6989 24.75 31.5V30.612C25.25 30.4359 25.6716 30.0885 25.94 29.6313C26.2084 29.1742 26.3064 28.6368 26.2165 28.1144C26.1267 27.5919 25.8549 27.1181 25.4492 26.7769C25.0435 26.4356 24.5301 26.249 24 26.25C23.8517 26.25 23.7067 26.206 23.5833 26.1236C23.46 26.0412 23.3639 25.9241 23.3071 25.787C23.2503 25.65 23.2355 25.4992 23.2644 25.3537C23.2933 25.2082 23.3648 25.0746 23.4697 24.9697C23.5746 24.8648 23.7082 24.7933 23.8537 24.7644C23.9992 24.7355 24.15 24.7503 24.287 24.8071C24.4241 24.8639 24.5412 24.96 24.6236 25.0833C24.706 25.2067 24.75 25.3517 24.75 25.5C24.75 25.6989 24.829 25.8897 24.9697 26.0303C25.1103 26.171 25.3011 26.25 25.5 26.25C25.6989 26.25 25.8897 26.171 26.0303 26.0303C26.171 25.8897 26.25 25.6989 26.25 25.5C26.2481 25.0363 26.1029 24.5845 25.8344 24.2065C25.5659 23.8284 25.1872 23.5426 24.75 23.388V22.5C24.75 22.3011 24.671 22.1103 24.5303 21.9697C24.3897 21.829 24.1989 21.75 24 21.75C23.8011 21.75 23.6103 21.829 23.4697 21.9697C23.329 22.1103 23.25 22.3011 23.25 22.5V23.388C22.75 23.5641 22.3284 23.9115 22.06 24.3687C21.7916 24.8258 21.6936 25.3632 21.7835 25.8856C21.8733 26.4081 22.1451 26.8819 22.5508 27.2231C22.9565 27.5644 23.4699 27.751 24 27.75C24.1989 27.75 24.3897 27.829 24.5303 27.9697C24.671 28.1103 24.75 28.3011 24.75 28.5C24.75 28.6989 24.671 28.8897 24.5303 29.0303C24.3897 29.171 24.1989 29.25 24 29.25Z" fill="#0A0A0A" fill-opacity="0.75"/>
<path d="M44.4135 27H39.5535C38.4128 23.2786 36.2571 19.9489 33.3285 17.385L29.1615 13.7385C29.4846 13.4808 29.7298 13.1385 29.8697 12.7496C30.0097 12.3607 30.0388 11.9406 29.9538 11.5361C29.8689 11.1317 29.6732 10.7587 29.3887 10.459C29.1042 10.1592 28.742 9.94441 28.3425 9.8385L32.1248 4.1655C32.2151 4.03031 32.259 3.86943 32.2499 3.70711C32.2409 3.54478 32.1793 3.3898 32.0745 3.2655C32.0557 3.2445 32.0317 3.23175 32.0115 3.21225L32.0175 3.20625C30.8622 2.11786 29.3372 1.5081 27.75 1.5C26.4977 1.50232 25.2758 1.88582 24.2467 2.5995C21.918 1.581 19.5 0.56025 16.05 3.15C15.8966 3.26504 15.793 3.43447 15.7607 3.62348C15.7283 3.8125 15.7696 4.00672 15.876 4.16625L19.6583 9.83925C19.2977 9.93424 18.9668 10.1183 18.6959 10.3745C18.425 10.6308 18.2229 10.951 18.108 11.3057C17.9932 11.6605 17.9693 12.0384 18.0387 12.4048C18.108 12.7711 18.2682 13.1142 18.5047 13.4025L14.955 16.716L15.9795 17.8118L19.7955 14.25H27.468L32.343 18.5138C34.9431 20.7911 36.8892 23.7204 37.9808 27H35.0865C34.5333 27.0006 34.0029 27.2206 33.6118 27.6118C33.2206 28.0029 33.0006 28.5333 33 29.0865V30.9135C33.0022 31.404 33.1787 31.8777 33.498 32.25C33.1787 32.6223 33.0022 33.096 33 33.5865V35.4135C33.003 35.6334 33.041 35.8513 33.1125 36.0592C32.6551 36.1661 32.247 36.4241 31.9544 36.7916C31.6618 37.1591 31.5017 37.6145 31.5 38.0843V39.9113C31.5017 40.381 31.6618 40.8364 31.9544 41.2039C32.247 41.5714 32.6551 41.8294 33.1125 41.9362C33.041 42.1442 33.003 42.3621 33 42.582V44.409C33.0034 44.497 33.0122 44.5846 33.0262 44.6715C32.2866 44.8869 31.5204 44.9975 30.75 45H30.6555C30.7152 44.8101 30.7471 44.6125 30.75 44.4135V42.5865C30.7478 42.096 30.5713 41.6223 30.252 41.25C30.5713 40.8777 30.7478 40.404 30.75 39.9135V38.0865C30.7494 37.5333 30.5294 37.0029 30.1382 36.6118C29.7471 36.2206 29.2167 36.0006 28.6635 36H19.3365C18.7833 36.0006 18.2529 36.2206 17.8618 36.6118C17.4706 37.0029 17.2506 37.5333 17.25 38.0865V39.9135C17.2522 40.404 17.4287 40.8777 17.748 41.25C17.4287 41.6223 17.2522 42.096 17.25 42.5865V44.4135C17.2529 44.6125 17.2848 44.8101 17.3445 45H17.25C16.4798 44.999 15.7136 44.8899 14.9738 44.676C14.9878 44.5891 14.9966 44.5014 15 44.4135V42.5865C14.997 42.3666 14.959 42.1487 14.8875 41.9408C15.3449 41.8339 15.753 41.5759 16.0456 41.2084C16.3382 40.8409 16.4983 40.3855 16.5 39.9157V38.0865C16.4983 37.6168 16.3382 37.1613 16.0456 36.7938C15.753 36.4264 15.3449 36.1683 14.8875 36.0615C14.959 35.8536 14.997 35.6356 15 35.4157V33.5865C14.9978 33.096 14.8213 32.6223 14.502 32.25C14.8213 31.8777 14.9978 31.404 15 30.9135V29.0865C14.9994 28.5333 14.7794 28.0029 14.3882 27.6118C13.9971 27.2206 13.4667 27.0006 12.9135 27H9.891C10.8363 23.9562 12.5132 21.1905 14.775 18.945L13.725 17.8792C11.1749 20.4079 9.31572 23.5481 8.325 27H3.5865C3.03331 27.0006 2.50295 27.2206 2.11178 27.6118C1.72061 28.0029 1.5006 28.5333 1.5 29.0865V30.9135C1.50217 31.404 1.67869 31.8777 1.998 32.25C1.67869 32.6223 1.50217 33.096 1.5 33.5865V35.4135C1.5017 35.8832 1.6618 36.3387 1.95442 36.7062C2.24704 37.0736 2.65506 37.3317 3.1125 37.4385C3.041 37.6464 3.00303 37.8644 3 38.0843V39.9113C3.00303 40.1311 3.041 40.3491 3.1125 40.557C2.65431 40.664 2.24573 40.9227 1.95303 41.2911C1.66033 41.6595 1.50069 42.116 1.5 42.5865V44.4135C1.5006 44.9667 1.72061 45.4971 2.11178 45.8882C2.50295 46.2794 3.03331 46.4994 3.5865 46.5H12.9135C13.3963 46.498 13.8631 46.3268 14.2327 46.0163C15.2067 46.3355 16.225 46.4988 17.25 46.5H30.75C31.775 46.4988 32.7933 46.3355 33.7673 46.0163C34.1369 46.3268 34.6037 46.498 35.0865 46.5H44.4135C44.9667 46.4994 45.4971 46.2794 45.8882 45.8882C46.2794 45.4971 46.4994 44.9667 46.5 44.4135V42.5865C46.4983 42.1168 46.3382 41.6613 46.0456 41.2938C45.753 40.9264 45.3449 40.6683 44.8875 40.5615C44.959 40.3536 44.997 40.1356 45 39.9157V38.0865C44.997 37.8666 44.959 37.6487 44.8875 37.4408C45.3449 37.3339 45.753 37.0759 46.0456 36.7084C46.3382 36.3409 46.4983 35.8855 46.5 35.4157V33.5865C46.4978 33.096 46.3213 32.6223 46.002 32.25C46.3213 31.8777 46.4978 31.404 46.5 30.9135V29.0865C46.4994 28.5333 46.2794 28.0029 45.8882 27.6118C45.4971 27.2206 44.9667 27.0006 44.4135 27ZM29.883 3.525C28.614 3.85102 27.2758 3.78247 26.0467 3.3285C26.5886 3.11207 27.1666 3.0006 27.75 3C28.4917 3.01024 29.2213 3.18981 29.883 3.525ZM23.7083 4.0035C25.395 4.74225 27.2573 5.55975 29.6955 5.1075L26.5988 9.75H21.4012L17.5312 3.945C19.9867 2.3715 21.6465 3.0975 23.7083 4.00125V4.0035ZM20.25 12.75C20.0511 12.75 19.8603 12.671 19.7197 12.5303C19.579 12.3897 19.5 12.1989 19.5 12C19.5 11.8011 19.579 11.6103 19.7197 11.4697C19.8603 11.329 20.0511 11.25 20.25 11.25H27.75C27.9489 11.25 28.1397 11.329 28.2803 11.4697C28.421 11.6103 28.5 11.8011 28.5 12C28.5 12.1989 28.421 12.3897 28.2803 12.5303C28.1397 12.671 27.9489 12.75 27.75 12.75H20.25ZM15 39.9135C14.9998 40.069 14.9379 40.2181 14.828 40.328C14.7181 40.4379 14.569 40.4998 14.4135 40.5H5.0865C4.93101 40.4998 4.78195 40.4379 4.672 40.328C4.56205 40.2181 4.5002 40.069 4.5 39.9135V38.0865C4.5002 37.931 4.56205 37.7819 4.672 37.672C4.78195 37.5621 4.93101 37.5002 5.0865 37.5H6V39H7.5V37.5H9V39H10.5V37.5H12V39H13.5V37.5H14.4135C14.569 37.5002 14.7181 37.5621 14.828 37.672C14.9379 37.7819 14.9998 37.931 15 38.0865V39.9135ZM3 29.0865C3.0002 28.931 3.06205 28.7819 3.172 28.672C3.28195 28.5621 3.43101 28.5002 3.5865 28.5H4.5V30H6V28.5H7.5V30H9V28.5H10.5V30H12V28.5H12.9135C13.069 28.5002 13.2181 28.5621 13.328 28.672C13.4379 28.7819 13.4998 28.931 13.5 29.0865V30.9135C13.4998 31.069 13.4379 31.2181 13.328 31.328C13.2181 31.4379 13.069 31.4998 12.9135 31.5H3.5865C3.43101 31.4998 3.28195 31.4379 3.172 31.328C3.06205 31.2181 3.0002 31.069 3 30.9135V29.0865ZM3 33.5865C3.0002 33.431 3.06205 33.2819 3.172 33.172C3.28195 33.0621 3.43101 33.0002 3.5865 33H4.5V34.5H6V33H7.5V34.5H9V33H10.5V34.5H12V33H12.9135C13.069 33.0002 13.2181 33.0621 13.328 33.172C13.4379 33.2819 13.4998 33.431 13.5 33.5865V35.4135C13.4998 35.569 13.4379 35.7181 13.328 35.828C13.2181 35.9379 13.069 35.9998 12.9135 36H3.5865C3.43101 35.9998 3.28195 35.9379 3.172 35.828C3.06205 35.7181 3.0002 35.569 3 35.4135V33.5865ZM13.5 44.4135C13.4998 44.569 13.4379 44.7181 13.328 44.828C13.2181 44.9379 13.069 44.9998 12.9135 45H3.5865C3.43101 44.9998 3.28195 44.9379 3.172 44.828C3.06205 44.7181 3.0002 44.569 3 44.4135V42.5865C3.0002 42.431 3.06205 42.2819 3.172 42.172C3.28195 42.0621 3.43101 42.0002 3.5865 42H4.5V43.5H6V42H7.5V43.5H9V42H10.5V43.5H12V42H12.9135C13.069 42.0002 13.2181 42.0621 13.328 42.172C13.4379 42.2819 13.4998 42.431 13.5 42.5865V44.4135ZM18.75 38.0865C18.7502 37.931 18.8121 37.7819 18.922 37.672C19.0319 37.5621 19.181 37.5002 19.3365 37.5H20.25V39H21.75V37.5H23.25V39H24.75V37.5H26.25V39H27.75V37.5H28.6635C28.819 37.5002 28.9681 37.5621 29.078 37.672C29.1879 37.7819 29.2498 37.931 29.25 38.0865V39.9135C29.2498 40.069 29.1879 40.2181 29.078 40.328C28.9681 40.4379 28.819 40.4998 28.6635 40.5H19.3365C19.181 40.4998 19.0319 40.4379 18.922 40.328C18.8121 40.2181 18.7502 40.069 18.75 39.9135V38.0865ZM19.3365 45C19.181 44.9998 19.0319 44.9379 18.922 44.828C18.8121 44.7181 18.7502 44.569 18.75 44.4135V42.5865C18.7502 42.431 18.8121 42.2819 18.922 42.172C19.0319 42.0621 19.181 42.0002 19.3365 42H20.25V43.5H21.75V42H23.25V43.5H24.75V42H26.25V43.5H27.75V42H28.6635C28.819 42.0002 28.9681 42.0621 29.078 42.172C29.1879 42.2819 29.2498 42.431 29.25 42.5865V44.4135C29.2498 44.569 29.1879 44.7181 29.078 44.828C28.9681 44.9379 28.819 44.9998 28.6635 45H19.3365ZM34.5 29.0865C34.5002 28.931 34.5621 28.7819 34.672 28.672C34.7819 28.5621 34.931 28.5002 35.0865 28.5H36V30H37.5V28.5H39V30H40.5V28.5H42V30H43.5V28.5H44.4135C44.569 28.5002 44.7181 28.5621 44.828 28.672C44.9379 28.7819 44.9998 28.931 45 29.0865V30.9135C44.9998 31.069 44.9379 31.2181 44.828 31.328C44.7181 31.4379 44.569 31.4998 44.4135 31.5H35.0865C34.931 31.4998 34.7819 31.4379 34.672 31.328C34.5621 31.2181 34.5002 31.069 34.5 30.9135V29.0865ZM33 38.0865C33.0002 37.931 33.0621 37.7819 33.172 37.672C33.2819 37.5621 33.431 37.5002 33.5865 37.5H34.5V39H36V37.5H37.5V39H39V37.5H40.5V39H42V37.5H42.9135C43.069 37.5002 43.2181 37.5621 43.328 37.672C43.4379 37.7819 43.4998 37.931 43.5 38.0865V39.9135C43.4998 40.069 43.4379 40.2181 43.328 40.328C43.2181 40.4379 43.069 40.4998 42.9135 40.5H33.5865C33.431 40.4998 33.2819 40.4379 33.172 40.328C33.0621 40.2181 33.0002 40.069 33 39.9135V38.0865ZM45 44.4135C44.9998 44.569 44.9379 44.7181 44.828 44.828C44.7181 44.9379 44.569 44.9998 44.4135 45H35.0865C34.931 44.9998 34.7819 44.9379 34.672 44.828C34.5621 44.7181 34.5002 44.569 34.5 44.4135V42.5865C34.5002 42.431 34.5621 42.2819 34.672 42.172C34.7819 42.0621 34.931 42.0002 35.0865 42H36V43.5H37.5V42H39V43.5H40.5V42H42V43.5H43.5V42H44.4135C44.569 42.0002 44.7181 42.0621 44.828 42.172C44.9379 42.2819 44.9998 42.431 45 42.5865V44.4135ZM45 35.4135C44.9998 35.569 44.9379 35.7181 44.828 35.828C44.7181 35.9379 44.569 35.9998 44.4135 36H35.0865C34.931 35.9998 34.7819 35.9379 34.672 35.828C34.5621 35.7181 34.5002 35.569 34.5 35.4135V33.5865C34.5002 33.431 34.5621 33.2819 34.672 33.172C34.7819 33.0621 34.931 33.0002 35.0865 33H36V34.5H37.5V33H39V34.5H40.5V33H42V34.5H43.5V33H44.4135C44.569 33.0002 44.7181 33.0621 44.828 33.172C44.9379 33.2819 44.9998 33.431 45 33.5865V35.4135Z" fill="#0A0A0A" fill-opacity="0.75"/>
</svg>
