<svg width="48" height="48" viewBox="0 0 48 48" fill="none" xmlns="http://www.w3.org/2000/svg">
<path d="M3.99993 45H43.9999C44.3599 45 44.6999 44.8 44.8799 44.48C45.0599 44.16 45.0499 43.77 44.8499 43.47L34.8499 27.47C34.6699 27.18 34.3399 27 33.9999 27C33.6599 27 33.3299 27.18 33.1499 27.47L31.2699 30.48L24.9999 19.73V17H31.9999C32.5499 17 32.9999 16.55 32.9999 16V11C32.9999 10.45 32.5499 10 31.9999 10H23.9999C23.4499 10 22.9999 10.45 22.9999 11V19.73L16.7299 30.48L14.8499 27.47C14.6699 27.18 14.3399 27 13.9999 27C13.6599 27 13.3299 27.18 13.1499 27.47L3.14993 43.47C2.95993 43.78 2.94993 44.17 3.11993 44.48C3.29993 44.8 3.63993 45 3.99993 45ZM24.9999 12H30.9999V15H24.9999V12ZM33.9999 29.89L42.1999 43H38.5799L32.4099 32.43L33.9999 29.89ZM23.9999 21.98L36.2599 43H11.7399L23.9999 21.98ZM13.9999 29.89L15.5899 32.43L9.42993 43H5.79993L13.9999 29.89Z" fill="#0A0A0A" fill-opacity="0.75"/>
</svg>
