<svg width="48" height="48" viewBox="0 0 48 48" fill="none" xmlns="http://www.w3.org/2000/svg">
<path d="M22.4999 25.5C24.5367 25.4977 26.5124 24.8036 28.1033 23.5316C29.6942 22.2596 30.8059 20.4851 31.2564 18.4986C31.7069 16.5122 31.4694 14.4317 30.5828 12.5978C29.6963 10.764 28.2132 9.28564 26.3766 8.40487C24.54 7.52411 22.4588 7.29318 20.4738 7.74992C18.4887 8.20666 16.7177 9.32398 15.4507 10.9189C14.1837 12.5137 13.4959 14.4916 13.5 16.5285C13.5041 18.5653 14.1998 20.5405 15.4731 22.1302C16.3161 23.1835 17.3856 24.0334 18.602 24.6168C19.8185 25.2002 21.1508 25.502 22.4999 25.5ZM18.0179 17.25C18.0493 18.1723 18.1533 19.0906 18.3291 19.9965C17.6269 20.1671 16.9425 20.4045 16.2854 20.7052C15.5851 19.6771 15.1566 18.4884 15.0396 17.25H18.0179ZM19.5419 23.3842C18.7112 23.0291 17.9519 22.5262 17.3009 21.9C17.7569 21.7178 18.225 21.5675 18.7019 21.45C18.9092 22.1239 19.1909 22.7727 19.5419 23.3842ZM20.2109 21.1747C21.7289 20.9688 23.2678 20.9688 24.7859 21.1747C24.1964 22.917 23.3249 24 22.4999 24C21.6749 24 20.8034 22.917 20.2109 21.1747ZM26.2979 21.4492C26.7747 21.5666 27.2429 21.717 27.6989 21.8992C27.0475 22.5248 26.2883 23.0271 25.4579 23.382C25.8086 22.7711 26.0904 22.1232 26.2979 21.45V21.4492ZM25.4579 9.61575C26.2884 9.97115 27.0476 10.474 27.6989 11.1C27.2427 11.2818 26.7746 11.4322 26.2979 11.55C26.0906 10.876 25.8089 10.2273 25.4579 9.61575ZM24.7889 11.826C23.2708 12.0316 21.7319 12.0316 20.2139 11.826C20.8034 10.083 21.6786 9 22.4999 9C23.3211 9 24.1964 10.083 24.7889 11.826ZM18.7019 11.55C18.2251 11.4323 17.757 11.2819 17.3009 11.1C17.9521 10.4743 18.7114 9.97192 19.5419 9.61725C19.191 10.2283 18.9092 10.8766 18.7019 11.55ZM19.8194 13.2825C20.7062 13.4217 21.6022 13.4944 22.4999 13.5C23.3975 13.4948 24.2935 13.4226 25.1804 13.284C25.3462 14.0967 25.4465 14.9213 25.4804 15.75H19.5171C19.5517 14.9212 19.6528 14.0966 19.8194 13.284V13.2825ZM25.4826 17.25C25.4487 18.0789 25.3484 18.9038 25.1826 19.7167C23.4052 19.4557 21.5991 19.4557 19.8216 19.7167C19.6559 18.9038 19.5555 18.0789 19.5216 17.25H25.4826ZM28.7144 20.7052C28.0572 20.4045 27.3729 20.1671 26.6706 19.9965C26.8464 19.0906 26.9505 18.1723 26.9819 17.25H29.9601C29.8432 18.4884 29.4146 19.6771 28.7144 20.7052ZM29.9601 15.75H26.9819C26.9505 14.8277 26.8464 13.9094 26.6706 13.0035C27.3729 12.833 28.0573 12.5956 28.7144 12.2947C29.4146 13.3229 29.8432 14.5116 29.9601 15.75ZM16.2854 12.2947C16.9424 12.5957 17.6268 12.8331 18.3291 13.0035C18.1533 13.9094 18.0493 14.8277 18.0179 15.75H15.0396C15.1566 14.5116 15.5851 13.3229 16.2854 12.2947Z" fill="#0A0A0A" fill-opacity="0.75"/>
<path d="M30.75 27.75H13.5V29.25H30.75V27.75Z" fill="#0A0A0A" fill-opacity="0.75"/>
<path d="M21.75 31.5H13.5V33H21.75V31.5Z" fill="#0A0A0A" fill-opacity="0.75"/>
<path d="M30.75 31.5H23.25V33H30.75V31.5Z" fill="#0A0A0A" fill-opacity="0.75"/>
<path d="M14.25 39H16.5C16.6989 39 16.8897 38.921 17.0303 38.7803C17.171 38.6397 17.25 38.4489 17.25 38.25V35.25C17.25 35.0511 17.171 34.8603 17.0303 34.7197C16.8897 34.579 16.6989 34.5 16.5 34.5H13.5C13.3011 34.5 13.1103 34.579 12.9697 34.7197C12.829 34.8603 12.75 35.0511 12.75 35.25V40.5H14.25V39ZM14.25 36H15.75V37.5H14.25V36ZM21.75 34.5H18.75C18.5511 34.5 18.3603 34.579 18.2197 34.7197C18.079 34.8603 18 35.0511 18 35.25V40.5H19.5V39H21V40.5H22.5V35.25C22.5 35.0511 22.421 34.8603 22.2803 34.7197C22.1397 34.579 21.9489 34.5 21.75 34.5ZM19.5 37.5V36H21V37.5H19.5ZM23.25 35.25V37.5C23.25 37.6989 23.329 37.8897 23.4697 38.0303C23.6103 38.171 23.8011 38.25 24 38.25H25.5V39H23.25V40.5H26.25C26.4489 40.5 26.6397 40.421 26.7803 40.2803C26.921 40.1397 27 39.9489 27 39.75V37.5C27 37.3011 26.921 37.1103 26.7803 36.9697C26.6397 36.829 26.4489 36.75 26.25 36.75H24.75V36H27V34.5H24C23.8011 34.5 23.6103 34.579 23.4697 34.7197C23.329 34.8603 23.25 35.0511 23.25 35.25ZM27.75 35.25V37.5C27.75 37.6989 27.829 37.8897 27.9697 38.0303C28.1103 38.171 28.3011 38.25 28.5 38.25H30V39H27.75V40.5H30.75C30.9489 40.5 31.1397 40.421 31.2803 40.2803C31.421 40.1397 31.5 39.9489 31.5 39.75V37.5C31.5 37.3011 31.421 37.1103 31.2803 36.9697C31.1397 36.829 30.9489 36.75 30.75 36.75H29.25V36H31.5V34.5H28.5C28.3011 34.5 28.1103 34.579 27.9697 34.7197C27.829 34.8603 27.75 35.0511 27.75 35.25Z" fill="#0A0A0A" fill-opacity="0.75"/>
<path d="M39 1.5H12C11.4033 1.5 10.831 1.73705 10.409 2.15901C9.98705 2.58097 9.75 3.15326 9.75 3.75C8.95435 3.75 8.19129 4.06607 7.62868 4.62868C7.06607 5.19129 6.75 5.95435 6.75 6.75V41.25C6.75 42.0457 7.06607 42.8087 7.62868 43.3713C8.19129 43.9339 8.95435 44.25 9.75 44.25C9.75 44.8467 9.98705 45.419 10.409 45.841C10.831 46.2629 11.4033 46.5 12 46.5H39C39.5967 46.5 40.169 46.2629 40.591 45.841C41.0129 45.419 41.25 44.8467 41.25 44.25V3.75C41.25 3.15326 41.0129 2.58097 40.591 2.15901C40.169 1.73705 39.5967 1.5 39 1.5ZM8.25 41.25V6.75C8.25 6.35218 8.40804 5.97064 8.68934 5.68934C8.97064 5.40804 9.35218 5.25 9.75 5.25H35.25C35.6478 5.25 36.0294 5.40804 36.3107 5.68934C36.592 5.97064 36.75 6.35218 36.75 6.75V41.25C36.75 41.6478 36.592 42.0294 36.3107 42.3107C36.0294 42.592 35.6478 42.75 35.25 42.75H9.75C9.35218 42.75 8.97064 42.592 8.68934 42.3107C8.40804 42.0294 8.25 41.6478 8.25 41.25ZM39.75 44.25C39.75 44.4489 39.671 44.6397 39.5303 44.7803C39.3897 44.921 39.1989 45 39 45H12C11.8011 45 11.6103 44.921 11.4697 44.7803C11.329 44.6397 11.25 44.4489 11.25 44.25H35.25C36.0456 44.25 36.8087 43.9339 37.3713 43.3713C37.9339 42.8087 38.25 42.0457 38.25 41.25V6.75C38.25 5.95435 37.9339 5.19129 37.3713 4.62868C36.8087 4.06607 36.0456 3.75 35.25 3.75H11.25C11.25 3.55109 11.329 3.36032 11.4697 3.21967C11.6103 3.07902 11.8011 3 12 3H39C39.1989 3 39.3897 3.07902 39.5303 3.21967C39.671 3.36032 39.75 3.55109 39.75 3.75V44.25Z" fill="#0A0A0A" fill-opacity="0.75"/>
</svg>
