<svg width="48" height="43" viewBox="0 0 48 43" fill="none" xmlns="http://www.w3.org/2000/svg">
<path d="M43.5769 33.72C43.1035 33.72 42.7198 34.1038 42.7198 34.5771V37.7143C42.7198 39.1344 41.5685 40.2857 40.1484 40.2857H5.14265C3.72249 40.2857 2.57122 39.1344 2.57122 37.7143V10.2857C2.57122 8.86555 3.72249 7.71429 5.14265 7.71429H13.5598C14.0332 7.71429 14.4169 7.33053 14.4169 6.85714C14.4169 6.38376 14.0332 6 13.5598 6H5.14265C2.77571 6 0.856934 7.91878 0.856934 10.2857V37.7143C0.856934 40.0812 2.77571 42 5.14265 42H40.1484C42.5114 41.9906 44.4247 40.0773 44.4341 37.7143V34.5771C44.4341 34.1038 44.0503 33.72 43.5769 33.72Z" fill="#0A0A0A" fill-opacity="0.5"/>
<path d="M44.5713 19.3885H44.4341V10.2856C44.4248 7.92259 42.5115 6.0093 40.1484 5.99991C39.675 5.99991 39.2913 6.38366 39.2913 6.85705C39.2913 7.33044 39.675 7.71419 40.1484 7.71419C41.5686 7.71419 42.7199 8.86546 42.7199 10.2856V10.7656H41.7599L36.617 5.62276L32.8799 1.88562C32.7189 1.72335 32.4998 1.63208 32.2713 1.63208C32.0427 1.63208 31.8237 1.72335 31.6627 1.88562L27.137 6.41134L22.5941 1.88562C22.255 1.55685 21.7161 1.55685 21.377 1.88562L12.497 10.7656H9.42843C8.95505 10.7656 8.57129 11.1494 8.57129 11.6228C8.57129 12.0962 8.95505 12.4799 9.42843 12.4799H42.7199V19.337H37.7141C34.4004 19.337 31.7141 22.0233 31.7141 25.337V25.9885C31.7141 29.3022 34.4004 31.9885 37.7141 31.9885H44.5713C45.9915 31.9885 47.1427 30.8372 47.1427 29.417V21.9599C47.1427 20.5397 45.9915 19.3885 44.5713 19.3885ZM32.2799 3.70276L34.7656 6.18848C33.2623 7.19848 31.2974 7.19848 29.7941 6.18848L32.2799 3.70276ZM28.577 7.40562C30.7635 9.07456 33.7962 9.07456 35.9827 7.40562L39.4113 10.8342H31.4741L28.337 7.62848L28.577 7.40562ZM18.6341 10.8342L23.777 5.69134L24.977 6.89134L21.0341 10.7656L18.6341 10.8342ZM26.2627 8.03991L29.1427 10.7656H23.4513L26.2627 8.03991ZM21.9941 3.70276L22.6284 4.33705L16.1999 10.7656H14.9313L21.9941 3.70276ZM45.4284 29.417C45.4284 29.8904 45.0447 30.2742 44.5713 30.2742H37.7141C36.5775 30.2742 35.4874 29.8227 34.6837 29.0189C33.88 28.2152 33.4284 27.1251 33.4284 25.9885V25.337C33.4284 22.9701 35.3472 21.0513 37.7141 21.0513H44.5713C45.0447 21.0513 45.4284 21.4351 45.4284 21.9085V29.417Z" fill="#0A0A0A" fill-opacity="0.5"/>
<path d="M37.8515 27.4286C38.7983 27.4286 39.5658 26.6611 39.5658 25.7143C39.5658 24.7675 38.7983 24 37.8515 24C36.9047 24 36.1372 24.7675 36.1372 25.7143C36.1372 26.6611 36.9047 27.4286 37.8515 27.4286Z" fill="#0A0A0A" fill-opacity="0.5"/>
</svg>
