<svg width="36" height="36" viewBox="0 0 36 36" fill="none" xmlns="http://www.w3.org/2000/svg">
<path d="M5.625 19.125H22.5V28.125H5.625V19.125Z" fill="white"/>
<path d="M31.5 10.5469C31.505 10.5209 31.505 10.4942 31.5 10.4681C31.4726 10.4011 31.4325 10.34 31.3819 10.2881L23.5069 2.41315C23.455 2.36255 23.3939 2.32244 23.3269 2.29502C23.3009 2.29001 23.2741 2.29001 23.2481 2.29502C23.191 2.26479 23.1272 2.24933 23.0625 2.25002H7.3125C7.16332 2.25002 7.02024 2.30929 6.91475 2.41478C6.80926 2.52026 6.75 2.66334 6.75 2.81252V18H5.0625C4.91332 18 4.77024 18.0593 4.66475 18.1648C4.55926 18.2703 4.5 18.4133 4.5 18.5625V28.6875C4.5 28.8367 4.55926 28.9798 4.66475 29.0853C4.77024 29.1908 4.91332 29.25 5.0625 29.25H6.75V33.1875C6.75 33.3367 6.80926 33.4798 6.91475 33.5853C7.02024 33.6908 7.16332 33.75 7.3125 33.75H30.9375C31.0867 33.75 31.2298 33.6908 31.3353 33.5853C31.4407 33.4798 31.5 33.3367 31.5 33.1875V10.6875C31.5086 10.641 31.5086 10.5934 31.5 10.5469ZM23.625 4.16815L29.5819 10.125H23.625V4.16815ZM5.625 19.125H22.5V28.125H5.625V19.125ZM7.875 32.625V29.25H23.0625C23.2117 29.25 23.3548 29.1908 23.4603 29.0853C23.5657 28.9798 23.625 28.8367 23.625 28.6875V18.5625C23.625 18.4133 23.5657 18.2703 23.4603 18.1648C23.3548 18.0593 23.2117 18 23.0625 18H7.875V3.37502H22.5V10.6875C22.5 10.8367 22.5593 10.9798 22.6648 11.0853C22.7702 11.1908 22.9133 11.25 23.0625 11.25H30.375V32.625H7.875Z" fill="#358EF8"/>
<path d="M29.5819 10.125H23.625V4.16815L29.5819 10.125Z" fill="white"/>
<path d="M30.375 11.25V32.625H7.875V29.25H23.0625C23.2117 29.25 23.3548 29.1907 23.4602 29.0852C23.5657 28.9798 23.625 28.8367 23.625 28.6875V18.5625C23.625 18.4133 23.5657 18.2702 23.4602 18.1648C23.3548 18.0593 23.2117 18 23.0625 18H7.875V3.375H22.5V10.6875C22.5 10.8367 22.5593 10.9798 22.6648 11.0852C22.7702 11.1907 22.9133 11.25 23.0625 11.25H30.375Z" fill="white"/>
<path d="M8.4375 25.875V21.375H9.93375C10.3179 21.3495 10.6981 21.4655 11.0025 21.7012C11.1561 21.8349 11.2778 22.0013 11.3586 22.1882C11.4395 22.3751 11.4773 22.5778 11.4694 22.7812C11.466 23.0442 11.3901 23.3011 11.25 23.5237C11.1184 23.7431 10.9218 23.9161 10.6875 24.0187C10.4841 24.1093 10.2632 24.1535 10.0406 24.1481H9.36562V25.875H8.4375ZM9.38813 23.3325H9.91687C10.0835 23.3412 10.2469 23.2848 10.3725 23.175C10.4281 23.1191 10.4714 23.0522 10.4995 22.9786C10.5276 22.9049 10.5399 22.8262 10.5356 22.7475C10.5356 22.4025 10.3294 22.23 9.91687 22.23H9.38813V23.3325ZM12.3469 25.875V21.375H14.0344C14.4573 21.3601 14.8719 21.4956 15.2044 21.7575C15.4797 21.9815 15.6982 22.2674 15.8419 22.592C15.9856 22.9166 16.0505 23.2706 16.0312 23.625C16.0361 24.0377 15.9395 24.4452 15.75 24.8119C15.5726 25.1547 15.2989 25.4382 14.9625 25.6275C14.5738 25.8141 14.1442 25.8992 13.7137 25.875H12.3469ZM13.2975 25.02H13.905C14.1211 25.0279 14.3346 24.9711 14.5181 24.8569C14.7128 24.7107 14.8667 24.5172 14.9652 24.2946C15.0636 24.072 15.1034 23.8279 15.0806 23.5856C15.0998 23.3579 15.0608 23.129 14.9673 22.9204C14.8739 22.7118 14.729 22.5304 14.5463 22.3931C14.3651 22.278 14.1531 22.2211 13.9388 22.23H13.2975V25.02ZM17.01 25.875V21.375H19.5863V22.23H17.9606V23.1469H19.4513V24.0019H17.9606V25.875H17.01Z" fill="#358EF8"/>
</svg>
