<svg width="20" height="20" viewBox="0 0 20 20" fill="none" xmlns="http://www.w3.org/2000/svg">
<circle cx="10" cy="10" r="10" fill="#0A0A0A" fill-opacity="0.5"/>
<g clip-path="url(#clip0_361_1652)">
<path d="M11.194 6.9113C11.6616 7.00236 12.0914 7.23061 12.4282 7.56685C12.7651 7.90309 12.9938 8.33201 13.085 8.79872M11.194 5C12.1655 5.10772 13.0714 5.54194 13.763 6.23136C14.4547 6.92078 14.8909 7.82443 15 8.79394M14.5213 12.607V14.0405C14.5218 14.1735 14.4945 14.3053 14.4411 14.4272C14.3877 14.5491 14.3093 14.6586 14.2111 14.7485C14.1128 14.8385 13.9968 14.907 13.8705 14.9496C13.7442 14.9923 13.6104 15.0081 13.4776 14.9961C12.0044 14.8364 10.5894 14.3339 9.34607 13.5292C8.18935 12.7956 7.20865 11.8167 6.47362 10.6622C5.66454 9.41569 5.16103 7.99644 5.00389 6.51949C4.99192 6.38735 5.00766 6.25418 5.05008 6.12845C5.09251 6.00271 5.16071 5.88717 5.25033 5.78919C5.33994 5.6912 5.44902 5.61291 5.57062 5.55931C5.69221 5.5057 5.82365 5.47795 5.95658 5.47783H7.3928C7.62514 5.47554 7.85038 5.55766 8.02654 5.70887C8.20271 5.86008 8.31777 6.07007 8.35029 6.29969C8.41091 6.75843 8.52333 7.20886 8.68541 7.64238C8.74982 7.8134 8.76376 7.99927 8.72557 8.17796C8.68739 8.35665 8.59869 8.52068 8.46997 8.65059L7.86197 9.25743C8.54348 10.4537 9.53587 11.4442 10.7344 12.1244L11.3424 11.5175C11.4726 11.3891 11.6369 11.3005 11.816 11.2624C11.995 11.2243 12.1812 11.2382 12.3526 11.3025C12.7869 11.4643 13.2382 11.5765 13.6978 11.637C13.9304 11.6697 14.1428 11.7867 14.2946 11.9655C14.4464 12.1444 14.5271 12.3727 14.5213 12.607Z" stroke="white" stroke-linecap="round" stroke-linejoin="round"/>
</g>
<defs>
<clipPath id="clip0_361_1652">
<rect width="12" height="12" fill="white" transform="translate(4 4)"/>
</clipPath>
</defs>
</svg>
