<svg width="48" height="48" viewBox="0 0 48 48" fill="none" xmlns="http://www.w3.org/2000/svg">
<g clip-path="url(#clip0_96_7768)">
<path d="M41.2798 30.24V18.72V30.24ZM41.2798 30.24V18.72V30.24ZM4.7998 30.24V18.72V30.24ZM43.1998 30.24V18.72V30.24ZM30.2398 29.76H17.7598C17.2318 29.76 16.7998 30.192 16.7998 30.72C16.7998 31.248 17.2318 31.68 17.7598 31.68H30.2398C30.7678 31.68 31.1998 31.248 31.1998 30.72C31.1998 30.192 30.7678 29.76 30.2398 29.76ZM30.2398 34.56H17.7598C17.2318 34.56 16.7998 34.992 16.7998 35.52C16.7998 36.048 17.2318 36.48 17.7598 36.48H30.2398C30.7678 36.48 31.1998 36.048 31.1998 35.52C31.1998 34.992 30.7678 34.56 30.2398 34.56ZM30.2398 29.76H17.7598C17.2318 29.76 16.7998 30.192 16.7998 30.72C16.7998 31.248 17.2318 31.68 17.7598 31.68H30.2398C30.7678 31.68 31.1998 31.248 31.1998 30.72C31.1998 30.192 30.7678 29.76 30.2398 29.76ZM30.2398 34.56H17.7598C17.2318 34.56 16.7998 34.992 16.7998 35.52C16.7998 36.048 17.2318 36.48 17.7598 36.48H30.2398C30.7678 36.48 31.1998 36.048 31.1998 35.52C31.1998 34.992 30.7678 34.56 30.2398 34.56ZM30.2398 34.56H17.7598C17.2318 34.56 16.7998 34.992 16.7998 35.52C16.7998 36.048 17.2318 36.48 17.7598 36.48H30.2398C30.7678 36.48 31.1998 36.048 31.1998 35.52C31.1998 34.992 30.7678 34.56 30.2398 34.56ZM30.2398 29.76H17.7598C17.2318 29.76 16.7998 30.192 16.7998 30.72C16.7998 31.248 17.2318 31.68 17.7598 31.68H30.2398C30.7678 31.68 31.1998 31.248 31.1998 30.72C31.1998 30.192 30.7678 29.76 30.2398 29.76ZM17.7598 31.68H30.2398C30.7678 31.68 31.1998 31.248 31.1998 30.72C31.1998 30.192 30.7678 29.76 30.2398 29.76H17.7598C17.2318 29.76 16.7998 30.192 16.7998 30.72C16.7998 31.248 17.2318 31.68 17.7598 31.68ZM30.2398 34.56H17.7598C17.2318 34.56 16.7998 34.992 16.7998 35.52C16.7998 36.048 17.2318 36.48 17.7598 36.48H30.2398C30.7678 36.48 31.1998 36.048 31.1998 35.52C31.1998 34.992 30.7678 34.56 30.2398 34.56ZM39.3598 14.88H35.9998V8.16001C35.9998 7.63201 35.5678 7.20001 35.0398 7.20001H12.9598C12.4318 7.20001 11.9998 7.63201 11.9998 8.16001V14.88H8.6398C6.5278 14.88 4.7998 16.608 4.7998 18.72V30.24C4.7998 32.352 6.5278 34.08 8.6398 34.08H11.9998V39.84C11.9998 40.368 12.4318 40.8 12.9598 40.8H35.0398C35.5678 40.8 35.9998 40.368 35.9998 39.84V34.08H39.3598C41.4718 34.08 43.1998 32.352 43.1998 30.24V18.72C43.1998 16.608 41.4718 14.88 39.3598 14.88ZM13.9198 9.12001H34.0798V14.88H13.9198V9.12001ZM34.0798 38.88H13.9198V27.36H34.0798V38.88ZM41.2798 30.24C41.2798 31.296 40.4158 32.16 39.3598 32.16H35.9998V26.4C35.9998 25.872 35.5678 25.44 35.0398 25.44H12.9598C12.4318 25.44 11.9998 25.872 11.9998 26.4V32.16H8.6398C7.5838 32.16 6.7198 31.296 6.7198 30.24V18.72C6.7198 17.664 7.5838 16.8 8.6398 16.8H39.3598C40.4158 16.8 41.2798 17.664 41.2798 18.72V30.24ZM17.7598 31.68H30.2398C30.7678 31.68 31.1998 31.248 31.1998 30.72C31.1998 30.192 30.7678 29.76 30.2398 29.76H17.7598C17.2318 29.76 16.7998 30.192 16.7998 30.72C16.7998 31.248 17.2318 31.68 17.7598 31.68ZM17.7598 36.48H30.2398C30.7678 36.48 31.1998 36.048 31.1998 35.52C31.1998 34.992 30.7678 34.56 30.2398 34.56H17.7598C17.2318 34.56 16.7998 34.992 16.7998 35.52C16.7998 36.048 17.2318 36.48 17.7598 36.48ZM30.2398 34.56H17.7598C17.2318 34.56 16.7998 34.992 16.7998 35.52C16.7998 36.048 17.2318 36.48 17.7598 36.48H30.2398C30.7678 36.48 31.1998 36.048 31.1998 35.52C31.1998 34.992 30.7678 34.56 30.2398 34.56ZM30.2398 29.76H17.7598C17.2318 29.76 16.7998 30.192 16.7998 30.72C16.7998 31.248 17.2318 31.68 17.7598 31.68H30.2398C30.7678 31.68 31.1998 31.248 31.1998 30.72C31.1998 30.192 30.7678 29.76 30.2398 29.76ZM30.2398 29.76H17.7598C17.2318 29.76 16.7998 30.192 16.7998 30.72C16.7998 31.248 17.2318 31.68 17.7598 31.68H30.2398C30.7678 31.68 31.1998 31.248 31.1998 30.72C31.1998 30.192 30.7678 29.76 30.2398 29.76ZM30.2398 34.56H17.7598C17.2318 34.56 16.7998 34.992 16.7998 35.52C16.7998 36.048 17.2318 36.48 17.7598 36.48H30.2398C30.7678 36.48 31.1998 36.048 31.1998 35.52C31.1998 34.992 30.7678 34.56 30.2398 34.56Z" fill="#358EF8"/>
<path d="M251.52 -379.2V429.12H-604.8V-379.2H251.52ZM255.36 -383.04H-608.64V432.96H255.36V-383.04Z" fill="#0000FF"/>
</g>
<defs>
<clipPath id="clip0_96_7768">
<rect width="48" height="48" fill="white"/>
</clipPath>
</defs>
</svg>
