<svg width="48" height="48" viewBox="0 0 48 48" fill="none" xmlns="http://www.w3.org/2000/svg">
<path fill-rule="evenodd" clip-rule="evenodd" d="M10.7699 31.0957L5.3549 40.2105C5.20265 40.4662 5.2169 40.788 5.39015 41.0303C5.56415 41.2725 5.86415 41.3888 6.1559 41.3273L10.4301 40.419L11.7816 44.5755C11.8731 44.856 12.1206 45.057 12.4139 45.0885C12.7071 45.1208 12.9921 44.9782 13.1414 44.7233L18.0314 36.4125C19.8869 37.1152 21.8984 37.5 23.9999 37.5C25.8981 37.5 27.7236 37.1857 29.4269 36.6068L34.1054 44.718C34.2531 44.9745 34.5381 45.12 34.8329 45.0892C35.1276 45.0585 35.3766 44.8568 35.4681 44.5755L36.8196 40.419L41.0939 41.3273C41.3796 41.3872 41.6744 41.277 41.8499 41.0437C42.0246 40.8097 42.0486 40.4963 41.9106 40.239L37.0979 31.2607C39.4589 28.3568 40.8749 24.6548 40.8749 20.625C40.8749 11.3115 33.3134 3.75 23.9999 3.75C14.6864 3.75 7.1249 11.3115 7.1249 20.625C7.1249 24.5798 8.4884 28.218 10.7699 31.0957ZM11.8071 32.2868L7.5194 39.504L10.7789 38.8118C11.1546 38.7323 11.5296 38.9482 11.6481 39.3135L12.6936 42.5272L16.6431 35.814C14.8251 34.9312 13.1894 33.7313 11.8071 32.2868ZM36.0336 32.4502C34.5539 33.9562 32.7944 35.1855 30.8391 36.054L34.5621 42.5093L35.6016 39.3135C35.7201 38.9482 36.0951 38.7323 36.4709 38.8118L39.8256 39.5243L36.0336 32.4502ZM23.9999 5.25C32.4854 5.25 39.3749 12.1395 39.3749 20.625C39.3749 29.1105 32.4854 36 23.9999 36C15.5144 36 8.6249 29.1105 8.6249 20.625C8.6249 12.1395 15.5144 5.25 23.9999 5.25ZM23.9999 6.204C16.0409 6.204 9.5789 12.666 9.5789 20.625C9.5789 28.584 16.0409 35.046 23.9999 35.046C31.9589 35.046 38.4209 28.584 38.4209 20.625C38.4209 12.666 31.9589 6.204 23.9999 6.204ZM23.9999 7.704C31.1316 7.704 36.9209 13.4932 36.9209 20.625C36.9209 27.7568 31.1316 33.546 23.9999 33.546C16.8681 33.546 11.0789 27.7568 11.0789 20.625C11.0789 13.4932 16.8681 7.704 23.9999 7.704ZM17.1036 19.4633L22.2149 25.3418C22.4826 25.65 22.9469 25.6875 23.2611 25.4265L33.3396 17.034C33.6576 16.7692 33.7004 16.296 33.4356 15.978C33.1709 15.66 32.6976 15.6165 32.3796 15.8812L22.8651 23.8035L18.2361 18.4785C17.9639 18.1665 17.4899 18.1335 17.1779 18.405C16.8651 18.6765 16.8321 19.1505 17.1036 19.4633Z" fill="#0A0A0A" fill-opacity="0.5"/>
</svg>
