<svg width="36" height="36" viewBox="0 0 36 36" fill="none" xmlns="http://www.w3.org/2000/svg">
<path d="M5.03979 29.4789C4.72093 29.4789 4.39179 29.4789 4.01122 29.4275C3.55136 29.3904 3.11196 29.2215 2.74579 28.9408C2.37961 28.6602 2.10221 28.2798 1.94691 27.8454C1.7916 27.411 1.76499 26.941 1.87026 26.4918C1.97553 26.0426 2.20821 25.6334 2.54036 25.3132C3.13944 24.7795 3.61052 24.1177 3.91859 23.3769C4.22666 22.6361 4.36379 21.8354 4.31979 21.0343C2.69854 20.1871 1.43221 18.7899 0.747965 17.0934C0.0637157 15.3969 0.00632079 13.5122 0.586076 11.7772C0.955247 10.689 1.57949 9.70506 2.40665 8.90747C3.43018 7.84197 4.73678 7.09102 6.17267 6.74298C7.60856 6.39494 9.11399 6.4643 10.5118 6.9429C12.0261 7.45241 13.3702 8.3704 14.3957 9.59557C15.4212 10.8207 16.0882 12.3054 16.3232 13.8858C16.8295 16.7265 16.3849 19.6548 15.0581 22.2172V22.2995C11.8901 27.2778 8.86608 29.4789 5.03979 29.4789ZM4.65922 26.8972C6.93236 27.0103 9.4935 26.2389 12.8055 20.9726C13.8453 18.9454 14.2059 16.6376 13.8341 14.3898C13.6803 13.2554 13.2141 12.1861 12.4875 11.3015C11.761 10.4169 10.8027 9.75182 9.71979 9.38061C8.77788 9.04922 7.75987 8.9992 6.79001 9.23664C5.82014 9.47409 4.94038 9.98873 4.25808 10.7178C3.72067 11.2451 3.31843 11.8943 3.0855 12.6103C2.67554 13.8469 2.75016 15.193 3.29428 16.3767C3.8384 17.5604 4.81146 18.4935 6.01693 18.9875C6.21453 19.0666 6.38939 19.1935 6.52582 19.3569C6.66226 19.5203 6.756 19.7149 6.79865 19.9235C7.04407 21.1722 6.97719 22.4622 6.60395 23.6788C6.23071 24.8954 5.56268 26.0009 4.65922 26.8972ZM24.2638 29.4789C23.9346 29.4789 23.6158 29.4789 23.2352 29.4275C22.7754 29.3904 22.336 29.2215 21.9698 28.9408C21.6036 28.6602 21.3262 28.2798 21.1709 27.8454C21.0156 27.411 20.989 26.941 21.0943 26.4918C21.1995 26.0426 21.4322 25.6334 21.7644 25.3132C22.3634 24.7795 22.8345 24.1177 23.1426 23.3769C23.4507 22.6361 23.5878 21.8354 23.5438 21.0343C21.924 20.1855 20.659 18.7882 19.975 17.0922C19.2909 15.3963 19.2325 13.5123 19.8101 11.7772C20.1735 10.6936 20.7866 9.71058 21.5998 8.90747C22.6258 7.83916 23.936 7.08657 25.3757 6.73848C26.8155 6.39038 28.3247 6.46131 29.7255 6.9429C31.241 7.45036 32.5863 8.36774 33.6121 9.59328C34.6379 10.8188 35.3042 12.3046 35.5369 13.8858C36.0433 16.7265 35.5986 19.6548 34.2718 22.2172C34.2737 22.2446 34.2737 22.2721 34.2718 22.2995C31.1141 27.2778 28.0798 29.4789 24.2638 29.4789ZM23.8729 26.8972C26.1564 27.0103 28.7072 26.2389 32.0295 20.9726C33.0778 18.9481 33.4388 16.6375 33.0581 14.3898C33.0629 14.3556 33.0629 14.321 33.0581 14.2869C32.8978 13.1669 32.4277 12.1139 31.7007 11.247C30.9737 10.38 30.0188 9.73357 28.9438 9.38061C28.0019 9.04922 26.9839 8.9992 26.014 9.23664C25.0441 9.47409 24.1644 9.98873 23.4821 10.7178C22.9516 11.2451 22.5594 11.8952 22.3404 12.6103C21.9304 13.8469 22.005 15.193 22.5491 16.3767C23.0933 17.5604 24.0663 18.4935 25.2718 18.9875C25.467 19.0687 25.6393 19.1965 25.7738 19.3597C25.9082 19.5228 26.0007 19.7164 26.0432 19.9235C26.2866 21.1747 26.2158 22.4668 25.837 23.6839C25.4582 24.901 24.7834 26.0051 23.8729 26.8972Z" fill="black"/>
</svg>
