<svg width="48" height="48" viewBox="0 0 48 48" fill="none" xmlns="http://www.w3.org/2000/svg">
<path d="M23.9998 47.6418C24.0715 47.6418 24.1431 47.6418 24.2148 47.5701C35.8924 43.6298 43.7013 32.7403 43.7013 20.4179V7.88057C43.7013 7.45072 43.4148 7.16415 42.9849 7.16415C31.7371 7.16415 24.9312 0.788032 24.4297 0.501465C24.1431 0.28654 23.8566 0.28654 23.57 0.501465C23.0685 0.788032 16.1909 7.16415 5.01476 7.16415C4.58491 7.16415 4.29834 7.45072 4.29834 7.88057V20.4179C4.29834 32.7403 12.1073 43.6298 23.7849 47.6418C23.8566 47.6418 23.9282 47.6418 23.9998 47.6418ZM5.73118 20.4179V8.59699C16.764 8.31042 23.6416 2.14923 23.9998 1.9343C24.4297 2.14923 31.164 8.31042 42.2685 8.59699V20.4179C42.2685 32.0239 34.961 42.3403 23.9998 46.2089C13.0386 42.3403 5.73118 32.0239 5.73118 20.4179Z" fill="#0A0A0A" fill-opacity="0.5"/>
<path d="M24.2867 43.7731C33.8867 39.9761 40.1195 30.806 40.1195 20.4179V11.3194C40.1195 10.9612 39.833 10.6746 39.4748 10.603C34.03 10.0298 28.8001 8.09552 24.3583 4.94328C24.1434 4.79999 23.7852 4.79999 23.5703 4.94328C19.1285 8.02388 13.8986 9.9582 8.45386 10.603C8.09565 10.6746 7.80908 10.9612 7.80908 11.3194V20.4179C7.80908 30.806 14.0419 39.9761 23.7136 43.7731C23.7852 43.7731 23.8568 43.8448 24.0001 43.8448C24.1434 43.8448 24.1434 43.8448 24.2867 43.7731ZM9.31356 20.4179V11.8925C14.5434 11.2478 19.63 9.31343 24.0001 6.37611C28.3703 9.31343 33.4568 11.2478 38.6867 11.8925V20.3463C38.6867 30.0895 32.9554 38.6866 24.0001 42.3403C15.0449 38.6866 9.31356 30.0895 9.31356 20.4179Z" fill="#0A0A0A" fill-opacity="0.5"/>
<path d="M32.5254 18.4119C32.2388 18.1254 31.8089 18.1254 31.5224 18.4119L20.9194 28.9433L16.6925 24.7164C16.406 24.4299 15.9761 24.4299 15.6895 24.7164C15.403 25.003 15.403 25.4328 15.6895 25.7194L20.4179 30.4478C20.5612 30.5911 20.7045 30.6627 20.9194 30.6627C21.1343 30.6627 21.2776 30.5911 21.4209 30.4478L32.5254 19.3433C32.8119 19.1284 32.8119 18.6985 32.5254 18.4119Z" fill="#0A0A0A" fill-opacity="0.5"/>
</svg>
