<svg width="48" height="48" viewBox="0 0 48 48" fill="none" xmlns="http://www.w3.org/2000/svg">
<path d="M45.75 1.5H2.25C2.05109 1.5 1.86032 1.57902 1.71967 1.71967C1.57902 1.86032 1.5 2.05109 1.5 2.25V33.75C1.5 33.9489 1.57902 34.1397 1.71967 34.2803C1.86032 34.421 2.05109 34.5 2.25 34.5H13.5V45.75C13.5 45.9489 13.579 46.1397 13.7197 46.2803C13.8603 46.421 14.0511 46.5 14.25 46.5H24.75C24.9489 46.5 25.1397 46.421 25.2803 46.2803C25.421 46.1397 25.5 45.9489 25.5 45.75V37.7933L28.5398 34.5H45.75C45.9489 34.5 46.1397 34.421 46.2803 34.2803C46.421 34.1397 46.5 33.9489 46.5 33.75V2.25C46.5 2.05109 46.421 1.86032 46.2803 1.71967C46.1397 1.57902 45.9489 1.5 45.75 1.5ZM24.1995 36.9907C24.0713 37.1293 24 37.3112 24 37.5V45H15V34.3867C15.0004 34.0191 15.1466 33.6666 15.4066 33.4066C15.6666 33.1466 16.0191 33.0004 16.3868 33H24C24.1481 32.9998 24.2929 32.9559 24.4163 32.874L30.975 28.5H32.0348L24.1995 36.9907ZM16.5 28.5C16.5 27.9067 16.6759 27.3266 17.0056 26.8333C17.3352 26.3399 17.8038 25.9554 18.3519 25.7284C18.9001 25.5013 19.5033 25.4419 20.0853 25.5576C20.6672 25.6734 21.2018 25.9591 21.6213 26.3787C22.0409 26.7982 22.3266 27.3328 22.4424 27.9147C22.5581 28.4967 22.4987 29.0999 22.2716 29.6481C22.0446 30.1962 21.6601 30.6648 21.1667 30.9944C20.6734 31.3241 20.0933 31.5 19.5 31.5C18.7044 31.5 17.9413 31.1839 17.3787 30.6213C16.8161 30.0587 16.5 29.2956 16.5 28.5ZM45 33H29.925L34.3013 28.2593C34.3557 28.1994 34.3998 28.131 34.4318 28.0568C34.4408 28.038 34.4438 28.017 34.4513 27.9967C34.4744 27.931 34.4883 27.8623 34.4925 27.7927C34.4925 27.7778 34.5007 27.765 34.5007 27.75V25.9597C35.3155 25.752 36.0965 25.4295 36.8205 25.002L38.0843 26.2658C38.2249 26.4064 38.4156 26.4853 38.6145 26.4853C38.8134 26.4853 39.0041 26.4064 39.1448 26.2658L41.2665 24.144C41.4071 24.0034 41.4861 23.8126 41.4861 23.6138C41.4861 23.4149 41.4071 23.2241 41.2665 23.0835L40.0028 21.8197C40.43 21.0957 40.7523 20.3147 40.9597 19.5H42.75C42.9489 19.5 43.1397 19.421 43.2803 19.2803C43.421 19.1397 43.5 18.9489 43.5 18.75V15.75C43.5 15.5511 43.421 15.3603 43.2803 15.2197C43.1397 15.079 42.9489 15 42.75 15H40.9597C40.752 14.1853 40.4295 13.4042 40.002 12.6803L41.2658 11.4165C41.4064 11.2759 41.4853 11.0851 41.4853 10.8863C41.4853 10.6874 41.4064 10.4966 41.2658 10.356L39.144 8.23425C39.0034 8.09365 38.8126 8.01466 38.6138 8.01466C38.4149 8.01466 38.2241 8.09365 38.0835 8.23425L36.8197 9.498C36.0958 9.07046 35.3147 8.74798 34.5 8.54025V6.75C34.5 6.55109 34.421 6.36032 34.2803 6.21967C34.1397 6.07902 33.9489 6 33.75 6H30.75C30.5511 6 30.3603 6.07902 30.2197 6.21967C30.079 6.36032 30 6.55109 30 6.75V8.54025C29.1853 8.74798 28.4042 9.07046 27.6803 9.498L26.4165 8.23425C26.2759 8.09365 26.0851 8.01466 25.8862 8.01466C25.6874 8.01466 25.4966 8.09365 25.356 8.23425L23.2342 10.356L24.2955 11.4165L25.8862 9.825L27.0465 10.9838C27.1704 11.1077 27.3338 11.1844 27.5084 11.2004C27.6829 11.2164 27.8576 11.1708 28.002 11.0715C28.8678 10.4741 29.8508 10.0678 30.8857 9.87975C31.0582 9.84802 31.214 9.7569 31.3262 9.62222C31.4384 9.48754 31.4999 9.3178 31.5 9.1425V7.5H33V9.1425C32.9999 9.31793 33.0613 9.48784 33.1735 9.62268C33.2858 9.75752 33.4417 9.84875 33.6143 9.8805C34.6492 10.0686 35.6322 10.4748 36.498 11.0722C36.6424 11.1716 36.8171 11.2172 36.9916 11.2012C37.1662 11.1851 37.3296 11.1085 37.4535 10.9845L38.6138 9.825L39.675 10.8863L38.5163 12.0465C38.3923 12.1704 38.3156 12.3338 38.2996 12.5084C38.2836 12.6829 38.3292 12.8576 38.4285 13.002C39.0259 13.8678 39.4322 14.8508 39.6203 15.8857C39.652 16.0582 39.7431 16.214 39.8778 16.3262C40.0125 16.4384 40.1822 16.4999 40.3575 16.5H42V18H40.3575C40.1821 17.9999 40.0122 18.0613 39.8773 18.1735C39.7425 18.2858 39.6513 18.4417 39.6195 18.6143C39.4314 19.6492 39.0252 20.6322 38.4277 21.498C38.3284 21.6424 38.2828 21.8171 38.2988 21.9916C38.3149 22.1662 38.3915 22.3296 38.5155 22.4535L39.675 23.6138L38.6138 24.675L37.4535 23.5163C37.3296 23.3923 37.1662 23.3156 36.9916 23.2996C36.8171 23.2836 36.6424 23.3292 36.498 23.4285C35.6322 24.0259 34.6492 24.4322 33.6143 24.6203C33.4418 24.652 33.286 24.7431 33.1738 24.8778C33.0616 25.0125 33.0001 25.1822 33 25.3575V27H31.5V25.3575C31.5001 25.1821 31.4387 25.0122 31.3265 24.8773C31.2142 24.7425 31.0583 24.6513 30.8857 24.6195C29.8508 24.4314 28.8678 24.0252 28.002 23.4277C27.8576 23.3284 27.6829 23.2828 27.5084 23.2988C27.3338 23.3149 27.1704 23.3915 27.0465 23.5155L25.8862 24.675L24.2955 23.0842L23.2342 24.1448L25.356 26.2665C25.4966 26.4071 25.6874 26.4861 25.8862 26.4861C26.0851 26.4861 26.2759 26.4071 26.4165 26.2665L27.6803 25.0028C28.4043 25.43 29.1853 25.7523 30 25.9597V27.3488L23.775 31.5H22.845C23.4277 30.8525 23.8099 30.0498 23.9452 29.1892C24.0806 28.3287 23.9633 27.4474 23.6076 26.6523C23.2519 25.8572 22.673 25.1824 21.9412 24.7098C21.2095 24.2372 20.3563 23.9871 19.4852 23.99C18.6141 23.9928 17.7626 24.2484 17.034 24.7258C16.3053 25.2031 15.7309 25.8817 15.3803 26.6791C15.0298 27.4766 14.9182 28.3586 15.0592 29.2182C15.2002 30.0778 15.5876 30.878 16.1745 31.5217C15.6977 31.5568 15.2373 31.7104 14.8349 31.9685C14.4326 32.2267 14.1011 32.5812 13.8705 33H3V3H45V33Z" fill="#0A0A0A" fill-opacity="0.5"/>
<path d="M10.9042 11.9647L18.0352 19.0957C18.1145 19.6214 18.378 20.1017 18.7787 20.4511C19.1793 20.8005 19.691 20.9962 20.2226 21.0033C20.7541 21.0104 21.2709 20.8285 21.6807 20.49C22.0906 20.1514 22.3668 19.6783 22.4602 19.155L27.3682 15.4747C27.5523 15.7604 27.7991 16.0004 28.0898 16.1765C28.3805 16.3525 28.7076 16.4601 29.046 16.4909C29.3845 16.5216 29.7256 16.4749 30.0433 16.3542C30.361 16.2335 30.647 16.042 30.8797 15.7942L32.577 18.3397C32.1327 18.6152 31.7986 19.0371 31.6324 19.5327C31.4663 20.0283 31.4784 20.5664 31.6668 21.054C31.8552 21.5416 32.2081 21.948 32.6643 22.2031C33.1206 22.4581 33.6516 22.5458 34.1656 22.4509C34.6797 22.356 35.1444 22.0846 35.4795 21.6834C35.8147 21.2823 35.9991 20.7767 36.0011 20.254C36.003 19.7313 35.8223 19.2243 35.4901 18.8207C35.158 18.4171 34.6953 18.1422 34.182 18.0435L31.4744 13.9822C31.4124 13.4482 31.1604 12.9543 30.7645 12.5906C30.3686 12.227 29.8552 12.0177 29.3178 12.0011C28.7805 11.9844 28.255 12.1615 27.8374 12.5C27.4197 12.8385 27.1377 13.3159 27.0427 13.845L22.1347 17.5252C21.9393 17.221 21.673 16.9687 21.3586 16.79C21.0443 16.6113 20.6912 16.5116 20.3298 16.4994C19.9685 16.4871 19.6095 16.5627 19.2838 16.7197C18.958 16.8767 18.6753 17.1104 18.4597 17.4007L12.6 11.5387C13.0149 11.2265 13.3091 10.7802 13.4326 10.2758C13.556 9.7713 13.5012 9.23966 13.2773 8.77103C13.0534 8.3024 12.6743 7.92565 12.2043 7.70469C11.7343 7.48373 11.2023 7.43218 10.6986 7.55877C10.1949 7.68536 9.75056 7.98231 9.44086 8.39922C9.13117 8.81614 8.97524 9.32736 8.99953 9.84615C9.02383 10.3649 9.22684 10.8593 9.57414 11.2455C9.92144 11.6317 10.3916 11.8858 10.905 11.9647H10.9042ZM33.75 19.5C33.8983 19.5 34.0433 19.544 34.1666 19.6264C34.29 19.7088 34.3861 19.8259 34.4429 19.963C34.4996 20.1 34.5145 20.2508 34.4855 20.3963C34.4566 20.5418 34.3852 20.6754 34.2803 20.7803C34.1754 20.8852 34.0418 20.9566 33.8963 20.9856C33.7508 21.0145 33.6 20.9997 33.4629 20.9429C33.3259 20.8861 33.2088 20.79 33.1263 20.6667C33.0439 20.5433 33 20.3983 33 20.25C33 20.0511 33.079 19.8603 33.2196 19.7197C33.3603 19.579 33.551 19.5 33.75 19.5ZM29.25 13.5C29.3983 13.5 29.5433 13.544 29.6666 13.6264C29.79 13.7088 29.8861 13.8259 29.9429 13.963C29.9996 14.1 30.0145 14.2508 29.9855 14.3963C29.9566 14.5418 29.8852 14.6754 29.7803 14.7803C29.6754 14.8852 29.5418 14.9566 29.3963 14.9856C29.2508 15.0145 29.1 14.9997 28.9629 14.9429C28.8259 14.8861 28.7088 14.79 28.6263 14.6667C28.5439 14.5433 28.5 14.3983 28.5 14.25C28.5 14.0511 28.579 13.8603 28.7196 13.7197C28.8603 13.579 29.051 13.5 29.25 13.5ZM20.25 18C20.3983 18 20.5433 18.044 20.6666 18.1264C20.79 18.2088 20.8861 18.3259 20.9429 18.463C20.9996 18.6 21.0145 18.7508 20.9855 18.8963C20.9566 19.0418 20.8852 19.1754 20.7803 19.2803C20.6754 19.3852 20.5418 19.4566 20.3963 19.4856C20.2508 19.5145 20.1 19.4997 19.9629 19.4429C19.8259 19.3861 19.7088 19.29 19.6263 19.1667C19.5439 19.0433 19.5 18.8983 19.5 18.75C19.5 18.5511 19.579 18.3603 19.7196 18.2197C19.8603 18.079 20.051 18 20.25 18ZM11.25 8.99999C11.3983 8.99999 11.5433 9.04398 11.6666 9.12639C11.79 9.2088 11.8861 9.32594 11.9429 9.46298C11.9996 9.60003 12.0145 9.75083 11.9855 9.89631C11.9566 10.0418 11.8852 10.1754 11.7803 10.2803C11.6754 10.3852 11.5418 10.4566 11.3963 10.4856C11.2508 10.5145 11.1 10.4997 10.9629 10.4429C10.8259 10.3861 10.7088 10.29 10.6263 10.1667C10.5439 10.0433 10.5 9.89833 10.5 9.74999C10.5 9.55108 10.579 9.36032 10.7196 9.21966C10.8603 9.07901 11.051 8.99999 11.25 8.99999Z" fill="#0A0A0A" fill-opacity="0.5"/>
<path d="M18.5301 13.2803L19.5906 12.2198L20.6511 13.2803L21.7116 12.2198L20.6511 11.1593L21.7116 10.0988L20.6511 9.03827L19.5906 10.0988L18.5301 9.03827L17.4696 10.0988L18.5301 11.1593L17.4696 12.2198L18.5301 13.2803ZM28.1511 18.2198L27.0906 19.2803L26.0301 18.2198L24.9696 19.2803L26.0301 20.3408L24.9696 21.4013L26.0301 22.4618L27.0906 21.4013L28.1511 22.4618L29.2116 21.4013L28.1511 20.3408L29.2116 19.2803L28.1511 18.2198ZM9.34859 20.7803L10.4091 19.7198L11.4696 20.7803L12.5301 19.7198L11.4696 18.6593L12.5301 17.5988L11.4696 16.5383L10.4091 17.5988L9.34859 16.5383L8.28809 17.5988L9.34859 18.6593L8.28809 19.7198L9.34859 20.7803Z" fill="#0A0A0A" fill-opacity="0.5"/>
</svg>
