<svg width="40" height="40" viewBox="0 0 40 40" fill="none" xmlns="http://www.w3.org/2000/svg">
<path d="M15.5469 31.5625C14.6875 31.5625 14.7656 31.25 14.5312 30.4688L12.0312 22.2656L31.1719 11.0156" fill="white"/>
<path d="M15.5469 31.5625C16.0938 31.5625 16.4062 31.25 16.7969 30.9375L20.3125 27.5781L15.9375 24.9219" fill="#0A0A0A" fill-opacity="0.75"/>
<path d="M15.9377 24.922L26.4845 32.6564C27.5783 33.3595 28.5158 32.9689 28.8283 31.5626L33.1252 11.4063C33.5158 9.6876 32.422 8.90635 31.2502 9.45322L6.17203 19.1407C4.53141 19.7657 4.53141 20.7813 5.85953 21.172L12.3439 23.2032L27.1877 13.7501C27.8908 13.3595 28.5158 13.5157 28.047 14.0626" fill="#0A0A0A" fill-opacity="0.75"/>
</svg>
