<svg width="46" height="46" viewBox="0 0 46 46" fill="none" xmlns="http://www.w3.org/2000/svg">
<circle cx="23" cy="23" r="23" fill="#358EF8"/>
<path d="M18.5469 33.5625C17.6875 33.5625 17.7656 33.25 17.5312 32.4688L15.0312 24.2656L34.1719 13.0156" fill="#C8DAEA"/>
<path d="M18.5469 33.5625C19.0938 33.5625 19.4062 33.25 19.7969 32.9375L23.3125 29.5781L18.9375 26.9219" fill="#A9C9DD"/>
<path d="M18.9377 26.922L29.4845 34.6564C30.5783 35.3595 31.5158 34.9689 31.8283 33.5626L36.1252 13.4063C36.5158 11.6876 35.422 10.9063 34.2502 11.4532L9.17204 21.1407C7.53141 21.7657 7.53141 22.7813 8.85954 23.172L15.3439 25.2032L30.1877 15.7501C30.8908 15.3595 31.5158 15.5157 31.047 16.0626" fill="#F6FBFE"/>
</svg>
