<svg width="40" height="40" viewBox="0 0 40 40" fill="none" xmlns="http://www.w3.org/2000/svg">
<g clip-path="url(#clip0_2_13)">
<path d="M39.9883 0H0.0117188C0.00524666 0 0 0.00524666 0 0.0117188V39.9883C0 39.9948 0.00524666 40 0.0117188 40H39.9883C39.9948 40 40 39.9948 40 39.9883V0.0117188C40 0.00524666 39.9948 0 39.9883 0Z" fill="url(#paint0_linear_2_13)"/>
<path d="M15.5469 31.5625C14.6875 31.5625 14.7656 31.25 14.5312 30.4688L12.0312 22.2656L31.1719 11.0156" fill="#C8DAEA"/>
<path d="M15.5469 31.5625C16.0938 31.5625 16.4062 31.25 16.7969 30.9375L20.3125 27.5781L15.9375 24.9219" fill="#A9C9DD"/>
<path d="M15.9375 24.9219L26.4844 32.6563C27.5781 33.3594 28.5156 32.9688 28.8281 31.5625L33.125 11.4063C33.5156 9.68751 32.4219 8.90626 31.25 9.45313L6.17185 19.1406C4.53123 19.7656 4.53123 20.7813 5.85935 21.1719L12.3437 23.2031L27.1875 13.75C27.8906 13.3594 28.5156 13.5156 28.0469 14.0625" fill="#F6FBFE"/>
</g>
<defs>
<linearGradient id="paint0_linear_2_13" x1="28" y1="-4.64916e-07" x2="20" y2="40" gradientUnits="userSpaceOnUse">
<stop stop-color="#71D4FF"/>
<stop offset="1" stop-color="#2B87F2"/>
</linearGradient>
<clipPath id="clip0_2_13">
<rect width="40" height="40" rx="8" fill="white"/>
</clipPath>
</defs>
</svg>
