<svg width="234" height="93" viewBox="0 0 234 93" fill="none" xmlns="http://www.w3.org/2000/svg">
<path d="M74.3618 65.7985L74.9079 65.795L74.8801 64.8559L73.6348 64.8419C73.3809 64.4175 73.2139 63.927 73.0365 63.5131L74.0523 63.4957L74.0592 62.8731L72.8139 62.8591C70.4104 57.6204 69.193 53.4009 69.193 53.4009L68.5634 50.5867L69.3391 50.6146L69.3565 49.9154L68.1878 49.9119C68.1878 49.9119 65.4992 35.9038 63.9654 23.1445L65.0577 23.1375L65.0855 22.3618L64.2333 22.3235L64.209 20.2155L63.1932 20.2329L62.7308 9.33465L62.2645 20.1842L61.1722 20.1911L61.1965 22.2991L60.4973 22.2817L60.4695 23.0574L61.5617 23.0505C61.4504 24.4384 61.2521 25.8924 61.0538 27.3465C59.6621 38.6934 57.5156 49.8595 57.5156 49.8595L56.4233 49.8664L56.4059 50.5656L57.1816 50.5934L56.5659 53.3937C56.5659 53.3937 55.3692 57.5957 53.0106 62.8865L51.8418 62.883L51.8348 63.5057L52.6975 63.4674C52.4818 63.9057 52.2662 64.344 52.0505 64.7823L50.8817 64.7788L50.9095 65.718L51.5322 65.725L38.7168 85.9593L49.1698 85.9039C49.1698 85.9039 50.6694 70.908 62.9903 70.8734C75.2348 70.8285 76.925 85.8697 76.925 85.8697L87.378 85.8143L74.3618 65.7985ZM62.9705 26.4386L63.3392 26.0212L63.7566 26.3899L63.3879 26.8073L62.96 26.5151L62.9705 26.4386ZM62.9461 26.0455L62.9114 25.729L63.054 25.8264L62.9461 26.0455ZM62.9531 25.4229L62.9635 25.3464L63.3218 25.0055L63.7393 25.3742L63.3705 25.7916L62.9531 25.4229ZM62.9496 24.8768L62.981 24.6472L63.1236 24.7446L62.9496 24.8768ZM62.4035 24.8802L62.2713 24.7063L62.3687 24.5637L62.4035 24.8802ZM62.4278 25.2733L62.4174 25.3498L62.0696 25.6142L61.6521 25.2455L62.0104 24.9046L62.4278 25.2733ZM62.4418 25.7429L62.4 26.049L62.2678 25.8751L62.4418 25.7429ZM63.127 27.0056L62.9426 27.2143L62.9079 26.8978L63.127 27.0056ZM62.9774 27.5309L63.4227 27.1239L63.9931 27.5135L63.527 28.0735L62.9774 27.5309ZM63.2661 28.2718L62.9843 28.6231L63.0018 27.9239L63.2661 28.2718ZM63.0848 46.1758L64.5841 44.8992L66.7338 46.2837L65.071 47.616L63.0848 46.1758ZM64.7441 47.7273L63.0048 49.0491L62.9665 46.4715L64.7441 47.7273ZM63.0605 45.7828L63.0814 43.9148L64.3754 44.7149L63.0605 45.7828ZM63.0571 43.5217L64.7407 42.0364L66.233 43.0974L64.5598 44.5062L63.0571 43.5217ZM63.0327 43.1286L63.0293 40.8676L64.445 41.9181L63.0327 43.1286ZM62.9945 40.551L64.1668 39.3858L65.7808 40.6972L64.6294 41.7094L62.9945 40.551ZM63.0571 40.0919L63.0572 38.3769L64.0346 39.2118L63.0571 40.0919ZM63.0224 38.0604L64.1738 37.0482L65.3808 37.9144L64.219 39.0031L63.0224 38.0604ZM62.9981 37.6673L63.0329 36.269L63.9547 36.9403L62.9981 37.6673ZM62.9981 35.9524L63.9756 35.0724L65.1061 35.9281L64.139 36.7316L62.9981 35.9524ZM63.0503 35.5698L63.0642 34.3245L63.833 34.975L63.0503 35.5698ZM63.0399 33.9314L63.833 33.2601L64.8209 34.0184L64.0278 34.6897L63.0399 33.9314ZM63.0051 33.6148L62.9773 32.6756L63.5373 33.1418L63.0051 33.6148ZM63.019 32.3695L63.0295 32.293L63.7461 31.6112L64.5809 32.3487L63.7982 32.9435L63.019 32.3695ZM63.0051 31.8999L62.9669 31.0372L63.4608 31.4164L63.0051 31.8999ZM63.0086 30.7311L63.6487 30.0389L64.3514 30.6025L63.6452 31.2077L63.0086 30.7311ZM62.9947 30.2615L63.0121 29.5623L63.4296 29.9311L62.9947 30.2615ZM62.9878 29.1693L62.9982 29.0927L63.4644 28.5327L64.1462 29.2493L63.6139 29.7224L62.9878 29.1693ZM62.4486 30.265L62.0312 29.8963L62.466 29.5658L62.4486 30.265ZM62.4729 30.6581L61.7668 31.2633L61.0746 30.6233L61.7807 30.018L62.4729 30.6581ZM62.4208 31.0407L62.3825 31.893L61.899 31.4373L62.4208 31.0407ZM62.4834 32.2965L62.4729 32.373L61.6902 32.9678L60.9215 32.3173L61.8016 31.5799L62.4834 32.2965ZM62.4312 32.6791L62.459 33.6183L61.8989 33.1522L62.4312 32.6791ZM62.4937 33.9349L61.5267 34.7384L60.758 34.0879L61.6485 33.2739L62.4937 33.9349ZM62.4416 34.3175L62.4276 35.5628L61.6589 34.9123L62.4416 34.3175ZM62.452 35.9559L61.3319 36.7385L60.344 35.9802L61.398 35.1106L62.452 35.9559ZM62.4867 36.2724L62.4519 37.6708L61.5406 36.9229L62.4867 36.2724ZM62.4867 37.9873L61.3353 38.9996L60.1596 37.9038L61.3666 37.0551L62.4867 37.9873ZM62.511 38.3804L62.511 40.0953L61.544 39.1839L62.511 38.3804ZM62.4588 40.478L60.8065 41.7337L59.6099 40.791L61.1961 39.4483L62.4588 40.478ZM62.4832 40.8711L62.4866 43.1321L61.0152 41.9181L62.4832 40.8711ZM62.5109 43.5252L61.043 44.5722L59.3629 43.1738L60.8308 42.1268L62.5109 43.5252ZM62.4587 43.9078L62.4378 45.7758L61.1751 44.7461L62.4587 43.9078ZM62.4726 46.0923L60.5594 47.5463L58.8688 46.2244L61.0012 44.8783L62.4726 46.0923ZM62.4969 46.4854L62.5352 49.063L60.7681 47.7307L62.4969 46.4854ZM62.4934 49.3691L58.2774 49.4177L60.5176 47.8524L62.4934 49.3691ZM63.0395 49.3657L64.9632 47.8351L67.1686 49.3832L63.0395 49.3657ZM65.2137 47.7134L66.953 46.3916C67.2138 47.9082 67.3947 48.8683 67.419 49.2614L65.2137 47.7134ZM64.7685 44.6905L66.4417 43.2818C66.6121 44.3184 66.7269 45.1915 66.8521 45.9881L64.7685 44.6905ZM64.9146 41.9042L66.0661 40.892C66.2017 41.6121 66.2713 42.2452 66.4069 42.9652L64.9146 41.9042ZM64.4277 39.1875L65.6765 38.0326C65.7913 38.9058 65.9165 39.7023 66.0417 40.4989L64.4277 39.1875ZM64.3582 36.8395L65.3252 36.0359C65.4052 36.5925 65.4852 37.1491 65.5757 37.6291L64.3582 36.8395ZM64.2365 34.8741L65.1166 34.1367C65.1966 34.6932 65.287 35.1733 65.367 35.7298L64.2365 34.8741ZM64.0069 33.1279L64.8001 32.4565C64.8905 32.9366 64.9044 33.4062 64.9948 33.8862L64.0069 33.1279ZM63.9304 31.4025L64.647 30.7207C64.7375 31.2008 64.7514 31.6704 64.8522 32.0739L63.9304 31.4025ZM63.8331 29.8302L64.3757 29.2806C64.4105 29.5972 64.4349 29.9902 64.5462 30.3172L63.8331 29.8302ZM63.6592 28.2475L64.2123 27.6213C64.2366 28.0144 64.3271 28.4945 64.3514 28.8875L63.6592 28.2475ZM63.5966 26.9917L64.0419 26.5847C64.0871 26.8248 64.1323 27.0648 64.1671 27.3813L63.5966 26.9917ZM63.5131 25.889L63.8819 25.4716C63.9271 25.7116 63.9619 26.0282 64.0071 26.2682L63.5131 25.889ZM63.5166 24.7202L63.7984 24.3689C63.8436 24.6089 63.8888 24.849 63.8575 25.0785L63.5166 24.7202ZM63.3079 24.5359L63.0331 24.2645L63.0436 24.188L63.6662 24.195L63.3079 24.5359ZM62.4105 24.2576L62.1391 24.5324L61.7983 24.1741L62.4105 24.2576ZM61.9548 24.7411L61.6834 25.0159C61.7043 24.8628 61.7252 24.7097 61.7461 24.5567L61.9548 24.7411ZM61.8747 25.8994L61.5269 26.1638C61.5582 25.9342 61.5791 25.7811 61.6104 25.5516L61.8747 25.8994ZM62.0835 26.0838L62.4243 26.4421L62.4139 26.5186L61.9895 26.7725L61.5721 26.4038L62.0835 26.0838ZM62.4382 26.9117L62.473 27.2282L62.2643 27.0439L62.4382 26.9117ZM62.4313 27.5343L61.9651 28.0944L61.4921 27.5622L62.0139 27.1656L62.4313 27.5343ZM62.4452 28.004L62.4278 28.7031L62.0869 28.3448L62.4452 28.004ZM62.4521 29.0962L62.4417 29.1727L61.8225 29.7119L61.2625 29.2458L61.979 28.564L62.4521 29.0962ZM61.572 29.8336L61.0502 30.2302C61.092 29.9241 61.1233 29.6945 61.165 29.3884L61.572 29.8336ZM61.5824 31.472L60.8763 32.0773C60.9285 31.6946 60.9806 31.312 61.0224 31.0059L61.5824 31.472ZM61.4293 33.1661L60.6466 33.7609C60.6988 33.3782 60.751 32.9956 60.8032 32.613L61.4293 33.1661ZM61.2658 34.9367L60.3857 35.6741C60.4483 35.2149 60.5005 34.8323 60.5631 34.3731L61.2658 34.9367ZM61.0814 36.8603L60.0483 37.5768C60.1109 37.1177 60.1735 36.6585 60.2361 36.1993L61.0814 36.8603ZM61.0744 39.1979L59.6621 40.4083C59.756 39.7196 59.8604 38.9543 59.9648 38.1891L61.0744 39.1979ZM60.6326 41.8659L59.3385 42.7807C59.422 42.1685 59.4951 41.6328 59.589 40.9441L60.6326 41.8659ZM60.716 44.6835L58.7471 45.974C58.8515 45.2087 59.0428 44.3773 59.1681 43.459L60.716 44.6835ZM60.3089 47.6681L58.2322 49.1777C58.2948 48.7185 58.4966 47.8106 58.6845 46.4331L60.3089 47.6681ZM61.4643 26.6229L61.8156 26.9047L61.3912 27.1586C61.4121 27.0056 61.433 26.8525 61.4643 26.6229ZM61.7808 28.3031L61.2381 28.8527C61.2799 28.5466 61.332 28.1639 61.3738 27.8578L61.7808 28.3031ZM68.104 60.8136L71.019 62.3025L66.3439 62.2885L68.104 60.8136ZM65.8395 61.9859L65.4082 59.4326L67.5996 60.511L65.8395 61.9859ZM68.0345 60.1805L65.9195 59.1126L67.5614 57.9334L69.6207 58.8379L68.0345 60.1805ZM67.4919 57.3003L65.5091 56.4063L66.8797 55.5019L68.7859 56.3855L67.4919 57.3003ZM66.8101 54.8688L65.057 54.0061L66.3301 53.2443L68.0833 54.107L66.8101 54.8688ZM66.9285 52.8582L68.2016 52.0964C68.2921 52.5765 68.4486 53.1435 68.539 53.6235L66.9285 52.8582ZM66.3371 52.6216L64.7266 51.8563L67.5337 51.8494L66.3371 52.6216ZM65.7492 52.9312L64.3891 53.7591L64.1387 52.1659L65.7492 52.9312ZM66.2988 55.1888L64.8517 56.0828L64.5456 54.3261L66.2988 55.1888ZM66.9805 57.6203L65.3386 58.7995L64.9978 56.7263L66.9805 57.6203ZM71.3877 61.8851L68.5388 60.4832L70.2121 59.0744C70.7442 60.3163 71.1547 61.3077 71.3877 61.8851ZM69.9894 58.4204L68.0832 57.5369L69.3773 56.622C69.6103 57.1995 69.7564 57.843 69.9894 58.4204ZM68.6747 54.3436C68.8312 54.9106 68.9877 55.4776 69.1547 55.968L67.4015 55.1053L68.6747 54.3436ZM58.2389 60.5595L60.4165 59.4533L59.9955 61.9683L58.2389 60.5595ZM58.813 52.9206L57.2233 53.7172C57.3729 53.1919 57.4355 52.7328 57.5851 52.2075L58.813 52.9206ZM58.173 51.8979L60.9802 51.891L59.3905 52.6876L58.173 51.8979ZM59.3939 53.2337L60.6879 54.0338L58.9347 54.886L57.6407 54.0859L59.3939 53.2337ZM60.2879 56.3957L58.2946 57.2931L57.0111 56.4165L58.8512 55.4982L60.2879 56.3957ZM59.9121 59.1507L57.811 60.2673L56.197 58.9558L58.2772 57.9923L59.9121 59.1507ZM59.4842 62.2883L54.809 62.2743L57.738 60.803L59.4842 62.2883ZM58.7886 57.6723L60.7818 56.7749L60.5 58.8411L58.7886 57.6723ZM59.5052 55.2756L61.2584 54.4234L60.9418 56.1731L59.5052 55.2756ZM59.9818 52.9241L61.5715 52.1276L61.2758 53.7242L59.9818 52.9241ZM57.0529 54.3955L58.3469 55.1956L56.5937 56.0478C56.7537 55.446 56.9033 54.9207 57.0529 54.3955ZM56.4336 56.6496L57.7833 57.6131L55.8666 58.521C55.9501 57.9088 56.1866 57.3174 56.4336 56.6496ZM55.5535 59.1019L57.2336 60.5003L54.3812 61.9821C54.6177 61.3908 55.07 60.3611 55.5535 59.1019ZM62.3229 53.4773L63.4917 53.4808L65.0916 62.8972L60.8756 62.9458L62.3229 53.4773ZM60.7156 63.5476L65.1611 63.5303L65.3768 64.8069L60.5381 64.8486L60.7156 63.5476ZM85.2596 84.2002L80.7341 81.946L82.5569 80.012L85.2596 84.2002ZM80.2297 81.6434L76.5043 79.8101L81.9656 79.7755L80.2297 81.6434ZM76.0312 79.2779L77.7114 77.2465L81.4925 79.2432L76.0312 79.2779ZM81.7847 78.8154L78.0036 76.8186L79.402 75.1385L81.7847 78.8154ZM77.4888 76.5925L74.5077 75.0166L78.8002 74.9785L77.4888 76.5925ZM74.0451 74.4079L75.4122 72.9574L78.3376 74.3697L74.0451 74.4079ZM78.6298 73.9419L75.8574 72.5504L76.9532 71.3747L78.6298 73.9419ZM75.2661 72.3138L72.932 71.138L76.3618 71.1381L75.2661 72.3138ZM70.1006 67.322L71.1336 70.0353L67.5856 68.616L70.1006 67.322ZM66.9281 68.2925L63.9818 67.0332L69.4431 66.9985L66.9281 68.2925ZM70.7023 67.482L72.7964 68.7031L71.7354 70.1953L70.7023 67.482ZM71.1476 67.0751L74.0313 67.0786L73.1756 68.2091L71.1476 67.0751ZM73.3112 68.9292L75.9201 70.3763L72.2502 70.4214L73.3112 68.9292ZM74.5461 67.3047L76.2123 69.9485L73.6799 68.5118L74.5461 67.3047ZM53.5287 70.5184L49.9458 70.4975L52.4922 68.9739L53.5287 70.5184ZM51.88 67.1755L54.5341 67.1478L52.5861 68.2852L51.88 67.1755ZM52.9931 68.7304L54.9411 67.593L53.9636 70.188L52.9931 68.7304ZM55.5951 67.3704L58.2352 68.5879L54.6071 70.0419L55.5951 67.3704ZM56.3256 67.1582L62.0164 67.1549L58.9657 68.3758L56.3256 67.1582ZM51.3791 67.419L52.1617 68.5391L49.7024 69.9966L51.3791 67.419ZM52.9652 71.2211L50.6241 72.3829L49.5354 71.221L52.9652 71.2211ZM51.8937 74.5048L47.6012 74.543L50.4537 73.0612L51.8937 74.5048ZM48.9579 71.4541L50.1232 72.6263L47.3577 74.042L48.9579 71.4541ZM51.3511 75.0544L48.4012 76.6788L47.0586 75.0926L51.3511 75.0544ZM49.9039 79.3782L44.5191 79.4233L48.3073 77.3675L49.9039 79.3782ZM46.5681 75.2595L47.9768 76.9327L44.2652 78.9989L46.5681 75.2595ZM49.4378 79.9382L45.7574 81.7748L43.9869 79.8963L49.4378 79.9382ZM43.4095 80.1294L45.2565 82.0183L40.7378 84.2862L43.4095 80.1294ZM41.0579 84.7976L45.587 82.4531L47.7749 84.7003C46.5192 84.7629 42.6197 84.7767 41.0579 84.7976ZM48.2758 84.4568L46.0879 82.2096L49.9317 80.3174L48.2758 84.4568ZM50.4048 79.1347L48.7317 77.1136L51.845 75.4336L50.4048 79.1347ZM51.0311 72.8281L53.4591 71.6003L52.4051 74.1848L51.0311 72.8281ZM53.0973 74.8248L53.6782 73.423L54.2696 73.6596C53.9113 74.0005 53.4765 74.3309 53.0973 74.8248ZM54.7149 73.2526L53.8278 72.8978L54.3218 71.562L55.4106 72.7239C55.2366 72.8561 54.9757 73.0543 54.7149 73.2526ZM55.9219 72.4039L54.8332 71.242L56.4716 71.2316L56.5968 72.0282C56.3463 72.1499 56.0959 72.2717 55.9219 72.4039ZM57.1081 71.7082L57.0281 71.1516L58.59 71.1308C58.503 71.1969 57.936 71.3534 57.1081 71.7082ZM55.0906 70.4976L58.8927 68.9115L62.1138 70.4421L55.0906 70.4976ZM62.6912 70.209L59.5466 68.6888L62.6843 67.4019L62.6912 70.209ZM63.2304 67.3984L66.2533 68.6681L63.2373 70.2056L63.2304 67.3984ZM66.9211 68.9151L70.6118 70.4318L63.8287 70.4421L66.9211 68.9151ZM68.643 71.7223C67.7664 71.291 67.2307 71.2179 67.2307 71.2179L68.7925 71.1971L68.643 71.7223ZM69.1578 71.9484L69.2621 71.1832L70.9005 71.1728L69.8813 72.3589C69.5961 72.1641 69.3769 72.0563 69.1578 71.9484ZM70.3092 72.6511L71.4049 71.4754L71.9267 72.7938L71.0118 73.2147C70.737 72.9434 70.5179 72.8355 70.3092 72.6511ZM71.4292 73.5834L72.0171 73.2738L72.6049 74.6792C72.2745 74.2444 71.8571 73.8756 71.4292 73.5834ZM72.4867 71.545L74.8973 72.7312L73.5302 74.1818L72.4867 71.545ZM73.9963 75.3367L77.12 77.0099L75.4399 79.0413L73.9963 75.3367ZM75.9825 80.2067L79.8506 82.1373L77.6695 84.4122L75.9825 80.2067ZM78.1843 84.6384L80.3654 82.3635L84.9674 84.6281C83.4056 84.6489 79.4296 84.6523 78.1843 84.6384Z" fill="#0A0A0A" fill-opacity="0.3"/>
<path d="M164.588 55.6693L164.357 55.6676L164.354 55.9766L164.332 58.9887L203.647 58.9694L203.669 55.9573L203.671 55.6483L203.439 55.6466L203.458 53.0979L204.771 53.1076L204.774 52.7214L163.451 52.7259L163.449 53.1121L164.53 53.1201L164.588 55.6693ZM201.991 53.0871L201.972 55.6358L201.586 55.633L201.604 53.0843L201.991 53.0871ZM201.141 53.0808L201.122 55.6296L200.736 55.6267L200.755 53.078L201.141 53.0808ZM197.047 53.1279L197.028 55.6766L196.642 55.6738L196.661 53.1251L197.047 53.1279ZM196.198 53.1216L196.179 55.6704L195.793 55.6675L195.811 53.1188L196.198 53.1216ZM192.104 53.0915L192.085 55.6402L191.699 55.6374L191.718 53.0886L192.104 53.0915ZM191.255 53.0852L191.236 55.634L190.85 55.6311L190.868 53.0824L191.255 53.0852ZM187.238 53.1329L187.219 55.6816L186.833 55.6788L186.852 53.13L187.238 53.1329ZM186.311 53.126L186.292 55.6748L185.906 55.6719L185.925 53.1232L186.311 53.126ZM182.295 53.0965L182.276 55.6452L181.89 55.6423L181.909 53.0936L182.295 53.0965ZM181.445 53.0902L181.426 55.6389L181.04 55.6361L181.059 53.0874L181.445 53.0902ZM177.351 53.1373L177.333 55.686L176.946 55.6831L176.965 53.1344L177.351 53.1373ZM176.502 53.131L176.483 55.6797L176.097 55.6769L176.116 53.1282L176.502 53.131ZM172.408 53.1009L172.39 55.6496L172.003 55.6467L172.022 53.098L172.408 53.1009ZM171.559 53.0946L171.54 55.6433L171.154 55.6405L171.173 53.0918L171.559 53.0946ZM167.465 53.1417L167.446 55.6904L167.06 55.6875L167.079 53.1388L167.465 53.1417ZM166.615 53.1354L166.596 55.6841L166.21 55.6813L166.229 53.1326L166.615 53.1354Z" fill="#0A0A0A" fill-opacity="0.3"/>
<path d="M204.786 51.0219L203.319 51.0111L201.393 50.379L198.536 50.2808L197.145 50.3478L196.226 49.2596L194.447 49.5555L192.68 48.3067L192.6 48.6923L191.062 47.8313L189.981 47.6689L189.291 47.0459L188.127 47.8097L187.358 47.2633L186.587 47.1032L186.351 47.7194L184.966 46.9368L184.287 44.8463L184.132 44.8452L180.725 45.9787L180.484 47.2127L179.564 46.3563L174.841 47.8663L174.373 48.4807L173.525 48.32L168.415 49.9816L168.264 49.4398L168.884 49.2127L168.577 48.9015L168.735 48.4392L163.547 50.2547L163.541 51.027L163.534 52.0311L204.856 52.0265L204.786 51.0219Z" fill="#0A0A0A" fill-opacity="0.3"/>
<path d="M204.353 78.4513L163.803 78.4502L163.803 79.5315L204.353 79.5326L204.353 78.4513Z" fill="#0A0A0A" fill-opacity="0.3"/>
<path d="M206.424 80.3044L161.935 80.3042L161.935 81.3855L206.424 81.3857L206.424 80.3044Z" fill="#0A0A0A" fill-opacity="0.3"/>
<path d="M207.029 82.166L160.763 82.2114L160.299 82.2079L160.272 85.838L160.736 85.8414L207.002 85.796L207.542 85.8L207.492 82.1695L207.029 82.166Z" fill="#0A0A0A" fill-opacity="0.3"/>
<path d="M165.125 77.1455L165.122 77.5317L168.598 77.48L168.601 77.0938L168.37 77.0921L168.105 60.6384L168.259 60.6396L168.261 60.3307L168.416 60.3318L168.417 60.1773L168.571 60.1785L168.575 59.6378L165.177 59.69L165.173 60.2307L165.327 60.2318L165.326 60.3863L165.558 60.388L165.556 60.6197L165.633 60.6202L165.357 77.1472L165.125 77.1455Z" fill="#0A0A0A" fill-opacity="0.3"/>
<path d="M170.069 77.1049L170.066 77.491L173.541 77.5166L173.544 77.1305L173.313 77.1288L173.048 60.6751L173.202 60.6762L173.204 60.3673L173.359 60.3684L173.36 60.214L173.514 60.2151L173.518 59.6745L170.12 59.6494L170.116 60.1901L170.271 60.1912L170.269 60.3457L170.501 60.3474L170.499 60.6563L170.576 60.6569L170.3 77.1066L170.069 77.1049Z" fill="#0A0A0A" fill-opacity="0.3"/>
<path d="M175.012 77.1412L175.009 77.5273L178.485 77.4757L178.488 77.0895L178.179 77.0873L177.914 60.6336L178.068 60.6347L178.07 60.403L178.302 60.4047L178.304 60.173L178.458 60.1742L178.462 59.6335L174.986 59.6851L175.059 60.2264L175.136 60.2269L175.135 60.3814L175.367 60.3831L175.365 60.692L175.442 60.6154L175.166 77.1423L175.012 77.1412Z" fill="#0A0A0A" fill-opacity="0.3"/>
<path d="M179.878 77.0995L179.875 77.4857L183.428 77.5118L183.354 77.1251L183.122 77.1234L182.857 60.6697L183.011 60.6709L183.014 60.3619L183.245 60.3636L183.247 60.2092L183.401 60.2103L183.405 59.6696L179.929 59.644L179.925 60.1847L180.08 60.1858L180.079 60.3403L180.31 60.342L180.308 60.6509L180.385 60.6515L180.11 77.1012L179.878 77.0995Z" fill="#0A0A0A" fill-opacity="0.3"/>
<path d="M184.821 77.1362L184.818 77.5224L188.294 77.4707L188.297 77.0846L187.988 77.0823L187.801 60.6292L187.955 60.6303L187.957 60.3986L188.188 60.4003L188.19 60.1686L188.267 60.1692L188.271 59.6286L184.872 59.6808L184.868 60.2214L185.023 60.2225L185.022 60.377L185.254 60.3787L185.251 60.6877L185.328 60.6882L185.053 77.1379L184.821 77.1362Z" fill="#0A0A0A" fill-opacity="0.3"/>
<path d="M189.765 77.0951L189.762 77.4813L193.237 77.5069L193.24 77.1207L192.931 77.1184L192.666 60.6648L192.898 60.6665L192.9 60.3575L193.055 60.3587L193.056 60.2042L193.21 60.2053L193.214 59.6647L189.816 59.6396L189.812 60.1803L189.966 60.1814L189.965 60.3359L190.197 60.3376L190.195 60.6465L189.919 77.0962L189.765 77.0951Z" fill="#0A0A0A" fill-opacity="0.3"/>
<path d="M194.708 77.1317L194.705 77.5179L198.181 77.4663L198.184 77.0801L197.875 77.0778L197.61 60.6241L197.764 60.6253L197.766 60.3936L197.998 60.3953L197.999 60.1636L198.154 60.1647L198.157 59.7013L194.759 59.6763L194.755 60.2169L194.91 60.2181L194.908 60.3725L195.063 60.3737L195.061 60.6826L195.138 60.6832L194.862 77.1329L194.708 77.1317Z" fill="#0A0A0A" fill-opacity="0.3"/>
<path d="M199.651 77.0908L199.648 77.4769L203.124 77.5025L203.127 77.1164L202.818 77.1141L202.553 60.6604L202.707 60.6616L202.709 60.3526L202.941 60.3543L202.942 60.1999L203.097 60.201L203.101 59.6604L199.625 59.6348L199.621 60.1754L199.776 60.1765L199.775 60.331L200.006 60.3327L200.004 60.6416L200.081 60.6422L199.806 77.0919L199.651 77.0908Z" fill="#0A0A0A" fill-opacity="0.3"/>
<path d="M208.705 84.7246L208.736 85.8055L228.518 85.8524L228.487 84.7716L226.632 84.7479L227.32 76.4603L227.494 74.4463L227.882 74.5124L227.939 73.8153L211.13 72.369L211.073 73.066L211.305 73.0593L211.131 75.0733L210.251 84.7573L208.705 84.7246ZM214.693 75.3568L213.805 84.7319L210.869 84.7394L211.751 75.1327C211.803 74.2812 212.56 73.7185 213.334 73.7734C214.108 73.8283 214.748 74.5825 214.693 75.3568ZM218.721 75.7041L217.976 84.6887L214.886 84.7007L215.776 75.4028C215.829 74.5513 216.586 73.9886 217.36 74.0435C218.214 74.1734 218.776 74.9298 218.721 75.7041ZM222.749 76.0514L222.073 84.725L218.982 84.737L219.729 75.8295C219.782 74.9781 220.539 74.4153 221.313 74.4703C222.242 74.5207 222.804 75.2771 222.749 76.0514ZM226.092 84.7635L223.233 84.7688L223.912 76.1724C223.965 75.3209 224.721 74.7582 225.495 74.8131C226.347 74.8658 226.909 75.6222 226.855 76.3965L226.092 84.7635Z" fill="#0A0A0A" fill-opacity="0.3"/>
<path d="M215.366 23.7221L232.175 25.1685L232.232 24.4714L230.606 24.3638L231.13 18.3991L231.312 16.6939L220.545 15.7685L217.834 15.5377L217.652 17.2429L217.128 23.2076L215.423 23.0251L215.366 23.7221ZM222.685 17.6384L222.162 23.6032L221 23.4822L221.34 19.2226C221.4 18.6028 220.919 17.9985 220.222 17.9414C219.602 17.882 218.997 18.363 218.94 19.0601L218.6 23.3197L217.437 23.1987L217.96 17.234C218.022 16.6913 218.474 16.2919 219.017 16.3535C219.559 16.4151 219.959 16.8672 219.897 17.4098L220.285 17.4759L220.674 17.542C220.735 16.9993 221.187 16.5999 221.73 16.6615C222.345 16.5665 222.747 17.0958 222.685 17.6384ZM225.396 17.8692L224.873 23.834L222.936 23.6581L223.46 17.6933C223.521 17.1507 223.973 16.7513 224.516 16.8129C224.981 16.8767 225.381 17.3288 225.396 17.8692ZM230.218 24.2978L229.056 24.1768L229.396 19.9172C229.456 19.2974 228.975 18.6931 228.277 18.636C227.658 18.5766 227.053 19.0577 226.996 19.7547L226.656 24.0143L225.493 23.8933L226.016 17.9286C226.078 17.3859 226.53 16.9865 227.073 17.0481C227.615 17.1097 228.015 17.5618 227.953 18.1045L228.65 18.1616C228.712 17.6189 229.164 17.2196 229.706 17.2812C230.249 17.3428 230.649 17.7948 230.587 18.3375L230.218 24.2978Z" fill="#0A0A0A" fill-opacity="0.3"/>
<path d="M214.324 35.806L231.133 37.2524L231.19 36.5553L230.881 36.5642L231.701 27.5002L231.884 25.795L221.117 24.8696L215.695 24.408C215.695 24.408 215.572 25.4933 215.587 26.0337L214.767 35.0978L214.458 35.1067L214.324 35.806ZM217.758 26.2801L216.938 35.3442L215.001 35.1683L215.821 26.1042C215.883 25.5616 216.335 25.1622 216.877 25.2238C217.42 25.2854 217.819 25.7375 217.758 26.2801ZM220.469 26.5109L219.649 35.575L217.712 35.3991L218.532 26.335C218.594 25.7924 219.046 25.393 219.588 25.4546C220.131 25.5162 220.531 25.9683 220.469 26.5109ZM223.18 26.7417L222.36 35.8058L220.423 35.6299L221.243 26.5658C221.305 26.0232 221.757 25.6238 222.3 25.6854C222.842 25.747 223.242 26.1991 223.18 26.7417ZM225.891 26.9725L225.071 36.0366L223.134 35.8607L223.954 26.7966C224.016 26.254 224.468 25.8546 225.011 25.9162C225.476 25.98 225.953 26.4299 225.891 26.9725ZM228.525 27.2055L227.705 36.2696L225.768 36.0937L226.588 27.0297C226.65 26.487 227.102 26.0876 227.644 26.1492C228.187 26.2108 228.586 26.6629 228.525 27.2055ZM230.493 36.4982L228.556 36.3223L229.299 27.2604C229.361 26.7178 229.813 26.3184 230.355 26.38C230.898 26.4416 231.298 26.8937 231.236 27.4363L230.493 36.4982Z" fill="#0A0A0A" fill-opacity="0.3"/>
<path d="M213.287 48.0444L230.096 49.4908L230.153 48.7937L229.842 48.7254L230.66 39.5841L230.842 37.879L220.075 36.9536L214.653 36.492C214.653 36.492 214.53 37.5773 214.545 38.1177L213.73 47.3362L213.421 47.3451L213.287 48.0444ZM216.716 38.3641L215.9 47.5826L213.964 47.4067L214.781 38.2654C214.843 37.7228 215.295 37.3234 215.838 37.385C216.378 37.3694 216.778 37.8215 216.716 38.3641ZM219.427 38.5949L218.611 47.8134L216.675 47.6375L217.492 38.4962C217.554 37.9536 218.006 37.5542 218.549 37.6158C219.089 37.6002 219.489 38.0522 219.427 38.5949ZM222.14 38.9029L221.323 48.0442L219.386 47.8683L220.201 38.6498C220.263 38.1072 220.715 37.7078 221.258 37.7694C221.8 37.831 222.202 38.3602 222.14 38.9029ZM224.774 39.1359L223.956 48.2772L222.02 48.1013L222.837 38.96C222.899 38.4174 223.351 38.018 223.894 38.0796C224.434 38.064 224.836 38.5933 224.774 39.1359ZM227.483 39.2895L226.667 48.508L224.731 48.3321L225.548 39.1908C225.61 38.6482 226.062 38.2488 226.605 38.3104C227.145 38.2948 227.547 38.8241 227.483 39.2895ZM229.378 48.7388L227.442 48.5629L228.259 39.4217C228.321 38.879 228.773 38.4796 229.316 38.5412C229.858 38.6028 230.258 39.0549 230.196 39.5975L229.378 48.7388Z" fill="#0A0A0A" fill-opacity="0.3"/>
<path d="M227.303 73.2157L228.115 63.8428C228.176 63.3002 227.777 62.8481 227.234 62.7865C226.692 62.7249 226.239 63.1243 226.178 63.667L225.367 73.0398L224.67 72.9827L225.481 63.6098C225.542 63.0672 225.143 62.6151 224.6 62.5535C224.058 62.4919 223.606 62.8913 223.544 63.4339L222.733 72.8068L222.036 72.7497L222.847 63.3768C222.909 62.8341 222.509 62.3821 221.966 62.3205C221.424 62.2589 220.972 62.6583 220.91 63.2009L220.099 72.5738L219.402 72.5167L220.213 63.1438C220.275 62.6011 219.875 62.149 219.333 62.0874C218.79 62.0259 218.338 62.4252 218.276 62.9679L217.465 72.3408L216.768 72.2836L217.579 62.9108C217.641 62.3681 217.241 61.916 216.699 61.8544C216.156 61.7928 215.704 62.1922 215.642 62.7349L214.831 72.1077L214.134 72.0506L214.945 62.6777C215.007 62.1351 214.608 61.683 214.065 61.6214C213.522 61.5598 213.07 61.9592 213.009 62.5018L212.197 71.8747L211.809 71.8087L212.62 62.4358C212.682 61.8931 212.728 60.81 212.728 60.81L218.15 61.2716L228.917 62.1971L228.734 63.9022L227.923 73.2751L227.303 73.2157Z" fill="#0A0A0A" fill-opacity="0.3"/>
<path d="M212.165 60.0535L228.974 61.4999L229.031 60.8029L228.723 60.8118L229.543 51.7477L229.725 50.0425L218.958 49.1171L213.536 48.6555C213.536 48.6555 213.413 49.7409 213.428 50.2813L212.611 59.4226L212.302 59.4315L212.165 60.0535ZM215.676 50.5255L214.858 59.6667L212.919 59.4136L213.739 50.3496C213.801 49.8069 214.253 49.4075 214.796 49.4691C215.338 49.5307 215.738 49.9828 215.676 50.5255ZM218.387 50.7562L217.567 59.8203L215.63 59.6444L216.451 50.5804C216.512 50.0377 216.964 49.6383 217.507 49.6999C217.972 49.7637 218.372 50.2158 218.387 50.7562ZM221.098 50.987L220.278 60.0511L218.342 59.8752L219.162 50.8112C219.223 50.2685 219.675 49.8691 220.218 49.9307C220.683 49.9945 221.083 50.4466 221.098 50.987ZM223.732 51.2201L222.912 60.2841L220.975 60.1083L221.795 51.0442C221.857 50.5015 222.309 50.1021 222.852 50.1637C223.394 50.2253 223.794 50.6774 223.732 51.2201ZM226.443 51.4509L225.623 60.5149L223.686 60.339L224.506 51.275C224.568 50.7323 225.02 50.3329 225.563 50.3945C226.105 50.4561 226.505 50.9082 226.443 51.4509ZM228.334 60.7457L226.397 60.5698L227.218 51.5058C227.279 50.9631 227.731 50.5637 228.274 50.6253C228.817 50.6869 229.216 51.139 229.154 51.6817L228.334 60.7457Z" fill="#0A0A0A" fill-opacity="0.3"/>
<path d="M221.321 75.0732L220.079 76.1162L221.122 77.3582L222.364 76.3152L221.321 75.0732Z" fill="#0A0A0A" fill-opacity="0.3"/>
<path d="M217.305 74.7359L216.063 75.7793L217.107 77.0212L218.348 75.9778L217.305 74.7359Z" fill="#0A0A0A" fill-opacity="0.3"/>
<path d="M213.265 74.3749L212.023 75.418L213.066 76.66L214.308 75.617L213.265 74.3749Z" fill="#0A0A0A" fill-opacity="0.3"/>
<path d="M225.357 75.4374L224.115 76.48L225.157 77.7225L226.4 76.68L225.357 75.4374Z" fill="#0A0A0A" fill-opacity="0.3"/>
<path d="M217.67 14.3948L217.611 15.0874L231.54 16.2782L231.599 15.5856L217.67 14.3948Z" fill="#0A0A0A" fill-opacity="0.3"/>
<path d="M150.857 29.86L148.094 28.4142L150.919 30.0738L150.987 30.1468L154.575 28.454L150.857 29.86Z" fill="#0A0A0A" fill-opacity="0.3"/>
<path d="M159.045 84.0083L158.777 83.6456L158.808 70.1187C158.808 70.1187 158.516 68.5573 158.538 67.9945C158.516 68.5573 158.245 70.0969 158.245 70.0969L157.964 70.086L157.972 69.875L157.953 68.5355L157.962 68.3245L157.967 59.0945L157.975 58.8835L158.011 57.9689L158.019 57.7578L158.065 49.3046L158.073 49.0935L158.108 48.1789L158.117 47.9678L158.139 36.4839L158.983 36.5166L159.012 23.0601C159.012 23.0601 158.731 21.2173 158.755 20.5841C158.731 21.2173 158.449 23.0383 158.449 23.0383L158.167 23.0274C158.167 23.0274 155.328 18.1261 155.312 16.7163L155.362 11.7861L155.292 11.7834C155.292 11.7834 155.184 10.9337 155.195 10.6523C155.184 10.9337 155.081 11.7752 155.081 11.7752C155.081 11.7752 151.013 5.8399 151.057 1.05043C151.013 5.8399 146.979 11.743 146.979 11.743C146.979 11.743 146.871 10.8933 146.882 10.6119C146.871 10.8933 146.768 11.7348 146.768 11.7348L146.698 11.7321L146.647 16.6623C146.661 18.1424 143.796 22.9635 143.796 22.9635L143.515 22.9526C143.515 22.9526 143.234 21.1098 143.258 20.4766C143.234 21.1098 142.952 22.9308 142.952 22.9308L142.924 36.3873L143.768 36.4201L143.745 47.904L143.737 48.115L143.702 49.0296L143.694 49.2407L143.648 57.694L143.64 57.905L143.604 58.8196L143.596 59.0307L143.59 68.2606L143.582 68.4716L143.601 69.8111L143.593 70.0222L143.311 70.0112C143.311 70.0112 143.019 68.4498 143.041 67.887C143.019 68.4498 142.748 69.9894 142.748 69.9894L142.717 83.5163L142.422 83.8572L142.411 85.9705L159.036 86.0513L159.045 84.0083ZM157.036 77.6596L155.063 77.6536L155.045 76.3142L157.018 76.3202L157.036 77.6596ZM157.046 70.1209L157.026 76.1091L155.053 76.1031L155.074 70.1149L157.046 70.1209ZM156.14 69.8744L155.082 69.9038L155.063 68.5644L156.121 68.535L156.14 69.8744ZM156.13 68.3239L155.072 68.3533L155.077 59.1234L156.135 59.094L156.13 68.3239ZM156.143 58.8829L155.085 58.9124L155.121 57.9978L156.179 57.9683L156.143 58.8829ZM156.187 57.7573L155.129 57.7867L155.175 49.3335L156.233 49.304L156.187 57.7573ZM146.308 49.0602L145.393 49.0247L145.428 48.1101L146.343 48.1456L146.308 49.0602ZM146.325 35.8851L146.304 34.616L146.661 34.4889L147.007 34.6432L147.029 35.9123L146.325 35.8851ZM146.299 49.2712L146.254 57.7245L145.339 57.6891L145.385 49.2358L146.299 49.2712ZM151.959 35.9625L151.938 34.6934L152.295 34.5664L152.641 34.7207L152.662 35.9898L151.959 35.9625ZM151.944 49.0673L150.886 49.0967L150.921 48.1821L151.979 48.1527L151.944 49.0673ZM151.939 38.2869L151.917 47.9389L150.859 47.9684L150.881 38.3163L151.939 38.2869ZM150.534 49.0831L149.549 49.0449L149.585 48.1303L150.57 48.1685L150.534 49.0831ZM150.552 35.908L150.53 34.6389L150.888 34.5118L151.234 34.6662L151.255 35.9352L150.552 35.908ZM150.602 38.2351L150.581 47.8871L149.596 47.8489L149.617 38.1969L150.602 38.2351ZM146.91 69.8689L146.892 68.5295L147.665 68.5595L147.684 69.8989L146.91 69.8689ZM147.676 70.11L147.655 76.0982L146.881 76.0682L146.902 70.08L147.676 70.11ZM148.042 58.8507L148.077 57.9361L148.922 57.9689L148.886 58.8835L148.042 58.8507ZM148.905 49.3018L148.859 57.7551L148.015 57.7224L148.061 49.2691L148.905 49.3018ZM148.069 49.058L148.105 48.1434L148.949 48.1761L148.913 49.0907L148.069 49.058ZM149.142 35.9238L149.121 34.6547L149.478 34.5276L149.824 34.682L149.845 35.9511L149.142 35.9238ZM148.889 47.892L148.045 47.8593L148.067 38.2072L148.911 38.24L148.889 47.892ZM147.717 49.0444L146.943 49.0144L146.979 48.0998L147.753 48.1298L147.717 49.0444ZM147.732 35.9396L147.711 34.6705L148.068 34.5434L148.414 34.6978L148.436 35.9669L147.732 35.9396ZM147.783 38.2667L147.761 47.9187L146.987 47.8887L147.009 38.2367L147.783 38.2667ZM146.245 57.9356L146.21 58.8502L145.295 58.8147L145.331 57.9001L146.245 57.9356ZM146.272 59.064L146.267 68.2939L145.352 68.2584L145.357 59.0285L146.272 59.064ZM146.258 68.5049L146.277 69.8444L145.362 69.8089L145.344 68.4695L146.258 68.5049ZM146.933 49.2958L147.706 49.3258L147.661 57.7791L146.887 57.7491L146.933 49.2958ZM147.726 57.9225L147.69 58.8371L146.916 58.8071L146.952 57.8925L147.726 57.9225ZM147.682 59.0481L147.676 68.2781L146.903 68.2481L146.908 59.0182L147.682 59.0481ZM146.873 76.2792L147.647 76.3092L147.665 77.6487L146.892 77.6187L146.873 76.2792ZM148.034 59.0618L148.878 59.0945L148.872 68.3244L148.028 68.2917L148.034 59.0618ZM148.794 68.5327L148.812 69.8722L147.968 69.8395L147.95 68.5L148.794 68.5327ZM149.541 49.256L150.526 49.2942L150.48 57.7474L149.495 57.7093L149.541 49.256ZM150.472 57.9585L150.437 58.8731L149.452 58.8349L149.487 57.9203L150.472 57.9585ZM150.878 49.3078L151.936 49.2783L151.89 57.7316L150.832 57.7611L150.878 49.3078ZM153.679 47.9367L153.701 38.2847L154.545 38.3175L154.523 47.9695L153.679 47.9367ZM154.515 48.1805L154.479 49.0951L153.635 49.0624L153.671 48.1478L154.515 48.1805ZM153.354 49.0515L152.58 49.0215L152.615 48.1069L153.389 48.1369L153.354 49.0515ZM153.298 35.944L153.277 34.6749L153.634 34.5478L153.98 34.7022L154.002 35.9712L153.298 35.944ZM153.349 38.2711L153.327 47.9231L152.553 47.8931L152.575 38.2411L153.349 38.2711ZM151.882 57.9427L151.846 58.8573L150.788 58.8867L150.824 57.9722L151.882 57.9427ZM151.909 59.0711L151.903 68.301L150.845 68.3304L150.85 59.1005L151.909 59.0711ZM151.824 68.5093L151.843 69.8487L150.785 69.8782L150.766 68.5388L151.824 68.5093ZM152.569 49.3029L153.343 49.3329L153.297 57.7862L152.523 57.7562L152.569 49.3029ZM153.292 57.9269L153.256 58.8415L152.482 58.8115L152.518 57.8969L153.292 57.9269ZM153.697 49.2762L154.542 49.3089L154.496 57.7622L153.652 57.7295L153.697 49.2762ZM154.488 57.9733L154.452 58.8878L153.608 58.8551L153.643 57.9405L154.488 57.9733ZM154.444 59.0989L154.438 68.3288L153.594 68.2961L153.6 59.0662L154.444 59.0989ZM154.43 68.5399L154.449 69.8793L153.605 69.8466L153.586 68.5071L154.43 68.5399ZM156.171 49.0902L155.113 49.1197L155.148 48.2051L156.206 48.1756L156.171 49.0902ZM156.214 47.9646L155.156 47.994L155.178 38.342L156.236 38.3125L156.214 47.9646ZM155.412 35.9554L154.708 35.9282L154.687 34.6591L155.044 34.532L155.39 34.6863L155.412 35.9554ZM155.123 23.4026L155.464 23.6976L155.485 24.9667L154.782 24.9394L154.76 23.6704L155.123 23.4026ZM154.075 24.9825L153.372 24.9552L153.351 23.6862L153.716 23.348L154.057 23.6431L154.075 24.9825ZM153.76 13.1332L154.095 13.5689L154.056 16.3858L153.353 16.3585L153.392 13.5417L153.76 13.1332ZM152.666 24.9983L151.962 24.9711L151.941 23.702L152.306 23.3638L152.647 23.6589L152.666 24.9983ZM152.35 13.149L152.685 13.5848L152.647 16.4016L151.943 16.3743L151.982 13.5575L152.35 13.149ZM151.259 24.9438L150.555 24.9165L150.534 23.6474L150.899 23.3093L151.24 23.6043L151.259 24.9438ZM150.94 13.1648L151.276 13.6006L151.237 16.4174L150.533 16.3901L150.572 13.5733L150.94 13.1648ZM149.849 24.9596L149.145 24.9323L149.124 23.6632L149.489 23.3251L149.83 23.6202L149.849 24.9596ZM149.533 13.1103L149.868 13.546L149.83 16.3629L149.126 16.3356L149.165 13.5187L149.533 13.1103ZM148.439 24.9754L147.735 24.9481L147.714 23.679L148.08 23.3409L148.42 23.636L148.439 24.9754ZM148.123 13.1261L148.459 13.5618L148.42 16.3787L147.716 16.3514L147.755 13.5346L148.123 13.1261ZM150.947 25.7068C153.131 25.7209 154.962 27.5534 154.948 29.7371C154.934 31.9208 153.101 33.7521 150.918 33.7379C148.734 33.7237 146.903 31.8913 146.917 29.7076C146.934 27.4536 148.763 25.6926 150.947 25.7068ZM146.67 23.3567L147.011 23.6518L147.032 24.9209L146.328 24.8936L146.307 23.6245L146.67 23.3567ZM146.373 38.2825L146.351 47.9345L145.437 47.8991L145.458 38.2471L146.373 38.2825ZM144.437 70.0549L146.269 70.0554L146.248 76.0436L144.416 76.0431L144.437 70.0549ZM144.405 76.3245L146.237 76.325L146.256 77.6645L144.424 77.6639L144.405 76.3245ZM144.345 77.8722L146.177 77.8728L146.167 83.5796L144.335 83.579L144.345 77.8722ZM146.8 83.6041L146.81 77.8974L147.584 77.9274L147.574 83.6341L146.8 83.6041ZM147.957 70.1209L148.801 70.1536L148.781 76.1418L147.936 76.1091L147.957 70.1209ZM147.928 76.3201L148.773 76.3529L148.791 77.6923L147.947 77.6596L147.928 76.3201ZM147.926 83.6478L147.936 77.941L148.78 77.9737L148.77 83.6805L147.926 83.6478ZM149.514 59.0487L150.499 59.0869L150.493 68.3168L149.508 68.2786L149.514 59.0487ZM149.497 68.56L150.482 68.5982L150.501 69.9376L149.516 69.8995L149.497 68.56ZM149.437 70.1078L150.422 70.146L150.402 76.1342L149.417 76.096L149.437 70.1078ZM149.408 76.307L150.393 76.3452L150.412 77.6847L149.427 77.6465L149.408 76.307ZM149.406 83.6347L149.416 77.9279L150.401 77.9661L150.391 83.6729L149.406 83.6347ZM150.777 70.0892L151.835 70.0598L151.814 76.048L150.756 76.0774L150.777 70.0892ZM150.748 76.2885L151.806 76.2591L151.824 77.5985L150.766 77.628L150.748 76.2885ZM150.746 83.6162L150.756 77.9094L151.814 77.8799L151.804 83.5867L150.746 83.6162ZM152.542 59.0956L153.316 59.1256L153.31 68.3555L152.536 68.3255L152.542 59.0956ZM152.528 68.5366L153.302 68.5666L153.32 69.906L152.547 69.876L152.528 68.5366ZM152.468 70.0843L153.242 70.1143L153.221 76.1025L152.447 76.0725L152.468 70.0843ZM152.509 76.2863L153.283 76.3163L153.302 77.6558L152.528 77.6258L152.509 76.2863ZM152.437 83.6112L152.447 77.9045L153.221 77.9345L153.211 83.6412L152.437 83.6112ZM153.594 70.128L154.438 70.1607L154.417 76.1489L153.573 76.1162L153.594 70.128ZM153.565 76.3272L154.409 76.36L154.428 77.6994L153.583 77.6667L153.565 76.3272ZM153.575 77.8777L154.419 77.9105L154.41 83.6172L153.565 83.5845L153.575 77.8777ZM155.043 83.6418L155.053 77.935L157.025 77.941L157.015 83.6478L155.043 83.6418Z" fill="#0A0A0A" fill-opacity="0.3"/>
<path d="M140.638 84.1423L140.716 64.5524L121.665 64.5153L121.689 68.3124L118.822 68.3293L118.813 66.3923L115.792 66.3977L115.753 67.9438L115.445 67.9207L112.039 67.8972L109.519 60.1949L109.827 60.218L109.868 59.6789L109.406 59.6442L108.867 59.6037L91.4332 59.6881L91.3927 60.2272L91.5467 60.2388L91.5294 60.4699L91.3753 60.4583L91.358 60.6893L91.435 60.6951L91.436 67.8984L91.359 67.8926L91.3955 68.4375L91.5495 68.4491L91.5322 68.6802L91.3781 68.6686L91.3608 68.8996L91.4378 68.9054L91.4446 76.0317L91.3676 76.0259L91.3271 76.565L91.4811 76.5766L91.4638 76.8077L91.3097 76.7961L91.2866 77.1042L91.3636 77.11L91.3049 84.0764L91.0739 84.059L91.0352 85.6052L140.594 85.7655L140.632 84.2194L140.638 84.1423ZM128.735 69.3838C128.704 68.7619 129.124 68.3287 129.663 68.3692C130.125 68.4039 130.558 68.8237 130.589 69.4457L130.596 70.3757L128.813 70.3967L128.735 69.3838ZM126.607 65.7386L127.845 65.7542L127.872 67.4602L126.634 67.4446L126.607 65.7386ZM126.021 72.5105L125.988 73.9797L125.035 71.1972C125.646 71.3205 126.067 71.8944 126.021 72.5105ZM116.448 69.003L116.431 69.234L116.662 69.2514L116.675 70.1044L116.294 68.9914L116.448 69.003ZM114.517 68.9353L114.825 68.9585L114.842 68.7274L115.464 68.6967L115.454 76.054L114.524 76.0616L114.517 68.9353ZM108.087 60.7069L108.395 60.73L108.412 60.499L108.874 60.5337L108.858 67.968L108.082 67.9872L108.087 60.7069ZM108.012 68.9114L108.321 68.9345L108.338 68.7035L113.373 68.6945L113.356 68.9255L113.587 68.9429L113.594 76.0692L112.278 76.0478L112.248 72.3277C112.235 71.4747 111.588 70.8065 110.735 70.8199C109.882 70.8333 109.214 71.4802 109.227 72.3332L109.18 76.0474L107.865 76.0261L108.012 68.9114ZM102.512 60.6754L102.743 60.6927L102.761 60.4617L106.943 60.466L106.926 60.6971L107.157 60.7144L107.158 67.9177L106.228 67.9253L106.274 64.211C106.261 63.358 105.691 62.6956 104.915 62.7148C104.139 62.7339 103.548 63.3866 103.561 64.2396L103.515 67.9538L102.508 67.9556L102.512 60.6754ZM102.509 68.9627L102.74 68.98L102.758 68.749L106.94 68.7534L106.923 68.9844L107.154 69.0018L107.16 76.128L106.23 76.1356L106.277 72.4213C106.264 71.5683 105.694 70.9059 104.918 70.9251C104.142 70.9442 103.551 71.5969 103.564 72.4499L103.517 76.1642L102.51 76.166L102.509 68.9627ZM97.9393 60.7191L98.0934 60.7306L98.1107 60.4996L101.594 60.5289L101.577 60.76L101.808 60.7773L101.809 67.9806L101.033 67.9997L101.074 64.3625C101.06 63.5095 100.567 62.8528 99.9454 62.8836C99.3235 62.9143 98.8093 63.5727 98.8284 64.3487L98.7875 67.986L98.0116 68.0051L97.9393 60.7191ZM97.9421 68.9294L98.0962 68.9409L98.1135 68.7099L101.597 68.7392L101.579 68.9703L101.81 68.9876L101.817 76.1139L101.041 76.133L101.088 72.4188C101.075 71.5658 100.582 70.9091 99.9598 70.9398C99.3378 70.9706 98.8237 71.629 98.8428 72.405L98.7961 76.1193L98.0201 76.1384L97.9421 68.9294ZM94.3791 60.6839L94.4561 60.6897L94.4735 60.4587L97.2635 60.4359L97.2461 60.667L97.4002 60.6786L97.4012 67.8818L96.8563 67.9183L96.903 64.2041C96.8896 63.3511 96.4738 62.7002 95.9288 62.7367C95.3897 62.6962 94.9468 63.4375 94.9659 64.2135L94.9192 67.9277L94.3743 67.9642L94.3791 60.6839ZM94.3819 68.8943L94.4589 68.9L94.4763 68.669L97.2663 68.6462L97.249 68.8773L97.403 68.8889L97.4098 76.0151L96.8649 76.0516L96.9116 72.3373C96.8982 71.4844 96.4824 70.8335 95.9374 70.87C95.3983 70.8295 94.9553 71.5708 94.9745 72.3467L94.9278 76.061L94.3829 76.0975L94.3819 68.8943ZM91.7489 60.6413L91.8259 60.647L91.8432 60.416L94.0113 60.424L93.994 60.655L94.071 60.6608L94.072 67.8641L93.6869 67.8351L93.7336 64.1209C93.7202 63.2679 93.3814 62.6228 92.9963 62.5939C92.5342 62.5591 92.2511 63.235 92.1874 64.0822L92.1408 67.7964L91.7557 67.7675L91.7489 60.6413ZM91.6689 68.9228L91.7459 68.9286L91.7632 68.6975L93.9313 68.7055L93.914 68.9366L93.991 68.9423L93.9978 76.0686L93.6127 76.0397L93.6594 72.3254C93.646 71.4724 93.3072 70.8273 92.9221 70.7984C92.46 70.7637 92.1769 71.4395 92.1132 72.2867L92.0665 76.001L91.6814 75.972L91.6689 68.9228ZM94.018 84.0479L93.6329 84.0189L93.6622 80.5357C93.6488 79.6827 93.31 79.0376 92.9249 79.0087C92.4628 78.974 92.1797 79.6498 92.116 80.497L92.0867 83.9802L91.7016 83.9513L91.7603 76.9848L91.8373 76.9906L91.8546 76.7596L94.0227 76.7675L94.0054 76.9986L94.0824 77.0044L94.018 84.0479ZM97.3529 83.9886L96.808 84.0251L96.8373 80.5419C96.824 79.6889 96.4081 79.038 95.869 78.9975C95.3299 78.957 94.8869 79.6983 94.9061 80.4742L94.8768 83.9575L94.3318 83.994L94.3905 77.0275L94.4675 77.0333L94.4849 76.8023L97.2749 76.7795L97.2575 77.0106L97.4116 77.0221L97.3529 83.9886ZM101.689 84.0045L100.913 84.0237L100.942 80.5405C100.929 79.6875 100.436 79.0308 99.8143 79.0616C99.1924 79.0923 98.6782 79.7507 98.6974 80.5267L98.668 84.0099L97.8921 84.0291L97.9507 77.0626L98.1048 77.0742L98.1221 76.8432L101.605 76.8725L101.582 77.1806L101.813 77.1979L101.689 84.0045ZM107.109 84.0245L106.179 84.0321L106.209 80.5488C106.195 79.6958 105.625 79.0334 104.85 79.0526C104.074 79.0717 103.482 79.7244 103.496 80.5774L103.466 84.0606L102.459 84.0624L102.512 77.173L102.743 77.1903L102.766 76.8823L106.949 76.8867L106.931 77.1177L107.162 77.1351L107.109 84.0245ZM113.614 84.0484L112.299 84.0271L112.328 80.5438C112.315 79.6908 111.668 79.0226 110.815 79.036C109.962 79.0494 109.293 79.6963 109.307 80.5492L109.278 84.0325L107.962 84.0111L108.021 77.0447L108.329 77.0678L108.346 76.8368L113.459 76.8336L113.441 77.0646L113.672 77.082L113.614 84.0484ZM118.566 84.1106L118.595 80.6274C118.582 79.7744 117.935 79.1062 117.082 79.1196C116.229 79.133 115.561 79.7798 115.574 80.6328L115.545 84.1161L114.461 84.112L114.52 77.1456L114.828 77.1688L114.845 76.9377L119.566 76.9826L119.567 84.1859L118.566 84.1106ZM118.427 72.5596L118.456 75.2726L117.634 72.8098L117.669 69.2496L117.977 69.2727L117.994 69.0417L121.945 69.0287L121.928 69.2597L122.159 69.2771L122.1 76.2435L121.401 76.2685L121.442 72.6312C121.429 71.7782 120.776 71.187 120.006 71.1292C119.082 71.0597 118.408 71.7836 118.427 72.5596ZM123.524 84.0959L122.825 84.1208L122.86 80.5606C122.847 79.7076 122.194 79.1164 121.424 79.0585C121.347 79.0527 121.193 79.0412 121.11 79.1124L120.414 77.0463L123.358 77.0351L123.34 77.2661L123.571 77.2835L123.524 84.0959ZM123.652 76.2052L122.953 76.2302L123.012 69.2637L123.32 69.2869L123.337 69.0558L123.8 69.0905L123.652 76.2052ZM128.867 84.11L128.169 84.135L128.204 80.5747C128.19 79.7217 127.538 79.1305 126.767 79.0727C125.914 79.0861 125.323 79.7387 125.265 80.5089L125.23 84.0692L124.454 84.0883L124.507 77.1989L124.815 77.222L124.833 76.991L128.784 76.978L128.766 77.2091L128.997 77.2264L128.867 84.11ZM130.414 84.1487L129.715 84.1737L129.768 77.2843L130.076 77.3074L130.093 77.0764L130.555 77.1111L130.414 84.1487ZM128.302 76.1673L128.343 72.5301C128.33 71.6771 128.921 71.0244 129.614 71.0765C130.313 71.0515 130.883 71.714 130.896 72.567L130.856 76.2042L128.302 76.1673ZM132.516 67.4993L131.355 67.4895L131.329 65.7835L132.49 65.7933L132.516 67.4993ZM133.589 84.1549L132.767 81.6921L132.782 80.454C132.769 79.601 133.2 79.0138 133.745 78.9773C134.285 79.0178 134.7 79.6687 134.72 80.4446L134.679 84.0819L133.589 84.1549ZM132.875 76.1236L132.916 72.4863C132.903 71.6334 133.334 71.0461 133.879 71.0096C134.418 71.0501 134.834 71.701 134.853 72.477L134.812 76.1142L132.875 76.1236ZM136 67.5286L135.147 67.542L135.12 65.836L135.973 65.8226L136 67.5286ZM136.379 84.1322L136.42 80.4949C136.406 79.6419 136.761 79.0489 137.152 79.0008C137.537 79.0298 137.876 79.6748 137.895 80.4508L137.854 84.0881L136.379 84.1322ZM136.436 76.1587L136.477 72.5215C136.463 71.6685 136.818 71.0755 137.208 71.0274C137.594 71.0563 137.932 71.7014 137.952 72.4774L137.911 76.1146L136.436 76.1587ZM138.79 67.5058L138.328 67.4711L138.301 65.7651L138.763 65.7998L138.79 67.5058ZM139.246 84.1152L139.287 80.478C139.273 79.625 139.474 79.0204 139.705 79.0377C139.936 79.0551 140.121 79.6886 140.134 80.5416L140.093 84.1789L139.246 84.1152ZM139.226 76.136L139.267 72.4987C139.253 71.6457 139.454 71.0411 139.685 71.0585C139.916 71.0759 140.1 71.7094 140.114 72.5624L140.073 76.1996L139.226 76.136ZM139.269 70.4076L139.261 69.4776C139.225 68.9327 139.419 68.4051 139.65 68.4225C139.881 68.4399 140.078 68.9193 140.037 69.4584L140.045 70.3885L139.269 70.4076ZM140.567 67.5619L140.336 67.5445L140.309 65.8386L140.54 65.8559L140.567 67.5619Z" fill="#0A0A0A" fill-opacity="0.3"/>
<path d="M105.94 50.4113L91.2657 50.3647L91.2628 51.2916L105.937 51.3381L105.94 50.4113Z" fill="#0A0A0A" fill-opacity="0.3"/>
<path d="M91.5895 57.6084L91.5837 57.6854L91.5681 58.9235L108.836 58.9815L108.857 57.6664L106.524 51.6047L91.7327 51.5778L91.5895 57.6084ZM100.47 54.8676C100.439 54.2457 100.859 53.8125 101.327 53.7702C101.789 53.8049 102.145 54.219 102.176 54.8409L102.141 55.303L100.512 55.3355L100.47 54.8676ZM95.358 54.8708C95.3273 54.2489 95.6701 53.8099 95.9781 53.8331C96.2862 53.8562 96.5596 54.3415 96.5961 54.8864L96.5614 55.3485L95.3233 55.3329L95.358 54.8708ZM91.9518 54.8473C91.9211 54.2254 92.1098 53.7748 92.2639 53.7864C92.4179 53.7979 92.5372 54.2717 92.568 54.8936L92.5332 55.3557L91.9883 55.3922L91.9518 54.8473Z" fill="#0A0A0A" fill-opacity="0.3"/>
<path d="M28.3207 68.4983L28.3279 71.356L33.4254 71.3432L33.4183 68.4855L28.3207 68.4983Z" fill="#0A0A0A" fill-opacity="0.3"/>
<path d="M6.74335 68.5456L6.75049 71.4033L11.848 71.3906L11.8409 68.5329L6.74335 68.5456Z" fill="#0A0A0A" fill-opacity="0.3"/>
<path d="M35.9849 57.3716L36.378 56.4444L3.42798 56.5522L3.89835 57.4916L35.9849 57.3716Z" fill="#0A0A0A" fill-opacity="0.3"/>
<path d="M20.1451 68.9479C17.3262 68.9495 15.1054 71.1221 15.0688 73.7124L15.1265 85.7623L15.4439 85.7875L15.3998 75.2232C15.373 72.7218 17.5431 70.7144 20.1969 70.662C22.8634 70.6859 24.9977 72.6782 25.0245 75.1796L25.0687 85.7439L25.3861 85.7691L25.3284 73.7192C25.2127 71.1544 22.9639 68.9463 20.1451 68.9479Z" fill="#0A0A0A" fill-opacity="0.3"/>
<path d="M14.507 68.4812L14.5298 85.9403L14.771 85.9783L14.764 73.7632C14.7624 70.9444 17.199 68.6574 20.1702 68.6303C23.1414 68.6032 25.568 70.9382 25.5696 73.757L25.5766 85.9721L25.729 85.9466L25.6301 68.5002L14.507 68.4812ZM16.0951 70.0167C15.0037 70.9823 14.7882 71.5665 14.7882 71.5665L14.7993 68.8239L18.0879 68.822C18.0879 68.822 17.1104 69.0638 16.0951 70.0167ZM25.4414 71.5858C25.4414 71.5858 25.1871 71.0019 24.158 69.9994C23.129 68.9969 22.1639 68.845 22.1639 68.845L25.4525 68.8431L25.4414 71.5858Z" fill="#0A0A0A" fill-opacity="0.3"/>
<path d="M4.75774 72.4615L13.8365 72.4308L13.7958 67.974L26.3917 67.9033L26.4324 72.3601L35.1936 72.3043L35.1771 65.6508L4.80466 65.719L4.75774 72.4615ZM27.8011 67.9025L33.8325 67.9117L33.8601 71.8226L27.8288 71.8133L27.8011 67.9025ZM6.20268 67.9911L12.234 68.0003L12.2616 71.9112L6.23033 71.9019L6.20268 67.9911Z" fill="#0A0A0A" fill-opacity="0.3"/>
<path d="M4.82624 81.299L7.09912 81.3104L7.07065 75.9901C7.10807 74.8092 8.03442 73.7929 9.29149 73.8176C10.5486 73.8422 11.4887 74.7813 11.5275 75.9495L11.5559 81.2697L13.905 81.2684L13.8622 73.0531L4.78344 73.0837L4.82624 81.299Z" fill="#0A0A0A" fill-opacity="0.3"/>
<path d="M26.4374 81.2863L28.7103 81.2977L28.6819 75.9774C28.7193 74.7965 29.6456 73.7802 30.9027 73.8049C32.1598 73.8295 33.0999 74.7686 33.1387 75.9368L33.1671 81.257L35.1987 81.2305L35.1559 73.0152L26.3946 73.071L26.4374 81.2863Z" fill="#0A0A0A" fill-opacity="0.3"/>
<path d="M4.82886 85.9969L13.9076 85.9663L13.8797 81.5857L4.80098 81.6163L4.82886 85.9969ZM6.74391 81.9961L11.6705 81.9552L11.6599 85.6374L6.73331 85.6784L6.74391 81.9961Z" fill="#0A0A0A" fill-opacity="0.3"/>
<path d="M26.4401 85.9847L35.2014 85.9289L35.1734 81.5483L26.4122 81.6041L26.4401 85.9847ZM28.4947 81.8822L33.4214 81.8413L33.4108 85.5236L28.4841 85.5645L28.4947 81.8822Z" fill="#0A0A0A" fill-opacity="0.3"/>
<path d="M35.315 62.7301L35.1101 59.632L4.73761 59.7003L4.54892 62.7859L2.89822 62.7487L3.41954 63.9928L3.96552 63.9798L3.96607 64.9194L36.1416 64.8628L36.141 63.9232L36.7632 63.8975L37.3466 62.7036L35.315 62.7301Z" fill="#0A0A0A" fill-opacity="0.3"/>
<path d="M35.1478 58.9209L35.5664 58.1461L4.26709 58.291L4.77539 58.9891L35.1478 58.9209Z" fill="#0A0A0A" fill-opacity="0.3"/>
</svg>
