<svg width="794" height="297" viewBox="0 0 794 297" fill="none" xmlns="http://www.w3.org/2000/svg">
<path d="M88.848 225.948L88.8704 234.913L104.862 234.873L104.84 225.908L88.848 225.948Z" fill="#0A0A0A" fill-opacity="0.3"/>
<path d="M21.1551 226.096L21.1775 235.061L37.1695 235.021L37.1471 226.056L21.1551 226.096Z" fill="#0A0A0A" fill-opacity="0.3"/>
<path d="M112.892 191.04L114.126 188.131L10.7544 188.469L12.23 191.416L112.892 191.04Z" fill="#0A0A0A" fill-opacity="0.3"/>
<path d="M63.1993 227.358C54.356 227.363 47.3888 234.179 47.274 242.305L47.455 280.108L48.4509 280.187L48.3124 247.045C48.2282 239.197 55.0364 232.9 63.3618 232.736C71.7271 232.81 78.4229 239.061 78.5071 246.908L78.6457 280.05L79.6416 280.13L79.4605 242.326C79.0974 234.28 72.0426 227.353 63.1993 227.358Z" fill="#0A0A0A" fill-opacity="0.3"/>
<path d="M45.5118 225.894L45.5831 280.667L46.34 280.786L46.318 242.465C46.3129 233.621 53.9571 226.447 63.2784 226.362C72.5997 226.277 80.2123 233.602 80.2174 242.445L80.2394 280.766L80.7174 280.686L80.4071 225.954L45.5118 225.894ZM50.4939 230.711C47.0699 233.74 46.3937 235.573 46.3937 235.573L46.4286 226.969L56.7458 226.963C56.7458 226.963 53.679 227.722 50.4939 230.711ZM79.8152 235.634C79.8152 235.634 79.0174 233.802 75.789 230.657C72.5605 227.512 69.5328 227.035 69.5328 227.035L79.85 227.029L79.8152 235.634Z" fill="#0A0A0A" fill-opacity="0.3"/>
<path d="M14.9259 238.38L43.4078 238.284L43.2802 224.302L82.7962 224.08L82.9237 238.062L110.41 237.887L110.358 217.014L15.0731 217.228L14.9259 238.38ZM87.2179 224.078L106.139 224.107L106.226 236.376L87.3046 236.347L87.2179 224.078ZM19.459 224.356L38.3806 224.385L38.4673 236.654L19.5458 236.625L19.459 224.356Z" fill="#0A0A0A" fill-opacity="0.3"/>
<path d="M15.1409 266.105L22.2714 266.141L22.1821 249.45C22.2995 245.745 25.2057 242.557 29.1494 242.634C33.0931 242.712 36.0425 245.658 36.1641 249.322L36.2534 266.013L43.6228 266.009L43.4885 240.236L15.0067 240.332L15.1409 266.105Z" fill="#0A0A0A" fill-opacity="0.3"/>
<path d="M82.9396 266.066L90.0701 266.102L89.9808 249.411C90.0982 245.706 93.0044 242.518 96.9481 242.595C100.892 242.673 103.841 245.619 103.963 249.284L104.052 265.974L110.426 265.891L110.291 240.118L82.8054 240.293L82.9396 266.066Z" fill="#0A0A0A" fill-opacity="0.3"/>
<path d="M15.1494 280.844L43.6313 280.748L43.5437 267.005L15.0619 267.101L15.1494 280.844ZM21.1573 268.292L36.6131 268.164L36.5799 279.716L21.1241 279.844L21.1573 268.292Z" fill="#0A0A0A" fill-opacity="0.3"/>
<path d="M82.9481 280.805L110.434 280.63L110.347 266.887L82.8606 267.062L82.9481 280.805ZM89.394 267.935L104.85 267.806L104.817 279.358L89.3608 279.487L89.394 267.935Z" fill="#0A0A0A" fill-opacity="0.3"/>
<path d="M110.791 207.851L110.148 198.132L14.863 198.346L14.2711 208.026L9.09247 207.91L10.728 211.813L12.4408 211.772L12.4426 214.72L113.384 214.542L113.382 211.594L115.334 211.514L117.164 207.768L110.791 207.851Z" fill="#0A0A0A" fill-opacity="0.3"/>
<path d="M110.266 195.901L111.579 193.471L13.3866 193.925L14.9813 196.115L110.266 195.901Z" fill="#0A0A0A" fill-opacity="0.3"/>
<path d="M240.901 212.458L242.614 212.447L242.527 209.501L238.62 209.457C237.824 208.125 237.3 206.587 236.743 205.288L239.93 205.234L239.952 203.28L236.045 203.236C228.504 186.801 224.685 173.564 224.685 173.564L222.71 164.735L225.144 164.823L225.198 162.629L221.532 162.618C221.532 162.618 213.097 118.672 208.285 78.6433L211.712 78.6216L211.799 76.188L209.126 76.0679L209.049 69.4547L205.863 69.5092L204.412 35.3191L202.949 69.3563L199.522 69.3781L199.599 75.9913L197.405 75.9367L197.318 78.3703L200.744 78.3485C200.395 82.7027 199.773 87.2643 199.151 91.8259C194.785 127.424 188.051 162.454 188.051 162.454L184.624 162.476L184.57 164.669L187.003 164.756L185.071 173.541C185.071 173.541 181.317 186.724 173.918 203.322L170.251 203.311L170.229 205.265L172.936 205.145C172.259 206.52 171.582 207.895 170.906 209.27L167.239 209.259L167.326 212.205L169.28 212.227L129.075 275.707L161.868 275.533C161.868 275.533 166.573 228.487 205.226 228.379C243.64 228.238 248.942 275.426 248.942 275.426L281.736 275.252L240.901 212.458ZM205.164 88.9778L206.321 87.6682L207.63 88.825L206.474 90.1345L205.131 89.2179L205.164 88.9778ZM205.088 87.7446L204.979 86.7515L205.426 87.0571L205.088 87.7446ZM205.109 85.7912L205.142 85.5511L206.266 84.4817L207.576 85.6385L206.419 86.948L205.109 85.7912ZM205.099 84.0779L205.197 83.3577L205.644 83.6632L205.099 84.0779ZM203.385 84.0888L202.971 83.5431L203.276 83.0957L203.385 84.0888ZM203.462 85.3219L203.429 85.562L202.338 86.3914L201.028 85.2346L202.152 84.1651L203.462 85.3219ZM203.505 86.7952L203.374 87.7555L202.96 87.2098L203.505 86.7952ZM205.655 90.7566L205.077 91.4113L204.968 90.4183L205.655 90.7566ZM205.186 92.4044L206.583 91.1276L208.372 92.3499L206.91 94.1069L205.186 92.4044ZM206.091 94.7288L205.207 95.831L205.262 93.6376L206.091 94.7288ZM205.523 150.897L210.226 146.893L216.97 151.236L211.754 155.416L205.523 150.897ZM210.728 155.765L205.272 159.912L205.152 151.825L210.728 155.765ZM205.446 149.664L205.512 143.804L209.572 146.314L205.446 149.664ZM205.436 142.571L210.718 137.911L215.399 141.24L210.15 145.659L205.436 142.571ZM205.359 141.338L205.348 134.244L209.79 137.54L205.359 141.338ZM205.239 133.251L208.917 129.596L213.981 133.71L210.368 136.885L205.239 133.251ZM205.436 131.811L205.436 126.431L208.502 129.05L205.436 131.811ZM205.327 125.438L208.939 122.262L212.726 124.98L209.081 128.395L205.327 125.438ZM205.251 124.205L205.36 119.818L208.252 121.924L205.251 124.205ZM205.251 118.825L208.317 116.064L211.864 118.748L208.83 121.269L205.251 118.825ZM205.414 117.624L205.458 113.717L207.87 115.758L205.414 117.624ZM205.382 112.484L207.87 110.378L210.969 112.757L208.481 114.863L205.382 112.484ZM205.273 111.491L205.185 108.545L206.942 110.007L205.273 111.491ZM205.316 107.584L205.349 107.344L207.597 105.205L210.216 107.519L207.761 109.385L205.316 107.584ZM205.273 106.111L205.153 103.405L206.702 104.594L205.273 106.111ZM205.284 102.444L207.292 100.273L209.496 102.041L207.281 103.939L205.284 102.444ZM205.24 100.971L205.295 98.7775L206.604 99.9343L205.24 100.971ZM205.218 97.5444L205.251 97.3043L206.713 95.5474L208.852 97.7954L207.183 99.2796L205.218 97.5444ZM203.527 100.982L202.217 99.8251L203.581 98.7884L203.527 100.982ZM203.603 102.215L201.388 104.114L199.216 102.106L201.432 100.207L203.603 102.215ZM203.439 103.415L203.319 106.089L201.802 104.66L203.439 103.415ZM203.636 107.355L203.603 107.595L201.148 109.461L198.736 107.42L201.497 105.107L203.636 107.355ZM203.472 108.555L203.559 111.502L201.802 110.04L203.472 108.555ZM203.668 112.495L200.635 115.016L198.223 112.975L201.017 110.422L203.668 112.495ZM203.505 113.695L203.461 117.602L201.049 115.561L203.505 113.695ZM203.537 118.835L200.023 121.291L196.924 118.912L200.231 116.183L203.537 118.835ZM203.646 119.829L203.537 124.215L200.678 121.869L203.646 119.829ZM203.646 125.209L200.034 128.384L196.346 124.946L200.132 122.284L203.646 125.209ZM203.723 126.442L203.723 131.822L200.689 128.963L203.723 126.442ZM203.559 133.022L198.375 136.962L194.621 134.004L199.597 129.792L203.559 133.022ZM203.635 134.255L203.646 141.349L199.03 137.54L203.635 134.255ZM203.722 142.582L199.117 145.867L193.846 141.479L198.451 138.195L203.722 142.582ZM203.559 143.782L203.493 149.642L199.532 146.412L203.559 143.782ZM203.602 150.636L197.6 155.197L192.296 151.05L198.986 146.827L203.602 150.636ZM203.678 151.869L203.798 159.955L198.255 155.775L203.678 151.869ZM203.667 160.916L190.441 161.068L197.469 156.157L203.667 160.916ZM205.381 160.905L211.416 156.103L218.334 160.96L205.381 160.905ZM212.201 155.721L217.658 151.574C218.476 156.332 219.044 159.344 219.12 160.578L212.201 155.721ZM210.805 146.238L216.054 141.818C216.589 145.07 216.949 147.809 217.341 150.308L210.805 146.238ZM211.263 137.497L214.875 134.321C215.301 136.58 215.519 138.566 215.945 140.825L211.263 137.497ZM209.736 128.974L213.653 125.351C214.013 128.09 214.406 130.589 214.799 133.088L209.736 128.974ZM209.517 121.607L212.551 119.087C212.802 120.833 213.053 122.579 213.337 124.085L209.517 121.607ZM209.136 115.442L211.897 113.128C212.148 114.874 212.431 116.38 212.682 118.126L209.136 115.442ZM208.416 109.963L210.904 107.857C211.187 109.363 211.231 110.836 211.515 112.342L208.416 109.963ZM208.176 104.551L210.424 102.412C210.707 103.918 210.751 105.391 211.067 106.657L208.176 104.551ZM207.87 99.6179L209.573 97.8937C209.682 98.8868 209.758 100.12 210.107 101.146L207.87 99.6179ZM207.325 94.6525L209.06 92.6882C209.136 93.9214 209.42 95.4274 209.496 96.6605L207.325 94.6525ZM207.128 90.713L208.525 89.4362C208.667 90.1892 208.809 90.9422 208.918 91.9352L207.128 90.713ZM206.866 87.2536L208.023 85.9441C208.165 86.697 208.274 87.6901 208.416 88.4431L206.866 87.2536ZM206.877 83.5869L207.761 82.4847C207.903 83.2377 208.045 83.9906 207.947 84.7109L206.877 83.5869ZM206.223 83.0084L205.361 82.1572L205.393 81.9171L207.347 81.939L206.223 83.0084ZM203.407 82.1353L202.556 82.9975L201.487 81.8734L203.407 82.1353ZM201.978 83.6522L201.126 84.5143C201.192 84.0341 201.257 83.5539 201.323 83.0738L201.978 83.6522ZM201.726 87.2862L200.635 88.1155C200.733 87.3953 200.799 86.9151 200.897 86.1949L201.726 87.2862ZM202.381 87.8646L203.451 88.9886L203.418 89.2287L202.087 90.0253L200.777 88.8686L202.381 87.8646ZM203.494 90.4619L203.603 91.455L202.949 90.8765L203.494 90.4619ZM203.472 92.4153L202.01 94.1722L200.526 92.5025L202.163 91.2585L203.472 92.4153ZM203.516 93.8885L203.461 96.082L202.392 94.958L203.516 93.8885ZM203.538 97.3152L203.505 97.5553L201.562 99.2467L199.806 97.7843L202.054 95.6455L203.538 97.3152ZM200.777 99.6287L199.14 100.873C199.271 99.9124 199.369 99.1921 199.5 98.2318L200.777 99.6287ZM200.809 104.769L198.594 106.667C198.758 105.467 198.921 104.267 199.052 103.306L200.809 104.769ZM200.329 110.083L197.874 111.949C198.037 110.749 198.201 109.548 198.365 108.348L200.329 110.083ZM199.816 115.638L197.055 117.951C197.252 116.511 197.415 115.31 197.612 113.87L199.816 115.638ZM199.238 121.673L195.996 123.921C196.193 122.48 196.389 121.04 196.586 119.599L199.238 121.673ZM199.216 129.006L194.785 132.804C195.08 130.643 195.407 128.242 195.734 125.841L199.216 129.006ZM197.829 137.376L193.77 140.246C194.032 138.326 194.261 136.645 194.556 134.484L197.829 137.376ZM198.091 146.216L191.914 150.264C192.242 147.863 192.842 145.255 193.235 142.374L198.091 146.216ZM196.814 155.579L190.299 160.315C190.495 158.875 191.128 156.026 191.718 151.705L196.814 155.579ZM200.439 89.556L201.541 90.44L200.209 91.2366C200.275 90.7565 200.34 90.2763 200.439 89.556ZM201.432 94.827L199.729 96.5512C199.86 95.5908 200.024 94.3905 200.155 93.4301L201.432 94.827ZM221.269 196.819L230.414 201.49L215.747 201.446L221.269 196.819ZM214.165 200.497L212.812 192.487L219.687 195.87L214.165 200.497ZM221.051 194.833L214.416 191.483L219.567 187.783L226.027 190.621L221.051 194.833ZM219.349 185.797L213.128 182.993L217.428 180.155L223.408 182.927L219.349 185.797ZM217.21 178.169L211.71 175.463L215.704 173.073L221.204 175.779L217.21 178.169ZM217.581 171.862L221.575 169.472C221.859 170.978 222.35 172.756 222.634 174.262L217.581 171.862ZM215.726 171.119L210.673 168.718L219.48 168.697L215.726 171.119ZM213.882 172.091L209.615 174.688L208.829 169.69L213.882 172.091ZM215.606 179.173L211.066 181.978L210.106 176.467L215.606 179.173ZM217.744 186.801L212.593 190.501L211.524 183.996L217.744 186.801ZM231.571 200.181L222.633 195.783L227.882 191.363C229.552 195.259 230.84 198.369 231.571 200.181ZM227.184 189.311L221.204 186.539L225.263 183.669C225.995 185.481 226.453 187.5 227.184 189.311ZM223.059 176.521C223.55 178.3 224.041 180.079 224.565 181.618L219.065 178.911L223.059 176.521ZM190.32 196.022L197.152 192.552L195.831 200.442L190.32 196.022ZM192.121 172.057L187.134 174.556C187.603 172.908 187.8 171.468 188.269 169.82L192.121 172.057ZM190.113 168.849L198.92 168.827L193.933 171.326L190.113 168.849ZM193.944 173.04L198.003 175.55L192.503 178.223L188.443 175.713L193.944 173.04ZM196.748 182.959L190.495 185.775L186.468 183.025L192.241 180.144L196.748 182.959ZM195.569 191.602L188.978 195.105L183.914 190.991L190.44 187.968L195.569 191.602ZM194.227 201.446L179.56 201.402L188.749 196.786L194.227 201.446ZM192.044 186.964L198.298 184.149L197.414 190.631L192.044 186.964ZM194.293 179.445L199.793 176.772L198.8 182.261L194.293 179.445ZM195.788 172.068L200.775 169.569L199.847 174.578L195.788 172.068ZM186.599 176.684L190.659 179.194L185.159 181.868C185.661 179.98 186.13 178.332 186.599 176.684ZM184.657 183.756L188.891 186.779L182.878 189.627C183.14 187.706 183.882 185.851 184.657 183.756ZM181.895 191.449L187.166 195.836L178.218 200.485C178.96 198.63 180.378 195.4 181.895 191.449ZM203.132 173.804L206.799 173.815L211.818 203.356L198.592 203.508L203.132 173.804ZM198.09 205.396L212.036 205.342L212.713 209.347L197.533 209.478L198.09 205.396ZM275.09 270.188L260.892 263.116L266.611 257.049L275.09 270.188ZM259.31 262.167L247.622 256.415L264.756 256.307L259.31 262.167ZM246.138 254.746L251.409 248.373L263.271 254.637L246.138 254.746ZM264.188 253.295L252.326 247.03L256.713 241.759L264.188 253.295ZM250.711 246.321L241.359 241.377L254.825 241.257L250.711 246.321ZM239.907 239.467L244.196 234.917L253.374 239.348L239.907 239.467ZM254.29 238.005L245.593 233.64L249.031 229.952L254.29 238.005ZM243.738 232.898L236.415 229.209L247.175 229.209L243.738 232.898ZM227.533 217.238L230.773 225.75L219.642 221.297L227.533 217.238ZM217.58 220.282L208.337 216.331L225.47 216.223L217.58 220.282ZM229.42 217.74L235.99 221.57L232.661 226.252L229.42 217.74ZM230.817 216.463L239.864 216.474L237.179 220.02L230.817 216.463ZM237.605 222.28L245.79 226.819L234.276 226.961L237.605 222.28ZM241.479 217.183L246.706 225.477L238.762 220.97L241.479 217.183ZM175.543 227.265L164.303 227.2L172.291 222.42L175.543 227.265ZM170.371 216.778L178.697 216.691L172.586 220.259L170.371 216.778ZM173.863 221.656L179.974 218.088L176.907 226.229L173.863 221.656ZM182.026 217.389L190.309 221.209L178.926 225.77L182.026 217.389ZM184.317 216.724L202.171 216.713L192.6 220.543L184.317 216.724ZM168.799 217.542L171.255 221.056L163.539 225.628L168.799 217.542ZM173.775 229.47L166.431 233.114L163.015 229.469L173.775 229.47ZM170.414 239.771L156.947 239.891L165.896 235.242L170.414 239.771ZM161.204 230.201L164.859 233.878L156.184 238.32L161.204 230.201ZM168.711 241.496L159.457 246.592L155.245 241.615L168.711 241.496ZM164.171 255.06L147.278 255.202L159.163 248.752L164.171 255.06ZM153.706 242.139L158.126 247.388L146.482 253.87L153.706 242.139ZM162.709 256.817L151.163 262.579L145.609 256.686L162.709 256.817ZM143.797 257.417L149.592 263.343L135.416 270.458L143.797 257.417ZM136.42 272.062L150.628 264.707L157.492 271.757C153.553 271.953 141.319 271.997 136.42 272.062ZM159.064 270.993L152.2 263.943L164.259 258.007L159.064 270.993ZM165.743 254.296L160.494 247.956L170.261 242.685L165.743 254.296ZM167.708 234.511L175.325 230.659L172.018 238.767L167.708 234.511ZM174.19 240.775L176.012 236.378L177.868 237.12C176.743 238.189 175.379 239.226 174.19 240.775ZM179.264 235.843L176.482 234.73L178.031 230.539L181.447 234.184C180.901 234.599 180.083 235.221 179.264 235.843ZM183.051 233.18L179.636 229.535L184.776 229.503L185.168 232.002C184.383 232.384 183.597 232.766 183.051 233.18ZM186.773 230.998L186.522 229.252L191.422 229.186C191.149 229.394 189.37 229.885 186.773 230.998ZM180.443 227.2L192.371 222.224L202.476 227.026L180.443 227.2ZM204.288 226.295L194.423 221.526L204.266 217.488L204.288 226.295ZM205.98 217.477L215.463 221.461L206.001 226.284L205.98 217.477ZM217.558 222.235L229.137 226.994L207.856 227.026L217.558 222.235ZM222.96 231.042C220.21 229.689 218.529 229.46 218.529 229.46L223.429 229.394L222.96 231.042ZM224.575 231.752L224.902 229.351L230.042 229.318L226.845 233.039C225.95 232.428 225.262 232.09 224.575 231.752ZM228.187 233.956L231.625 230.268L233.261 234.404L230.391 235.724C229.529 234.873 228.842 234.534 228.187 233.956ZM231.701 236.881L233.545 235.91L235.389 240.318C234.353 238.954 233.043 237.798 231.701 236.881ZM235.018 230.486L242.581 234.207L238.292 238.758L235.018 230.486ZM239.754 242.381L249.554 247.63L244.283 254.003L239.754 242.381ZM245.985 257.659L258.12 263.716L251.278 270.853L245.985 257.659ZM252.893 271.562L259.735 264.426L274.173 271.53C269.273 271.596 256.8 271.606 252.893 271.562Z" fill="#0A0A0A" fill-opacity="0.3"/>
<path d="M475.604 279.932L475.847 218.474L416.081 218.358L416.158 230.27L407.163 230.323L407.134 224.246L397.656 224.263L397.535 229.114L396.568 229.041L385.882 228.967L377.978 204.804L378.945 204.876L379.072 203.185L377.622 203.076L375.931 202.949L321.238 203.214L321.111 204.905L321.594 204.941L321.54 205.666L321.057 205.63L321.002 206.355L321.244 206.373L321.247 228.971L321.005 228.953L321.12 230.662L321.603 230.699L321.549 231.424L321.066 231.387L321.011 232.112L321.253 232.13L321.274 254.487L321.032 254.469L320.905 256.16L321.389 256.196L321.334 256.921L320.851 256.885L320.778 257.852L321.02 257.87L320.836 279.725L320.111 279.67L319.99 284.521L475.464 285.024L475.586 280.173L475.604 279.932ZM438.26 233.631C438.164 231.68 439.481 230.321 441.172 230.448C442.622 230.557 443.981 231.874 444.078 233.825L444.101 236.743L438.508 236.809L438.26 233.631ZM431.587 222.195L435.471 222.244L435.555 227.596L431.671 227.548L431.587 222.195ZM429.748 243.44L429.645 248.049L426.656 239.32C428.57 239.707 429.893 241.507 429.748 243.44ZM399.715 232.436L399.661 233.161L400.385 233.216L400.427 235.892L399.232 232.4L399.715 232.436ZM393.656 232.224L394.623 232.297L394.677 231.572L396.628 231.476L396.595 254.557L393.678 254.581L393.656 232.224ZM373.484 206.41L374.45 206.482L374.505 205.758L375.954 205.866L375.903 229.19L373.469 229.25L373.484 206.41ZM373.251 232.149L374.217 232.222L374.272 231.497L390.068 231.469L390.014 232.194L390.739 232.248L390.76 254.605L386.634 254.538L386.539 242.867C386.497 240.191 384.468 238.095 381.792 238.137C379.116 238.178 377.019 240.208 377.061 242.884L376.915 254.536L372.789 254.469L373.251 232.149ZM355.996 206.311L356.721 206.365L356.775 205.641L369.896 205.654L369.841 206.379L370.566 206.434L370.569 229.032L367.652 229.056L367.798 217.403C367.756 214.727 365.968 212.649 363.534 212.709C361.099 212.769 359.245 214.817 359.287 217.493L359.14 229.145L355.981 229.151L355.996 206.311ZM355.987 232.31L356.711 232.364L356.766 231.64L369.886 231.653L369.832 232.378L370.557 232.433L370.578 254.789L367.66 254.813L367.807 243.161C367.765 240.485 365.977 238.406 363.543 238.466C361.108 238.527 359.254 240.574 359.295 243.25L359.149 254.903L355.99 254.908L355.987 232.31ZM341.649 206.448L342.133 206.484L342.187 205.759L353.115 205.852L353.06 206.576L353.785 206.631L353.788 229.229L351.354 229.289L351.482 217.878C351.44 215.202 349.894 213.142 347.943 213.239C345.992 213.335 344.379 215.401 344.439 217.835L344.31 229.246L341.876 229.306L341.649 206.448ZM341.658 232.205L342.141 232.242L342.196 231.517L353.123 231.609L353.069 232.334L353.794 232.388L353.815 254.745L351.381 254.805L351.527 243.152C351.485 240.476 349.939 238.416 347.988 238.513C346.037 238.609 344.424 240.675 344.484 243.109L344.337 254.762L341.903 254.822L341.658 232.205ZM330.48 206.338L330.722 206.356L330.776 205.631L339.529 205.56L339.475 206.285L339.958 206.321L339.961 228.919L338.252 229.034L338.398 217.381C338.356 214.705 337.052 212.663 335.342 212.778C333.651 212.651 332.261 214.976 332.321 217.411L332.175 229.063L330.465 229.178L330.48 206.338ZM330.489 232.095L330.731 232.114L330.785 231.389L339.538 231.317L339.484 232.042L339.967 232.078L339.988 254.435L338.279 254.55L338.425 242.897C338.383 240.221 337.079 238.179 335.369 238.294C333.678 238.167 332.288 240.492 332.348 242.927L332.202 254.579L330.492 254.694L330.489 232.095ZM322.229 206.204L322.47 206.222L322.525 205.497L329.326 205.522L329.272 206.247L329.514 206.265L329.517 228.863L328.309 228.773L328.455 217.12C328.413 214.444 327.35 212.42 326.142 212.33C324.692 212.221 323.804 214.341 323.604 216.999L323.458 228.651L322.25 228.561L322.229 206.204ZM321.978 232.185L322.219 232.203L322.274 231.478L329.075 231.503L329.021 232.228L329.263 232.246L329.284 254.603L328.076 254.512L328.222 242.86C328.18 240.184 327.117 238.16 325.909 238.069C324.46 237.96 323.571 240.08 323.372 242.738L323.225 254.391L322.017 254.3L321.978 232.185ZM329.347 279.635L328.139 279.545L328.231 268.617C328.189 265.941 327.126 263.917 325.918 263.826C324.468 263.717 323.58 265.838 323.38 268.496L323.288 279.423L322.08 279.332L322.264 257.477L322.506 257.495L322.56 256.771L329.362 256.796L329.308 257.52L329.549 257.539L329.347 279.635ZM339.81 279.449L338.1 279.564L338.192 268.636C338.15 265.96 336.846 263.918 335.154 263.791C333.463 263.664 332.073 265.99 332.133 268.424L332.041 279.352L330.332 279.466L330.516 257.611L330.758 257.629L330.812 256.904L339.565 256.833L339.51 257.558L339.994 257.594L339.81 279.449ZM353.413 279.499L350.979 279.56L351.071 268.632C351.029 265.956 349.483 263.896 347.532 263.992C345.581 264.089 343.967 266.154 344.027 268.589L343.935 279.516L341.501 279.576L341.685 257.721L342.168 257.758L342.223 257.033L353.15 257.125L353.078 258.091L353.803 258.146L353.413 279.499ZM370.418 279.562L367.5 279.586L367.592 268.658C367.55 265.982 365.762 263.904 363.328 263.964C360.894 264.024 359.039 266.072 359.081 268.748L358.989 279.675L355.83 279.681L355.995 258.067L356.72 258.122L356.793 257.155L369.913 257.169L369.859 257.894L370.584 257.949L370.418 279.562ZM390.823 279.637L386.697 279.57L386.789 268.643C386.747 265.967 384.718 263.87 382.042 263.912C379.366 263.954 377.27 265.983 377.312 268.66L377.22 279.587L373.094 279.52L373.278 257.665L374.244 257.738L374.299 257.013L390.337 257.003L390.282 257.727L391.007 257.782L390.823 279.637ZM406.36 279.832L406.452 268.905C406.41 266.229 404.38 264.132 401.704 264.174C399.028 264.216 396.932 266.246 396.974 268.922L396.882 279.849L393.481 279.837L393.665 257.982L394.632 258.054L394.686 257.329L409.498 257.47L409.501 280.068L406.36 279.832ZM405.923 243.594L406.013 252.106L403.435 244.379L403.545 233.21L404.511 233.283L404.566 232.558L416.961 232.517L416.907 233.242L417.632 233.296L417.448 255.152L415.255 255.23L415.383 243.819C415.341 241.143 413.294 239.288 410.877 239.107C407.978 238.889 405.863 241.16 405.923 243.594ZM421.915 279.786L419.722 279.864L419.832 268.695C419.79 266.019 417.742 264.164 415.326 263.983C415.085 263.965 414.601 263.928 414.342 264.152L412.156 257.67L421.392 257.635L421.337 258.36L422.062 258.414L421.915 279.786ZM422.316 255.031L420.124 255.11L420.308 233.254L421.274 233.327L421.329 232.602L422.778 232.711L422.316 255.031ZM438.677 279.83L436.485 279.909L436.595 268.739C436.553 266.063 434.505 264.209 432.089 264.027C429.413 264.069 427.558 266.117 427.377 268.533L427.267 279.702L424.832 279.762L424.998 258.149L425.965 258.221L426.019 257.496L438.414 257.456L438.36 258.181L439.085 258.235L438.677 279.83ZM443.528 279.952L441.335 280.03L441.501 258.417L442.468 258.489L442.522 257.764L443.972 257.873L443.528 279.952ZM436.905 254.912L437.033 243.502C436.991 240.826 438.846 238.778 441.02 238.941C443.213 238.863 445.001 240.941 445.043 243.617L444.915 255.028L436.905 254.912ZM450.125 227.719L446.483 227.688L446.399 222.336L450.041 222.367L450.125 227.719ZM453.489 279.971L450.911 272.245L450.96 268.361C450.918 265.685 452.271 263.842 453.98 263.728C455.672 263.855 456.976 265.897 457.036 268.331L456.908 279.742L453.489 279.971ZM451.251 254.775L451.38 243.365C451.338 240.688 452.691 238.846 454.4 238.732C456.092 238.859 457.396 240.901 457.456 243.335L457.328 254.746L451.251 254.775ZM461.053 227.811L458.377 227.853L458.293 222.501L460.969 222.459L461.053 227.811ZM462.242 279.9L462.37 268.489C462.328 265.813 463.44 263.953 464.666 263.802C465.875 263.893 466.937 265.916 466.998 268.351L466.869 279.762L462.242 279.9ZM462.42 254.885L462.549 243.475C462.507 240.799 463.619 238.938 464.845 238.787C466.053 238.878 467.116 240.902 467.176 243.336L467.048 254.747L462.42 254.885ZM469.806 227.74L468.356 227.631L468.272 222.279L469.722 222.388L469.806 227.74ZM471.237 279.847L471.365 268.436C471.323 265.76 471.951 263.863 472.676 263.918C473.401 263.972 473.981 265.96 474.023 268.636L473.895 280.046L471.237 279.847ZM471.173 254.814L471.302 243.403C471.26 240.727 471.888 238.831 472.613 238.885C473.338 238.939 473.918 240.927 473.96 243.603L473.831 255.014L471.173 254.814ZM471.309 236.843L471.285 233.925C471.17 232.216 471.781 230.561 472.505 230.615C473.23 230.67 473.846 232.174 473.719 233.865L473.743 236.783L471.309 236.843ZM475.381 227.916L474.656 227.861L474.572 222.509L475.297 222.564L475.381 227.916Z" fill="#0A0A0A" fill-opacity="0.3"/>
<path d="M366.75 174.111L320.713 173.965L320.704 176.873L366.74 177.019L366.75 174.111Z" fill="#0A0A0A" fill-opacity="0.3"/>
<path d="M321.728 196.69L321.71 196.932L321.661 200.816L375.834 200.998L375.901 196.872L368.582 177.855L322.178 177.771L321.728 196.69ZM349.589 188.092C349.493 186.14 350.81 184.781 352.278 184.649C353.727 184.758 354.845 186.057 354.941 188.008L354.832 189.457L349.722 189.56L349.589 188.092ZM333.551 188.102C333.455 186.151 334.53 184.773 335.497 184.846C336.463 184.919 337.321 186.441 337.435 188.15L337.326 189.6L333.442 189.551L333.551 188.102ZM322.865 188.028C322.769 186.077 323.361 184.663 323.844 184.7C324.327 184.736 324.702 186.222 324.798 188.173L324.689 189.623L322.98 189.737L322.865 188.028Z" fill="#0A0A0A" fill-opacity="0.3"/>
<path d="M518.744 100.818L509.238 95.8422L518.958 101.554L519.191 101.805L531.541 95.9793L518.744 100.818Z" fill="#0A0A0A" fill-opacity="0.3"/>
<path d="M546.924 287.171L546.002 285.923L546.109 239.369C546.109 239.369 545.105 233.996 545.18 232.059C545.105 233.996 544.172 239.294 544.172 239.294L543.204 239.257L543.232 238.53L543.168 233.921L543.197 233.194L543.215 201.429L543.244 200.703L543.366 197.555L543.394 196.829L543.551 167.736L543.58 167.01L543.702 163.862L543.73 163.136L543.807 123.613L546.712 123.726L546.81 77.4147C546.81 77.4147 545.844 71.0726 545.928 68.8935C545.844 71.0726 544.873 77.3396 544.873 77.3396L543.905 77.3021C543.905 77.3021 534.132 60.4341 534.077 55.5822L534.25 38.6148L534.008 38.6054C534.008 38.6054 533.636 35.6812 533.674 34.7127C533.636 35.6812 533.281 38.5773 533.281 38.5773C533.281 38.5773 519.281 18.1506 519.435 1.6674C519.281 18.1506 505.4 38.4664 505.4 38.4664C505.4 38.4664 505.028 35.5422 505.066 34.5737C505.028 35.5422 504.673 38.4383 504.673 38.4383L504.431 38.4289L504.258 55.3963C504.303 60.4903 494.446 77.0823 494.446 77.0823L493.477 77.0448C493.477 77.0448 492.511 70.7026 492.595 68.5235C492.511 70.7026 491.54 76.9697 491.54 76.9697L491.442 123.281L494.348 123.394L494.271 162.916L494.243 163.643L494.121 166.79L494.093 167.517L493.935 196.609L493.907 197.335L493.785 200.483L493.756 201.209L493.738 232.974L493.709 233.701L493.773 238.31L493.745 239.037L492.777 238.999C492.777 238.999 491.772 233.626 491.848 231.689C491.772 233.626 490.84 238.924 490.84 238.924L490.732 285.478L489.717 286.651L489.678 293.924L546.894 294.202L546.924 287.171ZM540.011 265.322L533.222 265.301L533.159 260.691L539.947 260.712L540.011 265.322ZM540.047 239.377L539.976 259.985L533.187 259.965L533.258 239.356L540.047 239.377ZM536.928 238.528L533.286 238.63L533.222 234.02L536.864 233.919L536.928 238.528ZM536.892 233.192L533.251 233.294L533.27 201.528L536.911 201.427L536.892 233.192ZM536.939 200.701L533.298 200.802L533.42 197.654L537.061 197.553L536.939 200.701ZM537.089 196.827L533.448 196.928L533.606 167.836L537.247 167.734L537.089 196.827ZM503.089 166.895L499.941 166.773L500.063 163.626L503.211 163.748L503.089 166.895ZM503.149 121.552L503.076 117.185L504.305 116.748L505.497 117.279L505.57 121.646L503.149 121.552ZM503.06 167.622L502.903 196.714L499.755 196.592L499.913 167.5L503.06 167.622ZM522.538 121.819L522.464 117.451L523.694 117.014L524.886 117.545L524.959 121.913L522.538 121.819ZM522.487 166.92L518.845 167.021L518.967 163.873L522.609 163.772L522.487 166.92ZM522.47 129.819L522.395 163.036L518.754 163.138L518.829 129.92L522.47 129.819ZM517.635 166.974L514.245 166.843L514.367 163.695L517.757 163.827L517.635 166.974ZM517.695 121.631L517.622 117.264L518.851 116.826L520.043 117.358L520.116 121.725L517.695 121.631ZM517.87 129.64L517.794 162.858L514.405 162.727L514.48 129.509L517.87 129.64ZM505.162 238.509L505.099 233.9L507.762 234.003L507.826 238.613L505.162 238.509ZM507.798 239.339L507.726 259.948L505.063 259.845L505.134 239.236L507.798 239.339ZM509.057 200.59L509.179 197.442L512.085 197.555L511.963 200.703L509.057 200.59ZM512.028 167.727L511.871 196.819L508.965 196.707L509.123 167.614L512.028 167.727ZM509.151 166.888L509.273 163.74L512.179 163.853L512.057 167L509.151 166.888ZM512.843 121.686L512.77 117.318L513.999 116.881L515.191 117.412L515.264 121.78L512.843 121.686ZM511.974 162.875L509.069 162.762L509.144 129.544L512.049 129.657L511.974 162.875ZM507.941 166.841L505.277 166.738L505.399 163.59L508.063 163.693L507.941 166.841ZM507.991 121.74L507.918 117.373L509.148 116.935L510.339 117.466L510.413 121.834L507.991 121.74ZM508.166 129.749L508.091 162.967L505.427 162.864L505.503 129.646L508.166 129.749ZM502.875 197.44L502.753 200.588L499.605 200.466L499.727 197.318L502.875 197.44ZM502.967 201.324L502.948 233.089L499.8 232.967L499.819 201.202L502.967 201.324ZM502.919 233.815L502.983 238.425L499.836 238.303L499.772 233.693L502.919 233.815ZM505.24 167.706L507.903 167.809L507.745 196.902L505.082 196.799L505.24 167.706ZM507.969 197.395L507.847 200.543L505.183 200.44L505.305 197.292L507.969 197.395ZM507.818 201.269L507.799 233.035L505.136 232.931L505.155 201.166L507.818 201.269ZM505.035 260.571L507.698 260.674L507.762 265.284L505.098 265.181L505.035 260.571ZM509.029 201.316L511.934 201.429L511.916 233.194L509.01 233.081L509.029 201.316ZM511.645 233.911L511.709 238.521L508.804 238.408L508.74 233.798L511.645 233.911ZM514.217 167.569L517.607 167.701L517.449 196.793L514.059 196.662L514.217 167.569ZM517.421 197.519L517.299 200.667L513.909 200.536L514.031 197.388L517.421 197.519ZM518.817 167.747L522.459 167.646L522.301 196.738L518.66 196.84L518.817 167.747ZM528.457 163.029L528.532 129.811L531.438 129.924L531.363 163.141L528.457 163.029ZM531.335 163.868L531.213 167.015L528.307 166.903L528.429 163.755L531.335 163.868ZM527.339 166.865L524.675 166.762L524.797 163.614L527.461 163.718L527.339 166.865ZM527.147 121.755L527.074 117.388L528.304 116.95L529.495 117.481L529.569 121.849L527.147 121.755ZM527.322 129.764L527.247 162.982L524.583 162.879L524.658 129.661L527.322 129.764ZM522.273 197.465L522.151 200.612L518.509 200.714L518.631 197.566L522.273 197.465ZM522.365 201.348L522.346 233.113L518.704 233.215L518.723 201.45L522.365 201.348ZM522.075 233.83L522.139 238.44L518.498 238.541L518.434 233.932L522.075 233.83ZM524.638 167.731L527.301 167.834L527.143 196.926L524.48 196.823L524.638 167.731ZM527.125 197.41L527.002 200.558L524.339 200.455L524.461 197.307L527.125 197.41ZM528.521 167.639L531.427 167.751L531.269 196.844L528.363 196.731L528.521 167.639ZM531.241 197.57L531.119 200.718L528.213 200.605L528.335 197.457L531.241 197.57ZM531.09 201.444L531.072 233.209L528.166 233.097L528.185 201.331L531.09 201.444ZM531.043 233.936L531.107 238.545L528.202 238.433L528.138 233.823L531.043 233.936ZM537.033 166.999L533.392 167.1L533.514 163.952L537.155 163.851L537.033 166.999ZM537.183 163.125L533.542 163.226L533.617 130.008L537.258 129.907L537.183 163.125ZM534.42 121.795L531.999 121.701L531.926 117.333L533.155 116.896L534.347 117.427L534.42 121.795ZM533.428 78.5934L534.601 79.6088L534.674 83.9764L532.253 83.8826L532.18 79.515L533.428 78.5934ZM529.822 84.0308L527.401 83.937L527.328 79.5694L528.585 78.4057L529.758 79.4211L529.822 84.0308ZM528.735 43.2508L529.89 44.7505L529.756 54.4448L527.335 54.351L527.469 44.6566L528.735 43.2508ZM524.97 84.0853L522.549 83.9914L522.476 79.6238L523.733 78.4601L524.906 79.4755L524.97 84.0853ZM523.884 43.3052L525.038 44.8049L524.905 54.4992L522.483 54.4054L522.617 44.711L523.884 43.3052ZM520.128 83.8975L517.706 83.8037L517.633 79.4361L518.891 78.2724L520.064 79.2878L520.128 83.8975ZM519.032 43.3596L520.186 44.8593L520.053 54.5536L517.632 54.4598L517.765 44.7654L519.032 43.3596ZM515.276 83.9519L512.855 83.8581L512.781 79.4905L514.039 78.3268L515.212 79.3422L515.276 83.9519ZM514.189 43.1719L515.344 44.6716L515.21 54.3659L512.789 54.2721L512.922 44.5777L514.189 43.1719ZM510.424 84.0064L508.003 83.9125L507.93 79.5449L509.187 78.3812L510.36 79.3966L510.424 84.0064ZM509.337 43.2263L510.492 44.726L510.358 54.4203L507.937 54.3265L508.07 44.6322L509.337 43.2263ZM519.056 86.5233C526.571 86.5722 532.874 92.8787 532.825 100.394C532.776 107.909 526.47 114.212 518.955 114.163C511.439 114.114 505.137 107.808 505.185 100.292C505.244 92.5351 511.541 86.4745 519.056 86.5233ZM504.335 78.4356L505.508 79.451L505.582 83.8187L503.16 83.7248L503.087 79.3572L504.335 78.4356ZM503.314 129.803L503.239 163.021L500.091 162.899L500.166 129.681L503.314 129.803ZM496.651 239.15L502.955 239.151L502.884 259.76L496.579 259.758L496.651 239.15ZM496.542 260.727L502.846 260.729L502.91 265.338L496.605 265.336L496.542 260.727ZM496.335 266.053L502.64 266.055L502.606 285.695L496.301 285.694L496.335 266.053ZM504.785 285.78L504.819 266.14L507.482 266.243L507.448 285.883L504.785 285.78ZM508.766 239.377L511.672 239.489L511.6 260.098L508.695 259.985L508.766 239.377ZM508.667 260.712L511.572 260.824L511.636 265.434L508.73 265.321L508.667 260.712ZM508.659 285.93L508.693 266.29L511.598 266.403L511.564 286.043L508.659 285.93ZM514.123 201.271L517.513 201.403L517.494 233.168L514.104 233.036L514.123 201.271ZM514.067 234.005L517.456 234.136L517.52 238.746L514.13 238.615L514.067 234.005ZM513.86 239.332L517.25 239.463L517.178 260.072L513.789 259.94L513.86 239.332ZM513.761 260.667L517.15 260.798L517.214 265.408L513.824 265.276L513.761 260.667ZM513.753 285.885L513.787 266.245L517.177 266.376L517.143 286.017L513.753 285.885ZM518.47 239.268L522.111 239.166L522.04 259.775L518.398 259.876L518.47 239.268ZM518.37 260.603L522.011 260.502L522.075 265.111L518.434 265.213L518.37 260.603ZM518.363 285.821L518.397 266.181L522.038 266.08L522.004 285.72L518.363 285.821ZM524.544 201.433L527.207 201.536L527.188 233.301L524.525 233.198L524.544 201.433ZM524.497 233.924L527.16 234.027L527.224 238.637L524.56 238.534L524.497 233.924ZM524.29 239.251L526.954 239.354L526.882 259.963L524.219 259.86L524.29 239.251ZM524.433 260.595L527.096 260.699L527.16 265.308L524.497 265.205L524.433 260.595ZM524.183 285.804L524.217 266.164L526.88 266.267L526.846 285.908L524.183 285.804ZM528.164 239.401L531.07 239.514L530.998 260.122L528.093 260.01L528.164 239.401ZM528.065 260.736L530.97 260.849L531.034 265.459L528.128 265.346L528.065 260.736ZM528.1 266.072L531.006 266.185L530.972 285.825L528.066 285.712L528.1 266.072ZM533.151 285.91L533.185 266.269L539.974 266.29L539.94 285.93L533.151 285.91Z" fill="#0A0A0A" fill-opacity="0.3"/>
<path d="M571.715 200.402L570.988 200.397L570.981 201.366L570.911 210.816L694.249 210.755L694.318 201.305L694.326 200.336L693.599 200.331L693.658 192.335L697.777 192.365L697.786 191.154L568.148 191.168L568.14 192.379L571.532 192.404L571.715 200.402ZM689.054 192.301L688.995 200.297L687.783 200.288L687.842 192.292L689.054 192.301ZM686.389 192.281L686.33 200.277L685.118 200.268L685.177 192.272L686.389 192.281ZM673.545 192.429L673.486 200.425L672.275 200.416L672.333 192.42L673.545 192.429ZM670.88 192.409L670.821 200.405L669.609 200.396L669.668 192.4L670.88 192.409ZM658.038 192.315L657.979 200.311L656.767 200.302L656.826 192.306L658.038 192.315ZM655.373 192.295L655.314 200.291L654.102 200.282L654.161 192.286L655.373 192.295ZM642.771 192.445L642.712 200.441L641.501 200.432L641.56 192.436L642.771 192.445ZM639.864 192.423L639.805 200.419L638.593 200.41L638.652 192.414L639.864 192.423ZM627.264 192.33L627.205 200.326L625.994 200.317L626.053 192.321L627.264 192.33ZM624.599 192.311L624.54 200.307L623.328 200.298L623.387 192.302L624.599 192.311ZM611.755 192.458L611.696 200.454L610.485 200.445L610.544 192.449L611.755 192.458ZM609.09 192.439L609.031 200.435L607.819 200.426L607.878 192.43L609.09 192.439ZM596.248 192.344L596.189 200.34L594.978 200.331L595.037 192.335L596.248 192.344ZM593.583 192.325L593.524 200.32L592.312 200.311L592.371 192.316L593.583 192.325ZM580.739 192.472L580.68 200.468L579.469 200.459L579.528 192.463L580.739 192.472ZM578.074 192.453L578.015 200.448L576.803 200.44L576.862 192.444L578.074 192.453Z" fill="#0A0A0A" fill-opacity="0.3"/>
<path d="M697.825 185.823L693.221 185.789L687.178 183.806L678.215 183.498L673.852 183.708L670.969 180.294L665.389 181.223L659.845 177.305L659.593 178.514L654.767 175.813L651.378 175.304L649.212 173.349L645.56 175.746L643.149 174.032L640.73 173.529L639.989 175.462L635.645 173.007L633.513 166.449L633.028 166.445L622.34 170.001L621.585 173.873L618.697 171.186L603.881 175.923L602.413 177.851L599.751 177.347L583.72 182.559L583.248 180.86L585.192 180.147L584.23 179.171L584.725 177.721L568.448 183.416L568.43 185.839L568.407 188.989L698.044 188.975L697.825 185.823Z" fill="#0A0A0A" fill-opacity="0.3"/>
<path d="M696.465 271.874L569.251 271.87L569.251 275.262L696.465 275.266L696.465 271.874Z" fill="#0A0A0A" fill-opacity="0.3"/>
<path d="M702.964 277.688L563.392 277.687L563.392 281.08L702.964 281.08L702.964 277.688Z" fill="#0A0A0A" fill-opacity="0.3"/>
<path d="M704.859 283.527L559.713 283.669L558.259 283.658L558.175 295.046L559.629 295.057L704.775 294.915L706.471 294.927L706.313 283.538L704.859 283.527Z" fill="#0A0A0A" fill-opacity="0.3"/>
<path d="M573.399 267.777L573.391 268.989L584.296 268.827L584.305 267.615L583.578 267.61L582.747 215.991L583.231 215.995L583.238 215.025L583.723 215.029L583.726 214.544L584.211 214.548L584.224 212.852L573.561 213.016L573.548 214.712L574.033 214.715L574.029 215.2L574.756 215.205L574.751 215.932L574.993 215.934L574.126 267.782L573.399 267.777Z" fill="#0A0A0A" fill-opacity="0.3"/>
<path d="M588.908 267.649L588.9 268.86L599.803 268.941L599.812 267.729L599.085 267.724L598.254 216.105L598.738 216.109L598.745 215.14L599.23 215.143L599.234 214.659L599.718 214.662L599.731 212.966L589.07 212.888L589.057 214.584L589.542 214.587L589.538 215.072L590.265 215.077L590.258 216.046L590.5 216.048L589.635 267.654L588.908 267.649Z" fill="#0A0A0A" fill-opacity="0.3"/>
<path d="M604.416 267.763L604.407 268.975L615.312 268.813L615.321 267.601L614.352 267.594L613.52 215.976L614.005 215.979L614.01 215.252L614.737 215.258L614.743 214.531L615.227 214.534L615.24 212.838L604.334 213L604.564 214.698L604.807 214.7L604.803 215.184L605.53 215.19L605.523 216.159L605.767 215.919L604.9 267.767L604.416 267.763Z" fill="#0A0A0A" fill-opacity="0.3"/>
<path d="M619.682 267.634L619.673 268.845L630.819 268.927L630.586 267.714L629.859 267.709L629.028 216.09L629.512 216.094L629.519 215.124L630.246 215.13L630.25 214.645L630.734 214.649L630.747 212.953L619.843 212.872L619.831 214.568L620.316 214.572L620.312 215.056L621.039 215.062L621.032 216.031L621.274 216.033L620.409 267.639L619.682 267.634Z" fill="#0A0A0A" fill-opacity="0.3"/>
<path d="M635.189 267.748L635.18 268.959L646.086 268.797L646.095 267.586L645.125 267.579L644.536 215.962L645.021 215.966L645.026 215.239L645.753 215.244L645.759 214.517L646.001 214.519L646.013 212.823L635.35 212.987L635.338 214.683L635.823 214.686L635.819 215.171L636.546 215.176L636.539 216.145L636.781 216.147L635.916 267.753L635.189 267.748Z" fill="#0A0A0A" fill-opacity="0.3"/>
<path d="M650.698 267.62L650.689 268.831L661.593 268.912L661.602 267.7L660.633 267.693L659.801 216.074L660.528 216.08L660.535 215.111L661.02 215.114L661.023 214.629L661.508 214.633L661.521 212.937L650.859 212.858L650.847 214.555L651.332 214.558L651.328 215.043L652.055 215.048L652.048 216.017L651.183 267.623L650.698 267.62Z" fill="#0A0A0A" fill-opacity="0.3"/>
<path d="M666.205 267.734L666.197 268.946L677.102 268.784L677.111 267.572L676.142 267.565L675.31 215.946L675.795 215.95L675.8 215.223L676.527 215.228L676.532 214.501L677.017 214.505L677.028 213.051L666.367 212.973L666.354 214.669L666.839 214.672L666.835 215.157L667.32 215.161L667.313 216.13L667.555 216.132L666.69 267.738L666.205 267.734Z" fill="#0A0A0A" fill-opacity="0.3"/>
<path d="M681.714 267.606L681.705 268.817L692.609 268.898L692.618 267.686L691.649 267.679L690.817 216.061L691.302 216.064L691.309 215.095L692.036 215.1L692.04 214.616L692.524 214.619L692.537 212.923L681.633 212.843L681.621 214.539L682.105 214.543L682.102 215.027L682.829 215.032L682.822 216.002L683.064 216.003L682.199 267.61L681.714 267.606Z" fill="#0A0A0A" fill-opacity="0.3"/>
<path d="M713.756 290.81L713.854 294.201L775.914 294.349L775.816 290.958L769.996 290.883L772.154 264.884L772.699 258.565L773.917 258.773L774.096 256.586L721.363 252.048L721.184 254.235L721.91 254.214L721.366 260.532L718.607 290.913L713.756 290.81ZM732.542 261.422L729.755 290.833L720.544 290.857L723.31 260.719C723.475 258.047 725.849 256.282 728.278 256.454C730.707 256.626 732.714 258.993 732.542 261.422ZM745.179 262.511L742.841 290.698L733.146 290.735L735.94 261.566C736.105 258.895 738.478 257.129 740.907 257.302C743.585 257.709 745.351 260.082 745.179 262.511ZM757.815 263.601L755.692 290.812L745.997 290.849L748.341 262.905C748.507 260.233 750.88 258.468 753.309 258.64C756.222 258.799 757.987 261.172 757.815 263.601ZM768.301 290.932L759.332 290.949L761.462 263.98C761.628 261.309 764.001 259.544 766.43 259.716C769.101 259.881 770.866 262.254 770.694 264.683L768.301 290.932Z" fill="#0A0A0A" fill-opacity="0.3"/>
<path d="M734.652 99.433L787.386 103.971L787.565 101.784L782.465 101.446L784.106 82.7335L784.679 77.3839L750.9 74.4808L742.395 73.7567L741.822 79.1062L740.181 97.8189L734.832 97.2461L734.652 99.433ZM757.615 80.3471L755.973 99.0598L752.326 98.6803L753.395 85.317C753.581 83.3724 752.072 81.4767 749.885 81.2975C747.94 81.1112 746.045 82.6204 745.865 84.8072L744.797 98.1704L741.15 97.7909L742.791 79.0782C742.984 77.3758 744.403 76.1228 746.105 76.3161C747.808 76.5093 749.061 77.9276 748.867 79.63L750.085 79.8372L751.303 80.0445C751.497 78.3421 752.915 77.0891 754.617 77.2823C756.548 76.9842 757.808 78.6446 757.615 80.3471ZM766.12 81.0711L764.478 99.7838L758.402 99.232L760.044 80.5193C760.237 78.8169 761.655 77.5639 763.358 77.7572C764.818 77.9574 766.071 79.3757 766.12 81.0711ZM781.247 101.239L777.599 100.859L778.668 87.4962C778.854 85.5515 777.345 83.6559 775.158 83.4766C773.214 83.2904 771.318 84.7995 771.139 86.9864L770.07 100.35L766.423 99.9701L768.064 81.2574C768.258 79.5549 769.676 78.302 771.378 78.4952C773.081 78.6885 774.334 80.1067 774.14 81.8092L776.327 81.9884C776.521 80.286 777.939 79.033 779.641 79.2263C781.344 79.4195 782.597 80.8378 782.403 82.5402L781.247 101.239Z" fill="#0A0A0A" fill-opacity="0.3"/>
<path d="M731.383 137.343L784.117 141.881L784.296 139.694L783.327 139.722L785.9 111.286L786.472 105.936L752.694 103.033L735.684 101.585C735.684 101.585 735.297 104.99 735.346 106.685L732.774 135.121L731.805 135.149L731.383 137.343ZM742.156 107.458L739.583 135.894L733.507 135.342L736.08 106.907C736.273 105.204 737.691 103.951 739.394 104.144C741.096 104.338 742.349 105.756 742.156 107.458ZM750.661 108.182L748.089 136.618L742.012 136.066L744.585 107.631C744.778 105.928 746.197 104.675 747.899 104.868C749.601 105.062 750.854 106.48 750.661 108.182ZM759.166 108.906L756.594 137.342L750.518 136.79L753.09 108.355C753.283 106.652 754.702 105.399 756.404 105.592C758.107 105.786 759.36 107.204 759.166 108.906ZM767.671 109.63L765.099 138.066L759.023 137.515L761.595 109.079C761.789 107.376 763.207 106.123 764.909 106.317C766.369 106.517 767.865 107.928 767.671 109.63ZM775.934 110.362L773.362 138.797L767.286 138.246L769.858 109.81C770.051 108.107 771.47 106.854 773.172 107.048C774.875 107.241 776.128 108.659 775.934 110.362ZM782.109 139.514L776.033 138.963L778.363 110.534C778.557 108.831 779.975 107.578 781.677 107.772C783.38 107.965 784.633 109.383 784.439 111.086L782.109 139.514Z" fill="#0A0A0A" fill-opacity="0.3"/>
<path d="M728.129 175.737L780.862 180.275L781.041 178.088L780.065 177.874L782.631 149.196L783.204 143.846L749.426 140.943L732.415 139.495C732.415 139.495 732.029 142.9 732.078 144.595L729.519 173.515L728.55 173.543L728.129 175.737ZM738.887 145.368L736.329 174.288L730.253 173.736L732.818 145.058C733.012 143.356 734.43 142.103 736.132 142.296C737.828 142.247 739.081 143.666 738.887 145.368ZM747.393 146.092L744.834 175.012L738.758 174.461L741.323 145.783C741.517 144.08 742.935 142.827 744.637 143.02C746.333 142.971 747.586 144.39 747.393 146.092ZM755.905 147.058L753.339 175.736L747.263 175.185L749.822 146.264C750.015 144.562 751.433 143.309 753.136 143.502C754.838 143.695 756.098 145.356 755.905 147.058ZM764.168 147.789L761.602 176.467L755.526 175.916L758.092 147.238C758.285 145.535 759.703 144.282 761.405 144.475C763.101 144.426 764.361 146.087 764.168 147.789ZM772.666 148.271L770.107 177.191L764.031 176.64L766.597 147.962C766.79 146.259 768.208 145.006 769.911 145.2C771.606 145.151 772.866 146.811 772.666 148.271ZM778.612 177.915L772.536 177.364L775.102 148.686C775.295 146.983 776.713 145.73 778.416 145.924C780.118 146.117 781.371 147.535 781.178 149.237L778.612 177.915Z" fill="#0A0A0A" fill-opacity="0.3"/>
<path d="M772.103 254.704L774.647 225.299C774.841 223.597 773.588 222.179 771.885 221.985C770.183 221.792 768.765 223.045 768.571 224.747L766.027 254.152L763.84 253.973L766.384 224.568C766.578 222.866 765.325 221.448 763.622 221.254C761.92 221.061 760.502 222.314 760.308 224.016L757.764 253.421L755.577 253.242L758.122 223.837C758.315 222.135 757.062 220.717 755.359 220.523C753.657 220.33 752.239 221.583 752.045 223.285L749.501 252.69L747.314 252.511L749.859 223.106C750.052 221.404 748.799 219.985 747.096 219.792C745.394 219.599 743.976 220.852 743.783 222.554L741.238 251.959L739.051 251.78L741.596 222.375C741.789 220.673 740.536 219.254 738.834 219.061C737.131 218.868 735.713 220.121 735.52 221.823L732.975 251.228L730.788 251.049L733.333 221.644C733.526 219.942 732.273 218.523 730.571 218.33C728.868 218.137 727.45 219.39 727.257 221.092L724.712 250.497L723.494 250.29L726.039 220.885C726.232 219.183 726.376 215.785 726.376 215.785L743.386 217.233L777.165 220.136L776.592 225.486L774.047 254.89L772.103 254.704Z" fill="#0A0A0A" fill-opacity="0.3"/>
<path d="M724.611 213.412L777.344 217.949L777.523 215.763L776.555 215.79L779.127 187.355L779.7 182.005L745.922 179.102L728.911 177.654C728.911 177.654 728.525 181.059 728.574 182.754L726.008 211.432L725.039 211.46L724.611 213.412ZM735.626 183.52L733.06 212.198L726.977 211.404L729.55 182.968C729.743 181.266 731.161 180.013 732.864 180.206C734.566 180.4 735.819 181.818 735.626 183.52ZM744.131 184.244L741.558 212.68L735.482 212.128L738.055 183.692C738.248 181.99 739.666 180.737 741.369 180.93C742.829 181.131 744.082 182.549 744.131 184.244ZM752.636 184.968L750.063 213.404L743.987 212.852L746.56 184.417C746.753 182.714 748.171 181.461 749.874 181.654C751.334 181.855 752.587 183.273 752.636 184.968ZM760.899 185.699L758.326 214.135L752.25 213.583L754.823 185.148C755.016 183.445 756.434 182.192 758.137 182.385C759.839 182.579 761.092 183.997 760.899 185.699ZM769.404 186.423L766.831 214.859L760.755 214.307L763.328 185.872C763.521 184.169 764.94 182.916 766.642 183.109C768.344 183.303 769.597 184.721 769.404 186.423ZM775.337 215.583L769.26 215.031L771.833 186.596C772.026 184.893 773.445 183.64 775.147 183.834C776.85 184.027 778.102 185.445 777.909 187.147L775.337 215.583Z" fill="#0A0A0A" fill-opacity="0.3"/>
<path d="M753.335 260.532L749.439 263.805L752.711 267.701L756.607 264.429L753.335 260.532Z" fill="#0A0A0A" fill-opacity="0.3"/>
<path d="M740.736 259.475L736.84 262.748L740.113 266.644L744.009 263.371L740.736 259.475Z" fill="#0A0A0A" fill-opacity="0.3"/>
<path d="M728.061 258.341L724.164 261.613L727.436 265.51L731.333 262.238L728.061 258.341Z" fill="#0A0A0A" fill-opacity="0.3"/>
<path d="M765.997 261.675L762.099 264.946L765.369 268.844L769.267 265.574L765.997 261.675Z" fill="#0A0A0A" fill-opacity="0.3"/>
<path d="M741.881 70.1715L741.695 72.3444L785.394 76.0801L785.579 73.9072L741.881 70.1715Z" fill="#0A0A0A" fill-opacity="0.3"/>
</svg>
