<svg width="40" height="40" viewBox="0 0 40 40" fill="none" xmlns="http://www.w3.org/2000/svg">
<path d="M30.5979 9.50178C27.8897 6.79135 24.2882 5.29791 20.4509 5.29639C12.5446 5.29639 6.10977 11.7287 6.1066 19.6351C6.10559 22.1624 6.76609 24.6294 8.02133 26.804L5.98633 34.2348L13.5904 32.2408C15.6856 33.3831 18.0444 33.9851 20.4452 33.9862H20.4511C28.3566 33.9862 34.792 27.553 34.7952 19.6465C34.7968 15.815 33.3061 12.2122 30.5979 9.50178V9.50178ZM20.4511 31.5643H20.4462C18.3069 31.5635 16.2086 30.989 14.3781 29.903L13.9427 29.6447L9.43031 30.8281L10.6348 26.4299L10.3512 25.979C9.15777 24.0814 8.52746 21.888 8.5284 19.6361C8.53098 13.0646 13.8794 7.71826 20.4557 7.71826C23.6401 7.71947 26.6336 8.96088 28.8846 11.2137C31.1355 13.4664 32.3745 16.461 32.3733 19.6456C32.3707 26.2176 27.0224 31.5643 20.4511 31.5643V31.5643ZM26.9907 22.6379C26.6323 22.4586 24.8702 21.5918 24.5416 21.4722C24.2131 21.3526 23.9742 21.2928 23.7352 21.6516C23.4963 22.0103 22.8095 22.8173 22.6003 23.0564C22.3913 23.2956 22.1822 23.3255 21.8238 23.1461C21.4654 22.9668 20.3105 22.5884 18.9415 21.3678C17.8761 20.4178 17.1567 19.2444 16.9477 18.8856C16.7386 18.5269 16.9254 18.333 17.1048 18.1544C17.2661 17.9938 17.4632 17.7359 17.6425 17.5267C17.8216 17.3175 17.8814 17.1679 18.0009 16.9288C18.1204 16.6897 18.0606 16.4804 17.971 16.3011C17.8814 16.1218 17.1646 14.3582 16.8659 13.6408C16.575 12.9421 16.2795 13.0367 16.0595 13.0257C15.8506 13.0153 15.6114 13.0131 15.3725 13.0131C15.1336 13.0131 14.7453 13.1028 14.4168 13.4615C14.0883 13.8202 13.1624 14.687 13.1624 16.4506C13.1624 18.2141 14.4466 19.9179 14.6259 20.157C14.8051 20.3962 17.1532 24.0153 20.7486 25.5672C21.6037 25.9364 22.2713 26.1569 22.7918 26.322C23.6504 26.5946 24.4318 26.5562 25.0494 26.464C25.738 26.3611 27.1698 25.5972 27.4686 24.7603C27.7673 23.9233 27.7673 23.2059 27.6777 23.0565C27.588 22.907 27.3491 22.8173 26.9907 22.6379V22.6379Z" fill="#0A0A0A" fill-opacity="0.75"/>
</svg>
